<svg width="460" height="712" viewBox="0 0 460 712" fill="none" xmlns="http://www.w3.org/2000/svg">
<rect width="460" height="712" rx="20" fill="white"/>
<path d="M403.84 51.4771C405.114 52.3501 406.72 53.394 407.9 53.9681C408.323 54.1735 408.811 54.1735 409.234 53.9681C410.415 53.394 412.02 52.3501 413.294 51.4771C414.366 50.7428 415.949 51.1319 416.819 52.0962C417.786 53.1675 419.314 54.4419 421.621 55.3918C424.307 56.4979 426.783 57.3016 428.454 57.7837C429.413 58.0601 430.071 58.969 429.963 59.9605C428.954 69.1639 425.665 86.2529 419.067 92.8505C414.832 97.0857 412.097 98.9983 410.467 99.7263C409.458 100.177 407.676 100.177 406.667 99.7263C405.037 98.9983 402.302 97.0857 398.067 92.8505C391.47 86.2529 388.181 69.1639 387.172 59.9605C387.063 58.969 387.722 58.0601 388.68 57.7837C390.351 57.3016 392.827 56.4979 395.513 55.3918C397.82 54.4419 399.349 53.1675 400.315 52.0962C401.185 51.1319 402.769 50.7428 403.84 51.4771Z" fill="url(#paint0_radial_384_3895)" stroke="black" stroke-width="2"/>
<path d="M401.667 71.7291C401.069 66.6313 400.12 61.079 399.495 57.8406C402.828 70.2307 404.334 74.7973 406.026 80.6253C406.235 81.3443 406.204 82.1096 406.114 82.853C405.788 85.5574 408.144 84.0648 410.577 81.8273C411.719 80.7762 413.676 81.5401 413.676 83.0927C413.676 83.6884 413.362 84.2401 412.85 84.545L408.702 87.0165C404.08 89.7698 398.136 88.4412 395.078 84.0426C394.938 83.8835 394.799 83.6984 394.662 83.4858C393.853 82.2262 394.145 82.6484 394.965 83.8763C395.002 83.9322 395.04 83.9876 395.078 84.0426C398.314 87.7175 402.348 77.5261 401.667 71.7291Z" fill="#FF7A00"/>
<path d="M415.018 80.3221C413.968 75.0824 415.317 62.3425 416.122 56.6274C412.976 70.1339 411.551 74.593 409.885 81.1578C408.552 86.4097 410.132 91.0225 411.088 92.6724C412.836 90.7388 416.069 85.5618 415.018 80.3221Z" fill="#FF7A00"/>
<path d="M403.84 123.076C405.114 123.949 406.72 124.993 407.9 125.567C408.323 125.772 408.811 125.772 409.234 125.567C410.415 124.993 412.02 123.949 413.294 123.076C414.366 122.341 415.949 122.731 416.819 123.695C417.786 124.766 419.314 126.041 421.621 126.99C424.307 128.097 426.783 128.9 428.454 129.382C429.413 129.659 430.071 130.568 429.963 131.559C428.954 140.763 425.665 157.852 419.067 164.449C414.832 168.684 412.097 170.597 410.467 171.325C409.458 171.775 407.676 171.775 406.667 171.325C405.037 170.597 402.302 168.684 398.067 164.449C391.47 157.852 388.181 140.763 387.172 131.559C387.063 130.568 387.722 129.659 388.68 129.382C390.351 128.9 392.827 128.097 395.513 126.99C397.82 126.041 399.349 124.766 400.315 123.695C401.185 122.731 402.769 122.341 403.84 123.076Z" fill="url(#paint1_radial_384_3895)" stroke="black" stroke-width="2"/>
<path d="M401.667 143.328C401.069 138.23 400.12 132.678 399.495 129.439C402.828 141.829 404.334 146.396 406.026 152.224C406.235 152.943 406.204 153.708 406.114 154.452C405.788 157.156 408.144 155.663 410.577 153.426C411.719 152.375 413.676 153.139 413.676 154.691C413.676 155.287 413.362 155.839 412.85 156.144L408.702 158.615C404.08 161.368 398.136 160.04 395.078 155.641C394.938 155.482 394.799 155.297 394.662 155.084C393.853 153.825 394.145 154.247 394.965 155.475C395.002 155.531 395.04 155.586 395.078 155.641C398.314 159.316 402.348 149.125 401.667 143.328Z" fill="#FF7A00"/>
<path d="M415.018 151.921C413.968 146.681 415.317 133.941 416.122 128.226C412.976 141.733 411.551 146.192 409.885 152.756C408.552 158.008 410.132 162.621 411.088 164.271C412.836 162.337 416.069 157.16 415.018 151.921Z" fill="#FF7A00"/>
<path d="M182.419 345.228C190.666 342.631 202.242 333.327 207 329C198.806 359.833 181.627 422.715 178.455 427.584C174.49 433.669 152.289 443 140.791 443C129.294 443 156.65 378.089 162.596 363.484C168.543 348.879 172.112 348.473 182.419 345.228Z" fill="#FF9B04" stroke="black" stroke-width="2"/>
<path d="M214.128 263.439C214.779 249.017 243.121 233.392 257.21 227.383C300.292 219.188 305.576 249.508 310.047 263.439C313.623 274.584 334.839 359.044 345 399.881L327.57 491.825C327.586 491.898 327.567 491.982 327.523 492.071L327.57 491.825C327.441 491.225 325.013 491.375 315.737 495.759C302.731 501.905 288.099 483.466 285.661 478.959C283.222 474.452 253.959 483.876 251.52 485.105C249.082 486.335 242.579 485.105 238.921 476.501C235.263 467.897 238.108 461.751 242.579 448.639C247.049 435.528 260.462 431.43 270.216 416.27C278.02 404.142 294.06 381.989 301.105 372.429C292.976 378.575 264.201 398.324 214.128 428.152C151.538 465.438 185.678 384.721 186.084 377.345C186.491 369.97 214.128 292.121 214.128 292.121C214.128 292.121 213.315 281.468 214.128 263.439Z" fill="white"/>
<path d="M162.105 413.812C160.479 422.99 151.131 437.849 146.66 444.132C144.357 447.956 137.963 455.687 130.809 456.014C121.868 456.424 98.7011 439.215 90.166 428.152C81.6309 417.09 93.0111 358.498 93.4175 348.664C93.8239 338.83 120.649 329.816 130.809 311.378C140.97 292.94 149.099 292.121 150.318 303.183C151.538 314.246 157.634 328.177 157.228 340.469C156.821 352.761 156.821 353.171 166.169 358.498C175.517 363.824 164.137 402.339 162.105 413.812Z" fill="white"/>
<path d="M221.038 269.585C225.102 270.951 233.962 271.88 236.889 264.668M259.242 266.307C260.868 269.039 266.233 273.519 274.687 269.585M257.21 227.383C243.121 233.392 214.779 249.017 214.128 263.439C213.315 281.468 214.128 292.121 214.128 292.121C214.128 292.121 186.491 369.97 186.084 377.345C185.678 384.721 151.538 465.438 214.128 428.152C264.201 398.324 292.976 378.575 301.105 372.429C294.06 381.989 278.02 404.142 270.216 416.27C260.462 431.43 247.049 435.528 242.579 448.639C238.108 461.751 235.263 467.897 238.921 476.501C242.579 485.105 249.082 486.335 251.52 485.105C253.959 483.876 283.222 474.452 285.661 478.959C288.099 483.466 302.731 501.905 315.737 495.759C326.141 490.842 327.93 491.251 327.523 492.071L345 399.881C334.839 359.044 313.623 274.584 310.047 263.439C305.576 249.508 300.292 219.188 257.21 227.383ZM146.66 444.132C151.131 437.849 160.479 422.99 162.105 413.812C164.137 402.339 175.517 363.824 166.169 358.498C156.821 353.171 156.821 352.761 157.228 340.469C157.634 328.177 151.538 314.246 150.318 303.183C149.099 292.121 140.97 292.94 130.809 311.378C120.649 329.816 93.8239 338.83 93.4175 348.664C93.0111 358.498 81.6309 417.09 90.166 428.152C98.7011 439.215 121.868 456.424 130.809 456.014C137.963 455.687 144.357 447.956 146.66 444.132Z" stroke="black" stroke-width="2"/>
<path d="M206.579 297.094C212.857 292.758 234.8 292.706 244.986 293.223C259.028 300.578 258.615 306.771 249.529 312.965C240.444 319.158 213.6 314.513 206.579 311.029C199.559 307.545 198.733 302.513 206.579 297.094Z" fill="#FF9B04" stroke="black" stroke-width="2"/>
<path d="M283.881 244.4C284.536 237.545 288.799 236.919 290.848 237.463C289.618 235.695 286.176 232.811 282.241 235.423C278.307 238.034 276.776 232.702 276.503 229.71H268.306C263.388 229.71 266.667 232.158 260.929 235.423C255.191 238.687 255.601 225.221 251.912 232.158C248.961 237.708 243.579 236.647 241.256 235.423C240.436 236.919 238.141 240.32 235.518 241.952C232.239 243.992 228.961 248.889 219.944 241.952C212.73 236.402 227.321 225.493 235.518 220.732C237.813 215.835 243.032 217.059 245.355 218.283C244.043 213.06 251.639 212.026 255.601 212.162C255.372 208.751 261.381 207.621 268.306 207.36C266.12 204.744 263.06 198.614 268.306 195.023C274.864 190.534 283.881 190.534 285.11 191.758C286.203 189.718 289.946 185.964 296.176 187.27C303.963 188.902 306.832 191.758 305.603 196.655C308.062 197.472 312.816 200.165 312.16 204.409C311.34 209.714 317.898 217.059 311.75 218.283C321.177 224.405 319.947 266.436 319.947 275.414C319.947 284.392 310.521 285.616 303.963 282.351C298.965 279.863 301.506 274.956 303.648 272.497C302.288 273.846 298.945 275.581 294.127 273.782C288.881 271.823 291.941 262.9 294.127 258.683C293.034 259.363 289.782 260.315 285.52 258.683C280.192 256.643 283.061 252.97 283.881 244.4Z" fill="black"/>
<path d="M311.75 218.283C321.177 224.405 319.947 266.436 319.947 275.414C319.947 284.392 310.521 285.616 303.963 282.351C298.717 279.74 301.777 274.462 303.963 272.15C302.87 273.51 299.373 275.741 294.127 273.782C288.881 271.823 291.941 262.9 294.127 258.683C293.034 259.363 289.782 260.315 285.52 258.683C280.192 256.643 283.061 252.97 283.88 244.4C284.536 237.545 288.799 236.919 290.848 237.463C289.618 235.695 286.176 232.811 282.241 235.423C278.307 238.034 276.776 232.702 276.503 229.71C275.41 229.71 272.241 229.71 268.306 229.71C263.388 229.71 266.667 232.158 260.929 235.423C255.191 238.687 255.601 225.221 251.912 232.158C248.961 237.708 243.579 236.647 241.256 235.423C240.436 236.919 238.141 240.32 235.518 241.952C232.239 243.992 228.961 248.889 219.944 241.952C212.73 236.402 227.321 225.493 235.518 220.732C237.813 215.835 243.032 217.059 245.355 218.283C244.043 213.06 251.639 212.026 255.601 212.162C255.372 208.751 261.381 207.621 268.306 207.36M311.75 218.283C302.324 212.162 292.897 208.082 283.88 207.673C279.889 207.493 273.808 207.152 268.306 207.36M311.75 218.283C317.898 217.059 311.34 209.714 312.16 204.409C312.816 200.165 308.062 197.472 305.603 196.655C306.832 191.758 303.963 188.902 296.176 187.27C289.946 185.964 286.203 189.718 285.11 191.758C283.88 190.534 274.864 190.534 268.306 195.023C263.06 198.614 266.12 204.744 268.306 207.36" stroke="black" stroke-width="2"/>
<path fill-rule="evenodd" clip-rule="evenodd" d="M190.713 383.055C187.458 379.796 189.357 370.29 190.713 365.945C186.508 368.118 178.099 373.196 178.099 376.129C178.099 376.917 178.324 377.929 178.601 379.176C179.614 383.733 181.322 391.412 175.25 402.609C171.079 410.3 166.672 424.512 162.602 437.634C159.128 448.836 155.9 459.244 153.277 464.122C147.937 474.048 147.96 479.681 147.984 485.715C147.985 486.119 147.987 486.525 147.987 486.935C147.987 490.358 146.415 495.017 144.805 499.791C143.35 504.107 141.862 508.517 141.476 512.192C141.405 512.862 141.332 513.478 141.264 514.044C140.551 520.008 140.499 520.445 151.649 521.561C153.291 521.725 155.007 521.89 156.753 522.057C167.992 523.134 180.516 524.334 182.982 526.45C185.83 528.894 200.479 529.709 202.514 522.783C208.706 521.501 217.587 523.583 226.511 525.676C234.595 527.571 242.714 529.475 248.903 528.894C251.139 528.684 254.071 528.414 257.453 528.103C273.77 526.6 300.573 524.133 310.347 522.783C313.871 522.297 319.464 522.21 325.867 522.11C340.908 521.876 360.424 521.572 368.13 515.858C379.117 507.71 368.537 482.453 365.282 474.713C363.647 470.826 362.422 459.232 361.196 447.622C359.981 436.114 358.764 424.589 357.143 420.533C355.018 415.214 350.291 401.735 346.36 390.524C344.269 384.562 342.404 379.241 341.273 376.129C338.018 367.167 333.542 354.131 338.425 348.021C343.308 341.91 335.983 332.541 331.1 329.689C328.547 328.198 328.553 324.368 328.558 320.995C328.562 317.916 328.566 315.218 326.624 315.024C323.096 314.67 322.933 318.299 322.687 323.785C322.649 324.626 322.609 325.51 322.555 326.43C322.23 331.961 307.892 343.206 299.228 350.002C297.042 351.716 295.218 353.147 294.071 354.131C290.434 357.252 275.685 363.86 263.801 369.184C257.07 372.2 251.257 374.804 248.903 376.129C245.647 377.963 239.95 377.963 234.762 377.963C229.574 377.963 224.894 377.963 223.674 379.796C221.232 383.462 194.782 387.128 190.713 383.055ZM300.175 436.013C300.175 427.866 295.291 415.237 289.188 409.941C286.543 407.647 284.433 405.735 283.222 404.238C280.463 405.324 273.318 410.104 266.807 420.533C260.623 430.438 253.735 435.169 249.176 438.3C247.735 439.289 246.527 440.119 245.647 440.902C241.985 444.16 230.998 467.788 236.695 474.713C242.392 481.639 248.089 486.12 254.6 484.898C256.637 484.515 259.751 483.375 263.23 482.1C270.867 479.303 280.263 475.861 283.898 478.38C285.235 479.306 286.858 481.118 288.767 483.248C294.41 489.548 302.553 498.636 313.196 495.897C309.58 495.638 308.095 489.963 306.556 484.08C305.671 480.696 304.767 477.243 303.43 474.713C300.064 468.348 300.135 447.871 300.169 438.275C300.172 437.431 300.175 436.672 300.175 436.013Z" fill="#FF9B04"/>
<path d="M289.188 409.941C295.291 415.237 300.175 427.866 300.175 436.013C300.175 436.672 300.172 437.431 300.169 438.275C300.135 447.871 300.064 468.348 303.43 474.713C304.767 477.243 305.671 480.696 306.556 484.08C308.095 489.963 309.58 495.638 313.196 495.897C302.553 498.636 294.41 489.548 288.767 483.248C286.858 481.118 285.235 479.306 283.898 478.38C280.263 475.861 270.867 479.303 263.23 482.1C259.751 483.375 256.637 484.515 254.6 484.898C248.089 486.12 242.392 481.639 236.695 474.713C230.998 467.788 241.985 444.16 245.647 440.902C246.527 440.119 247.735 439.289 249.176 438.3C253.735 435.169 260.623 430.438 266.807 420.533C273.318 410.104 280.463 405.324 283.222 404.238C284.433 405.735 286.543 407.647 289.188 409.941Z" fill="white"/>
<path d="M248.903 376.129C246.732 378.438 240.927 383.462 235.067 385.092C227.743 387.128 198.038 400.572 192.748 404.238C187.458 407.904 193.562 436.828 190.713 444.16C187.865 451.493 193.155 472.269 190.713 491.008C188.272 509.747 190.713 525.227 202.514 522.783M248.903 376.129C251.257 374.804 257.07 372.2 263.801 369.184C275.685 363.86 290.434 357.252 294.071 354.131C295.218 353.147 297.042 351.716 299.228 350.002C307.892 343.206 322.23 331.961 322.555 326.43C322.609 325.51 322.649 324.626 322.687 323.785C322.933 318.299 323.096 314.67 326.624 315.024C328.566 315.218 328.562 317.916 328.558 320.995C328.553 324.368 328.547 328.198 331.1 329.689C335.983 332.541 343.308 341.91 338.425 348.021C333.542 354.131 338.018 367.167 341.273 376.129C342.404 379.241 344.269 384.562 346.36 390.524C350.291 401.735 355.018 415.214 357.143 420.533C358.764 424.589 359.981 436.114 361.196 447.622C362.422 459.232 363.647 470.826 365.282 474.713C368.537 482.453 379.117 507.71 368.13 515.858C360.424 521.572 340.908 521.876 325.867 522.11C319.464 522.21 313.871 522.297 310.347 522.783C300.573 524.133 273.77 526.6 257.453 528.103C254.071 528.414 251.139 528.684 248.903 528.894C242.714 529.475 234.595 527.571 226.511 525.676C217.587 523.583 208.706 521.501 202.514 522.783M248.903 376.129C245.647 377.963 239.95 377.963 234.762 377.963C229.574 377.963 224.894 377.963 223.674 379.796C221.232 383.462 194.782 387.128 190.713 383.055C187.458 379.796 189.357 370.29 190.713 365.945C186.508 368.118 178.099 373.196 178.099 376.129C178.099 376.917 178.324 377.929 178.601 379.176C179.614 383.733 181.322 391.412 175.25 402.609C171.079 410.3 166.672 424.512 162.602 437.634C159.128 448.836 155.9 459.244 153.277 464.122C147.937 474.048 147.96 479.681 147.984 485.715C147.985 486.119 147.987 486.525 147.987 486.935C147.987 490.358 146.415 495.017 144.805 499.791C143.35 504.107 141.862 508.517 141.476 512.192C141.405 512.862 141.332 513.478 141.264 514.044C140.551 520.008 140.499 520.445 151.649 521.561C153.291 521.725 155.007 521.89 156.753 522.057C167.992 523.134 180.516 524.334 182.982 526.45C185.83 528.894 200.479 529.709 202.514 522.783M300.175 373.685C296.105 382.376 287.153 399.92 283.898 400.572C281.592 401.033 281.638 402.28 283.222 404.238M313.196 495.897C318.893 496.304 320.114 500.785 325.81 495.897C330.368 491.986 333.949 489.922 335.17 489.379M313.196 495.897C302.553 498.636 294.41 489.548 288.767 483.248C286.858 481.118 285.235 479.306 283.898 478.38C280.263 475.861 270.867 479.303 263.23 482.1C259.751 483.375 256.637 484.515 254.6 484.898C248.089 486.12 242.392 481.639 236.695 474.713C230.998 467.788 241.985 444.16 245.647 440.902C246.527 440.119 247.735 439.289 249.176 438.3C253.735 435.169 260.623 430.438 266.807 420.533C273.318 410.104 280.463 405.324 283.222 404.238M313.196 495.897C309.58 495.638 308.095 489.963 306.556 484.08C305.671 480.696 304.767 477.243 303.43 474.713C300.064 468.348 300.135 447.871 300.169 438.275C300.172 437.431 300.175 436.672 300.175 436.013C300.175 427.866 295.291 415.237 289.188 409.941C286.543 407.647 284.433 405.735 283.222 404.238" stroke="black" stroke-width="2"/>
<defs>
<radialGradient id="paint0_radial_384_3895" cx="0" cy="0" r="1" gradientUnits="userSpaceOnUse" gradientTransform="translate(406.013 54.2567) rotate(97.8291) scale(68.7476 48.2508)">
<stop offset="0.455" stop-color="#FF9B04"/>
<stop offset="0.4551" stop-color="#FF7A00"/>
<stop offset="0.605" stop-color="#FF7A00"/>
<stop offset="0.6051" stop-color="#FF5C00"/>
</radialGradient>
<radialGradient id="paint1_radial_384_3895" cx="0" cy="0" r="1" gradientUnits="userSpaceOnUse" gradientTransform="translate(406.013 125.855) rotate(97.8291) scale(68.7476 48.2508)">
<stop offset="0.455" stop-color="#FF9B04"/>
<stop offset="0.4551" stop-color="#FF7A00"/>
<stop offset="0.605" stop-color="#FF7A00"/>
<stop offset="0.6051" stop-color="#FF5C00"/>
</radialGradient>
</defs>
</svg>
