<svg width="460" height="712" viewBox="0 0 460 712" fill="none" xmlns="http://www.w3.org/2000/svg">
<rect width="460" height="712" rx="20" fill="white"/>
<path d="M227.432 362.492C223.481 364.079 222.165 397.214 222 413.583L252.615 424C256.236 406.308 263.379 370.329 262.984 367.948C262.49 364.972 232.37 360.508 227.432 362.492Z" stroke="black" stroke-width="2"/>
<path d="M274.142 377.649C269.991 376.869 251.319 403.809 242.502 417.376L262.633 442.371C275.048 429.542 300.11 403.333 301.042 401.137C302.206 398.391 279.332 378.624 274.142 377.649Z" stroke="black" stroke-width="2" stroke-dasharray="9 9"/>
<path fill-rule="evenodd" clip-rule="evenodd" d="M170.741 281.858C166.218 278.919 155.22 282.167 150.287 284.158L154.722 249.922C168.872 269.156 190.199 258.117 199.093 250.194C196.829 252.317 192.256 258.029 192.076 263.891C191.895 269.754 204.811 269.391 211.291 268.476C207.273 269.783 195.633 286.854 190.316 295.226C185.675 291.995 175.264 284.798 170.741 281.858ZM170.248 278.066C166.097 277.033 162.189 276.059 159.5 275L159.5 262C162.678 267.928 177.618 266.368 186.092 265.482C186.82 265.406 187.501 265.335 188.122 265.274C184.423 269.39 189.8 279.421 192.951 283.921C192.576 284.237 189.992 284.207 182.649 281.565C178.946 280.232 174.471 279.118 170.248 278.066Z" fill="#FFA030"/>
<path d="M182.649 281.565C189.992 284.207 192.576 284.237 192.951 283.921C189.8 279.421 184.423 269.39 188.122 265.274C187.501 265.335 186.82 265.406 186.092 265.482C177.618 266.368 162.678 267.928 159.5 262L159.5 275C162.189 276.059 166.097 277.033 170.248 278.066C174.471 279.118 178.946 280.232 182.649 281.565Z" fill="#FF3030"/>
<path fill-rule="evenodd" clip-rule="evenodd" d="M170.741 281.858C166.218 278.919 155.22 282.167 150.287 284.158L154.722 249.922C168.872 269.156 190.199 258.117 199.093 250.194C196.829 252.317 192.256 258.029 192.076 263.891C191.895 269.754 204.811 269.391 211.291 268.476C207.273 269.783 195.633 286.854 190.316 295.226C185.675 291.995 175.264 284.798 170.741 281.858ZM170.248 278.066C166.097 277.033 162.189 276.059 159.5 275L159.5 262C162.678 267.928 177.618 266.368 186.092 265.482C186.82 265.406 187.501 265.335 188.122 265.274C184.423 269.39 189.8 279.421 192.951 283.921C192.576 284.237 189.992 284.207 182.649 281.565C178.946 280.232 174.471 279.118 170.248 278.066Z" stroke="black" stroke-width="2"/>
<path d="M182.649 281.565C189.992 284.207 192.576 284.237 192.951 283.921C189.8 279.421 184.423 269.39 188.122 265.274C187.501 265.335 186.82 265.406 186.092 265.482C177.618 266.368 162.678 267.928 159.5 262L159.5 275C162.189 276.059 166.097 277.033 170.248 278.066C174.471 279.118 178.946 280.232 182.649 281.565Z" stroke="black" stroke-width="2"/>
<path fill-rule="evenodd" clip-rule="evenodd" d="M114.32 362.094C114.712 365.613 104.015 404.94 98.6176 424.164C71.3023 483.139 60.4416 582.223 235.522 506.761C236.83 506.435 239.84 505.197 241.41 502.851C243.373 499.919 259.566 474.993 266.926 460.819C274.286 446.646 266.926 425.141 260.547 425.63C255.31 426.031 255.365 424.785 255.552 420.54C255.593 419.614 255.64 418.546 255.64 417.322C255.64 410.479 252.696 402.659 248.28 396.794C243.863 390.93 235.522 395.817 231.596 399.238C228.456 401.975 215.894 412.434 210.005 417.322C210.169 406.569 210.398 383.989 210.005 379.689C209.832 377.786 208.675 373.436 207.166 367.959C206.935 367.123 206.697 366.261 206.452 365.377C206.451 365.371 206.449 365.364 206.447 365.358L206.446 365.355C205.612 362.338 204.708 359.071 203.823 355.74C201.868 348.375 200.01 340.698 199.21 334.724C197.247 320.062 182.036 301.001 157.992 299.046C133.948 297.091 113.829 357.695 114.32 362.094Z" fill="url(#paint0_radial_384_3913)"/>
<path d="M214.912 357.695C214.912 349.875 207.52 353.134 203.823 355.74C204.708 359.071 205.612 362.338 206.446 365.355L206.447 365.358L206.452 365.377C206.697 366.261 206.935 367.123 207.166 367.959C211.196 370.891 214.912 367.47 214.912 357.695Z" fill="#FF9B04"/>
<path d="M210.005 417.322C210.169 406.569 210.398 383.989 210.005 379.689C209.832 377.786 208.675 373.436 207.166 367.959M210.005 417.322L189.887 438.337M210.005 417.322C215.894 412.434 228.456 401.975 231.596 399.238C235.522 395.817 243.863 390.93 248.28 396.794C252.696 402.659 255.64 410.479 255.64 417.322C255.64 418.546 255.593 419.614 255.552 420.54C255.365 424.785 255.31 426.031 260.547 425.63C266.926 425.141 274.286 446.646 266.926 460.819C259.566 474.993 243.373 499.919 241.41 502.851C239.84 505.197 236.83 506.435 235.522 506.761C60.4416 582.223 71.3023 483.139 98.6176 424.164C104.015 404.94 114.712 365.613 114.32 362.094C113.829 357.695 133.948 297.091 157.992 299.046C182.036 301.001 197.247 320.062 199.21 334.724C200.01 340.698 201.868 348.375 203.823 355.74M203.823 355.74C207.52 353.134 214.912 349.875 214.912 357.695C214.912 367.47 211.196 370.891 207.166 367.959M203.823 355.74C204.708 359.071 205.612 362.338 206.446 365.355L206.447 365.358M207.166 367.959C206.935 367.123 206.697 366.261 206.452 365.377M206.447 365.358L206.452 365.377M206.447 365.358C206.449 365.364 206.451 365.371 206.452 365.377" stroke="black" stroke-width="2"/>
<path d="M269.671 304.181C271.143 293.895 274.874 270.579 278.015 259.607C281.942 245.891 284.396 197.398 304.521 186.132C324.646 174.866 333.481 190.05 334.463 191.52C335.445 192.989 343.789 210.623 344.28 220.91C344.771 231.196 344.771 240.503 347.716 243.932C348.562 244.917 350.743 250.021 353.412 257.157C357.403 261.403 365.387 270.285 365.387 271.852C365.387 273.812 375.204 281.159 376.185 287.527C377.167 293.895 380.422 310.059 374.713 310.549C370.329 310.925 368.608 308.022 368.24 306.345C368.987 310.252 369.39 313.562 369.314 315.937C368.823 331.122 378.64 340.919 347.716 346.797C316.792 352.675 308.939 358.553 297.158 356.593C285.378 354.634 260.344 366.39 252 331.612C252.654 328.51 255.338 321.032 260.835 315.937C266.333 310.843 269.016 305.977 269.671 304.181Z" fill="url(#paint1_radial_384_3913)"/>
<path d="M353.412 257.157C350.743 250.021 348.562 244.917 347.716 243.932C344.771 240.503 344.771 231.196 344.28 220.91C343.789 210.623 335.445 192.989 334.463 191.52C333.481 190.05 324.646 174.866 304.521 186.132C284.396 197.398 281.942 245.891 278.015 259.607C274.874 270.579 271.143 293.895 269.671 304.181C269.016 305.977 266.333 310.843 260.835 315.937C255.338 321.032 252.654 328.51 252 331.612C260.344 366.39 285.378 354.634 297.158 356.593C308.939 358.553 316.792 352.675 347.716 346.797C378.64 340.919 368.823 331.122 369.314 315.937C369.392 313.521 368.973 310.137 368.201 306.141M353.412 257.157C357.403 261.403 365.387 270.285 365.387 271.852C365.387 273.812 375.204 281.159 376.185 287.527C377.167 293.895 380.422 310.059 374.713 310.549C370.145 310.941 368.468 307.774 368.201 306.141M353.412 257.157C356.133 264.436 359.362 273.828 362.197 283.119M368.201 306.141C367.679 303.438 366.995 300.455 366.195 297.302M295.195 259.607C296.995 261.239 302.067 264.897 307.957 266.464C315.32 268.424 321.701 270.873 328.082 274.791C330.612 276.345 334.701 277.437 338.881 278.952M276.543 289.976C275.724 290.629 276.052 294.385 283.905 304.181C293.722 316.427 307.957 313.978 320.719 315.937C326.639 316.846 330.534 314.725 332.922 312.019M338.881 278.952C345.242 281.258 351.813 284.545 353.412 291.936C356.061 304.181 351.152 306.141 347.716 306.141C344.967 306.141 338.717 306.141 335.936 306.141C335.592 307.787 334.653 310.057 332.922 312.019M338.881 278.952C342.317 274.3 349.483 265.289 350.661 266.464C352.134 267.934 361.312 280.18 362.197 283.119M362.197 283.119C364.569 285.404 369.314 290.564 369.314 292.915C369.314 293.533 368.117 295.133 366.195 297.302M332.922 312.019L343.298 319.856C349.692 313.957 360.8 303.389 366.195 297.302M311.884 216.991C312.188 216.688 308.587 215.581 305.503 214.718M305.503 214.718C304.604 214.467 303.75 214.236 303.049 214.052C302.885 216.175 302.95 220.518 304.521 220.91C306.092 221.302 305.83 216.946 305.503 214.718ZM337.899 211.603C337.113 211.838 335.951 212.367 334.954 213.2M334.954 213.2C333.875 214.102 332.991 215.361 332.991 216.991C332.991 220.91 334.463 221.89 334.954 219.93C335.347 218.363 335.118 214.79 334.954 213.2ZM315.575 235.361C313.498 235.839 309.851 237.656 311.884 241.098" stroke="black" stroke-width="2"/>
<path d="M327.074 236.248C317.452 236.673 316.31 238.369 316.942 239.164C319.773 244.736 332.955 242.444 347.444 245.411C361.933 248.379 358.704 230.203 351.275 227.683C343.846 225.163 339.101 235.716 327.074 236.248Z" fill="#FF9B04"/>
<path d="M316.942 239.164C316.31 238.369 317.452 236.673 327.074 236.248C339.101 235.716 343.846 225.163 351.275 227.683C358.704 230.203 361.933 248.379 347.444 245.411C332.955 242.444 319.773 244.736 316.942 239.164ZM316.942 239.164C318.77 239.964 323.325 241.363 326.912 240.56" stroke="black" stroke-width="2"/>
<path fill-rule="evenodd" clip-rule="evenodd" d="M289.027 207.139C305.819 208.3 339.596 209.427 340.371 204.652C341.34 198.684 346.183 223.055 344.73 225.542C343.731 227.251 337.468 226.61 331.92 226.043C329.396 225.785 327.021 225.542 325.355 225.542C323.703 225.542 321.679 226.45 319.281 227.526C313.947 229.92 306.769 233.141 297.746 229.023C284.814 223.121 285.617 218.192 286.105 215.198L286.121 215.097C286.332 213.796 286.937 212.041 287.574 210.445C288.106 209.114 288.66 207.893 289.027 207.139ZM287.574 210.445C281.277 221.212 271.106 218.081 269.168 215.097C268.079 213.419 272.5 212.158 276.065 211.141C278.841 210.349 281.097 209.705 279.824 209.129C276.918 207.812 271.106 204.652 271.106 199.679C271.106 196.876 273.874 198.18 276.291 199.318C278.163 200.199 279.824 200.981 279.824 199.679C279.824 197.291 284.991 205.862 287.574 210.445ZM312.277 211.118C307.757 210.786 298.618 211.416 298.231 216.589C297.746 223.055 304.527 228.029 308.402 228.029C312.277 228.029 319.059 224.547 318.574 220.071C318.09 215.594 316.152 211.791 312.277 211.118ZM331.652 217.086C332.427 212.312 337.788 210.123 340.371 209.626C341.195 209.46 342.736 210.72 342.308 217.086C341.773 225.044 336.012 225.542 334.558 225.542C333.105 225.542 330.683 223.055 331.652 217.086Z" fill="#262626"/>
<path d="M286.121 215.097C286.332 213.796 286.937 212.041 287.574 210.445M286.121 215.097C286.116 215.13 286.11 215.164 286.105 215.198M286.121 215.097L286.105 215.198M287.574 210.445C288.106 209.114 288.66 207.893 289.027 207.139C305.819 208.3 339.596 209.427 340.371 204.652C341.34 198.684 346.183 223.055 344.73 225.542C343.731 227.251 337.468 226.61 331.92 226.043C329.396 225.785 327.021 225.542 325.355 225.542C323.703 225.542 321.679 226.45 319.281 227.526C313.947 229.92 306.769 233.141 297.746 229.023C284.814 223.121 285.617 218.192 286.105 215.198M287.574 210.445C284.991 205.862 279.824 197.291 279.824 199.679C279.824 200.981 278.163 200.199 276.291 199.318C273.874 198.18 271.106 196.876 271.106 199.679C271.106 204.652 276.918 207.812 279.824 209.129C281.097 209.705 278.841 210.349 276.065 211.141C272.5 212.158 268.079 213.419 269.168 215.097C271.106 218.081 281.277 221.212 287.574 210.445ZM312.277 211.118C307.757 210.786 298.618 211.416 298.231 216.589C297.746 223.055 304.527 228.029 308.402 228.029C312.277 228.029 319.059 224.547 318.574 220.071C318.09 215.594 316.152 211.791 312.277 211.118ZM340.371 209.626C337.788 210.123 332.427 212.312 331.652 217.086C330.683 223.055 333.105 225.542 334.558 225.542C336.012 225.542 341.773 225.044 342.308 217.086C342.736 210.72 341.195 209.46 340.371 209.626Z" stroke="black" stroke-width="2"/>
<path d="M403.84 51.4771C405.114 52.3501 406.72 53.394 407.9 53.9681C408.323 54.1735 408.811 54.1735 409.234 53.9681C410.415 53.394 412.02 52.3501 413.294 51.4771C414.366 50.7428 415.949 51.1319 416.819 52.0962C417.786 53.1675 419.314 54.4419 421.621 55.3918C424.307 56.4979 426.783 57.3016 428.454 57.7837C429.413 58.0601 430.071 58.969 429.963 59.9605C428.954 69.1639 425.665 86.2529 419.067 92.8505C414.832 97.0857 412.097 98.9983 410.467 99.7263C409.458 100.177 407.676 100.177 406.667 99.7263C405.037 98.9983 402.302 97.0857 398.067 92.8505C391.47 86.2529 388.181 69.1639 387.172 59.9605C387.063 58.969 387.722 58.0601 388.68 57.7837C390.351 57.3016 392.827 56.4979 395.513 55.3918C397.82 54.4419 399.349 53.1675 400.315 52.0962C401.185 51.1319 402.769 50.7428 403.84 51.4771Z" fill="url(#paint2_radial_384_3913)" stroke="black" stroke-width="2"/>
<path d="M401.667 71.7291C401.069 66.6313 400.12 61.079 399.495 57.8406C402.828 70.2307 404.334 74.7973 406.026 80.6253C406.235 81.3443 406.204 82.1096 406.114 82.853C405.788 85.5574 408.144 84.0648 410.577 81.8273C411.719 80.7762 413.676 81.5401 413.676 83.0927C413.676 83.6884 413.362 84.2401 412.85 84.545L408.702 87.0165C404.08 89.7698 398.136 88.4412 395.078 84.0426C394.938 83.8835 394.799 83.6984 394.662 83.4858C393.853 82.2262 394.145 82.6484 394.965 83.8763C395.002 83.9322 395.04 83.9876 395.078 84.0426C398.314 87.7175 402.348 77.5261 401.667 71.7291Z" fill="#FF7A00"/>
<path d="M415.018 80.3221C413.968 75.0824 415.317 62.3425 416.122 56.6274C412.976 70.1339 411.551 74.593 409.885 81.1578C408.552 86.4097 410.132 91.0225 411.088 92.6724C412.836 90.7388 416.069 85.5618 415.018 80.3221Z" fill="#FF7A00"/>
<path d="M403.84 123.076C405.114 123.949 406.72 124.993 407.9 125.567C408.323 125.772 408.811 125.772 409.234 125.567C410.415 124.993 412.02 123.949 413.294 123.076C414.366 122.341 415.949 122.731 416.819 123.695C417.786 124.766 419.314 126.041 421.621 126.99C424.307 128.097 426.783 128.9 428.454 129.382C429.413 129.659 430.071 130.568 429.963 131.559C428.954 140.763 425.665 157.852 419.067 164.449C414.832 168.684 412.097 170.597 410.467 171.325C409.458 171.775 407.676 171.775 406.667 171.325C405.037 170.597 402.302 168.684 398.067 164.449C391.47 157.852 388.181 140.763 387.172 131.559C387.063 130.568 387.722 129.659 388.68 129.382C390.351 128.9 392.827 128.097 395.513 126.99C397.82 126.041 399.349 124.766 400.315 123.695C401.185 122.731 402.769 122.341 403.84 123.076Z" fill="url(#paint3_radial_384_3913)" stroke="black" stroke-width="2"/>
<path d="M401.667 143.328C401.069 138.23 400.12 132.678 399.495 129.439C402.828 141.829 404.334 146.396 406.026 152.224C406.235 152.943 406.204 153.708 406.114 154.452C405.788 157.156 408.144 155.663 410.577 153.426C411.719 152.375 413.676 153.139 413.676 154.691C413.676 155.287 413.362 155.839 412.85 156.144L408.702 158.615C404.08 161.368 398.136 160.04 395.078 155.641C394.938 155.482 394.799 155.297 394.662 155.084C393.853 153.825 394.145 154.247 394.965 155.475C395.002 155.531 395.04 155.586 395.078 155.641C398.314 159.316 402.348 149.125 401.667 143.328Z" fill="#FF7A00"/>
<path d="M415.018 151.921C413.968 146.681 415.317 133.941 416.122 128.226C412.976 141.733 411.551 146.192 409.885 152.756C408.552 158.008 410.132 162.621 411.088 164.271C412.836 162.337 416.069 157.16 415.018 151.921Z" fill="#FF7A00"/>
<path d="M169.934 342C155.823 348.907 161.636 371.689 178.772 366.914C185.566 365.02 187.927 358.519 184.32 352.652C182.172 349.158 176.293 342.899 171.404 344.813C165.287 347.209 161.167 354.569 161.428 360.783C161.752 368.477 175.141 367.367 179.685 364.539C184.205 361.728 185.317 353.464 182.999 348.976C179.929 343.032 169.365 342.939 163.654 343.35C157.173 343.815 155.506 353.479 158.305 357.921C161.496 362.985 173.872 365.65 179.137 362.539C183.729 359.826 186.624 353.046 184.37 348.066C181.587 341.917 170.094 344.153 165.515 346.57C160.512 349.21 155.891 356.427 158.82 361.954C161.671 367.334 176.77 369.909 181.413 366.377C190.724 359.295 181.564 346.478 173.223 343.756" stroke="black" stroke-width="2" stroke-linecap="round"/>
<path d="M185.135 363.684C188.491 348.42 167.054 338.636 160.152 354.906C157.416 361.357 161.038 367.263 167.868 368.148C171.936 368.676 180.484 368.047 182.021 363.058C183.944 356.817 180.742 349.009 175.717 345.315C169.494 340.741 162.052 351.809 161.443 357.103C160.837 362.367 166.614 368.411 171.564 369.43C178.123 370.78 184.753 362.654 187.977 357.973C191.637 352.659 185.11 345.308 179.896 344.691C173.952 343.987 164.183 351.902 163.348 357.932C162.621 363.191 166.129 369.686 171.426 371.063C177.966 372.764 183.351 362.458 184.303 357.395C185.342 351.863 182.564 343.758 176.42 342.56C170.439 341.395 159.051 351.477 158.932 357.289C158.694 368.944 174.41 369.885 181.719 365.13" stroke="black" stroke-width="2" stroke-linecap="round"/>
<path d="M161.687 365.448C165.844 362.825 167.248 364.355 167.43 365.448C171.258 366.459 173.719 367.634 170.985 372.551C168.25 377.468 167.43 373.644 163.602 372.551C159.773 371.458 156.492 368.726 161.687 365.448Z" fill="#64DAFF"/>
<path d="M176.727 370.912C173.172 369.273 174.813 367.907 178.642 365.448C185.278 362.716 182.743 365.448 183.837 366.814C184.931 368.18 180.282 372.551 176.727 370.912Z" fill="#64DAFF"/>
<path d="M161.687 365.448C165.844 362.825 167.248 364.355 167.43 365.448C171.258 366.459 173.719 367.634 170.985 372.551C168.25 377.468 167.43 373.644 163.602 372.551C159.773 371.458 156.492 368.726 161.687 365.448Z" stroke="black" stroke-width="2"/>
<path d="M176.727 370.912C173.172 369.273 174.813 367.907 178.642 365.448C185.278 362.716 182.743 365.448 183.837 366.814C184.931 368.18 180.282 372.551 176.727 370.912Z" stroke="black" stroke-width="2"/>
<path d="M131.529 379.868C139.356 386.028 143.124 384.635 144.03 383.168C146.114 383.168 150.444 381.848 151.096 376.569C151.912 369.969 166.859 377.944 158.434 379.868C150.009 381.793 159.249 387.568 154.086 393.067C148.922 398.567 144.03 392.517 137.508 393.067C130.986 393.617 135.334 410.665 119.3 407.641C103.266 404.616 121.746 372.169 131.529 379.868Z" fill="#64DAFF" stroke="black" stroke-width="2"/>
<defs>
<radialGradient id="paint0_radial_384_3913" cx="0" cy="0" r="1" gradientUnits="userSpaceOnUse" gradientTransform="translate(176 330) rotate(118.953) scale(327.421 260.543)">
<stop offset="0.515" stop-color="white"/>
<stop offset="0.5151" stop-color="#EEEEEE"/>
</radialGradient>
<radialGradient id="paint1_radial_384_3913" cx="0" cy="0" r="1" gradientUnits="userSpaceOnUse" gradientTransform="translate(258 232) rotate(59.4666) scale(171.246 123.297)">
<stop offset="0.5149" stop-color="white"/>
<stop offset="0.515" stop-color="#EEEEEE"/>
</radialGradient>
<radialGradient id="paint2_radial_384_3913" cx="0" cy="0" r="1" gradientUnits="userSpaceOnUse" gradientTransform="translate(406.013 54.2567) rotate(97.8291) scale(68.7476 48.2508)">
<stop offset="0.455" stop-color="#FF9B04"/>
<stop offset="0.4551" stop-color="#FF7A00"/>
<stop offset="0.605" stop-color="#FF7A00"/>
<stop offset="0.6051" stop-color="#FF5C00"/>
</radialGradient>
<radialGradient id="paint3_radial_384_3913" cx="0" cy="0" r="1" gradientUnits="userSpaceOnUse" gradientTransform="translate(406.013 125.855) rotate(97.8291) scale(68.7476 48.2508)">
<stop offset="0.455" stop-color="#FF9B04"/>
<stop offset="0.4551" stop-color="#FF7A00"/>
<stop offset="0.605" stop-color="#FF7A00"/>
<stop offset="0.6051" stop-color="#FF5C00"/>
</radialGradient>
</defs>
</svg>
