<svg width="460" height="712" viewBox="0 0 460 712" fill="none" xmlns="http://www.w3.org/2000/svg">
<rect width="460" height="712" rx="20" fill="white"/>
<path fill-rule="evenodd" clip-rule="evenodd" d="M112.054 395C101.653 389.029 83.5399 366.988 94.2999 326.6C95.8025 320.96 98.2751 309.162 98.2751 309.162L103.045 277.729C104.858 262.263 106.008 247.115 107.017 233.819C108.468 214.7 109.628 199.411 112.054 192.513C117.972 175.684 143.796 137.684 166.392 153.97C181.127 164.59 181.22 181.674 181.292 194.834C181.33 201.855 181.362 207.76 183.608 210.97C187.889 217.089 203.286 217.958 215.372 218.64C221.514 218.986 226.801 219.284 229.339 220.199C230.465 220.605 232.085 221.096 234.028 221.685C245.072 225.032 266.541 231.539 266.999 243.542C267.429 254.833 163.882 349.219 112.054 395ZM152.404 201.742C150.252 198.702 153.205 192.513 157.246 192.513C158.107 192.513 158.623 192.513 159.037 192.721C159.656 193.034 160.044 193.816 161.012 195.77C163.949 201.697 155.094 205.542 152.404 201.742Z" fill="url(#paint0_radial_384_3865)"/>
<path d="M157.246 192.513C153.205 192.513 150.252 198.702 152.404 201.742C155.094 205.542 163.949 201.697 161.012 195.77C160.044 193.816 159.656 193.034 159.037 192.721C158.623 192.513 158.107 192.513 157.246 192.513Z" fill="url(#paint1_radial_384_3865)"/>
<path fill-rule="evenodd" clip-rule="evenodd" d="M112.054 395C101.653 389.029 83.5399 366.988 94.2999 326.6C95.8025 320.96 98.2751 309.162 98.2751 309.162L103.045 277.729C104.858 262.263 106.008 247.115 107.017 233.819C108.468 214.7 109.628 199.411 112.054 192.513C117.972 175.684 143.796 137.684 166.392 153.97C181.127 164.59 181.22 181.674 181.292 194.834C181.33 201.855 181.362 207.76 183.608 210.97C187.889 217.089 203.286 217.958 215.372 218.64C221.514 218.986 226.801 219.284 229.339 220.199C230.465 220.605 232.085 221.096 234.028 221.685C245.072 225.032 266.541 231.539 266.999 243.542C267.429 254.833 163.882 349.219 112.054 395ZM152.404 201.742C150.252 198.702 153.205 192.513 157.246 192.513C158.107 192.513 158.623 192.513 159.037 192.721C159.656 193.034 160.044 193.816 161.012 195.77C163.949 201.697 155.094 205.542 152.404 201.742Z" stroke="black" stroke-width="2" stroke-linecap="round"/>
<path d="M157.246 192.513C153.205 192.513 150.252 198.702 152.404 201.742C155.094 205.542 163.949 201.697 161.012 195.77C160.044 193.816 159.656 193.034 159.037 192.721C158.623 192.513 158.107 192.513 157.246 192.513Z" stroke="black" stroke-width="2" stroke-linecap="round"/>
<path d="M197.669 199.084C186.201 200.372 173.778 212.145 169 217.87C178.372 229.142 186.642 221.627 189.95 220.554C193.258 219.48 212.003 197.474 197.669 199.084Z" fill="url(#paint2_radial_384_3865)" stroke="black" stroke-width="2" stroke-linecap="round"/>
<path fill-rule="evenodd" clip-rule="evenodd" d="M52.0057 387.182C52.871 391.078 57.4135 428.481 59.5766 446.696C69.5269 454.487 213.338 310.716 284 237.857L280.755 190.246C277.33 189.164 269.615 187 266.154 187C261.828 187 205.046 240.562 204.505 244.891C204.263 246.828 173.448 274.582 139.583 305.081C97.815 342.698 51.4084 384.493 52.0057 387.182ZM66.066 431.006C63.5423 417.119 60.0092 387.94 66.066 382.313C72.1227 376.686 126.273 327.669 152.591 303.863L159.621 309.814L163.406 337.407L66.066 431.006ZM163.406 295.207C161.243 302.565 170.797 318.471 175.844 325.504L272.103 237.857L268.317 212.429C265.794 209.723 259.989 204.638 256.961 205.936C253.176 207.559 166.11 286.009 163.406 295.207Z" fill="url(#paint3_linear_384_3865)" stroke="black" stroke-width="2" stroke-linecap="round"/>
<path d="M96.3916 481.115C93.6966 481.115 68.3634 450.878 64.0513 439.539C65.2103 450.083 67.9351 471.865 69.5628 474.645C71.5974 478.12 144.842 564.226 168.005 554.186C186.535 546.155 187.993 536.682 186.405 532.949L175.356 531.6L164.306 530.25C160.354 526.65 149.43 518.371 137.356 514.051C127.499 510.525 114.194 497.556 105.398 488.983C100.726 484.429 97.3265 481.115 96.3916 481.115Z" fill="#FF36AF"/>
<path fill-rule="evenodd" clip-rule="evenodd" d="M266.178 234.361C271.209 233.821 281.917 232.417 284.504 231.121C287.092 229.826 304.268 239.221 312.533 244.08C313.072 245.16 314.904 247.752 317.923 249.479C319.571 250.423 323.278 254.254 327.425 258.538C332.768 264.059 338.84 270.333 342.178 272.157C344.747 273.561 348.632 274.965 352.517 276.369C357.598 278.204 362.678 280.04 364.816 281.876C368.589 285.116 392.844 306.713 393.922 309.413C379.241 328.671 345.858 370.211 329.781 382.305C302.493 409.481 244.751 465.995 232.088 474.645C223.037 480.827 207.283 498.123 194.596 512.052C185.097 522.48 177.317 531.022 175.356 531.6L164.306 530.25C160.354 526.65 149.43 518.371 137.356 514.051C127.499 510.525 114.194 497.556 105.398 488.983C100.726 484.429 97.3265 481.115 96.3916 481.115C93.6966 481.115 68.3634 450.878 64.0513 439.539C59.7393 428.201 69.9804 422.261 71.5974 422.261C72.6031 422.261 79.4464 414.116 85.3848 407.048C88.9947 402.751 92.2701 398.853 93.6966 397.424C96.715 394.4 110.669 382.125 117.269 376.366C117.301 375.854 117.35 375.315 117.413 374.746C117.952 369.887 147.597 347.209 152.448 344.509C154.514 343.36 164.495 333.791 175.693 323.057C190.793 308.581 208.105 291.985 211.2 291.055C214.503 290.062 221.045 281.161 226.732 273.424C230.325 268.535 233.577 264.111 235.455 262.438C239.336 258.982 257.554 242.28 266.178 234.361Z" fill="url(#paint4_radial_384_3865)"/>
<path d="M393.922 325.611C394.282 321.112 394.785 311.573 393.922 309.413C379.241 328.671 345.858 370.211 329.781 382.305C302.493 409.481 244.751 465.995 232.088 474.645C223.037 480.827 207.283 498.123 194.596 512.052C185.097 522.48 177.317 531.022 175.356 531.6L186.405 532.949C261.866 472.656 409.014 348.721 393.922 335.33V325.611Z" fill="#A8FF1B"/>
<path d="M393.922 309.413C392.844 306.713 368.589 285.116 364.816 281.876C362.678 280.04 357.598 278.204 352.517 276.369C348.632 274.965 344.747 273.561 342.178 272.157C338.84 270.333 332.768 264.059 327.425 258.538C323.278 254.254 319.571 250.423 317.923 249.479C314.904 247.752 313.072 245.16 312.533 244.08C304.268 239.221 287.092 229.826 284.504 231.121C281.917 232.417 271.209 233.821 266.178 234.361C257.554 242.28 239.336 258.982 235.455 262.438C233.577 264.111 230.325 268.535 226.732 273.424C221.045 281.161 214.503 290.062 211.2 291.055M393.922 309.413C394.785 311.573 394.282 321.112 393.922 325.611V335.33C409.014 348.721 261.866 472.656 186.405 532.949M393.922 309.413C379.241 328.671 345.858 370.211 329.781 382.305M211.2 291.055C211.2 292.495 213.248 296.778 221.441 302.394C229.634 308.009 297.081 358.008 329.781 382.305M211.2 291.055C208.105 291.985 190.793 308.581 175.693 323.057C164.495 333.791 154.514 343.36 152.448 344.509C147.597 347.209 117.952 369.887 117.413 374.746C117.35 375.315 117.301 375.854 117.269 376.366M128.193 392.024C126.037 390.225 121.294 386.193 119.569 384.465C117.665 382.558 117.022 380.23 117.269 376.366M117.269 376.366C110.669 382.125 96.715 394.4 93.6966 397.424C92.2701 398.853 88.9947 402.751 85.3848 407.048C79.4464 414.116 72.6031 422.261 71.5974 422.261C69.9804 422.261 59.7393 428.201 64.0513 439.539M64.0513 439.539C68.3634 450.878 93.6966 481.115 96.3916 481.115C97.3265 481.115 100.726 484.429 105.398 488.983C114.194 497.556 127.499 510.525 137.356 514.051C149.43 518.371 160.354 526.65 164.306 530.25L175.356 531.6M64.0513 439.539C65.2103 450.083 67.9351 471.865 69.5628 474.645C71.5974 478.12 144.842 564.226 168.005 554.186C186.535 546.155 187.993 536.682 186.405 532.949M186.405 532.949L175.356 531.6M329.781 382.305C302.493 409.481 244.751 465.995 232.088 474.645C223.037 480.827 207.283 498.123 194.596 512.052C185.097 522.48 177.317 531.022 175.356 531.6M230.065 462.217C217.847 454.118 188.885 434.788 170.774 422.261C152.664 409.735 143.105 400.483 140.59 397.424" stroke="black" stroke-width="2" stroke-linecap="round"/>
<path d="M117.956 397.271C115.418 399.606 110.125 407.614 109.255 420.973C108.167 437.671 110.342 442.519 120.131 446.828C129.92 451.138 145.147 453.292 147.866 446.828C150.081 441.563 155.904 425.933 157.988 418.279C158.462 416.537 158.743 415.208 158.743 414.509C158.743 413.096 156.835 411.911 154.392 410.669C150.313 408.595 144.74 406.364 144.059 402.658C142.972 396.733 129.92 411.277 117.956 397.271Z" fill="url(#paint5_radial_384_3865)"/>
<path d="M272.947 283.614C269.865 283.255 264.028 283.721 265.333 288.462C266.964 294.387 280.016 305.16 285.998 305.16C286.665 305.16 287.299 305.174 287.894 305.186C292.641 305.287 295.001 305.337 293.068 298.158C291.328 291.694 278.929 285.768 272.947 283.614Z" fill="url(#paint6_radial_384_3865)"/>
<path d="M167.444 453.292C166.139 461.049 166.175 466.938 166.356 468.913C173.562 477.07 184.177 477.025 190.826 476.996C191.202 476.995 191.566 476.993 191.916 476.993C198.442 476.993 219.108 444.135 212.582 442.519C209.064 441.648 208.075 440.308 207.143 438.498C207.034 438.284 206.925 438.065 206.813 437.838C206.111 436.422 205.282 434.75 203.337 432.823C202.728 432.22 202.119 431.684 201.508 431.207C197.2 427.849 192.736 427.436 187.022 427.436C184.191 427.436 182.281 426.524 180.671 425.755C178.569 424.751 176.977 423.991 174.514 425.82C171.042 428.399 169.648 438.18 168.398 446.953C168.081 449.175 167.774 451.333 167.444 453.292Z" fill="url(#paint7_radial_384_3865)"/>
<path d="M274.578 269.608C277.66 270.686 285.02 272.625 289.805 271.763C290.143 271.527 290.508 271.055 289.265 271.055C288.81 271.055 287.468 270.807 285.768 270.492C281.66 269.733 275.456 268.586 274.578 269.608Z" fill="black"/>
<path fill-rule="evenodd" clip-rule="evenodd" d="M275.666 264.222C267.835 268.1 243.036 293.13 231.616 305.16C219.651 300.851 192.678 296.542 180.496 313.779C165.269 335.325 163.093 345.021 171.795 347.176C163.093 350.767 145.365 360.858 144.059 372.493C142.869 383.101 155.278 390.557 163.136 395.279C166.051 397.03 168.34 398.406 169.076 399.426L154.392 410.669C156.835 411.911 158.743 413.096 158.743 414.509C158.743 415.208 158.462 416.537 157.988 418.279L172.411 403.152C178.094 408.774 190.034 418.276 208.231 425.82L201.508 431.207C202.119 431.684 202.728 432.22 203.337 432.823C205.282 434.75 206.111 436.422 206.813 437.838C206.925 438.065 207.034 438.284 207.143 438.498L212.582 427.854C218.372 430.932 220.483 433.862 222.368 436.479C225.902 441.386 228.646 445.196 253.369 446.828C255.725 447.805 261.526 443.487 265.877 418.398C276.228 418.946 287.341 416.354 291.981 410.738C301.769 398.887 308.839 352.024 303.401 349.33C300.28 347.785 308.624 330.446 317.02 312.999C323.253 300.048 329.514 287.037 331.136 280.382C334.943 264.761 325.698 253.449 312.646 251.294C302.219 249.573 291.098 255.758 282.056 260.788C279.779 262.054 277.634 263.247 275.666 264.222ZM265.333 288.462C264.028 283.721 269.865 283.255 272.947 283.614C278.929 285.768 291.328 291.694 293.068 298.158C295.001 305.337 292.641 305.287 287.894 305.186C287.299 305.174 286.665 305.16 285.998 305.16C280.016 305.16 266.964 294.387 265.333 288.462ZM274.578 269.608C277.66 270.686 285.02 272.625 289.805 271.763C290.143 271.527 290.508 271.055 289.265 271.055C288.81 271.055 287.468 270.807 285.768 270.492C281.66 269.733 275.456 268.586 274.578 269.608ZM312.646 287.923C308.295 284.476 304.67 278.586 303.401 276.072C303.48 275.688 303.872 275.15 304.805 276.072C305.137 276.401 305.563 277.104 306.092 277.978C307.423 280.175 309.407 283.449 312.186 284.553C315.294 285.787 313.788 287.314 312.646 287.923Z" fill="url(#paint8_radial_384_3865)"/>
<path d="M303.401 276.072C304.67 278.586 308.295 284.476 312.646 287.923C313.788 287.314 315.294 285.787 312.186 284.553C309.407 283.449 307.423 280.175 306.092 277.978C305.563 277.104 305.137 276.401 304.805 276.072C303.872 275.15 303.48 275.688 303.401 276.072Z" fill="black"/>
<path d="M231.616 305.16C243.036 293.13 267.835 268.1 275.666 264.222C277.634 263.247 279.779 262.054 282.056 260.788C291.098 255.758 302.219 249.573 312.646 251.294C325.698 253.449 334.943 264.761 331.136 280.382C329.514 287.037 323.253 300.048 317.02 312.999C308.624 330.446 300.28 347.785 303.401 349.33C308.839 352.024 301.769 398.887 291.981 410.738C287.341 416.354 276.228 418.946 265.877 418.398M231.616 305.16C237.779 307.494 248.909 313.671 244.124 319.704C238.142 327.245 231.616 326.168 231.616 331.016C231.616 335.864 230.528 345.56 193.548 342.867M231.616 305.16C219.651 300.851 192.678 296.542 180.496 313.779C165.269 335.325 163.093 345.021 171.795 347.176C163.093 350.767 145.365 360.858 144.059 372.493C142.869 383.101 155.278 390.557 163.136 395.279C166.051 397.03 168.34 398.406 169.076 399.426M287.086 356.333C276.21 360.642 252.39 369.907 244.124 372.493C233.791 375.725 227.265 381.65 228.353 387.037C229.44 392.423 244.668 388.653 244.124 404.813C243.838 413.314 254.387 417.79 265.877 418.398M169.076 399.426L154.392 410.669M169.076 399.426C169.679 400.263 170.791 401.55 172.411 403.152M208.231 425.82L201.508 431.207M208.231 425.82C209.88 426.504 211.319 427.183 212.582 427.854M208.231 425.82C190.034 418.276 178.094 408.774 172.411 403.152M265.877 418.398C261.526 443.487 255.725 447.805 253.369 446.828C228.646 445.196 225.902 441.386 222.368 436.479C220.483 433.862 218.372 430.932 212.582 427.854M157.988 418.279C155.904 425.933 150.081 441.563 147.866 446.828C145.147 453.292 129.92 451.138 120.131 446.828C110.342 442.519 108.167 437.671 109.255 420.973C110.125 407.614 115.418 399.606 117.956 397.271C129.92 411.277 142.972 396.733 144.059 402.658C144.74 406.364 150.313 408.595 154.392 410.669M157.988 418.279C158.462 416.537 158.743 415.208 158.743 414.509C158.743 413.096 156.835 411.911 154.392 410.669M157.988 418.279L172.411 403.152M172.882 402.658L172.411 403.152M201.508 431.207C197.2 427.849 192.736 427.436 187.022 427.436C184.191 427.436 182.281 426.524 180.671 425.755C178.569 424.751 176.977 423.991 174.514 425.82C171.042 428.399 169.648 438.18 168.398 446.953C168.081 449.175 167.774 451.333 167.444 453.292C166.139 461.049 166.175 466.938 166.356 468.913C173.562 477.07 184.177 477.025 190.826 476.996C191.202 476.995 191.566 476.993 191.916 476.993C198.442 476.993 219.108 444.135 212.582 442.519C209.064 441.648 208.075 440.308 207.143 438.498M201.508 431.207C202.119 431.684 202.728 432.22 203.337 432.823C205.282 434.75 206.111 436.422 206.813 437.838C206.925 438.065 207.034 438.284 207.143 438.498M207.143 438.498L212.582 427.854M303.401 276.072C304.67 278.586 308.295 284.476 312.646 287.923C313.788 287.314 315.294 285.787 312.186 284.553C309.407 283.449 307.423 280.175 306.092 277.978C305.563 277.104 305.137 276.401 304.805 276.072C303.872 275.15 303.48 275.688 303.401 276.072ZM274.578 269.608C277.66 270.686 285.02 272.625 289.805 271.763C290.143 271.527 290.508 271.055 289.265 271.055C288.81 271.055 287.468 270.807 285.768 270.492C281.66 269.733 275.456 268.586 274.578 269.608ZM272.947 283.614C269.865 283.255 264.028 283.721 265.333 288.462C266.964 294.387 280.016 305.16 285.998 305.16C286.665 305.16 287.299 305.174 287.894 305.186C292.641 305.287 295.001 305.337 293.068 298.158C291.328 291.694 278.929 285.768 272.947 283.614Z" stroke="black" stroke-width="2" stroke-linecap="round"/>
<path fill-rule="evenodd" clip-rule="evenodd" d="M301.292 288.042C300.455 283.756 299.213 277.402 291.511 274.588C284.595 272.061 267.241 278.257 258.022 282.258C257.449 282.506 256.907 282.746 256.401 282.976C255.39 283.325 253.999 286.257 255.957 295.082C256.034 295.725 256.178 296.354 256.401 296.955C256.237 296.303 256.089 295.679 255.957 295.082C255.461 290.942 257.723 286.191 259.102 284.094C263.964 282.23 275.199 278.726 281.248 279.62C281.599 279.672 281.95 279.723 282.301 279.774C289.5 280.814 296.448 281.817 297.993 292.482C298.659 297.083 299.783 300.264 300.612 302.61C301.797 305.966 302.379 307.612 300.153 309.257C299.727 309.572 299.211 309.966 298.626 310.413C294.805 313.328 288.006 318.517 283.61 319.07C282.825 319.034 282.036 318.935 281.248 318.763C281.902 319.102 282.705 319.184 283.61 319.07C291.314 319.424 298.689 313.686 302.492 310.728C303.344 310.065 304.018 309.541 304.474 309.257C305.472 308.638 305.512 306.417 305.111 303.665C304.553 299.839 303.144 294.987 302.272 291.982C302.072 291.295 301.901 290.704 301.774 290.245C301.6 289.614 301.453 288.866 301.292 288.042Z" fill="#65AAEA"/>
<path d="M256.401 296.955C259.642 309.816 270.985 316.527 281.248 318.763C282.036 318.935 282.825 319.034 283.61 319.07C288.006 318.517 294.805 313.328 298.626 310.413C299.211 309.966 299.727 309.572 300.153 309.257C302.379 307.612 301.797 305.966 300.612 302.61C299.783 300.264 298.659 297.083 297.993 292.482C296.448 281.817 289.5 280.814 282.301 279.774C281.95 279.723 281.599 279.672 281.248 279.62C275.199 278.726 263.964 282.23 259.102 284.094C257.723 286.191 255.461 290.942 255.957 295.082C256.089 295.679 256.237 296.303 256.401 296.955Z" fill="url(#paint9_radial_384_3865)" fill-opacity="0.23"/>
<path d="M256.401 282.976C256.907 282.746 257.449 282.506 258.022 282.258M256.401 282.976L251 284.094M256.401 282.976C255.39 283.325 253.999 286.257 255.957 295.082M304.474 309.257C305.472 308.638 305.512 306.417 305.111 303.665M304.474 309.257C306.995 312.985 312.577 320.553 314.737 321M304.474 309.257C304.018 309.541 303.344 310.065 302.492 310.728C298.689 313.686 291.314 319.424 283.61 319.07M281.248 318.763C270.985 316.527 259.642 309.816 256.401 296.955M281.248 318.763C281.902 319.102 282.705 319.184 283.61 319.07M281.248 318.763C282.036 318.935 282.825 319.034 283.61 319.07M256.401 296.955C256.178 296.354 256.034 295.725 255.957 295.082M256.401 296.955C256.237 296.303 256.089 295.679 255.957 295.082M305.111 303.665C310.3 301.242 321.543 296.284 325 295.837M305.111 303.665C304.553 299.839 303.144 294.987 302.272 291.982C302.072 291.295 301.901 290.704 301.774 290.245C301.6 289.614 301.453 288.866 301.292 288.042C300.455 283.756 299.213 277.402 291.511 274.588C284.595 272.061 267.241 278.257 258.022 282.258M258.022 282.258C258.382 280.447 259.426 276.377 260.723 274.588M283.61 319.07C288.006 318.517 294.805 313.328 298.626 310.413C299.211 309.966 299.727 309.572 300.153 309.257C302.379 307.612 301.797 305.966 300.612 302.61C299.783 300.264 298.659 297.083 297.993 292.482C296.448 281.817 289.5 280.814 282.301 279.774C281.95 279.723 281.599 279.672 281.248 279.62C275.199 278.726 263.964 282.23 259.102 284.094C257.723 286.191 255.461 290.942 255.957 295.082" stroke="black" stroke-width="2" stroke-linecap="round"/>
<path fill-rule="evenodd" clip-rule="evenodd" d="M404.479 288.246C408.375 294.716 408.267 323.65 407.725 337.309C407.537 349.568 367.727 388.775 340.814 415.28C329.851 426.078 321.028 434.767 317.895 438.668C307.072 452.147 173.951 553.507 164.21 560.516C154.469 567.525 155.011 565.368 158.799 560.516C162.587 555.664 162.587 555.124 160.963 544.881C159.34 534.637 150.14 502.827 146.893 500.131C144.296 497.975 147.976 495.279 150.14 494.201C169.622 477.307 209.883 442.55 215.078 438.668C220.273 434.787 338.098 335.332 396.361 286.09C397.444 284.113 400.582 281.776 404.479 288.246ZM291.92 430.581C287.23 418.54 278.933 393.919 283.262 391.763C288.673 389.067 321.142 370.736 327.636 361.57C332.831 354.238 357.579 333.355 369.304 323.83C375.257 320.954 388.461 314.125 393.656 309.812C400.149 304.421 400.149 323.83 400.149 326.526V337.309L291.92 430.581ZM165.833 498.514C165.401 501.964 173.229 521.158 177.198 530.324C181.094 530.324 245.562 473.174 277.309 444.599V413.328C277.309 410.633 270.275 406.859 269.192 410.094C268.719 411.509 248.964 427.797 226.852 446.029C198.441 469.454 166.138 496.088 165.833 498.514Z" fill="url(#paint10_radial_384_3865)"/>
<path d="M400.149 326.526C400.149 323.83 400.149 304.421 393.656 309.812C388.461 314.125 375.257 320.954 369.304 323.83C357.579 333.355 332.831 354.238 327.636 361.57C321.142 370.736 288.673 389.067 283.262 391.763C278.933 393.919 287.23 418.54 291.92 430.581L400.149 337.309M400.149 326.526C400.149 328.682 400.149 334.613 400.149 337.309M400.149 326.526V337.309M277.309 413.328C277.309 410.633 270.275 406.859 269.192 410.094C268.719 411.509 248.964 427.797 226.852 446.029C198.441 469.454 166.138 496.088 165.833 498.514C165.401 501.964 173.229 521.158 177.198 530.324C181.094 530.324 245.562 473.174 277.309 444.599M277.309 413.328C277.309 415.485 277.309 435.074 277.309 444.599M277.309 413.328V444.599M407.725 337.309C408.267 323.65 408.375 294.716 404.479 288.246C400.582 281.776 397.444 284.113 396.361 286.09C338.098 335.332 220.273 434.787 215.078 438.668C209.883 442.55 169.622 477.307 150.14 494.201C147.976 495.279 144.296 497.975 146.893 500.131C150.14 502.827 159.34 534.637 160.963 544.881C162.587 555.124 162.587 555.664 158.799 560.516C155.011 565.368 154.469 567.525 164.21 560.516C173.951 553.507 307.072 452.147 317.895 438.668C321.028 434.767 329.851 426.078 340.814 415.28C367.727 388.775 407.537 349.568 407.725 337.309Z" stroke="black" stroke-width="2" stroke-linecap="round"/>
<path d="M149.955 265.206C136.534 271.7 124.52 267.912 120.191 265.206L108.286 272.241C106.557 273.747 104.739 275.574 103.012 277.64C96.0624 285.954 90.5745 298.152 98.2142 308.975C100.959 312.863 105.399 316.574 112.074 319.863C141.946 334.582 142.92 323.11 139.673 315.534C147.79 320.945 169.977 308.499 184.047 303.628C198.117 298.758 166.73 257.089 149.955 265.206Z" fill="url(#paint11_radial_384_3865)"/>
<path d="M94.2158 326.357C95.7272 320.735 97.0494 314.91 98.2142 308.975M120.191 265.206C124.52 267.912 136.534 271.7 149.955 265.206C166.73 257.089 198.117 298.758 184.047 303.628C169.977 308.499 147.79 320.945 139.673 315.534C142.92 323.11 141.946 334.582 112.074 319.863C105.399 316.574 100.959 312.863 98.2142 308.975M108.286 272.241C106.557 273.747 104.739 275.574 103.012 277.64C96.0624 285.954 90.5745 298.152 98.2142 308.975" stroke="black" stroke-width="2" stroke-linecap="round"/>
<path d="M126.375 198.403C127.658 195.598 128.514 192.299 128.782 191C134.8 203.079 133.998 207.366 128.782 206.976C123.566 206.586 124.77 201.91 126.375 198.403Z" fill="#64DAFF" stroke="black" stroke-width="2" stroke-linecap="round"/>
<path d="M116.687 211.164C117.329 209.586 117.757 207.731 117.891 207C120.9 213.795 120.499 216.206 117.891 215.986C115.283 215.767 115.885 213.137 116.687 211.164Z" fill="#64DAFF" stroke="black" stroke-width="2" stroke-linecap="round"/>
<defs>
<radialGradient id="paint0_radial_384_3865" cx="0" cy="0" r="1" gradientUnits="userSpaceOnUse" gradientTransform="translate(145.568 200.008) rotate(80.9043) scale(177.453 140.441)">
<stop offset="0.5" stop-color="white"/>
<stop offset="0.5001" stop-color="#EEEEEE"/>
<stop offset="0.85" stop-color="#EEEEEE"/>
<stop offset="0.8501" stop-color="white"/>
</radialGradient>
<radialGradient id="paint1_radial_384_3865" cx="0" cy="0" r="1" gradientUnits="userSpaceOnUse" gradientTransform="translate(145.568 200.008) rotate(67.6168) scale(200.818 159.27)">
<stop offset="0.5" stop-color="white"/>
<stop offset="0.5001" stop-color="#EEEEEE"/>
<stop offset="1" stop-color="#EEEEEE"/>
</radialGradient>
<radialGradient id="paint2_radial_384_3865" cx="0" cy="0" r="1" gradientUnits="userSpaceOnUse" gradientTransform="translate(187.977 201.734) rotate(69.5507) scale(23.7631 55.6894)">
<stop offset="0.46" stop-color="#FF9B04"/>
<stop offset="0.4601" stop-color="#FF7A00"/>
</radialGradient>
<linearGradient id="paint3_linear_384_3865" x1="34.5418" y1="275.988" x2="167.548" y2="447.351" gradientUnits="userSpaceOnUse">
<stop offset="0.495" stop-color="white"/>
<stop offset="0.4951" stop-color="#50FFD5"/>
</linearGradient>
<radialGradient id="paint4_radial_384_3865" cx="0" cy="0" r="1" gradientUnits="userSpaceOnUse" gradientTransform="translate(205.451 262.662) rotate(88.1128) scale(375.13 384.393)">
<stop offset="0.445" stop-color="white"/>
<stop offset="0.4451" stop-color="#DEF457"/>
</radialGradient>
<radialGradient id="paint5_radial_384_3865" cx="0" cy="0" r="1" gradientUnits="userSpaceOnUse" gradientTransform="translate(146.296 401.024) rotate(107.138) scale(98.8787 212.49)">
<stop offset="0.455" stop-color="#FF9B04"/>
<stop offset="0.4551" stop-color="#FF7A00"/>
</radialGradient>
<radialGradient id="paint6_radial_384_3865" cx="0" cy="0" r="1" gradientUnits="userSpaceOnUse" gradientTransform="translate(288.099 276.84) rotate(107.523) scale(54.194 53.404)">
<stop offset="0.43" stop-color="#FF9B04"/>
<stop offset="0.4301" stop-color="#FF7A00"/>
</radialGradient>
<radialGradient id="paint7_radial_384_3865" cx="0" cy="0" r="1" gradientUnits="userSpaceOnUse" gradientTransform="translate(146.296 401.024) rotate(107.138) scale(98.8787 212.49)">
<stop offset="0.455" stop-color="#FF9B04"/>
<stop offset="0.4551" stop-color="#FF7A00"/>
</radialGradient>
<radialGradient id="paint8_radial_384_3865" cx="0" cy="0" r="1" gradientUnits="userSpaceOnUse" gradientTransform="translate(241.479 294.966) rotate(96.5742) scale(183.239 193.757)">
<stop offset="0.465" stop-color="white"/>
<stop offset="0.4651" stop-color="#EEEEEE"/>
</radialGradient>
<radialGradient id="paint9_radial_384_3865" cx="0" cy="0" r="1" gradientUnits="userSpaceOnUse" gradientTransform="translate(284.917 284.356) rotate(85.1903) scale(36.7736 57.9265)">
<stop offset="0.51" stop-color="#9DEDFF"/>
<stop offset="0.5101" stop-color="#F2A42D"/>
</radialGradient>
<radialGradient id="paint10_radial_384_3865" cx="0" cy="0" r="1" gradientUnits="userSpaceOnUse" gradientTransform="translate(195.609 350.776) rotate(69.1966) scale(229.164 462.404)">
<stop offset="0.49" stop-color="white"/>
<stop offset="0.4901" stop-color="#50FFD5"/>
</radialGradient>
<radialGradient id="paint11_radial_384_3865" cx="0" cy="0" r="1" gradientUnits="userSpaceOnUse" gradientTransform="translate(150.386 254.088) rotate(95.4836) scale(97.282 92.1323)">
<stop offset="0.555" stop-color="white"/>
<stop offset="0.5551" stop-color="#EEEEEE"/>
</radialGradient>
</defs>
</svg>
