<svg width="460" height="712" viewBox="0 0 460 712" fill="none" xmlns="http://www.w3.org/2000/svg">
<rect width="460" height="712" rx="20" fill="black"/>
<path d="M369.748 319.955C367.593 324.63 363.04 327.983 358.314 330.258C351.212 333.676 342.204 331.261 339.235 323.96C336.449 317.108 337.601 309.177 350.874 304.251C377.094 294.519 374.947 308.675 369.748 319.955Z" fill="#FF9B04" stroke="black" stroke-width="5"/>
<path fill-rule="evenodd" clip-rule="evenodd" d="M287.363 420.86C302.595 421.984 329.357 416.779 346.668 388.262C371.152 347.929 340.63 292.777 332.615 292.108C327.224 291.659 314.215 292.7 305.574 293.551C303 293.804 300.939 295.807 300.544 298.4L282.829 414.689C282.364 417.737 284.332 420.637 287.363 420.86ZM335.469 366.536V366.536C336.035 373.714 326.771 371.915 327.694 364.773C327.95 362.786 328.685 361.178 330.089 360.408C334.152 358.179 334.81 358.179 335.469 366.536Z" fill="white"/>
<path d="M327.694 364.773C326.771 371.915 336.035 373.714 335.469 366.536V366.536C334.81 358.179 334.152 358.179 330.089 360.408C328.685 361.178 327.95 362.786 327.694 364.773Z" fill="black"/>
<path d="M287.363 420.86C302.595 421.984 329.357 416.779 346.668 388.262C371.152 347.929 340.63 292.777 332.615 292.108C327.224 291.659 314.215 292.7 305.574 293.551M287.363 420.86C284.332 420.637 282.364 417.737 282.829 414.689M287.363 420.86V420.86C284.331 420.637 282.358 417.778 282.816 414.773L282.829 414.689M282.829 414.689L300.544 298.4M300.544 298.4C300.939 295.807 303 293.804 305.574 293.551M300.544 298.4L300.554 298.336C300.943 295.781 303.002 293.804 305.574 293.551V293.551M335.469 366.536V366.536C336.035 373.714 326.771 371.915 327.694 364.773C327.95 362.786 328.685 361.178 330.089 360.408C334.152 358.179 334.81 358.179 335.469 366.536Z" stroke="black" stroke-width="5"/>
<path d="M322.683 313.989C325.551 287.729 308.363 279.004 295.874 275.626C288.261 273.567 279.141 273.492 271.313 274.457C246.238 277.547 209.202 282.898 197.613 287.552C180.462 294.439 118.429 294.772 97.825 303.325C77.2214 311.879 88.804 351.202 93.5929 368.197C98.3818 385.193 147.496 451.953 181.353 463.505C215.21 475.058 232.361 472.836 273.011 443.4C313.662 413.963 318.339 353.756 322.683 313.989Z" fill="white"/>
<path d="M215.098 316.322L193.047 357.2M228.686 349.98L180.685 324.764M322.683 313.989C325.551 287.729 308.363 279.004 295.874 275.626C288.261 273.567 279.141 273.492 271.313 274.457C246.238 277.547 209.202 282.898 197.613 287.552C180.462 294.439 118.429 294.772 97.825 303.325C77.2214 311.879 88.804 351.202 93.5929 368.197C98.3818 385.193 147.496 451.953 181.353 463.505C215.21 475.058 232.361 472.836 273.011 443.4C313.662 413.963 318.339 353.756 322.683 313.989Z" stroke="black" stroke-width="5"/>
<path d="M284.645 309.347C305.782 282.788 303.747 259.41 301.943 249.134C301.356 245.793 298.178 241.897 296.693 244.947C296.016 246.336 295.518 247.834 294.632 249.099C269.131 285.486 267.383 229.742 253.174 247.11C238.717 264.781 227.263 246.443 221.925 243.887C216.588 241.331 222.593 266.003 224.483 282.674C226.374 299.345 257.845 343.022 284.645 309.347Z" fill="#FF9B04"/>
<path d="M181.78 260.891C183.026 245.509 179.853 247.591 178.11 250.555C174.292 255.742 169.897 261.089 158.688 264.29C144.676 268.291 137.743 243.887 124.732 258.668C111.721 273.45 101.156 241.664 97.709 254.334C94.2616 267.004 102.38 333.131 144.526 328.796C186.673 324.462 180.223 280.118 181.78 260.891Z" fill="#FF9B04"/>
<path d="M284.645 309.347C305.782 282.788 303.747 259.41 301.943 249.134C301.356 245.793 298.178 241.897 296.693 244.947C296.016 246.336 295.518 247.834 294.632 249.099C269.131 285.486 267.383 229.742 253.174 247.11C238.717 264.781 227.263 246.443 221.925 243.887C216.588 241.331 222.593 266.003 224.483 282.674C226.374 299.345 257.845 343.022 284.645 309.347Z" stroke="black" stroke-width="5"/>
<path d="M181.78 260.891C183.026 245.509 179.853 247.591 178.11 250.555C174.292 255.742 169.897 261.089 158.688 264.29C144.676 268.291 137.743 243.887 124.732 258.668C111.721 273.45 101.156 241.664 97.709 254.334C94.2616 267.004 102.38 333.131 144.526 328.796C186.673 324.462 180.223 280.118 181.78 260.891Z" stroke="black" stroke-width="5"/>
</svg>

