<svg width="460" height="712" viewBox="0 0 460 712" fill="none" xmlns="http://www.w3.org/2000/svg">
<g clip-path="url(#clip0_384_3937)">
<rect width="460" height="712" rx="20" fill="white"/>
<path fill-rule="evenodd" clip-rule="evenodd" d="M183.167 282.463C204.134 289.204 247.909 303.881 255.274 308.662C256.437 309.417 258.006 310.5 259.888 311.798C272.905 320.777 300.876 340.07 312.659 332.582C326.146 324.012 344.637 312.164 339.685 310.311C338.616 309.91 336.593 309.227 334.005 308.352C324.611 305.177 307.76 299.482 301.921 295.654C314.643 293.082 334.654 285.295 312.923 274.719C285.761 261.498 324.743 231.916 357.142 276.427C370.585 294.895 379.131 302.95 384.111 305.915C391.132 310.096 391.06 304.156 387.621 303.022C381.743 301.084 375.38 280.895 379.231 275.179C383.083 269.462 368.614 250.866 363.622 244.808C360.259 240.727 339.677 230.836 325.807 224.17C319.085 220.94 313.939 218.467 313.094 217.78C310.504 215.676 240.761 221.437 246.116 233.131C250.4 242.486 227.337 260.561 215.269 268.43C208.224 268.171 200.906 269.023 194.895 272.798C184.514 279.318 182.751 281.958 183.167 282.463Z" fill="#2250EE"/>
<path d="M384.111 305.915C374.33 310.018 355.519 319.134 358.514 322.769C362.259 327.313 360.704 347.245 365.709 343.968C370.714 340.691 384.413 331.097 384.111 305.915Z" fill="#FF9B04"/>
<path d="M301.921 295.654C294.472 290.772 245.461 271.819 236.201 270.972C231.231 270.518 223.433 268.729 215.269 268.43M301.921 295.654C314.643 293.082 334.654 285.295 312.923 274.719C285.761 261.498 324.743 231.916 357.142 276.427C370.585 294.895 379.131 302.95 384.111 305.915M301.921 295.654C307.76 299.482 324.611 305.177 334.005 308.352C336.593 309.227 338.616 309.91 339.685 310.311C344.637 312.164 326.146 324.012 312.659 332.582C300.876 340.07 272.905 320.777 259.888 311.798C258.006 310.5 256.437 309.417 255.274 308.662C247.909 303.881 204.134 289.204 183.167 282.463C182.751 281.958 184.514 279.318 194.895 272.798C200.906 269.023 208.224 268.171 215.269 268.43M215.269 268.43C227.337 260.561 250.4 242.486 246.116 233.131C240.761 221.437 310.504 215.676 313.094 217.78C313.939 218.467 319.085 220.94 325.807 224.17C339.677 230.836 360.259 240.727 363.622 244.808C368.614 250.866 383.083 269.462 379.231 275.179C375.38 280.895 381.743 301.084 387.621 303.022C391.06 304.156 391.132 310.096 384.111 305.915M384.111 305.915C374.33 310.018 355.519 319.134 358.514 322.769C362.259 327.313 360.704 347.245 365.709 343.968C370.714 340.691 384.413 331.097 384.111 305.915Z" stroke="black" stroke-width="2"/>
<path d="M336.115 385.763C334.188 386.671 310.077 371.75 298.263 364.176L241.331 407.687L269.863 525.489C278.664 535.831 300.258 556.287 316.231 555.382C336.198 554.252 317.129 550.386 332.678 546.937C348.226 543.488 373.171 538.255 382.372 528.118C391.573 517.982 372.46 525.22 371.509 514.937C370.558 504.653 359.571 503.493 360.639 475.371C361.706 447.25 347.251 454.054 349.59 432.547C351.929 411.04 338.524 384.629 336.115 385.763Z" fill="#2250EE" stroke="black" stroke-width="2"/>
<path d="M106.204 296.177C106.976 301.275 96.4648 318.182 91.1125 325.999C89.117 322.873 85.686 315.796 87.9269 312.502C90.728 308.385 99.4969 277.163 103.446 269.984C107.395 262.804 111.481 248.548 107.607 242.48C103.733 236.411 111.37 216.782 114.126 215.024C116.33 213.617 114.645 197.609 113.526 189.782L119.865 199.713C118.081 220.005 113.733 261.554 110.61 265.411C106.707 270.232 105.239 289.805 106.204 296.177Z" fill="#AC7152" stroke="black" stroke-width="2"/>
<path d="M105.673 182.179C105.735 178.76 108.366 176.147 111.419 176.202C114.471 176.257 117.007 178.963 116.945 182.382C116.883 185.8 114.252 188.413 111.2 188.358C108.147 188.303 105.612 185.597 105.673 182.179Z" stroke="black" stroke-width="2"/>
<path d="M431.727 158.114L160.9 181.087L141.022 180.991C156.617 179.749 192.305 174.325 210.299 162.563C232.792 147.86 108.531 185.402 149.104 166.749C181.563 151.827 143.675 158.598 120.674 163.848L290.584 90.4015C271.475 100.814 230.743 124.627 220.684 136.581C210.626 148.534 329.431 117.544 390.091 100.555C361.87 110.037 298.758 131.567 272.078 141.824C245.399 152.082 342.788 131.011 394.818 119.194C369.89 125.278 310.154 141.151 270.635 155.971C231.115 170.79 379.057 143.726 457.967 128.341C423.25 136.517 343.483 154.519 302.151 161.118C260.818 167.717 371.313 161.865 431.727 158.114Z" fill="#64DAFF" stroke="black" stroke-width="2"/>
<path d="M-20.7413 197.359L83.6059 178.744L90.7693 179.082C84.7833 180.077 70.3672 184.821 60.591 195.842C48.3707 209.619 103.748 175.267 83.8898 192.596C68.0035 206.459 83.5894 200.455 93.3681 195.721L11.5053 263.831C21.3097 254.113 42.6582 231.853 49.6172 220.551C56.5761 209.248 4.99271 237.405 -21.6689 252.896C-8.82655 244.18 19.9831 224.379 32.4832 214.903C44.9834 205.427 3.90186 224.366 -18.2014 235.02C-7.49428 229.512 18.523 215.076 36.9349 201.398C55.3467 187.72 -5.68557 211.763 -38.5032 225.495C-23.6741 218.108 10.1802 201.886 26.9644 196.088C43.7487 190.29 2.15408 194.519 -20.7413 197.359Z" fill="#64DAFF" stroke="black" stroke-width="2"/>
<path fill-rule="evenodd" clip-rule="evenodd" d="M116.648 463.806C117.746 471.748 123.984 479.593 126.966 482.523C175.66 499.956 274.204 535.4 278.832 537.711C284.617 540.6 309.156 528.033 312.704 525.109C314.111 523.95 313.629 522.609 312.973 520.785C311.974 518.011 310.574 514.12 314.82 508.054C320.449 500.013 319.434 464.078 318.222 447.116C319.837 445.826 321.408 444.575 322.886 443.399C326.003 440.919 328.705 438.768 330.53 437.264C339.147 430.164 341.62 409.411 339.115 406.371L327.426 392.186C326.24 390.748 319.965 387.465 313.721 384.198C308.972 381.714 304.242 379.239 301.782 377.592C296.086 373.779 288.214 368.358 293.997 342.326C299.78 316.294 286.838 300.589 281.321 294.928C280.397 293.979 279.72 293.186 279.142 292.508C276.269 289.142 275.848 288.648 259.763 286.324C240.44 283.533 210.684 311.457 208.299 316.825C205.914 322.193 196.015 332.902 190.439 337.497C182.418 333.616 162.112 324.604 145.056 319.605C141.852 318.666 138.274 317.575 134.489 316.422C113.085 309.897 85.0806 301.361 80.9763 306.912C78.3884 310.411 82.8108 316.192 86.9012 321.539C90.4455 326.172 93.7406 330.479 92.0104 332.695C88.2835 337.467 84.6183 375.364 114.824 386.199L127.959 389.744C125.5 391.595 123.615 392.901 122.518 393.469C114.169 397.797 102.72 414.888 105.643 418.434C108.565 421.98 115.276 453.878 116.648 463.806ZM265.608 307.877C260.05 303.61 248.205 307.758 242.977 310.364C240.996 311.266 257.06 310.93 265.34 310.649C267.745 311.503 271.166 312.143 265.608 307.877ZM250.433 320.382C247.719 322.618 243.145 327.919 246.556 331.233C250.82 335.374 257.583 330.652 255.066 321.668C256.379 322.382 257.727 323.444 259.288 324.994C263.97 329.642 267.16 330.416 267.846 328.149C268.328 326.556 263.782 324.478 261.332 323.738C263.12 323.233 265.665 321.371 264.446 319.893C263.855 319.176 263.488 319.765 262.998 320.553C262.103 321.991 260.796 324.091 256.962 320.106C252.214 315.171 246.973 317.279 244.945 318.95C243.484 319.587 241.689 320.782 246.198 320.47C247.805 320.358 249.18 320.3 250.433 320.382ZM259.884 323.652C259.636 323.351 260.297 323.426 261.332 323.738C260.669 323.925 260.11 323.926 259.884 323.652Z" fill="white"/>
<path d="M242.977 310.364C248.205 307.758 260.05 303.61 265.608 307.877C271.166 312.143 267.745 311.503 265.34 310.649C257.06 310.93 240.996 311.266 242.977 310.364Z" fill="black"/>
<path d="M256.962 320.106C252.214 315.171 246.973 317.279 244.945 318.95C243.484 319.587 241.689 320.782 246.198 320.47C247.805 320.358 249.18 320.3 250.433 320.382C252.107 320.492 253.563 320.852 255.066 321.668C256.379 322.382 257.727 323.444 259.288 324.994C263.97 329.642 267.16 330.416 267.846 328.149C268.328 326.556 263.782 324.478 261.332 323.738C260.669 323.925 260.11 323.926 259.884 323.652C259.636 323.351 260.297 323.426 261.332 323.738C263.12 323.233 265.665 321.371 264.446 319.893C263.855 319.176 263.488 319.765 262.998 320.553C262.103 321.991 260.796 324.091 256.962 320.106Z" fill="black"/>
<path d="M250.433 320.382C247.719 322.618 243.145 327.919 246.556 331.233C250.82 335.374 257.583 330.652 255.066 321.668C253.563 320.852 252.107 320.492 250.433 320.382Z" fill="black"/>
<path d="M190.439 337.497C196.015 332.902 205.914 322.193 208.299 316.825C210.684 311.457 240.44 283.533 259.763 286.324C275.848 288.648 276.269 289.142 279.142 292.508C279.72 293.186 280.397 293.979 281.321 294.928C286.838 300.589 299.78 316.294 293.997 342.326C288.214 368.358 296.086 373.779 301.782 377.592C304.242 379.239 308.972 381.714 313.721 384.198C319.965 387.465 326.24 390.748 327.426 392.186M190.439 337.497C182.418 333.616 162.112 324.604 145.056 319.605C141.852 318.666 138.274 317.575 134.489 316.422C113.085 309.897 85.0806 301.361 80.9763 306.912C78.3884 310.411 82.8108 316.192 86.9012 321.539C90.4455 326.172 93.7406 330.479 92.0104 332.695C88.2835 337.467 84.6183 375.364 114.824 386.199L127.959 389.744M190.439 337.497C185.596 341.488 144.219 377.511 127.959 389.744M327.426 392.186C329.513 394.719 336.61 403.332 339.115 406.371M327.426 392.186L339.115 406.371M339.115 406.371C341.62 409.411 339.147 430.164 330.53 437.264C328.705 438.768 326.003 440.919 322.886 443.399C321.408 444.575 319.837 445.826 318.222 447.116M223.216 442.336C217.64 446.931 227.929 470.777 237.084 487.05C246.239 503.324 289.445 505.147 294.067 505.592C298.689 506.036 306.441 503.05 309.393 501.468C312.345 499.886 312.464 493.834 312.821 490.136C313.179 486.439 296.033 470.797 294.87 468.352C294.07 466.671 307.164 455.954 318.222 447.116M318.222 447.116C319.434 464.078 320.449 500.013 314.82 508.054C310.574 514.12 311.974 518.011 312.973 520.785C313.629 522.609 314.111 523.95 312.704 525.109C309.156 528.033 284.617 540.6 278.832 537.711C274.204 535.4 175.66 499.956 126.966 482.523C123.984 479.593 117.746 471.748 116.648 463.806C115.276 453.878 108.565 421.98 105.643 418.434C102.72 414.888 114.169 397.797 122.518 393.469C123.615 392.901 125.5 391.595 127.959 389.744M250.433 320.382C249.18 320.3 247.805 320.358 246.198 320.47C241.689 320.782 243.484 319.587 244.945 318.95C246.973 317.279 252.214 315.171 256.962 320.106C260.796 324.091 262.103 321.991 262.998 320.553C263.488 319.765 263.855 319.176 264.446 319.893C265.665 321.371 263.12 323.233 261.332 323.738M250.433 320.382C247.719 322.618 243.145 327.919 246.556 331.233C250.82 335.374 257.583 330.652 255.066 321.668M250.433 320.382C252.107 320.492 253.563 320.852 255.066 321.668M255.066 321.668C256.379 322.382 257.727 323.444 259.288 324.994C263.97 329.642 267.16 330.416 267.846 328.149C268.328 326.556 263.782 324.478 261.332 323.738M261.332 323.738C260.297 323.426 259.636 323.351 259.884 323.652C260.11 323.926 260.669 323.925 261.332 323.738ZM242.977 310.364C248.205 307.758 260.05 303.61 265.608 307.877C271.166 312.143 267.745 311.503 265.34 310.649C257.06 310.93 240.996 311.266 242.977 310.364Z" stroke="black" stroke-width="2"/>
<path d="M242.388 372.124C235.329 375.906 205.551 371.671 191.545 369.08C193.017 371.824 193.913 374.251 185.718 362.01C177.523 349.768 187.151 338.781 192.99 334.818C191.959 334.254 189.429 333.173 187.551 333.364C185.204 333.602 171.769 323.474 177.596 330.544C182.257 336.2 179.229 358.595 177.133 369.085C180.59 370.193 188.004 373.015 190.002 375.439C192.499 378.47 253.625 385.76 259.596 381.687C265.567 377.614 299.801 384.17 300.334 378.643C300.867 373.115 301.877 372.283 298.786 370.59C295.696 368.898 300.418 363.31 298.249 361.706C296.079 360.102 251.212 367.397 242.388 372.124Z" fill="#2250EE" stroke="black" stroke-width="2"/>
<path d="M178.11 358.951C179.982 358.822 184.261 358.801 186.401 359.751C189.076 360.938 187.561 362.187 189.731 363.791C191.466 365.074 192.673 367.019 193.06 367.831L188.515 371.577C192.321 380.312 184.358 380.938 179.813 384.684C175.267 388.429 180.766 394.073 173.187 385.904C167.123 379.369 170.339 370.443 172.705 366.798C168.691 370.105 167.837 367.714 169.305 364.73C158.002 367.478 129.741 378.46 145.424 360.447C157.971 346.038 172.443 353.446 178.11 358.951Z" fill="#2250EE"/>
<path d="M178.11 358.951C179.982 358.822 184.261 358.801 186.401 359.751C189.076 360.938 187.561 362.187 189.731 363.791C191.466 365.074 192.673 367.019 193.06 367.831L188.515 371.577M178.11 358.951C172.443 353.446 157.971 346.038 145.424 360.447C129.741 378.46 158.002 367.478 169.305 364.73M178.11 358.951C173.738 358.967 170.607 362.082 169.305 364.73M188.515 371.577C185.77 367.903 178.765 361.804 172.705 366.798M188.515 371.577C192.321 380.312 184.358 380.938 179.813 384.684C175.267 388.429 180.766 394.073 173.187 385.904C167.123 379.369 170.339 370.443 172.705 366.798M172.705 366.798C168.691 370.105 167.837 367.714 169.305 364.73" stroke="black" stroke-width="2"/>
<path d="M189.219 323.093C187.245 315.998 209.988 324.148 221.606 329.109C234.776 345.091 239.713 356.956 235.458 359.624C231.203 362.292 216.383 356.056 204.926 347.048C193.469 338.04 191.687 331.961 189.219 323.093Z" fill="#FF9B04" stroke="black" stroke-width="2"/>
<path d="M403.84 51.4771C405.114 52.3501 406.72 53.394 407.9 53.9681C408.323 54.1735 408.811 54.1735 409.234 53.9681C410.415 53.394 412.02 52.3501 413.294 51.4771C414.366 50.7428 415.949 51.1319 416.819 52.0962C417.786 53.1675 419.314 54.4419 421.621 55.3918C424.307 56.4979 426.783 57.3016 428.454 57.7837C429.413 58.0601 430.071 58.969 429.963 59.9605C428.954 69.1639 425.665 86.2529 419.067 92.8505C414.832 97.0857 412.097 98.9983 410.467 99.7263C409.458 100.177 407.676 100.177 406.667 99.7263C405.037 98.9983 402.302 97.0857 398.067 92.8505C391.47 86.2529 388.181 69.1639 387.172 59.9605C387.063 58.969 387.722 58.0601 388.68 57.7837C390.351 57.3016 392.827 56.4979 395.513 55.3918C397.82 54.4419 399.349 53.1675 400.315 52.0962C401.185 51.1319 402.769 50.7428 403.84 51.4771Z" fill="url(#paint0_radial_384_3937)" stroke="black" stroke-width="2"/>
<path d="M401.667 71.7291C401.069 66.6313 400.12 61.079 399.495 57.8406C402.828 70.2307 404.334 74.7973 406.026 80.6253C406.235 81.3443 406.204 82.1096 406.114 82.853C405.788 85.5574 408.144 84.0648 410.577 81.8273C411.719 80.7762 413.676 81.5401 413.676 83.0927C413.676 83.6884 413.362 84.2401 412.85 84.545L408.702 87.0165C404.08 89.7698 398.136 88.4412 395.078 84.0426C394.938 83.8835 394.799 83.6984 394.662 83.4858C393.853 82.2262 394.145 82.6484 394.965 83.8763C395.002 83.9322 395.04 83.9876 395.078 84.0426C398.314 87.7175 402.348 77.5261 401.667 71.7291Z" fill="#FF7A00"/>
<path d="M415.018 80.3221C413.968 75.0824 415.317 62.3425 416.122 56.6274C412.976 70.1339 411.551 74.593 409.885 81.1578C408.552 86.4097 410.132 91.0225 411.088 92.6724C412.836 90.7388 416.069 85.5618 415.018 80.3221Z" fill="#FF7A00"/>
<path d="M403.84 123.076C405.114 123.949 406.72 124.993 407.9 125.567C408.323 125.772 408.811 125.772 409.234 125.567C410.415 124.993 412.02 123.949 413.294 123.076C414.366 122.341 415.949 122.731 416.819 123.695C417.786 124.766 419.314 126.041 421.621 126.99C424.307 128.097 426.783 128.9 428.454 129.382C429.413 129.659 430.071 130.568 429.963 131.559C428.954 140.763 425.665 157.852 419.067 164.449C414.832 168.684 412.097 170.597 410.467 171.325C409.458 171.775 407.676 171.775 406.667 171.325C405.037 170.597 402.302 168.684 398.067 164.449C391.47 157.852 388.181 140.763 387.172 131.559C387.063 130.568 387.722 129.659 388.68 129.382C390.351 128.9 392.827 128.097 395.513 126.99C397.82 126.041 399.349 124.766 400.315 123.695C401.185 122.731 402.769 122.341 403.84 123.076Z" fill="url(#paint1_radial_384_3937)" stroke="black" stroke-width="2"/>
<path d="M401.667 143.328C401.069 138.23 400.12 132.678 399.495 129.439C402.828 141.829 404.334 146.396 406.026 152.224C406.235 152.943 406.204 153.708 406.114 154.452C405.788 157.156 408.144 155.663 410.577 153.426C411.719 152.375 413.676 153.139 413.676 154.691C413.676 155.287 413.362 155.839 412.85 156.144L408.702 158.615C404.08 161.368 398.136 160.04 395.078 155.641C394.938 155.482 394.799 155.297 394.662 155.084C393.853 153.825 394.145 154.247 394.965 155.475C395.002 155.531 395.04 155.586 395.078 155.641C398.314 159.316 402.348 149.125 401.667 143.328Z" fill="#FF7A00"/>
<path d="M415.018 151.921C413.968 146.681 415.317 133.941 416.122 128.226C412.976 141.733 411.551 146.192 409.885 152.756C408.552 158.008 410.132 162.621 411.088 164.271C412.836 162.337 416.069 157.16 415.018 151.921Z" fill="#FF7A00"/>
</g>
<defs>
<radialGradient id="paint0_radial_384_3937" cx="0" cy="0" r="1" gradientUnits="userSpaceOnUse" gradientTransform="translate(406.013 54.2567) rotate(97.8291) scale(68.7476 48.2508)">
<stop offset="0.455" stop-color="#FF9B04"/>
<stop offset="0.4551" stop-color="#FF7A00"/>
<stop offset="0.605" stop-color="#FF7A00"/>
<stop offset="0.6051" stop-color="#FF5C00"/>
</radialGradient>
<radialGradient id="paint1_radial_384_3937" cx="0" cy="0" r="1" gradientUnits="userSpaceOnUse" gradientTransform="translate(406.013 125.855) rotate(97.8291) scale(68.7476 48.2508)">
<stop offset="0.455" stop-color="#FF9B04"/>
<stop offset="0.4551" stop-color="#FF7A00"/>
<stop offset="0.605" stop-color="#FF7A00"/>
<stop offset="0.6051" stop-color="#FF5C00"/>
</radialGradient>
<clipPath id="clip0_384_3937">
<rect width="460" height="712" rx="20" fill="white"/>
</clipPath>
</defs>
</svg>
