<svg width="460" height="712" viewBox="0 0 460 712" fill="none" xmlns="http://www.w3.org/2000/svg">
<rect width="460" height="712" rx="20" fill="white"/>
<path d="M403.84 51.4771C405.114 52.3501 406.72 53.394 407.9 53.9681C408.323 54.1735 408.811 54.1735 409.234 53.9681C410.415 53.394 412.02 52.3501 413.294 51.4771C414.366 50.7428 415.949 51.1319 416.819 52.0962C417.786 53.1675 419.314 54.4419 421.621 55.3918C424.307 56.4979 426.783 57.3016 428.454 57.7837C429.413 58.0601 430.071 58.969 429.963 59.9605C428.954 69.1639 425.665 86.2529 419.067 92.8505C414.832 97.0857 412.097 98.9983 410.467 99.7263C409.458 100.177 407.676 100.177 406.667 99.7263C405.037 98.9983 402.302 97.0857 398.067 92.8505C391.47 86.2529 388.181 69.1639 387.172 59.9605C387.063 58.969 387.722 58.0601 388.68 57.7837C390.351 57.3016 392.827 56.4979 395.513 55.3918C397.82 54.4419 399.349 53.1675 400.315 52.0962C401.185 51.1319 402.769 50.7428 403.84 51.4771Z" fill="url(#paint0_radial_384_3961)" stroke="black" stroke-width="2"/>
<path d="M401.667 71.7291C401.069 66.6313 400.12 61.079 399.495 57.8406C402.828 70.2307 404.334 74.7973 406.026 80.6253C406.235 81.3443 406.204 82.1096 406.114 82.853C405.788 85.5574 408.144 84.0648 410.577 81.8273C411.719 80.7762 413.676 81.5401 413.676 83.0927C413.676 83.6884 413.362 84.2401 412.85 84.545L408.702 87.0165C404.08 89.7698 398.136 88.4412 395.078 84.0426C394.938 83.8835 394.799 83.6984 394.662 83.4858C393.853 82.2262 394.145 82.6484 394.965 83.8763C395.002 83.9322 395.04 83.9876 395.078 84.0426C398.314 87.7175 402.348 77.5261 401.667 71.7291Z" fill="#FF7A00"/>
<path d="M415.018 80.3221C413.968 75.0824 415.317 62.3425 416.122 56.6274C412.976 70.1339 411.551 74.593 409.885 81.1578C408.552 86.4097 410.132 91.0225 411.088 92.6724C412.836 90.7388 416.069 85.5618 415.018 80.3221Z" fill="#FF7A00"/>
<path d="M403.84 123.477C405.114 124.35 406.72 125.394 407.9 125.968C408.323 126.174 408.811 126.174 409.234 125.968C410.415 125.394 412.02 124.35 413.294 123.477C414.366 122.743 415.949 123.132 416.819 124.096C417.786 125.168 419.314 126.442 421.621 127.392C424.307 128.498 426.783 129.302 428.454 129.784C429.413 130.06 430.071 130.969 429.963 131.96C428.954 141.164 425.665 158.253 419.067 164.851C414.832 169.086 412.097 170.998 410.467 171.726C409.458 172.177 407.676 172.177 406.667 171.726C405.037 170.998 402.302 169.086 398.067 164.851C391.47 158.253 388.181 141.164 387.172 131.96C387.063 130.969 387.722 130.06 388.68 129.784C390.351 129.302 392.827 128.498 395.513 127.392C397.82 126.442 399.349 125.168 400.315 124.096C401.185 123.132 402.769 122.743 403.84 123.477Z" fill="url(#paint1_radial_384_3961)" stroke="black" stroke-width="2"/>
<path d="M401.667 143.729C401.069 138.631 400.12 133.079 399.495 129.841C402.828 142.231 404.334 146.797 406.026 152.625C406.235 153.344 406.204 154.11 406.114 154.853C405.788 157.557 408.144 156.065 410.577 153.827C411.719 152.776 413.676 153.54 413.676 155.093C413.676 155.688 413.362 156.24 412.85 156.545L408.702 159.017C404.08 161.77 398.136 160.441 395.078 156.043C394.938 155.883 394.799 155.698 394.662 155.486C393.853 154.226 394.145 154.648 394.965 155.876C395.002 155.932 395.04 155.988 395.078 156.043C398.314 159.717 402.348 149.526 401.667 143.729Z" fill="#FF7A00"/>
<path d="M415.018 152.322C413.968 147.082 415.317 134.342 416.122 128.627C412.976 142.134 411.551 146.593 409.885 153.158C408.552 158.41 410.132 163.022 411.088 164.672C412.836 162.739 416.069 157.562 415.018 152.322Z" fill="#FF7A00"/>
<path d="M403.84 195.477C405.114 196.35 406.72 197.394 407.9 197.968C408.323 198.174 408.811 198.174 409.234 197.968C410.415 197.394 412.02 196.35 413.294 195.477C414.366 194.743 415.949 195.132 416.819 196.096C417.786 197.168 419.314 198.442 421.621 199.392C424.307 200.498 426.783 201.302 428.454 201.784C429.413 202.06 430.071 202.969 429.963 203.96C428.954 213.164 425.665 230.253 419.067 236.851C414.832 241.086 412.097 242.998 410.467 243.726C409.458 244.177 407.676 244.177 406.667 243.726C405.037 242.998 402.302 241.086 398.067 236.851C391.47 230.253 388.181 213.164 387.172 203.96C387.063 202.969 387.722 202.06 388.68 201.784C390.351 201.302 392.827 200.498 395.513 199.392C397.82 198.442 399.349 197.168 400.315 196.096C401.185 195.132 402.769 194.743 403.84 195.477Z" fill="url(#paint2_radial_384_3961)" stroke="black" stroke-width="2"/>
<path d="M401.667 215.729C401.069 210.631 400.12 205.079 399.495 201.841C402.828 214.231 404.334 218.797 406.026 224.625C406.235 225.344 406.204 226.11 406.114 226.853C405.788 229.557 408.144 228.065 410.577 225.827C411.719 224.776 413.676 225.54 413.676 227.093C413.676 227.688 413.362 228.24 412.85 228.545L408.702 231.017C404.08 233.77 398.136 232.441 395.078 228.043C394.938 227.883 394.799 227.698 394.662 227.486C393.853 226.226 394.145 226.648 394.965 227.876C395.002 227.932 395.04 227.988 395.078 228.043C398.314 231.717 402.348 221.526 401.667 215.729Z" fill="#FF7A00"/>
<path d="M415.018 224.322C413.968 219.082 415.317 206.342 416.122 200.627C412.976 214.134 411.551 218.593 409.885 225.158C408.552 230.41 410.132 235.022 411.088 236.672C412.836 234.739 416.069 229.562 415.018 224.322Z" fill="#FF7A00"/>
<path d="M403.84 267.477C405.114 268.35 406.72 269.394 407.9 269.968C408.323 270.174 408.811 270.174 409.234 269.968C410.415 269.394 412.02 268.35 413.294 267.477C414.366 266.743 415.949 267.132 416.819 268.096C417.786 269.168 419.314 270.442 421.621 271.392C424.307 272.498 426.783 273.302 428.454 273.784C429.413 274.06 430.071 274.969 429.963 275.96C428.954 285.164 425.665 302.253 419.067 308.851C414.832 313.086 412.097 314.998 410.467 315.726C409.458 316.177 407.676 316.177 406.667 315.726C405.037 314.998 402.302 313.086 398.067 308.851C391.47 302.253 388.181 285.164 387.172 275.96C387.063 274.969 387.722 274.06 388.68 273.784C390.351 273.302 392.827 272.498 395.513 271.392C397.82 270.442 399.349 269.168 400.315 268.096C401.185 267.132 402.769 266.743 403.84 267.477Z" fill="url(#paint3_radial_384_3961)" stroke="black" stroke-width="2"/>
<path d="M401.667 287.729C401.069 282.631 400.12 277.079 399.495 273.841C402.828 286.231 404.334 290.797 406.026 296.625C406.235 297.344 406.204 298.11 406.114 298.853C405.788 301.557 408.144 300.065 410.577 297.827C411.719 296.776 413.676 297.54 413.676 299.093C413.676 299.688 413.362 300.24 412.85 300.545L408.702 303.017C404.08 305.77 398.136 304.441 395.078 300.043C394.938 299.883 394.799 299.698 394.662 299.486C393.853 298.226 394.145 298.648 394.965 299.876C395.002 299.932 395.04 299.988 395.078 300.043C398.314 303.717 402.348 293.526 401.667 287.729Z" fill="#FF7A00"/>
<path d="M415.018 296.322C413.968 291.082 415.317 278.342 416.122 272.627C412.976 286.134 411.551 290.593 409.885 297.158C408.552 302.41 410.132 307.022 411.088 308.672C412.836 306.739 416.069 301.562 415.018 296.322Z" fill="#FF7A00"/>
<path d="M179.648 358.148C182.924 354.103 188.072 344.238 182.457 337.143C175.438 328.274 162.803 318.939 148.764 327.341C137.533 334.063 138.781 342.9 140.809 346.479C140.341 341.344 141.37 330.608 149.232 328.741C151.878 328.113 153.948 327.349 155.742 326.686C160.611 324.889 163.452 323.841 170.29 328.274C179.648 334.343 185.266 339.944 182.457 344.612C181.147 346.789 181.338 348.865 181.495 350.555C181.673 352.488 181.805 353.916 179.59 354.414C179.63 355.645 179.644 356.898 179.648 358.148Z" fill="black"/>
<path d="M203.047 306.336C203.359 301.046 204.732 289.158 207.727 283.93C210.21 279.596 209.399 285.323 208.572 291.17C208.151 294.138 207.727 297.138 207.727 298.867C207.727 302.975 204.607 305.558 203.047 306.336Z" fill="black"/>
<path fill-rule="evenodd" clip-rule="evenodd" d="M111.327 474.843C107.958 489.407 131.449 512.341 143.616 521.988C210.379 532.724 350.922 528.43 379 425.365C375.1 411.673 366.927 383.821 365.429 381.954C364.948 381.354 363.385 378.811 361.192 375.245C354.855 364.937 343.262 346.079 337.352 340.878C332.73 336.81 324.948 327.069 318.413 318.889C313.7 312.989 309.635 307.9 307.87 306.336C303.659 302.602 276.049 301.668 262.478 306.336C260.735 306.935 258.83 307.319 256.863 307.587C255.615 301.413 251.621 288.411 245.632 285.797C239.044 282.923 233.543 276.072 230.722 272.56C230.337 272.081 230.002 271.664 229.721 271.327C228.251 269.568 222.716 266.518 217.993 263.915C215.198 262.375 212.688 260.992 211.47 260.125C208.195 257.791 194.624 253.59 172.63 257.791C155.346 261.092 142.685 273.042 131.903 283.218C128.965 285.992 126.167 288.633 123.452 290.932C110.775 301.668 113.667 344.145 116.475 353.014C118.721 360.109 122.062 379.309 123.452 388.022C120.134 395.392 117.527 402.377 116.475 407.627C114.666 416.646 114.387 428.389 114.106 440.171C113.806 452.779 113.504 465.433 111.327 474.843ZM182.457 337.143C188.072 344.238 182.924 354.103 179.648 358.148C179.644 356.898 179.63 355.645 179.59 354.414C181.805 353.916 181.673 352.488 181.495 350.555C181.338 348.865 181.147 346.789 182.457 344.612C185.266 339.944 179.648 334.343 170.29 328.274C163.452 323.841 160.611 324.889 155.742 326.686C153.948 327.349 151.878 328.113 149.232 328.741C141.37 330.608 140.341 341.344 140.809 346.479C138.781 342.9 137.533 334.063 148.764 327.341C162.803 318.939 175.438 328.274 182.457 337.143ZM203.047 306.336C203.359 301.046 204.732 289.158 207.727 283.93C210.21 279.596 209.399 285.323 208.572 291.17C208.151 294.138 207.727 297.138 207.727 298.867C207.727 302.975 204.607 305.558 203.047 306.336ZM214.746 324.54L236.74 291.399C236.366 299.988 226.601 313.026 221.766 318.472C222.078 318.316 223.918 317.165 228.785 313.804C233.652 310.443 235.602 311.47 235.969 312.404C234.985 313.907 234.685 315.997 235.327 318.939L221.298 326.407C221.298 325.785 222.982 323.42 229.721 318.939C238.144 313.338 229.721 315.205 224.105 318.939C222.512 319.999 221.028 321.332 219.721 322.507C218.52 323.586 217.468 324.532 216.618 325.007C216.12 325.285 215.692 324.994 215.342 324.756C215.106 324.596 214.907 324.46 214.746 324.54Z" fill="white"/>
<path d="M236.74 291.399L214.746 324.54C214.907 324.46 215.106 324.596 215.342 324.756C215.692 324.994 216.12 325.285 216.618 325.007C217.468 324.532 218.52 323.586 219.721 322.507C221.028 321.332 222.512 319.999 224.105 318.939C229.721 315.205 238.144 313.338 229.721 318.939C222.982 323.42 221.298 325.785 221.298 326.407L235.327 318.939C234.685 315.997 234.985 313.907 235.969 312.404C235.602 311.47 233.652 310.443 228.785 313.804C223.918 317.165 222.078 318.316 221.766 318.472C226.601 313.026 236.366 299.988 236.74 291.399Z" fill="black"/>
<path d="M214.746 461.774C221.766 431.433 207.727 407.627 207.727 396.424C207.727 385.222 188.54 378.687 182.457 375.419C179.297 373.722 179.672 365.982 179.648 358.148M320.037 416.496C301.475 404.982 262.852 379.994 256.863 372.152C249.375 362.349 252.651 340.878 253.119 338.544C253.493 336.676 243.916 330.92 239.08 328.274C237.065 324.463 235.865 321.403 235.327 318.939M123.452 388.022C120.134 395.392 117.527 402.377 116.475 407.627C114.666 416.646 114.387 428.389 114.106 440.171C113.806 452.779 113.504 465.433 111.327 474.843C107.958 489.407 131.449 512.341 143.616 521.988C210.379 532.724 350.922 528.43 379 425.365C375.1 411.673 366.927 383.821 365.429 381.954C364.948 381.354 363.385 378.811 361.192 375.245C354.855 364.937 343.262 346.079 337.352 340.878C332.73 336.81 324.948 327.069 318.413 318.889C313.7 312.989 309.635 307.9 307.87 306.336C303.659 302.602 276.049 301.668 262.478 306.336C260.735 306.935 258.83 307.319 256.863 307.587M123.452 388.022C131.934 369.181 145.064 347.821 148.764 346.479C153.911 344.612 167.482 335.276 175.438 340.878C178.602 343.105 179.397 348.508 179.59 354.414M123.452 388.022C122.062 379.309 118.721 360.109 116.475 353.014C113.667 344.145 110.775 301.668 123.452 290.932C126.167 288.633 128.965 285.992 131.903 283.218C142.685 273.042 155.346 261.092 172.63 257.791C194.624 253.59 208.195 257.791 211.47 260.125C212.688 260.992 215.198 262.375 217.993 263.915C222.716 266.518 228.251 269.568 229.721 271.327C230.002 271.664 230.337 272.081 230.722 272.56C233.543 276.072 239.044 282.923 245.632 285.797C251.621 288.411 255.615 301.413 256.863 307.587M256.863 307.587C248.498 308.727 238.997 307.777 235.969 312.404M235.327 318.939L221.298 326.407C221.298 325.785 222.982 323.42 229.721 318.939C238.144 313.338 229.721 315.205 224.105 318.939C222.512 319.999 221.028 321.332 219.721 322.507C218.52 323.586 217.468 324.532 216.618 325.007C216.12 325.285 215.692 324.994 215.342 324.756C215.106 324.596 214.907 324.46 214.746 324.54L236.74 291.399C236.366 299.988 226.601 313.026 221.766 318.472C222.078 318.316 223.918 317.165 228.785 313.804C233.652 310.443 235.602 311.47 235.969 312.404M235.327 318.939C234.685 315.997 234.985 313.907 235.969 312.404M179.648 358.148C182.924 354.103 188.072 344.238 182.457 337.143C175.438 328.274 162.803 318.939 148.764 327.341C137.533 334.063 138.781 342.9 140.809 346.479C140.341 341.344 141.37 330.608 149.232 328.741C151.878 328.113 153.948 327.349 155.742 326.686C160.611 324.889 163.452 323.841 170.29 328.274C179.648 334.343 185.266 339.944 182.457 344.612C181.147 346.789 181.338 348.865 181.495 350.555C181.673 352.488 181.805 353.916 179.59 354.414M179.648 358.148C179.644 356.898 179.63 355.645 179.59 354.414M203.047 306.336C203.359 301.046 204.732 289.158 207.727 283.93C210.21 279.596 209.399 285.323 208.572 291.17C208.151 294.138 207.727 297.138 207.727 298.867C207.727 302.975 204.607 305.558 203.047 306.336Z" stroke="black" stroke-width="2"/>
<path d="M138.046 314.136C136.912 318.258 137.574 327.096 138.046 331C138.046 325.753 149.703 321.944 155.532 320.694C154.902 318.04 152.507 312.637 147.97 312.262C142.3 311.794 138.046 291.183 133.321 286.498C128.595 281.814 132.848 261.203 133.321 251.365C133.793 241.528 125.287 237.781 123.869 214.359C122.735 195.621 116.15 190.312 113 190C115.205 192.03 119.143 197.87 117.253 204.99C114.89 213.89 121.034 224.664 121.506 231.691C121.979 238.718 120.089 235.907 115.835 240.123C111.582 244.339 121.506 260.734 125.287 262.608C129.068 264.482 121.979 285.093 126.705 293.056C131.43 301.02 139.464 308.983 138.046 314.136Z" fill="#CCCCCC"/>
<path d="M213.658 289.309C216.683 292.682 216.494 304.767 216.021 310.389C216.021 313.824 216.21 319.57 216.966 315.073C217.722 310.576 222.637 306.017 225 304.299C224.842 303.05 224.244 300.27 223.11 299.146C221.692 297.741 217.439 281.814 213.658 277.13C209.878 272.445 206.097 260.734 206.097 255.113C206.097 249.492 201.844 231.691 199.954 231.691C198.063 231.691 198.063 221.385 198.063 216.701C198.063 212.017 184.359 208.738 182.941 209.674C181.523 210.611 198.063 243.402 198.063 247.618C198.063 251.834 203.734 262.608 206.097 265.419C208.46 268.229 209.878 285.093 213.658 289.309Z" fill="#CCCCCC"/>
<path d="M138.046 314.136C136.912 318.258 137.574 327.096 138.046 331C138.046 325.753 149.703 321.944 155.532 320.694C154.902 318.04 152.507 312.637 147.97 312.262C142.3 311.794 138.046 291.183 133.321 286.498C128.595 281.814 132.848 261.203 133.321 251.365C133.793 241.528 125.287 237.781 123.869 214.359C122.735 195.621 116.15 190.312 113 190C115.205 192.03 119.143 197.87 117.253 204.99C114.89 213.89 121.034 224.664 121.506 231.691C121.979 238.718 120.089 235.907 115.835 240.123C111.582 244.339 121.506 260.734 125.287 262.608C129.068 264.482 121.979 285.093 126.705 293.056C131.43 301.02 139.464 308.983 138.046 314.136Z" stroke="black" stroke-width="2"/>
<path d="M213.658 289.309C216.683 292.682 216.494 304.767 216.021 310.389C216.021 313.824 216.21 319.57 216.966 315.073C217.722 310.576 222.637 306.017 225 304.299C224.842 303.05 224.244 300.27 223.11 299.146C221.692 297.741 217.439 281.814 213.658 277.13C209.878 272.445 206.097 260.734 206.097 255.113C206.097 249.492 201.844 231.691 199.954 231.691C198.063 231.691 198.063 221.385 198.063 216.701C198.063 212.017 184.359 208.738 182.941 209.674C181.523 210.611 198.063 243.402 198.063 247.618C198.063 251.834 203.734 262.608 206.097 265.419C208.46 268.229 209.878 285.093 213.658 289.309Z" stroke="black" stroke-width="2"/>
<path fill-rule="evenodd" clip-rule="evenodd" d="M189.452 372.256C188.683 364.287 188.344 348.068 193.143 346.943C199.141 345.537 206.524 343.662 215.291 333.818C222.006 326.278 230.346 331.665 235.541 335.02C237.127 336.045 238.421 336.88 239.284 337.1C240.153 337.32 241.047 337.463 241.913 337.601C244.726 338.05 247.237 338.451 247.59 341.318C247.622 341.584 247.669 341.953 247.727 342.41C248.483 348.407 251.15 369.543 249.435 370.849C248.807 371.328 246.625 372.297 243.967 373.477C238.822 375.762 231.892 378.839 230.979 380.693C229.595 383.506 215.752 387.724 200.987 382.568C189.175 378.443 188.375 373.974 189.452 372.256ZM213.445 355.849C209.385 357.724 203.448 366.631 200.987 370.849C209.554 364.235 211.504 363.826 215.91 362.901C217.436 362.58 219.257 362.198 221.751 361.474C231.44 358.662 245.744 346.006 246.667 343.193C247.59 340.381 242.053 338.975 237.439 338.037C234.667 337.474 228.4 343.168 222.736 348.314C218.971 351.735 215.472 354.913 213.445 355.849Z" fill="#FF9B04"/>
<path d="M200.987 370.849C203.448 366.631 209.385 357.724 213.445 355.849C215.472 354.913 218.971 351.735 222.736 348.314C228.4 343.168 234.667 337.474 237.439 338.037C242.053 338.975 247.59 340.381 246.667 343.193C245.744 346.006 231.44 358.662 221.751 361.474C219.257 362.198 217.436 362.58 215.91 362.901C211.504 363.826 209.554 364.235 200.987 370.849Z" fill="white"/>
<path fill-rule="evenodd" clip-rule="evenodd" d="M189.452 372.256C188.683 364.287 188.344 348.068 193.143 346.943C199.141 345.537 206.524 343.662 215.291 333.818C222.006 326.278 230.346 331.665 235.541 335.02C237.127 336.045 238.421 336.88 239.284 337.1C240.153 337.32 241.047 337.463 241.913 337.601C244.726 338.05 247.237 338.451 247.59 341.318C247.622 341.584 247.669 341.953 247.727 342.41C248.483 348.407 251.15 369.543 249.435 370.849C248.807 371.328 246.625 372.297 243.967 373.477C238.822 375.762 231.892 378.839 230.979 380.693C229.595 383.506 215.752 387.724 200.987 382.568C189.175 378.443 188.375 373.974 189.452 372.256ZM213.445 355.849C209.385 357.724 203.448 366.631 200.987 370.849C209.554 364.235 211.504 363.826 215.91 362.901C217.436 362.58 219.257 362.198 221.751 361.474C231.44 358.662 245.744 346.006 246.667 343.193C247.59 340.381 242.053 338.975 237.439 338.037C234.667 337.474 228.4 343.168 222.736 348.314C218.971 351.735 215.472 354.913 213.445 355.849Z" stroke="black" stroke-width="2"/>
<path d="M200.987 370.849C203.448 366.631 209.385 357.724 213.445 355.849C215.472 354.913 218.971 351.735 222.736 348.314C228.4 343.168 234.667 337.474 237.439 338.037C242.053 338.975 247.59 340.381 246.667 343.193C245.744 346.006 231.44 358.662 221.751 361.474C219.257 362.198 217.436 362.58 215.91 362.901C211.504 363.826 209.554 364.235 200.987 370.849Z" stroke="black" stroke-width="2"/>
<defs>
<radialGradient id="paint0_radial_384_3961" cx="0" cy="0" r="1" gradientUnits="userSpaceOnUse" gradientTransform="translate(406.013 54.2567) rotate(97.8291) scale(68.7476 48.2508)">
<stop offset="0.455" stop-color="#FF9B04"/>
<stop offset="0.4551" stop-color="#FF7A00"/>
<stop offset="0.605" stop-color="#FF7A00"/>
<stop offset="0.6051" stop-color="#FF5C00"/>
</radialGradient>
<radialGradient id="paint1_radial_384_3961" cx="0" cy="0" r="1" gradientUnits="userSpaceOnUse" gradientTransform="translate(406.013 126.257) rotate(97.8291) scale(68.7476 48.2508)">
<stop offset="0.455" stop-color="#FF9B04"/>
<stop offset="0.4551" stop-color="#FF7A00"/>
<stop offset="0.605" stop-color="#FF7A00"/>
<stop offset="0.6051" stop-color="#FF5C00"/>
</radialGradient>
<radialGradient id="paint2_radial_384_3961" cx="0" cy="0" r="1" gradientUnits="userSpaceOnUse" gradientTransform="translate(406.013 198.257) rotate(97.8291) scale(68.7476 48.2508)">
<stop offset="0.455" stop-color="#FF9B04"/>
<stop offset="0.4551" stop-color="#FF7A00"/>
<stop offset="0.605" stop-color="#FF7A00"/>
<stop offset="0.6051" stop-color="#FF5C00"/>
</radialGradient>
<radialGradient id="paint3_radial_384_3961" cx="0" cy="0" r="1" gradientUnits="userSpaceOnUse" gradientTransform="translate(406.013 270.257) rotate(97.8291) scale(68.7476 48.2508)">
<stop offset="0.455" stop-color="#FF9B04"/>
<stop offset="0.4551" stop-color="#FF7A00"/>
<stop offset="0.605" stop-color="#FF7A00"/>
<stop offset="0.6051" stop-color="#FF5C00"/>
</radialGradient>
</defs>
</svg>
