<svg width="460" height="712" viewBox="0 0 460 712" fill="none" xmlns="http://www.w3.org/2000/svg">
<rect width="460" height="712" rx="20" fill="white"/>
<path d="M403.84 51.4771C405.114 52.3501 406.72 53.394 407.9 53.9681C408.323 54.1735 408.811 54.1735 409.234 53.9681C410.415 53.394 412.02 52.3501 413.294 51.4771C414.366 50.7428 415.949 51.1319 416.819 52.0962C417.786 53.1675 419.314 54.4419 421.621 55.3918C424.307 56.4979 426.783 57.3016 428.454 57.7837C429.413 58.0601 430.071 58.969 429.963 59.9605C428.954 69.1639 425.665 86.2529 419.067 92.8505C414.832 97.0857 412.097 98.9983 410.467 99.7263C409.458 100.177 407.676 100.177 406.667 99.7263C405.037 98.9983 402.302 97.0857 398.067 92.8505C391.47 86.2529 388.181 69.1639 387.172 59.9605C387.063 58.969 387.722 58.0601 388.68 57.7837C390.351 57.3016 392.827 56.4979 395.513 55.3918C397.82 54.4419 399.349 53.1675 400.315 52.0962C401.185 51.1319 402.769 50.7428 403.84 51.4771Z" fill="url(#paint0_radial_384_3878)" stroke="black" stroke-width="2"/>
<path d="M401.667 71.7291C401.069 66.6313 400.12 61.079 399.495 57.8406C402.828 70.2307 404.334 74.7973 406.026 80.6253C406.235 81.3443 406.204 82.1096 406.114 82.853C405.788 85.5574 408.144 84.0648 410.577 81.8273C411.719 80.7762 413.676 81.5401 413.676 83.0927C413.676 83.6884 413.362 84.2401 412.85 84.545L408.702 87.0165C404.08 89.7698 398.136 88.4412 395.078 84.0426C394.938 83.8835 394.799 83.6984 394.662 83.4858C393.853 82.2262 394.145 82.6484 394.965 83.8763C395.002 83.9322 395.04 83.9876 395.078 84.0426C398.314 87.7175 402.348 77.5261 401.667 71.7291Z" fill="#FF7A00"/>
<path d="M415.018 80.3221C413.968 75.0824 415.317 62.3425 416.122 56.6274C412.976 70.1339 411.551 74.593 409.885 81.1578C408.552 86.4097 410.132 91.0225 411.088 92.6724C412.836 90.7388 416.069 85.5618 415.018 80.3221Z" fill="#FF7A00"/>
<path d="M278.76 234.022C277.678 233.867 275.145 234.765 273.662 239.596C271.809 245.634 275.516 251.208 278.76 250.279C282.003 249.35 284.784 242.383 282.467 238.202C280.613 234.858 279.223 234.022 278.76 234.022Z" fill="black"/>
<path fill-rule="evenodd" clip-rule="evenodd" d="M278.296 194.54C266.804 198.627 241.689 264.988 230.568 297.658L181.45 384.054C175.735 396.131 162.637 425.115 155.965 444.438C155.564 445.598 155.146 446.783 154.721 447.988C146.295 471.886 134.962 504.031 196.278 515.97C240.055 524.494 246.586 521.002 259.227 514.245C265.184 511.06 272.499 507.149 285.71 503.429C310.828 496.356 323.914 499.794 333.866 502.409C340.254 504.087 345.351 505.426 351.51 503.429C367.265 498.32 370.045 481.133 366.801 474.166C364.206 468.592 363.558 432.206 363.558 414.71C352.591 385.757 330.287 326.085 328.804 319.025C327.692 313.726 330.42 289.675 332.779 268.887C334.349 255.05 335.755 242.657 335.755 238.202C335.755 227.055 320.464 194.54 316.293 190.824C312.123 187.108 292.661 189.43 278.296 194.54ZM278.76 234.022C277.678 233.867 275.145 234.765 273.662 239.596C271.809 245.634 275.516 251.208 278.76 250.279C282.003 249.35 284.784 242.383 282.467 238.202C280.613 234.858 279.223 234.022 278.76 234.022ZM306.099 239.596C306.099 236.623 308.879 233.712 310.269 232.629C311.814 231.854 315.181 231.885 316.293 238.202C317.683 246.099 311.659 252.602 309.343 251.673C307.026 250.744 306.099 243.312 306.099 239.596Z" fill="white"/>
<path d="M310.269 232.629C308.879 233.712 306.099 236.623 306.099 239.596C306.099 243.312 307.026 250.744 309.343 251.673C311.659 252.602 317.683 246.099 316.293 238.202C315.181 231.885 311.814 231.854 310.269 232.629Z" fill="black"/>
<path d="M278.76 234.022C277.678 233.867 275.145 234.765 273.662 239.596C271.809 245.634 275.516 251.208 278.76 250.279C282.003 249.35 284.784 242.383 282.467 238.202C280.613 234.858 279.223 234.022 278.76 234.022Z" stroke="black" stroke-width="2"/>
<path fill-rule="evenodd" clip-rule="evenodd" d="M278.296 194.54C266.804 198.627 241.689 264.988 230.568 297.658L181.45 384.054C175.735 396.131 162.637 425.115 155.965 444.438C155.564 445.598 155.146 446.783 154.721 447.988C146.295 471.886 134.962 504.031 196.278 515.97C240.055 524.494 246.586 521.002 259.227 514.245C265.184 511.06 272.499 507.149 285.71 503.429C310.828 496.356 323.914 499.794 333.866 502.409C340.254 504.087 345.351 505.426 351.51 503.429C367.265 498.32 370.045 481.133 366.801 474.166C364.206 468.592 363.558 432.206 363.558 414.71C352.591 385.757 330.287 326.085 328.804 319.025C327.692 313.726 330.42 289.675 332.779 268.887C334.349 255.05 335.755 242.657 335.755 238.202C335.755 227.055 320.464 194.54 316.293 190.824C312.123 187.108 292.661 189.43 278.296 194.54ZM278.76 234.022C277.678 233.867 275.145 234.765 273.662 239.596C271.809 245.634 275.516 251.208 278.76 250.279C282.003 249.35 284.784 242.383 282.467 238.202C280.613 234.858 279.223 234.022 278.76 234.022ZM306.099 239.596C306.099 236.623 308.879 233.712 310.269 232.629C311.814 231.854 315.181 231.885 316.293 238.202C317.683 246.099 311.659 252.602 309.343 251.673C307.026 250.744 306.099 243.312 306.099 239.596Z" stroke="black" stroke-width="2"/>
<path d="M310.269 232.629C308.879 233.712 306.099 236.623 306.099 239.596C306.099 243.312 307.026 250.744 309.343 251.673C311.659 252.602 317.683 246.099 316.293 238.202C315.181 231.885 311.814 231.854 310.269 232.629Z" stroke="black" stroke-width="2"/>
<path d="M279.482 268.167C281.828 269.739 287.928 273.073 293.559 273.828C300.597 274.771 314.205 273.828 319.835 272.412C325.466 270.997 336.727 262.035 340.012 264.393C343.297 266.752 352.212 275.243 342.827 280.432C340.121 281.928 336.4 284.602 332.035 287.185C334.069 286.664 338.135 286.658 338.135 290.809C338.135 295.998 328.751 309.207 313.736 311.565C298.72 313.924 292.151 306.376 285.582 296.47C280.327 288.545 280.446 276.667 281.162 271.718C278.614 268.461 278.704 267.819 279.482 268.167Z" fill="#FF9B04"/>
<path d="M281.162 271.718C283.223 274.353 287.011 278.7 293.559 285.621C306.581 299.383 321.266 293.559 332.035 287.185M281.162 271.718C278.614 268.461 278.704 267.819 279.482 268.167C281.828 269.739 287.928 273.073 293.559 273.828C300.597 274.771 314.205 273.828 319.835 272.412C325.466 270.997 336.727 262.035 340.012 264.393C343.297 266.752 352.212 275.243 342.827 280.432C340.121 281.928 336.4 284.602 332.035 287.185M281.162 271.718C280.446 276.667 280.327 288.545 285.582 296.47C292.151 306.376 298.72 313.924 313.736 311.565C328.751 309.207 338.135 295.998 338.135 290.809C338.135 286.658 334.069 286.664 332.035 287.185" stroke="black" stroke-width="2"/>
<path fill-rule="evenodd" clip-rule="evenodd" d="M250.732 443.414C255.192 438.585 265.934 385.988 270.748 360.293C259.937 352.203 220.729 314.632 216.166 299.925C201.205 304.724 169.888 314.785 164.313 316.643C160.233 318.002 159.975 319.202 159.53 321.267C159.214 322.73 158.805 324.628 156.879 327.323C153.162 332.524 143.25 341.564 138.759 345.433L161.061 426.697C154.866 444.033 141.268 479.913 136.436 484.743C130.396 490.78 128.073 497.745 136.436 502.853C138.672 504.219 140.874 506.248 143.354 508.533C150.151 514.795 159.032 522.977 176.393 524.678C195.35 526.536 224.249 527 236.329 527C235.298 525.861 235.576 513.159 236.837 497.745C240.59 496.005 241.91 496.128 242.398 495.549C242.822 495.047 242.618 494.016 242.834 490.78C243.205 485.207 248.254 456.881 250.732 443.414Z" fill="#101010"/>
<path d="M256.307 327.323C251.847 324.723 234.006 304.569 225.643 294.817C217.002 292.633 214.636 294.993 216.166 299.925C220.729 314.632 259.937 352.203 270.748 360.293C272.493 361.599 273.498 362.137 273.498 361.686C273.498 357.507 261.883 330.574 256.307 327.323Z" fill="#424242"/>
<path fill-rule="evenodd" clip-rule="evenodd" d="M306.022 360.293C305.77 361.647 305.512 363.041 305.247 364.472C303.957 366.484 301.097 370.695 299.982 371.438C299.409 371.819 296.798 390.379 293.695 412.441C289.243 444.086 283.778 482.935 281.862 485.672C279.26 489.386 281.809 495.268 283.41 497.745C281.967 509.591 281.307 518.194 281.862 521.428C283.184 529.138 285.97 527.338 290.816 524.209C296.184 520.741 304.08 515.641 315.314 520.035C332.412 526.721 350.006 512.914 356.665 505.175C367.743 502.884 369.713 488.981 371.354 477.398C371.709 474.892 372.049 472.495 372.462 470.347C373.536 464.766 372.823 461.764 371.883 457.81C370.789 453.212 369.39 447.325 370.139 434.591C371.082 418.562 363.725 397.852 358.439 382.974C355.915 375.87 353.863 370.095 353.413 366.794C352.581 360.697 349.763 357.081 347.725 354.465C346.348 352.698 345.327 351.388 345.514 350.077C345.886 347.476 342.216 339.706 340.335 336.146C329.033 349.973 308.735 366.395 306.022 360.293Z" fill="#101010"/>
<path d="M332.505 312.928C332.505 317.386 314.849 346.362 306.022 360.293C308.735 366.395 329.033 349.973 340.335 336.146C344.513 331.034 347.461 326.277 347.837 323.144C349.231 311.535 332.505 307.355 332.505 312.928Z" fill="#514D4D"/>
<path d="M306.022 360.293C314.849 346.362 332.505 317.386 332.505 312.928C332.505 307.355 349.231 311.535 347.837 323.144C347.461 326.277 344.513 331.034 340.335 336.146M306.022 360.293C308.735 366.395 329.033 349.973 340.335 336.146M306.022 360.293C305.77 361.647 305.512 363.041 305.247 364.472M340.335 336.146C342.216 339.706 345.886 347.476 345.514 350.077C345.327 351.388 346.348 352.698 347.725 354.465C349.763 357.081 352.581 360.697 353.413 366.794C353.863 370.095 355.915 375.87 358.439 382.974C363.725 397.852 371.082 418.562 370.139 434.591C369.39 447.325 370.789 453.212 371.883 457.81C372.823 461.764 373.536 464.766 372.462 470.347C372.049 472.495 371.709 474.892 371.354 477.398C369.713 488.981 367.743 502.884 356.665 505.175C350.006 512.914 332.412 526.721 315.314 520.035C304.08 515.641 296.184 520.741 290.816 524.209C285.97 527.338 283.184 529.138 281.862 521.428C281.307 518.194 281.967 509.591 283.41 497.745M270.748 360.293C272.493 361.599 273.498 362.137 273.498 361.686C273.498 357.507 261.883 330.574 256.307 327.323C251.847 324.723 234.006 304.569 225.643 294.817C217.002 292.633 214.636 294.993 216.166 299.925M270.748 360.293C265.934 385.988 255.192 438.585 250.732 443.414C248.254 456.881 243.205 485.207 242.834 490.78C242.618 494.016 242.822 495.047 242.398 495.549C241.91 496.128 240.59 496.005 236.837 497.745M270.748 360.293C269.342 360.912 266.157 362.615 264.671 364.472C262.812 366.794 255.843 429.019 247.48 440.628C242.535 447.491 238.659 475.454 236.837 497.745M270.748 360.293C259.937 352.203 220.729 314.632 216.166 299.925M216.166 299.925C201.205 304.724 169.888 314.785 164.313 316.643C160.233 318.002 159.975 319.202 159.53 321.267C159.214 322.73 158.805 324.628 156.879 327.323C153.162 332.524 143.25 341.564 138.759 345.433L161.061 426.697C154.866 444.033 141.268 479.913 136.436 484.743C130.396 490.78 128.073 497.745 136.436 502.853C138.672 504.219 140.874 506.248 143.354 508.533C150.151 514.795 159.032 522.977 176.393 524.678C195.35 526.536 224.249 527 236.329 527C235.298 525.861 235.576 513.159 236.837 497.745M305.247 364.472C303.957 366.484 301.097 370.695 299.982 371.438C299.409 371.819 296.798 390.379 293.695 412.441C289.243 444.086 283.778 482.935 281.862 485.672C279.26 489.386 281.809 495.268 283.41 497.745M305.247 364.472C298.424 401.414 287.606 463.292 283.41 497.745" stroke="black" stroke-width="2"/>
<path d="M138.179 322.113C130.742 320.257 129.192 341.749 129.347 352.727C120.515 356.901 108.429 362.931 94.9491 369.889C81.4687 376.847 88.5225 443.609 91.6952 451.99C99.5974 472.863 126.093 451.526 140.039 451.99C153.984 452.454 159.562 430.653 161.886 424.159C164.21 417.665 156.308 374.991 156.308 359.221C156.308 343.45 147.476 324.432 138.179 322.113Z" fill="white"/>
<path d="M310.17 366.178C299.014 359.128 294.985 384.268 294.366 397.72C292.167 414.882 265.081 432.508 294.366 464.977C323.65 497.447 340.85 484.459 355.724 467.761C370.599 451.062 358.513 425.551 355.724 412.563C352.935 399.575 335.736 397.72 327.369 397.72C319.002 397.72 324.115 374.991 310.17 366.178Z" fill="white"/>
<path d="M138.179 322.113C130.742 320.257 129.192 341.749 129.347 352.727C120.515 356.901 108.429 362.931 94.9491 369.889C81.4687 376.847 88.5225 443.609 91.6952 451.99C99.5974 472.863 126.093 451.526 140.039 451.99C153.984 452.454 159.562 430.653 161.886 424.159C164.21 417.665 156.308 374.991 156.308 359.221C156.308 343.45 147.476 324.432 138.179 322.113Z" stroke="black" stroke-width="2"/>
<path d="M310.17 366.178C299.014 359.128 294.985 384.268 294.366 397.72C292.167 414.882 265.081 432.508 294.366 464.977C323.65 497.447 340.85 484.459 355.724 467.761C370.599 451.062 358.513 425.551 355.724 412.563C352.935 399.575 335.736 397.72 327.369 397.72C319.002 397.72 324.115 374.991 310.17 366.178Z" stroke="black" stroke-width="2"/>
<defs>
<radialGradient id="paint0_radial_384_3878" cx="0" cy="0" r="1" gradientUnits="userSpaceOnUse" gradientTransform="translate(406.013 54.2567) rotate(97.8291) scale(68.7476 48.2508)">
<stop offset="0.455" stop-color="#FF9B04"/>
<stop offset="0.4551" stop-color="#FF7A00"/>
<stop offset="0.605" stop-color="#FF7A00"/>
<stop offset="0.6051" stop-color="#FF5C00"/>
</radialGradient>
</defs>
</svg>
