<svg width="205" height="207" viewBox="0 0 205 207" fill="none" xmlns="http://www.w3.org/2000/svg">
<path d="M115.788 40.776C116.97 48.4477 138.308 80.7326 140.392 85.8888C144.35 95.6849 128.114 99.9934 119.342 94.1043C116.924 92.4815 114.668 91.0765 112.837 90.1229C104.584 85.823 98.8158 59.7503 97.8362 52.9982C96.8567 46.2461 104.063 44.7086 103.952 41.2587C103.842 37.8088 104.348 25.5891 110.01 22.5686C115.672 19.5481 114.606 33.1044 115.788 40.776Z" fill="white"/>
<path d="M163.416 149.99C158.456 156.633 153.246 161.924 149.279 167.184C149.117 170.809 147.884 178.914 144.246 182.338C139.7 186.618 128.703 177.904 124.098 175.233C119.493 172.563 128.386 152.093 133.027 152.34C136.398 152.519 138.997 149.075 143.547 148.106L144.274 147.096C151.006 137.758 170.303 140.766 163.416 149.99Z" fill="white"/>
<path d="M149.279 167.184C153.246 161.924 158.456 156.633 163.416 149.99V149.99C170.303 140.766 151.006 137.758 144.274 147.096L143.547 148.106M149.279 167.184C145.312 172.445 158.489 150.815 149.667 148.39C147.253 147.726 145.261 147.74 143.547 148.106M149.279 167.184C149.117 170.809 147.884 178.914 144.246 182.338C139.7 186.618 128.703 177.904 124.098 175.233C119.493 172.563 128.386 152.093 133.027 152.34C136.398 152.519 138.997 149.075 143.547 148.106M140.392 85.8888V85.8888C144.35 95.6849 128.114 99.9934 119.342 94.1043C116.924 92.4815 114.668 91.0765 112.837 90.1229C104.584 85.823 98.8158 59.7503 97.8362 52.9982C96.8567 46.2461 104.063 44.7086 103.952 41.2587C103.842 37.8088 104.348 25.5891 110.01 22.5686C115.672 19.5481 114.606 33.1044 115.788 40.776C116.97 48.4477 138.308 80.7326 140.392 85.8888Z" stroke="black" stroke-width="2"/>
<path d="M134.276 97.6286C135.035 98.3887 135.754 99.0497 136.43 99.623C140.785 103.315 147.277 102.072 151.864 98.6731C154.792 96.5039 158.365 93.9046 162.715 91.9561C171.959 87.8163 174.885 87.1698 179.958 94.6975C185.03 102.225 176.246 115.424 158.329 136.213C140.411 157.001 122.527 150.262 97.6177 147.325L97.0328 147.256C72.6859 144.387 71.2374 144.216 69.4275 132.638C67.6032 120.968 65.7183 91.6271 84.7699 78.0783C103.821 64.5295 127.198 90.5489 134.276 97.6286Z" fill="white" stroke="black" stroke-width="2"/>
<path d="M32.4819 88.2816C29.8076 83.0936 28.2001 80.1268 32.0771 76.6783C38.4265 71.0307 37.0263 63.5166 45.6782 59.2043C54.3301 54.892 52.0908 78.2854 57.4944 78.1154C62.8979 77.9454 62.9763 83.5496 59.4419 88.7642L82.4976 98.4148C83.6374 98.8919 84.1255 100.242 83.5546 101.337C83.0525 102.301 81.9005 102.726 80.8927 102.32L57.2697 92.7887C55.9117 95.5102 54.3001 98.529 51.5693 100.509C44.3646 105.733 36.5595 96.1919 32.4819 88.2816Z" fill="#FF9B04"/>
<path d="M19.2077 136.261C17.678 129.282 16.6029 119.43 20.6119 117.518C26.5956 114.665 27.0216 107.831 32.75 111.223C38.4785 114.615 41.9221 129.978 38.316 136.376C41.7942 134.932 56.8323 118.885 63.2956 120.081C65.3703 120.465 67.7877 120.029 70.1328 119.227C73.8969 117.94 78.5852 120.506 78.4594 124.482C78.3586 127.67 75.2165 129.882 72.1151 129.14C65.8602 127.642 58.0506 126.52 54.4207 128.484C49.4113 131.193 40.0822 139.332 36.0437 143.062C34.5842 149.306 33.8353 155.683 30.0869 152.171C27.2028 149.469 24.3017 145.826 22.2611 143.022C20.7893 141 19.7432 138.704 19.2077 136.261Z" fill="#FF9B04"/>
<path d="M59.4419 88.7642C62.9763 83.5496 62.8979 77.9454 57.4944 78.1154C52.0908 78.2854 54.3301 54.892 45.6782 59.2043C37.0263 63.5166 38.4265 71.0307 32.0771 76.6783C28.2001 80.1268 29.8076 83.0936 32.4819 88.2816C36.5595 96.1919 44.3646 105.733 51.5693 100.509C54.3001 98.529 55.9117 95.5102 57.2697 92.7887M59.4419 88.7642L82.4976 98.4148C83.6374 98.8919 84.1255 100.242 83.5546 101.337V101.337C83.0525 102.301 81.9005 102.726 80.8927 102.32L57.2697 92.7887M59.4419 88.7642C58.6975 89.8625 58.0226 91.2799 57.2697 92.7887M38.316 136.376C41.9221 129.978 38.4785 114.615 32.75 111.223C27.0216 107.831 26.5956 114.665 20.6119 117.518C16.6029 119.43 17.678 129.282 19.2077 136.261C19.7432 138.704 20.7893 141 22.2611 143.022C24.3017 145.826 27.2028 149.469 30.0869 152.171C33.8353 155.683 34.5842 149.306 36.0437 143.062M38.316 136.376C41.7942 134.932 56.8323 118.885 63.2956 120.081C65.3703 120.465 67.7877 120.029 70.1328 119.227C73.8969 117.94 78.5852 120.506 78.4594 124.482V124.482C78.3586 127.67 75.2165 129.882 72.1151 129.14C65.8602 127.642 58.0506 126.52 54.4207 128.484C49.4113 131.193 40.0822 139.332 36.0437 143.062M38.316 136.376C37.2993 138.18 36.6168 140.611 36.0437 143.062" stroke="black" stroke-width="2"/>
<path d="M149.345 151.886L146.023 150.155C142.239 148.184 140.122 144.028 140.753 139.807L141.222 136.672C141.8 132.809 145.465 130.167 149.245 131.152C149.611 130.45 150.898 127.456 152.291 128.182C153.685 128.908 156.3 128.596 155.091 133.01C156.593 133.624 157.732 134.271 158.186 134.917C160.143 137.701 151.703 153.115 149.345 151.886Z" fill="#3C3C3C"/>
<path d="M149.245 131.152V131.152C145.465 130.167 141.8 132.809 141.222 136.672L140.753 139.807C140.122 144.028 142.239 148.184 146.023 150.155C147.398 150.871 148.624 151.51 149.345 151.886C151.703 153.115 160.143 137.701 158.186 134.917C157.732 134.271 156.593 133.624 155.091 133.01M149.245 131.152C149.611 130.45 150.898 127.456 152.291 128.182C153.685 128.908 156.3 128.596 155.091 133.01M149.245 131.152C151.347 131.7 153.438 132.335 155.091 133.01M145.007 142.163C144.44 141.085 144.672 140.229 145.236 139.582C146.593 138.026 149.552 137.666 150.596 139.447C151.045 140.214 151.006 141.237 150.244 142.313C148.699 144.494 146.583 145.155 145.007 142.163Z" stroke="black" stroke-width="2"/>
<path d="M157.251 99.8288C156.034 98.1543 153.54 95.8602 153.304 100.079C153.01 105.354 157.893 107.491 157.251 99.8288Z" fill="black"/>
<path d="M164.666 105.999C163.504 106.66 162.856 107.851 169.561 107.328C176.266 106.805 177.654 109.147 177.509 110.383M157.085 92.8224C157.326 96.0232 158.385 102.726 160.7 103.933M157.251 99.8288C156.034 98.1543 153.54 95.8602 153.304 100.079C153.01 105.354 157.893 107.491 157.251 99.8288Z" stroke="black" stroke-width="2"/>
<path d="M162.322 118.346C163.934 118.361 163.862 117.831 162.894 117.044C156.373 111.746 148.07 116.164 156.33 117.704C158.518 118.112 160.724 118.332 162.322 118.346Z" fill="#FF9B04" stroke="black" stroke-width="2"/>
</svg>
