<svg width="130" height="219" viewBox="0 0 130 219" fill="none" xmlns="http://www.w3.org/2000/svg">
<path d="M37.4573 -32C35.965 -10.6778 32.8908 32.8134 32.5326 36.2012L68.2366 72.9764L171.991 33.1923C172.924 13.096 174.229 -27.2527 171.991 -27.8767C169.752 -28.5008 81.3691 -30.8856 37.4573 -32Z" fill="#65AAEA" stroke="black" stroke-width="2"/>
<path d="M20.6687 90.6954C11.267 80.7772 -0.149339 65.0642 4.77535 48.6825C5.44893 46.4419 6.43308 44.443 7.63588 42.6647C3.80964 31.075 -2.41022 7.47201 3.32033 5.77812C10.4835 3.66077 14.7367 -2.80275 20.6687 0.65189C20.221 -2.65416 20.1986 -8.97651 23.6906 -7.81754C28.0557 -6.36882 33.6519 -2.46845 33.2042 2.4349C32.7565 7.33826 32.4208 13.356 34.6593 18.7051C36.4501 22.9844 39.1363 27.5985 40.2555 29.3707C43.3633 29.384 46.2088 29.5934 48.8333 29.9606C51.3361 27.5089 63.2001 14.8048 71.5944 17.0336C79.9888 19.2624 85.585 22.6056 84.3539 29.9606C83.3689 35.8446 82.437 43.9277 82.0941 47.2338C82.6476 48.0578 83.1151 48.9535 83.5046 49.9083C85.0562 50.2798 89.8382 49.3511 96.5537 42.6647C104.948 34.3067 111.328 32.4122 111.775 36.3126C112.223 40.213 113.79 44.0021 105.955 48.6825C99.6876 52.4269 100.061 53.2144 101.031 53.1401C105.06 53.1772 112.402 54.6779 109.537 60.3837C105.955 67.5158 95.8821 82.0031 79.9888 83.7861C75.6237 94.7072 53.7984 99.1648 40.2555 101.171C26.7126 103.177 30.0704 100.614 20.6687 90.6954Z" fill="white"/>
<path d="M79.9888 83.7861C75.6237 94.7072 53.7984 99.1648 40.2555 101.171C26.7126 103.177 30.0704 100.614 20.6687 90.6954C11.267 80.7772 -0.149339 65.0642 4.77535 48.6825C5.44893 46.4419 6.43308 44.443 7.63588 42.6647M79.9888 83.7861C83.4593 75.1031 87.4251 59.5166 83.5046 49.9083M79.9888 83.7861C95.8821 82.0031 105.955 67.5158 109.537 60.3837C112.402 54.6779 105.06 53.1772 101.031 53.1401C100.061 53.2144 99.6876 52.4269 105.955 48.6825C113.79 44.0021 112.223 40.213 111.775 36.3126C111.328 32.4122 104.948 34.3067 96.5537 42.6647C89.8382 49.3511 85.0562 50.2798 83.5046 49.9083M48.8333 29.9606C63.1573 31.9651 70.8976 38.6733 78.7576 43.8906C80.1107 44.7888 81.2118 45.9202 82.0941 47.2338M48.8333 29.9606C51.3361 27.5089 63.2001 14.8048 71.5944 17.0336C79.9888 19.2624 85.585 22.6056 84.3539 29.9606C83.3689 35.8446 82.437 43.9277 82.0941 47.2338M48.8333 29.9606C46.2088 29.5934 43.3633 29.384 40.2555 29.3707M82.0941 47.2338C82.6476 48.0578 83.1151 48.9535 83.5046 49.9083M7.63588 42.6647C13.4682 34.042 24.4412 30.6073 30.0703 29.9606C33.757 29.5411 37.1382 29.3573 40.2555 29.3707M7.63588 42.6647C3.80964 31.075 -2.41022 7.47201 3.32033 5.77812C10.4835 3.66077 14.7367 -2.80275 20.6687 0.651889C20.221 -2.65416 20.1986 -8.97651 23.6906 -7.81754C28.0557 -6.36882 33.6519 -2.46845 33.2042 2.4349C32.7565 7.33826 32.4208 13.356 34.6593 18.7051C36.4501 22.9844 39.1363 27.5985 40.2555 29.3707" stroke="black" stroke-width="2"/>
<path d="M17.0871 41.8848C11.8042 44.6485 14.2143 60.2724 16.0797 67.7389C20.7806 72.6422 23.6906 64.6186 30.0703 58.4894C36.4501 52.3602 36.1143 48.6827 34.6593 45.7852C33.2042 42.8877 27.0484 49.9085 25.1457 45.7852C23.2429 41.6619 23.6906 38.4302 17.0871 41.8848Z" fill="#FF9B04"/>
<path d="M61.0735 60.3838C56.3279 60.3838 56.1861 72.5679 56.7084 78.66C68.4605 84.4549 69.1321 72.085 72.3779 66.7359C75.6237 61.3868 74.2806 60.3838 69.1321 63.3927C63.9835 66.4016 67.0055 60.3838 61.0735 60.3838Z" fill="#FF9B04"/>
<path d="M17.0871 41.8848C11.8042 44.6485 14.2143 60.2724 16.0797 67.7389C20.7806 72.6422 23.6906 64.6186 30.0703 58.4894C36.4501 52.3602 36.1143 48.6827 34.6593 45.7852C33.2042 42.8877 27.0484 49.9085 25.1457 45.7852C23.2429 41.6619 23.6906 38.4302 17.0871 41.8848Z" stroke="black" stroke-width="2"/>
<path d="M61.0735 60.3838C56.3279 60.3838 56.1861 72.5679 56.7084 78.66C68.4605 84.4549 69.1321 72.085 72.3779 66.7359C75.6237 61.3868 74.2806 60.3838 69.1321 63.3927C63.9835 66.4016 67.0055 60.3838 61.0735 60.3838Z" stroke="black" stroke-width="2"/>
<path d="M74.6164 29.069C69.6917 23.2741 61.0735 24.4999 60.402 24.4999C56.1488 26.3944 66.1101 29.8491 71.1468 32.858C76.1834 35.8669 79.5411 34.8639 74.6164 29.069Z" fill="#FF9B04" stroke="black" stroke-width="2"/>
<path d="M67.1174 21.3797C68.0128 20.3768 69.9826 18.7943 70.699 20.4882C71.5944 22.6056 68.5724 24.0543 67.1174 21.3797Z" fill="black"/>
<path d="M76.9668 24.0543C77.3771 23.4599 78.3546 22.7393 78.9814 24.6115C79.7649 26.9517 75.7356 26.7288 76.9668 24.0543Z" fill="black"/>
<path d="M67.1174 21.3797C68.0128 20.3768 69.9826 18.7943 70.699 20.4882C71.5944 22.6056 68.5724 24.0543 67.1174 21.3797Z" stroke="black" stroke-width="2"/>
<path d="M76.9668 24.0543C77.3771 23.4599 78.3546 22.7393 78.9814 24.6115C79.7649 26.9517 75.7356 26.7288 76.9668 24.0543Z" stroke="black" stroke-width="2"/>
<path d="M42.494 145.044C46.7919 141.478 58.0142 136.203 63.0881 134.011L65.3266 150.839C59.32 156.299 46.9486 166.775 45.5159 164.992C43.7251 162.763 34.8831 164.992 26.8245 163.654C18.7659 162.317 19.5494 158.528 19.7733 153.959C19.9971 149.39 37.1216 149.501 42.494 145.044Z" fill="white" stroke="black" stroke-width="2"/>
<path d="M56.4846 153.736C52.903 160.199 40.4793 173.238 38.4647 175.244C34.995 179.256 30.6299 188.238 40.927 192.071C53.7984 196.863 57.0442 195.637 68.0128 188.951C68.0128 202.658 91.4051 194.523 105.396 180.927C119.386 167.332 115.021 152.621 114.797 148.832C114.574 145.044 94.3151 102.251 88.4951 102.028C82.675 101.805 78.0861 100.468 68.0128 110.051C57.9396 119.635 60.0662 147.272 56.4846 153.736Z" fill="white"/>
<path d="M68.0128 188.951C68.0128 202.658 91.4051 194.523 105.396 180.927C119.386 167.332 115.021 152.621 114.797 148.832C114.574 145.044 94.3151 102.251 88.4951 102.028C82.675 101.805 78.0861 100.468 68.0128 110.051C57.9396 119.635 60.0662 147.272 56.4846 153.736C52.903 160.199 40.4793 173.238 38.4647 175.244C34.995 179.256 30.6299 188.238 40.927 192.071C53.7984 196.863 57.0442 195.637 68.0128 188.951ZM68.0128 188.951C68.0128 175.244 65.2147 168.78 78.9814 165.214" stroke="black" stroke-width="2"/>
<path d="M128.34 127.993C129.056 120.148 108.791 120.564 98.5682 121.752C101.031 125.876 106.739 123.758 96.1058 127.993C85.473 132.228 86.4803 137.354 81.2198 145.935C75.9594 154.516 127.445 137.8 128.34 127.993Z" fill="white" stroke="black" stroke-width="2"/>
<path d="M70.6991 117.964C70.6095 117.34 68.871 114.658 68.0129 113.395C69.8037 114.695 72.848 117.429 70.6991 117.964Z" fill="black"/>
<path d="M82.1154 113.952L74.8403 117.964C74.3926 120.304 80.2127 116.626 83.0108 115.623C85.2493 114.821 83.3466 114.175 82.1154 113.952Z" fill="black"/>
<path d="M81.8916 119.635C80.4365 119.895 77.6832 120.727 78.31 121.975C79.0934 123.536 82.675 121.864 81.8916 119.635Z" fill="black"/>
<path d="M69.356 119.969C69.1321 119.635 66.4459 116.181 66.5579 117.741C66.6698 119.301 64.9909 120.304 69.356 119.969Z" fill="black"/>
<path d="M69.1321 124.539C67.4533 124.761 63.8269 125.608 62.7524 127.213C61.4093 129.219 61.4093 129.999 66.8937 130.111C72.378 130.222 73.1614 129.888 74.8403 127.213C76.1834 125.073 71.5945 124.539 69.1321 124.539Z" fill="#FF9B04"/>
<path d="M70.6991 117.964C70.6095 117.34 68.871 114.658 68.0129 113.395C69.8037 114.695 72.848 117.429 70.6991 117.964Z" stroke="black" stroke-width="2"/>
<path d="M82.1154 113.952L74.8403 117.964C74.3926 120.304 80.2127 116.626 83.0108 115.623C85.2493 114.821 83.3466 114.175 82.1154 113.952Z" stroke="black" stroke-width="2"/>
<path d="M81.8916 119.635C80.4365 119.895 77.6832 120.727 78.31 121.975C79.0934 123.536 82.675 121.864 81.8916 119.635Z" stroke="black" stroke-width="2"/>
<path d="M69.356 119.969C69.1321 119.635 66.4459 116.181 66.5579 117.741C66.6698 119.301 64.9909 120.304 69.356 119.969Z" stroke="black" stroke-width="2"/>
<path d="M69.1321 124.539C67.4533 124.761 63.8269 125.608 62.7524 127.213C61.4093 129.219 61.4093 129.999 66.8937 130.111C72.378 130.222 73.1614 129.888 74.8403 127.213C76.1834 125.073 71.5945 124.539 69.1321 124.539Z" stroke="black" stroke-width="2"/>
<path d="M14.9924 201.465C20.1409 214.281 25.5133 214.615 27.3041 216.733C34.5699 222.862 32.7884 203.694 34.5792 197.676C36.0118 192.862 48.3833 190.841 54.3899 190.433L44.2047 187.09C40.847 189.021 32.766 192.394 27.3041 190.433C20.4766 187.981 21.7079 181.518 17.007 174.943C12.3062 168.368 13.6493 174.72 9.61996 180.403C5.59067 186.087 9.84381 188.65 14.9924 201.465Z" fill="#FF9B04"/>
<path d="M58.8669 174.943C57.4342 178.865 65.5078 190.321 69.7236 195.559C83.0426 202.022 74.8721 192.439 69.7236 176.949C64.575 161.458 60.6577 170.039 58.8669 174.943Z" fill="#FF9B04"/>
<path d="M14.9924 201.465C20.1409 214.281 25.5133 214.615 27.3041 216.733C34.5699 222.862 32.7884 203.694 34.5792 197.676C36.0118 192.862 48.3833 190.841 54.3899 190.433L44.2047 187.09C40.847 189.021 32.766 192.394 27.3041 190.433C20.4766 187.981 21.7079 181.518 17.007 174.943C12.3062 168.368 13.6493 174.72 9.61996 180.403C5.59067 186.087 9.84381 188.65 14.9924 201.465Z" stroke="black" stroke-width="2"/>
<path d="M58.8669 174.943C57.4342 178.865 65.5078 190.321 69.7236 195.559C83.0426 202.022 74.8721 192.439 69.7236 176.949C64.575 161.458 60.6577 170.039 58.8669 174.943Z" stroke="black" stroke-width="2"/>
</svg>
