<svg width="183" height="345" viewBox="0 0 183 345" fill="none" xmlns="http://www.w3.org/2000/svg">
<path fill-rule="evenodd" clip-rule="evenodd" d="M59.2814 1.04948C56.7303 0.2067 40.2107 10.319 29.8901 17.0116C28.0217 18.2231 27.2016 20.5561 28.1482 22.5602C28.3732 23.0365 28.6063 23.5005 28.8473 23.9524C37.4837 40.1487 56.1602 40.889 67.1483 38.6718C68.7732 38.3439 69.7533 36.7519 69.4177 35.1423C66.8055 22.6138 61.9031 1.91557 59.2814 1.04948Z" fill="#DD3939"/>
<path d="M67.1483 38.6718C56.1602 40.889 37.4837 40.1487 28.8473 23.9524L6.35681 62.5564C5.5123 64.006 5.45128 65.7922 6.39493 67.1804C12.4511 76.0895 28.7157 89.4826 56.655 87.8662L56.6598 87.866C59.1587 87.7189 61.1429 85.6298 61.4015 83.1616C62.4303 73.3419 65.4767 50.7217 67.1483 38.6718Z" fill="white"/>
<path d="M28.8473 23.9524C37.4837 40.1487 56.1602 40.889 67.1483 38.6718M28.8473 23.9524L6.35681 62.5564M28.8473 23.9524C28.6063 23.5005 28.3732 23.0365 28.1482 22.5602M67.1483 38.6718C67.1582 38.6698 67.1682 38.6678 67.1781 38.6658C68.784 38.3405 69.7521 36.7464 69.4177 35.1423V35.1423M67.1483 38.6718C68.7732 38.3439 69.7533 36.7519 69.4177 35.1423M67.1483 38.6718C65.4767 50.7217 62.4303 73.3419 61.4015 83.1616M29.8901 17.0116C40.2107 10.319 56.7303 0.2067 59.2814 1.04948C61.9031 1.91557 66.8055 22.6138 69.4177 35.1423M29.8901 17.0116C28.0217 18.2231 27.2016 20.5561 28.1482 22.5602M29.8901 17.0116V17.0116C28.0338 18.2153 27.2033 20.5598 28.1482 22.5602V22.5602M61.4015 83.1616V83.1616C61.1436 85.6238 59.1892 87.7177 56.7178 87.8626C56.6985 87.8637 56.6791 87.8648 56.6598 87.866M61.4015 83.1616C61.1429 85.6298 59.1587 87.7189 56.6598 87.866M56.655 87.8662C28.7157 89.4826 12.4511 76.0895 6.39493 67.1804M56.655 87.8662C56.6566 87.8661 56.6582 87.866 56.6598 87.866M56.655 87.8662L56.6598 87.866M6.39493 67.1804C5.45128 65.7922 5.5123 64.006 6.35681 62.5564M6.39493 67.1804V67.1804C5.45578 65.7988 5.51586 63.9999 6.35681 62.5564V62.5564" stroke="black" stroke-width="2"/>
<path d="M74.0345 101.579C77.5004 98.9909 93.2677 87.8866 100.718 82.658L117.752 134.519C110.63 144.062 94.2785 163.519 85.8501 165.009C75.3145 166.872 79.1546 175.009 74.0345 169.813C68.9144 164.617 69.899 172.95 58.4773 158.342C47.0555 143.735 35.4368 152.656 35.4368 150.107C35.4368 147.558 -5.42545 124.226 8.85173 119.912C23.1289 115.598 25.3936 121.284 28.8398 124.226C32.286 127.167 31.7937 124.226 35.4368 113.245C39.08 102.265 54.3418 113.736 65.0743 110.5C75.8068 107.265 69.7021 104.814 74.0345 101.579Z" fill="#C13535" stroke="black" stroke-width="2"/>
<path d="M103.055 71.1733C105.506 64.2148 110.766 57.3149 121.002 56.09C132.9 54.6661 137.753 58.0071 139.847 63.3447C142.755 58.0834 149.792 47.2863 154.676 46.1883C160.781 44.8158 168.658 52.7568 168.461 55.1096C168.264 57.4625 160.19 76.8738 154.676 75.3052C153.467 74.9614 152.164 74.3303 150.934 73.4872C146.051 76.7386 143.518 81.6094 142.862 83.6383C145.852 94.757 153.206 108.931 150.934 121.775C148.177 137.363 144.731 148.441 122.971 149.029C101.21 149.617 63.0066 138.245 72.7545 116.775C80.9296 98.7688 80.1018 100.621 92.4575 90.1801C98.0158 85.483 100.558 78.2628 102.978 71.3912L103.055 71.1733Z" fill="white"/>
<path d="M106.429 98.9321C101.768 101.906 93.55 109.853 97.9611 117.853C103.475 127.853 108.891 132.951 119.722 126.284C130.552 119.618 136.066 109.716 130.749 103.638C125.432 97.5596 126.909 93.7361 118.146 101.873C111.136 108.383 107.414 111.84 106.429 112.755M139.847 63.3447C137.753 58.0071 132.9 54.6661 121.002 56.09C110.766 57.3149 105.506 64.2148 103.055 71.1733C100.612 78.1097 98.0746 85.4333 92.4575 90.1801C80.1018 100.621 80.9296 98.7688 72.7545 116.775C63.0066 138.245 101.21 149.617 122.971 149.029C144.731 148.441 148.177 137.363 150.934 121.775C153.206 108.931 145.852 94.757 142.862 83.6383M139.847 63.3447C141.357 67.1946 141.431 72.0832 141.679 76.9718C141.783 79.0259 142.223 81.2624 142.862 83.6383M139.847 63.3447C142.755 58.0834 149.792 47.2863 154.676 46.1883C160.781 44.8158 168.658 52.7568 168.461 55.1096C168.264 57.4625 160.19 76.8738 154.676 75.3052C153.467 74.9614 152.164 74.3303 150.934 73.4872M158.811 55.1096C157.433 54.5541 153.376 54.7175 148.177 59.8154C143.103 64.7911 146.553 70.484 150.934 73.4872M142.862 83.6383C143.518 81.6094 146.051 76.7386 150.934 73.4872" stroke="black" stroke-width="2"/>
<path d="M118.934 68.2466C118.683 69.5239 119.04 70.2585 119.661 70.5775C123.453 72.5254 119.756 64.0634 118.934 68.2466Z" fill="black"/>
<path d="M132.916 63.6388C133.619 64.1799 134.301 64.3283 134.808 64.2082C137.27 63.6246 130.911 62.0963 132.916 63.6388Z" fill="black"/>
<path d="M118.934 68.2466C118.683 69.5239 119.04 70.2585 119.661 70.5775C123.453 72.5254 119.756 64.0634 118.934 68.2466Z" stroke="black" stroke-width="2"/>
<path d="M132.916 63.6388C133.619 64.1799 134.301 64.3283 134.808 64.2082C137.27 63.6246 130.911 62.0963 132.916 63.6388Z" stroke="black" stroke-width="2"/>
<path d="M140.399 67.8545C139.049 68.1326 136.303 71.1399 133.694 74.3968C130.49 78.3953 130.317 82.8488 134.911 80.5807C135.836 80.1239 136.824 79.6965 137.839 79.4229C142.565 78.1484 143.254 67.2663 140.399 67.8545Z" fill="#FF9B04" stroke="black" stroke-width="2"/>
<path d="M169.368 156.54C160.051 156.923 119.42 190.044 98.854 208.168C91.6925 214.479 89.7176 224.403 93.4856 233.173C101.777 252.471 112.992 276.874 117.675 281.047C125.158 287.713 157.651 271.047 163.559 264.38C169.467 257.714 169.368 249.773 169.368 243.106C169.368 236.44 174.587 231.538 169.368 227.911C164.15 224.283 173.208 205.754 174.587 197.519C175.965 189.284 163.559 188.892 159.916 188.598C156.273 188.304 169.368 176.441 177.639 166.245C185.91 156.05 181.282 156.05 169.368 156.54Z" fill="white"/>
<path d="M159.916 188.598C156.273 188.304 169.368 176.441 177.639 166.245C185.91 156.05 181.282 156.05 169.368 156.54C160.051 156.923 119.42 190.044 98.854 208.168C91.6925 214.479 89.7176 224.403 93.4856 233.173C101.777 252.471 112.992 276.874 117.675 281.047C125.158 287.713 157.651 271.047 163.559 264.38C169.467 257.714 169.368 249.773 169.368 243.106C169.368 236.44 174.587 231.538 169.368 227.911C164.15 224.283 173.208 205.754 174.587 197.519C175.965 189.284 163.559 188.892 159.916 188.598ZM159.916 188.598C150.201 193.598 130.101 205.696 127.423 214.087C124.075 224.577 133.429 222.617 148.494 216.832C160.546 212.205 163.559 209.545 163.559 208.793" stroke="black" stroke-width="2"/>
<path d="M57.9078 150.167C41.3659 157.324 26.4979 235.753 26.4979 237.322C19.4086 249.315 4.73755 279.321 2.76828 303.399C0.306696 333.496 -9.34272 318.006 65.391 339.084C140.125 360.162 144.26 306.242 142.389 287.321C140.519 268.4 100.641 199.48 97.7854 195.46C94.93 191.441 95.9146 160.657 88.8252 154.187C81.7359 147.716 74.4496 143.011 57.9078 150.167Z" fill="white" stroke="black" stroke-width="2"/>
<path d="M100.641 156.344C91.4247 157.285 82.6877 166.67 79.4713 171.245C84.1975 168.108 87.5453 171.245 95.9146 169.383C104.284 167.52 112.161 155.167 100.641 156.344Z" fill="#FF9B04" stroke="black" stroke-width="2"/>
<path d="M55.7656 166.533C55.6707 166.583 55.5964 166.619 55.5447 166.638C55.6187 166.602 55.6924 166.567 55.7656 166.533C57.6584 165.524 67.7168 158.599 68.9357 162.52C70.2157 166.638 74.0558 168.01 71.4957 167.814C68.9506 167.619 68.2545 160.641 55.7656 166.533Z" fill="black"/>
<path d="M55.5447 166.638C56.6278 166.245 67.6557 158.403 68.9357 162.52C70.2157 166.638 74.0558 168.01 71.4957 167.814C68.9357 167.618 68.2464 160.559 55.5447 166.638Z" stroke="black" stroke-width="2"/>
<path d="M76.8128 271.047C80.1212 260.851 62.5028 250.198 53.28 246.145C1.09451 224.871 21.2794 258.008 19.1133 267.419C16.9471 276.831 39.3967 283.792 35.1628 286.243C30.9289 288.693 41.8583 306.144 31.0273 313.595C20.1964 321.046 24.3318 320.261 41.8583 317.81C59.3848 315.359 72.6773 283.792 76.8128 271.047Z" fill="white" stroke="black" stroke-width="2"/>
</svg>
