<svg width="121" height="184" viewBox="0 0 121 184" fill="none" xmlns="http://www.w3.org/2000/svg">
<path d="M18.7742 67.6224C8.45525 95.4649 10.4705 125.431 12.7679 136.934C14.6388 204.384 77.3599 182.129 96.2648 167.032C115.17 151.934 82.6769 98.0138 85.2369 61.9363C87.797 25.8587 60.0303 13.31 46.147 18.0158C32.2637 22.7216 31.6729 32.8194 18.7742 67.6224Z" fill="white" stroke="black" stroke-width="2"/>
<path d="M53.6301 82.72C54.1815 77.9358 59.2425 76.8705 61.7041 76.9359C66.0364 77.5241 65.2488 76.9359 68.3996 82.72C71.5504 88.5042 63.0826 91.0532 60.3256 90.1708C57.5686 89.2885 52.9408 88.7003 53.6301 82.72Z" fill="#FFC978"/>
<path d="M61.7041 76.9359C59.2425 76.8705 54.1815 77.9358 53.6301 82.72C52.9408 88.7003 57.5686 89.2885 60.3256 90.1708C63.0826 91.0532 71.5504 88.5042 68.3996 82.72C65.2488 76.9359 66.0364 77.5241 61.7041 76.9359ZM61.7041 76.9359C61.7041 75.9163 62.8857 66.1845 63.4764 61.446" stroke="black" stroke-width="2"/>
<path d="M27.2421 36.0545C27.763 37.166 29.9656 38.365 31.176 38.9074C31.244 38.9333 31.3112 38.9626 31.3775 38.9956C32.0339 40.4008 32.8938 43.3289 31.0821 43.7994C28.8174 44.3877 26.8482 43.5053 27.8328 38.9956C26.9467 38.9956 26.5528 34.584 27.2421 36.0545Z" fill="black"/>
<path d="M44.9654 41.3485C43.5869 41.4466 38.5653 39.3878 38.2699 38.9956C38.2699 41.9367 42.7008 41.3485 41.2238 42.0348C39.7469 42.721 38.8607 48.6032 42.7008 49.9758C46.5408 51.3483 47.7224 46.3484 48.1163 45.5641C48.5101 44.7798 46.3439 41.2505 44.9654 41.3485Z" fill="black"/>
<path d="M31.3775 38.9956C30.2288 38.5054 27.7935 37.2309 27.2421 36.0545C26.5528 34.584 26.9467 38.9956 27.8328 38.9956M31.3775 38.9956C30.196 38.4074 28.719 38.9956 27.8328 38.9956M31.3775 38.9956C32.0339 40.4008 32.8938 43.3289 31.0821 43.7994C28.8174 44.3877 26.8482 43.5053 27.8328 38.9956M38.2699 38.9956C38.5653 39.3878 43.5869 41.4466 44.9654 41.3485C46.3439 41.2505 48.5101 44.7798 48.1163 45.5641C47.7224 46.3484 46.5408 51.3483 42.7008 49.9758C38.8607 48.6032 39.7469 42.721 41.2238 42.0348C42.7008 41.3485 38.2699 41.9367 38.2699 38.9956Z" stroke="black" stroke-width="2"/>
<path d="M33.2483 105.248C54.2013 89.2489 59.8334 91.8501 60.0303 95.1507C61.9339 96.0984 66.4304 103.758 69.1874 126.817C71.9444 149.875 39.6812 162.175 23.205 165.443C22.1548 164.397 18.1637 159.541 10.6017 148.483C1.14924 134.66 -0.426176 141.914 2.03541 131.915C4.49699 121.915 7.05704 125.248 33.2483 105.248Z" fill="white" stroke="black" stroke-width="2"/>
<path d="M18.1833 50.8582C24.6819 48.0152 41.3222 58.8972 42.8976 60.3678C43.6853 60.3678 44.7881 60.7011 42.8976 62.0344C40.6986 65.3023 34.41 71.6813 26.8481 71.0538C19.2861 70.4264 19.7587 63.6684 20.9403 60.3678C16.5094 59.3874 11.6847 53.7013 18.1833 50.8582Z" fill="#FF9B04"/>
<path d="M20.9403 60.3678C16.5094 59.3874 11.6847 53.7013 18.1833 50.8582C24.6819 48.0152 41.3222 58.8972 42.8976 60.3678C43.6853 60.3678 44.7881 60.7011 42.8976 62.0344M20.9403 60.3678C25.3711 61.3482 40.5345 63.7011 42.8976 62.0344M20.9403 60.3678C19.7587 63.6684 19.2861 70.4264 26.8481 71.0538C34.41 71.6813 40.6986 65.3023 42.8976 62.0344" stroke="black" stroke-width="2"/>
<path d="M63.7719 11.9942C65.052 11.7981 67.8089 -4.96619 85.8277 13.6608C94.6894 16.1771 113.161 23.0331 116.154 30.327C119.896 39.4444 114.481 46.9933 116.154 54.8362C117.828 62.6792 121.275 65.8163 118.714 76.7965C116.666 85.5806 111.892 94.247 109.76 97.4822C109.254 104.969 108.037 113.09 109.36 115.913C111.428 120.325 92.0309 123.266 92.3263 121.599C92.6217 119.933 66.7258 11.9942 63.7719 11.9942Z" fill="#FFC978"/>
<path d="M85.8277 13.6608C67.8089 -4.96619 65.052 11.7981 63.7719 11.9942C66.7258 11.9942 92.6217 119.933 92.3263 121.599C92.0309 123.266 111.428 120.325 109.36 115.913C108.037 113.09 109.254 104.969 109.76 97.4822M85.8277 13.6608C103.847 32.2878 103.945 19.543 106.111 46.6011C108.277 73.6593 107.293 78.8552 109.36 86.5021C110.105 89.256 110.045 93.2686 109.76 97.4822M85.8277 13.6608C94.6894 16.1771 113.161 23.0331 116.154 30.327C119.896 39.4444 114.481 46.9933 116.154 54.8362C117.828 62.6792 121.275 65.8163 118.714 76.7965C116.666 85.5806 111.892 94.247 109.76 97.4822" stroke="black" stroke-width="2"/>
<path d="M77.2614 47.721C76.5524 50.9366 76.966 56.7077 77.2614 59.1913C74.0777 47.7863 60.5423 26.1529 31.8698 30.8587C31.3118 32.2965 29.7429 34.7997 27.9312 33.3096C25.6666 31.4469 28.3251 28.0156 29.7036 25.0745C31.0821 22.1334 32.3621 19.6825 33.1498 16.9374C33.9375 14.1924 32.756 14.8787 36.9899 13.016C41.2238 11.1533 40.9284 6.93769 45.5562 5.07499C50.184 3.21229 53.5317 2.7221 55.0087 5.07499C57.4374 3.31031 62.6888 0.075067 64.2642 1.25151C66.2335 2.72206 74.7013 14.2904 73.9136 19.0942C73.1259 23.898 81.3968 42.5251 77.2614 47.721Z" fill="#311EAA"/>
<path d="M31.8698 30.8587C32.0995 29.4535 32.8347 26.6431 33.9375 26.6431C35.316 26.6431 54.6148 24.5843 61.8026 28.7019C68.9904 32.8194 78.1475 43.7015 77.2614 47.721M31.8698 30.8587C60.5423 26.1529 74.0777 47.7863 77.2614 59.1913C76.966 56.7077 76.5524 50.9366 77.2614 47.721M31.8698 30.8587C31.3118 32.2965 29.7429 34.7997 27.9312 33.3096C25.6666 31.4469 28.3251 28.0156 29.7036 25.0745C31.0821 22.1334 32.3621 19.6825 33.1498 16.9374C33.9375 14.1924 32.756 14.8787 36.9899 13.016C41.2238 11.1533 40.9284 6.93769 45.5562 5.07499C50.184 3.21229 53.5317 2.7221 55.0087 5.07499M77.2614 47.721C81.3968 42.5251 73.1259 23.898 73.9136 19.0942C74.7013 14.2904 66.2335 2.72206 64.2642 1.25151C62.6888 0.075067 57.4374 3.31031 55.0087 5.07499M55.0087 5.07499C56.4856 7.42787 62.8857 12.3297 64.2642 16.9374" stroke="black" stroke-width="2"/>
</svg>
