<svg width="80" height="78" viewBox="0 0 80 78" fill="none" xmlns="http://www.w3.org/2000/svg">
<path d="M64.6394 4.32453L64.4999 4.3987C64.0818 4.62108 63.8205 5.05604 63.8205 5.52965V7.85037C63.8205 7.95333 63.7492 8.04258 63.6488 8.06537C62.8947 8.23655 62.8411 9.29056 63.574 9.53726L64.6097 9.88589C64.9197 9.99022 65.2603 9.94743 65.5348 9.76969L67.426 8.54518C67.5187 8.48515 67.6039 8.41418 67.6796 8.33381L67.9366 8.06114C68.6755 7.27712 68.085 6.01276 67.032 6.01276C66.6746 6.01276 66.3824 5.72245 66.3824 5.37169C66.3824 4.47693 65.4294 3.90438 64.6394 4.32453ZM67.283 7.96003L67.4813 8.14692L67.283 7.96003C67.2373 8.00859 67.1858 8.05146 67.1298 8.08773L65.2386 9.31224C65.1036 9.39967 64.9361 9.42071 64.7836 9.3694L63.7479 9.02077C63.5368 8.94971 63.5522 8.64612 63.7694 8.59682C64.118 8.51769 64.3654 8.20783 64.3654 7.85037V5.52965C64.3654 5.25754 64.5156 5.00763 64.7558 4.87985L64.8953 4.80568C65.3223 4.57858 65.8374 4.88805 65.8374 5.37169C65.8374 6.03001 66.3803 6.55773 67.032 6.55773C67.6316 6.55773 67.9346 7.26871 67.54 7.68736L67.283 7.96003ZM3.60951 9.9249L3.4211 10.1217L3.60951 9.92489C2.75363 9.10572 2.34613 7.92359 2.51541 6.75102C2.8365 4.52693 5.09669 3.11711 7.2509 3.77755C8.0063 4.00914 8.81932 4.02782 9.58443 3.82633L12.9059 2.95165C14.2158 2.60668 15.5648 2.43205 16.9194 2.43205H24.5512C25.0645 2.43205 25.5561 2.62954 26.0534 2.94078C26.4744 3.20434 26.8791 3.53556 27.2942 3.87532C27.3727 3.93964 27.4517 4.00427 27.5312 4.06881C28.0203 4.46574 28.5317 4.86004 29.0689 5.0963C29.6166 5.33723 30.2062 5.42046 30.8353 5.17803C31.2533 5.01694 36.5945 3.28194 39.2438 2.42471L44.4215 1.52246C46.4488 1.16918 48.5281 1.73756 50.0938 3.07299L50.3268 3.27172C51.7738 4.50589 53.6735 5.07382 55.5604 4.83635L60.2049 4.25182C60.9331 4.16017 61.4793 3.54093 61.4793 2.80698C61.4793 2.3037 61.8873 1.89571 62.3906 1.89571H67.9299C68.3225 1.89571 68.7113 1.97125 69.0753 2.11821L71.9498 3.27891C72.7094 3.58561 72.8875 4.58064 72.2815 5.13179C71.5942 5.75691 71.5553 6.82497 72.1954 7.49839L73.3696 8.73375C74.0197 9.41777 74.2783 10.385 74.0562 11.3022L73.637 13.0332C73.2678 14.5578 73.4542 16.164 74.1628 17.5634L74.2841 17.8029C75.2881 19.7856 75.256 22.1346 74.1984 24.0891L73.8744 24.6879C72.7986 26.6761 72.5506 29.0053 73.1598 31.1801C73.4844 32.3388 73.8065 33.5083 74.0473 34.4227C74.1677 34.8801 74.2674 35.272 74.3368 35.5663C74.3715 35.7136 74.3982 35.8344 74.416 35.9256C74.4249 35.9713 74.4312 36.0076 74.4352 36.0351C74.4396 36.0654 74.4397 36.0754 74.4397 36.0727C74.4397 36.164 74.3852 36.8247 74.2922 37.8702C74.2002 38.9037 74.0729 40.2914 73.9314 41.8141C73.6489 44.8535 73.31 48.4301 73.0836 50.8024L72.5463 53.4427C72.3243 54.5341 72.3814 55.6639 72.7125 56.7272L73.1087 57.9996C73.5262 59.3404 73.1763 60.8021 72.1969 61.8084C70.3939 63.6609 70.5823 66.6646 72.6027 68.2772L72.8139 68.4458C73.4866 68.9828 73.9617 69.7282 74.1643 70.5648C74.6854 72.7167 73.3027 74.8677 71.1286 75.2871L68.9863 75.7003C68.1764 75.8565 67.3428 75.843 66.5384 75.6605L64.238 75.1386C62.2416 74.6857 60.1818 74.5816 58.1499 74.8309L52.344 75.5432C50.1996 75.8063 48.0279 75.7451 45.9018 75.3616L41.875 74.6354C41.2556 74.5237 40.6497 74.3466 40.0676 74.1071L37.4463 73.0286C35.7022 72.3111 33.7014 72.6529 32.2945 73.9089C30.9555 75.1042 29.0225 75.3612 27.4177 74.5572L26.7206 74.2079C25.2726 73.4825 23.5947 73.3656 22.0602 73.8834L21.7569 73.9857C20.8477 74.2925 19.8804 74.3873 18.929 74.263L12.455 73.4169C10.8735 73.2102 9.33786 72.7398 7.91188 72.0254L5.217 70.6753C4.92904 70.5311 4.61139 70.4559 4.28931 70.4559C3.28862 70.4559 2.55872 69.509 2.81348 68.5413L4.41893 62.4429C4.79699 61.0068 4.70387 59.4872 4.15329 58.108L4.08346 57.9331C3.50528 56.4848 3.4304 54.8842 3.87084 53.3883L4.37195 51.6862C5.17826 48.9475 4.96512 46.0094 3.77198 43.4158C3.36912 42.54 3.08034 41.6162 2.91272 40.6669L2.69032 39.4074C2.39545 37.7374 2.59425 36.0178 3.26232 34.4592L4.75373 30.9797C4.91996 30.5919 4.90076 30.1496 4.70158 29.7776L3.80862 28.1102C3.71653 27.9382 3.89532 27.7476 4.07283 27.8284C4.50293 28.0243 5.00471 27.7777 5.11235 27.3175L5.45848 25.8377C5.56273 25.3921 5.51052 24.9241 5.31061 24.5124L4.79097 23.4421C4.36228 22.5591 4.21437 21.566 4.36715 20.5965L4.85646 17.4914C4.94345 16.9393 4.98714 16.3813 4.98714 15.8225V13.0916C4.98714 11.9111 4.50483 10.7818 3.652 9.96556L3.60951 9.9249ZM1.50837 75.1448L1.29683 74.973L1.50838 75.1448L1.7415 74.8576C2.01837 74.5166 2.54383 74.5324 2.79966 74.8895L3.16206 75.3954C3.46776 75.8221 4.03668 75.9661 4.50857 75.7362C4.71593 75.6352 4.92036 75.6814 5.04773 75.7916C5.1697 75.8971 5.22575 76.0621 5.13561 76.2538C5.0356 76.4665 4.93604 76.6383 4.84341 76.7526C4.75502 76.8617 4.70987 76.8736 4.71013 76.8747C4.71013 76.8747 4.71015 76.8747 4.71018 76.8747H3.45644C3.2043 76.8747 2.96951 76.7464 2.83331 76.5342L2.60399 76.6814L2.8333 76.5342L2.75928 76.4189C2.56898 76.1224 2.24087 75.9431 1.88855 75.9431C1.47631 75.9431 1.24855 75.4648 1.50837 75.1448ZM4.63322 73.1356V73.0037C4.63322 72.5916 5.08797 72.3416 5.43594 72.5625C5.587 72.6583 5.67853 72.8248 5.67853 73.0037V73.1356C5.67853 73.4842 5.34358 73.7351 5.00895 73.6371C4.78624 73.5719 4.63322 73.3676 4.63322 73.1356Z" stroke="black" stroke-width="0.544966"/>
<path d="M5.34583 8.0376L1.50195 12.5693L2.43257 12.8121L2.27073 13.1358L3.24181 13.8236L1.98749 14.8352H7.28799L4.86028 13.1358L8.54231 10.8699L5.66952 11.5982L9.51339 8.40175L4.45567 10.5058L5.34583 8.0376Z" fill="#2B8962" stroke="black" stroke-width="0.544966"/>
<path d="M55.2726 8.4448L55.8077 2.52656L54.907 2.86366L54.853 2.5058L53.663 2.50222L54.1065 0.953085L49.772 4.00384L52.7354 3.99624L51.0285 7.9684L52.9586 5.71936L51.655 10.5457L54.58 5.91409L55.2726 8.4448Z" fill="#2B8962" stroke="black" stroke-width="0.544966"/>
<path d="M70.8412 72.327L76.7122 73.2454L76.4343 72.3246L76.7949 72.294L76.8758 71.1068L78.3928 71.65L75.6301 67.1264L75.4452 70.084L71.5923 68.1228L73.7112 70.1948L68.9797 68.5805L73.4116 71.8002L70.8412 72.327Z" fill="#2B8962" stroke="black" stroke-width="0.544966"/>
</svg>
