<svg width="78" height="78" viewBox="0 0 78 78" fill="none" xmlns="http://www.w3.org/2000/svg">
<path d="M8.3592 9.79762L8.77251 9.92784C8.98622 9.99517 9.04642 10.2689 8.88069 10.4197C8.46852 10.7947 8.53206 11.4604 9.00772 11.7507L9.49624 12.0488C9.86226 12.2722 10.3165 12.2948 10.7029 12.1089L11.2666 11.8377C11.9522 11.5078 12.3881 10.8143 12.3881 10.0536L12.3881 9.78404C12.3881 9.29681 12.7139 8.86974 13.1837 8.74094C14.1463 8.47707 14.6464 7.41647 14.2375 6.50594L14.1711 6.35797C13.6813 5.26736 12.2719 4.96868 11.3819 5.76689L10.4097 6.63874C10.2042 6.82305 9.9032 6.85342 9.66503 6.71389C8.99624 6.32208 8.13775 6.67069 7.93147 7.41785L7.63971 8.47462C7.48433 9.0374 7.80236 9.62217 8.3592 9.79762ZM9.89519 69.9106L9.6969 69.7237L9.8952 69.9106C9.94096 69.862 9.9924 69.8191 10.0484 69.7829L11.9396 68.5584C12.0746 68.4709 12.2422 68.4499 12.3946 68.5012L13.4303 68.8498C13.6414 68.9209 13.626 69.2245 13.4088 69.2738C13.0602 69.3529 12.8128 69.6628 12.8128 70.0202L12.8128 72.341C12.8128 72.6131 12.6627 72.863 12.4224 72.9907L12.2829 73.0649C11.8559 73.292 11.3408 72.9825 11.3408 72.4989C11.3408 71.8406 10.798 71.3129 10.1462 71.3129C9.54658 71.3129 9.24361 70.6019 9.63819 70.1832L9.89519 69.9106ZM8.93627 9.40807L8.52296 9.27785C8.24593 9.19056 8.08772 8.89963 8.16502 8.61965L8.45679 7.56288C8.56778 7.16086 9.0297 6.97328 9.38956 7.18411C9.8322 7.44341 10.3917 7.38696 10.7736 7.04446L11.7457 6.17261C12.361 5.62079 13.3354 5.82726 13.6739 6.58122L13.7404 6.72919C14.0123 7.33465 13.6798 8.0399 13.0397 8.21536C12.333 8.40906 11.8431 9.05132 11.8431 9.78404L11.8431 10.0536C11.8431 10.6049 11.5272 11.1075 11.0304 11.3466L10.4667 11.6178C10.2468 11.7236 9.98836 11.7107 9.78012 11.5836L9.29159 11.2855C9.12623 11.1846 9.10414 10.9531 9.24743 10.8228C9.72414 10.3891 9.55098 9.60174 8.93627 9.40807ZM6.26396 7.01L7.19668 6.13957C7.80661 5.57038 7.75528 4.58862 7.08932 4.08615C6.45794 3.60977 5.55363 3.77962 5.13814 4.45265L4.68602 5.18503C4.50118 5.48443 4.44604 5.84613 4.53326 6.18701L4.62079 6.52909C4.77271 7.12284 5.42005 7.43952 5.98204 7.19497C6.08585 7.1498 6.1812 7.08724 6.26396 7.01ZM6.82487 5.74114L5.89215 6.61157L6.07805 6.81078L5.89213 6.61159C5.8547 6.64652 5.81158 6.67482 5.7646 6.69526C5.51035 6.80589 5.21747 6.66264 5.14874 6.39401L5.06122 6.05193C5.01067 5.85439 5.04262 5.6448 5.14973 5.4713L5.60186 4.73892C5.8487 4.33907 6.38596 4.23815 6.76108 4.52118C7.15674 4.8197 7.18724 5.40298 6.82487 5.74114ZM72.1184 70.8618L72.1184 70.3231C72.1184 69.7879 71.728 69.3328 71.199 69.2513L69.8434 69.0426C69.1086 68.9295 68.3981 69.3581 68.1553 70.0608L68.119 70.1659C67.9301 70.7127 68.1025 71.3192 68.5508 71.6849L69.4823 72.4447C70.0103 72.8753 70.8015 72.4996 70.8015 71.8183L70.8015 71.7089C70.8015 71.5685 70.9467 71.4751 71.0745 71.5333C71.5632 71.7559 72.1184 71.3988 72.1184 70.8618ZM71.5735 70.3231L71.5735 70.8618C71.5735 71.0022 71.4283 71.0956 71.3005 71.0374C70.8118 70.8147 70.2566 71.1719 70.2566 71.7089L70.2566 71.8183C70.2566 72.0403 69.9988 72.1627 69.8268 72.0224L68.8953 71.2626C68.6241 71.0414 68.5199 70.6746 68.6341 70.3439L68.6704 70.2387C68.8272 69.785 69.286 69.5082 69.7605 69.5813L71.1161 69.79C71.3792 69.8305 71.5735 70.0569 71.5735 70.3231ZM70.1669 65.0757L69.9925 64.6102C69.7772 64.0356 69.1352 63.7463 68.5622 63.9656C68.1343 64.1293 67.8518 64.54 67.8518 64.9981L67.8518 65.5427C67.8518 65.8408 67.9636 66.128 68.1652 66.3475C68.7854 67.023 69.9044 66.7727 70.1778 65.8974L70.1889 65.8618C70.2692 65.6046 70.2614 65.328 70.1669 65.0757ZM69.4822 64.8014L69.6566 65.2669C69.7086 65.4057 69.7129 65.5579 69.6687 65.6994L69.6576 65.735C69.5094 66.2095 68.9028 66.3451 68.5666 65.979C68.4574 65.86 68.3967 65.7043 68.3967 65.5427L68.3967 64.9981C68.3967 64.7658 68.54 64.5576 68.7569 64.4746C69.0475 64.3634 69.373 64.5101 69.4822 64.8014ZM12.5388 73.5461L12.6783 73.4719C13.0964 73.2495 13.3578 72.8146 13.3578 72.341L13.3578 70.0202C13.3578 69.9173 13.429 69.828 13.5294 69.8052C14.2836 69.634 14.3371 68.58 13.6042 68.3333L12.5685 67.9847C12.2585 67.8804 11.9179 67.9232 11.6434 68.1009L9.75223 69.3254C9.65952 69.3854 9.57436 69.4564 9.49861 69.5368L9.24162 69.8095C8.50268 70.5935 9.09324 71.8578 10.1462 71.8578C10.5036 71.8578 10.7959 72.1481 10.7959 72.4989C10.7959 73.3937 11.7488 73.9662 12.5388 73.5461ZM74.0162 2.47521L73.7947 2.6339L74.0162 2.4752C73.7105 2.04849 73.1416 1.9045 72.6697 2.13441C72.4623 2.23544 72.2579 2.18919 72.1305 2.07902C72.0085 1.97352 71.9525 1.80846 72.0426 1.61676C72.1426 1.40408 72.2422 1.23234 72.3348 1.118C72.4232 1.00889 72.4684 0.996994 72.4681 0.995903C72.4681 0.995887 72.4681 0.995872 72.4681 0.995857L73.7218 0.995857C73.9739 0.995857 74.2087 1.12416 74.3449 1.33637L74.4189 1.45171C74.6092 1.74821 74.9374 1.92751 75.2897 1.92751C75.7019 1.92751 75.9297 2.40578 75.6699 2.72581L75.8814 2.89756L75.6699 2.72582L75.4367 3.01298C75.1599 3.35402 74.6344 3.33818 74.3786 2.98108L74.0162 2.47521ZM67.5938 74.0443L64.2723 74.919C62.9624 75.2639 61.6135 75.4386 60.2589 75.4386L52.6271 75.4386C52.1137 75.4386 51.6221 75.2411 51.1249 74.9298C50.7038 74.6663 50.2991 74.335 49.8841 73.9953C49.8055 73.931 49.7265 73.8663 49.647 73.8018C49.1579 73.4049 48.6465 73.0106 48.1093 72.7743C47.5616 72.5334 46.972 72.4501 46.3429 72.6926C45.925 72.8537 40.5837 74.5887 37.9344 75.4459L32.7567 76.3481C30.7294 76.7014 28.6501 76.133 27.0844 74.7976L26.8514 74.5989C25.4045 73.3647 23.5047 72.7968 21.6178 73.0343L16.9733 73.6188C16.2451 73.7104 15.6989 74.3297 15.6989 75.0636C15.6989 75.5669 15.2909 75.9749 14.7876 75.9749L9.24827 75.9749C8.85577 75.9749 8.46692 75.8994 8.10296 75.7524L5.22842 74.5917C4.46885 74.285 4.29073 73.29 4.89673 72.7388C5.58405 72.1137 5.62292 71.0456 4.98284 70.3722L3.80863 69.1368C3.15849 68.4528 2.89992 67.4856 3.12204 66.5684L3.54124 64.8374C3.91042 63.3128 3.72398 61.7066 3.01537 60.3072L2.8941 60.0677C1.89017 58.085 1.92219 55.736 2.9798 53.7815L3.30377 53.1827C4.3796 51.1945 4.62763 48.8653 4.0184 46.6905C3.69379 45.5318 3.37173 44.3623 3.13095 43.4479C3.0105 42.9905 2.91083 42.5986 2.84143 42.3043C2.80669 42.1569 2.78003 42.0362 2.76222 41.945C2.7533 41.8993 2.74698 41.863 2.743 41.8355C2.73859 41.8052 2.73848 41.7952 2.73848 41.7979C2.73848 41.7066 2.79302 41.0459 2.88602 40.0004C2.97797 38.9669 3.10532 37.5792 3.24685 36.0565C3.52932 33.0171 3.8682 29.4405 4.09465 27.0682L4.63189 24.4279C4.85396 23.3365 4.79679 22.2067 4.46567 21.1434L4.06948 19.871C3.65199 18.5302 4.00195 17.0685 4.98136 16.0622C6.78435 14.2097 6.59591 11.206 4.57554 9.59339L4.3643 9.42478C3.69159 8.88783 3.21655 8.1424 3.01397 7.30585C2.49283 5.15387 3.87556 3.00291 6.04965 2.58353L8.19195 2.17029C9.00186 2.01406 9.83539 2.02762 10.6398 2.21012L12.9402 2.732C14.9367 3.18492 16.9964 3.28903 19.0283 3.03974L24.8343 2.32739C26.9786 2.0643 29.1503 2.12551 31.2765 2.50897L35.3033 3.23523C35.9227 3.34695 36.5285 3.52403 37.1106 3.76351L39.7319 4.84196C41.476 5.55951 43.4768 5.21766 44.8837 3.96174C46.2227 2.76641 48.1557 2.50945 49.7605 3.31345L50.4576 3.66269C51.9056 4.38814 53.5835 4.50496 55.1181 3.9872L55.4213 3.88487C56.3305 3.57811 57.2978 3.48327 58.2492 3.60763L64.7232 4.45374C66.3047 4.66043 67.8404 5.13076 69.2664 5.84517L71.9612 7.19528C72.2492 7.33955 72.5668 7.41466 72.8889 7.41466C73.8896 7.41466 74.6195 8.36159 74.3648 9.32931L72.7593 15.4277C72.3812 16.8638 72.4744 18.3834 73.0249 19.7626L73.0948 19.9375C73.6729 21.3858 73.7478 22.9864 73.3074 24.4824L72.8063 26.1844C72 28.9231 72.2131 31.8612 73.4062 34.4548C73.8091 35.3306 74.0979 36.2544 74.2655 37.2037L74.4879 38.4632C74.7828 40.1332 74.584 41.8528 73.9159 43.4114L72.4245 46.8909C72.2583 47.2787 72.2775 47.721 72.4766 48.093L73.3696 49.7604C73.4617 49.9324 73.2829 50.123 73.1054 50.0422C72.6753 49.8463 72.1735 50.0929 72.0659 50.5531L71.7197 52.0329C71.6155 52.4785 71.6677 52.9465 71.8676 53.3582L72.3873 54.4285C72.8159 55.3115 72.9639 56.3046 72.8111 57.2741L72.3218 60.3792C72.2348 60.9313 72.1911 61.4893 72.1911 62.0481L72.1911 64.779C72.1911 65.9595 72.6734 67.0888 73.5262 67.905L73.5687 67.9457C74.4246 68.7649 74.8321 69.947 74.6628 71.1196C74.3417 73.3437 72.0815 74.7535 69.9273 74.0931C69.1719 73.8615 68.3589 73.8428 67.5938 74.0443ZM72.545 4.73505L72.545 4.86687C72.545 5.27901 72.0903 5.529 71.7423 5.30816C71.5912 5.21228 71.4997 5.04579 71.4997 4.86687L71.4997 4.73505C71.4997 4.38637 71.8347 4.13546 72.1693 4.23348C72.392 4.29871 72.545 4.50299 72.545 4.73505Z" stroke="black" stroke-width="0.544966"/>
<path d="M73.0463 69.8325L76.8901 65.3008L75.9595 65.058L76.1214 64.7343L75.1503 64.0465L76.4046 63.0349L71.1041 63.0349L73.5318 64.7343L69.8498 67.0002L72.7226 66.2719L68.8787 69.4684L73.9364 67.3643L73.0463 69.8325Z" fill="#2B8962" stroke="black" stroke-width="0.544966"/>
<path d="M23.1199 69.4253L22.5848 75.3436L23.4856 75.0065L23.5395 75.3643L24.7296 75.3679L24.286 76.917L28.6206 73.8663L25.6572 73.8739L27.3641 69.9017L25.434 72.1508L26.7376 67.3244L23.8126 71.956L23.1199 69.4253Z" fill="#2B8962" stroke="black" stroke-width="0.544966"/>
</svg>
