<svg width="77" height="80" viewBox="0 0 77 80" fill="none" xmlns="http://www.w3.org/2000/svg">
<path d="M71.2301 72.2421L71.2301 71.7035C71.2301 71.1683 70.8397 70.7132 70.3107 70.6317L68.9551 70.423C68.2203 70.3099 67.5097 70.7385 67.267 71.4412L67.2307 71.5463C67.0418 72.0931 67.2142 72.6996 67.6625 73.0652L68.594 73.825C69.122 74.2557 69.9132 73.88 69.9132 73.1987L69.9132 73.0892C69.9132 72.9488 70.0584 72.8554 70.1862 72.9137C70.6748 73.1363 71.2301 72.7791 71.2301 72.2421ZM70.6851 71.7035L70.6851 72.2421C70.6851 72.3826 70.5399 72.476 70.4122 72.4177C69.9235 72.1951 69.3682 72.5523 69.3682 73.0892L69.3682 73.1987C69.3682 73.4206 69.1105 73.543 68.9384 73.4027L68.0069 72.6429C67.7358 72.4218 67.6315 72.0549 67.7458 71.7243L67.7821 71.6191C67.9388 71.1653 68.3977 70.8886 68.8722 70.9616L70.2278 71.1703C70.4909 71.2108 70.6851 71.4373 70.6851 71.7035ZM69.2786 66.456L69.1042 65.9906C68.8889 65.416 68.2469 65.1267 67.6739 65.346C67.246 65.5097 66.9634 65.9203 66.9634 66.3785L66.9634 66.9231C66.9634 67.2211 67.0753 67.5084 67.2769 67.7279C67.8971 68.4034 69.0161 68.1531 69.2894 67.2778L69.3005 67.2422C69.3809 66.985 69.3731 66.7084 69.2786 66.456ZM68.5939 66.1818L68.7683 66.6472C68.8203 66.7861 68.8245 66.9383 68.7803 67.0798L68.7693 67.1153C68.6211 67.5898 68.0145 67.7255 67.6783 67.3593C67.569 67.2403 67.5084 67.0846 67.5084 66.9231L67.5084 66.3785C67.5084 66.1462 67.6517 65.938 67.8686 65.8549C68.1592 65.7437 68.4847 65.8905 68.5939 66.1818ZM4.07075 51.3902L4.06808 51.3719L4.06296 51.3542C3.96096 51.0003 3.80415 50.7464 3.56835 50.6101C3.33252 50.4738 3.08004 50.4918 2.87625 50.5349C2.77266 50.5568 2.67004 50.5878 2.57653 50.6173C2.55378 50.6244 2.53173 50.6315 2.51018 50.6383C2.43936 50.6609 2.37413 50.6817 2.30839 50.6999C2.13272 50.7485 2.01668 50.7588 1.93199 50.734C1.86676 50.715 1.77464 50.6615 1.68328 50.4564C1.58797 50.2424 1.50702 49.8901 1.46734 49.3249C1.3882 48.1976 1.47795 46.3123 1.84825 43.2106C1.87017 43.027 2.03883 41.1693 2.26011 38.7319C2.55648 35.4675 2.94725 31.1633 3.20633 28.4486L3.74359 25.8083C3.96566 24.7169 3.90848 23.5871 3.57737 22.5237L3.18116 21.2513C2.76368 19.9106 3.11365 18.4489 4.09305 17.4426C5.89604 15.5901 5.7076 12.5864 3.68723 10.9738L3.476 10.8052C2.80328 10.2682 2.32825 9.52277 2.12566 8.68622C1.60452 6.53423 2.98725 4.38328 5.16135 3.9639L7.30364 3.55066C8.11355 3.39443 8.94708 3.40799 9.75148 3.59049L12.0519 4.11238C14.0483 4.56529 16.1081 4.66941 18.14 4.4201L23.946 3.70776C26.0903 3.44467 28.262 3.50588 30.3881 3.88934L34.4149 4.6156C35.0344 4.72732 35.6402 4.90439 36.2223 5.14388L38.8436 6.22233C40.5877 6.93987 42.5885 6.59803 43.9954 5.3421C45.3344 4.14678 47.2674 3.88982 48.8722 4.69382L49.5693 5.04307C51.0173 5.76851 52.6952 5.88534 54.2298 5.36757L55.9572 4.78471L66.5288 2.75011C69.296 2.21753 71.7807 4.53316 71.4441 7.33105C71.3471 8.13745 71.4606 8.95521 71.7734 9.70475L73.0096 12.6668C73.704 14.3304 74.0615 16.1153 74.0615 17.918L74.0615 18.3133C74.0615 19.109 73.9688 19.9021 73.7854 20.6764L73.6905 21.0767C73.307 22.6956 73.3652 24.3879 73.8591 25.9767L74.0294 26.5247C74.6584 28.5481 74.3973 30.7434 73.3114 32.5628L70.525 37.2314C69.6081 38.7677 70.2086 40.7598 71.822 41.5334C73.0286 42.1119 73.5647 43.5388 73.0375 44.7688L71.5362 48.2712C71.37 48.6591 71.3891 49.1014 71.5883 49.4734L72.4813 51.1408C72.5734 51.3128 72.3946 51.5034 72.2171 51.4226C71.787 51.2267 71.2852 51.4733 71.1776 51.9335L70.8314 53.4133C70.7272 53.8589 70.7794 54.3269 70.9793 54.7386L71.4989 55.8089C71.9276 56.6918 72.0755 57.6849 71.9228 58.6545L71.4334 61.7596C71.3465 62.3116 71.3028 62.8696 71.3028 63.4285L71.3028 66.1594C71.3028 67.3399 71.7851 68.4691 72.6379 69.2854L72.6804 69.3261L72.8688 69.1292L72.6804 69.3261C73.5363 70.1453 73.9438 71.3274 73.7745 72.5C73.4534 74.724 71.1932 76.1339 69.039 75.4734C68.2836 75.2418 67.4706 75.2232 66.7055 75.4246L64.4448 76.02C62.478 76.5379 60.4114 76.5435 58.4418 76.0363L55.941 75.3922C55.2717 75.2199 54.5827 75.0126 53.8764 74.8002C53.7148 74.7516 53.5523 74.7027 53.3889 74.654C52.5147 74.3929 51.6191 74.1354 50.7247 73.9433C48.9394 73.5598 47.1256 73.429 45.4546 74.0729C45.0366 74.234 39.6954 75.969 37.0461 76.8263L30.4528 77.9752C29.4374 78.1521 28.4262 77.6416 27.9658 76.7194C27.4788 75.7438 26.4821 75.1274 25.3917 75.1274L19.1217 75.1274C17.9035 75.1274 16.7345 75.6084 15.869 76.4657C15.2726 77.0565 14.5084 77.4487 13.6808 77.589L10.6133 78.1087C9.84553 78.2388 9.0682 78.3042 8.28949 78.3042L5.17909 78.3042C4.33472 78.3042 3.50938 78.0533 2.80779 77.5835C1.33617 76.5981 0.627419 74.8052 1.02744 73.0798L1.49603 71.0587C1.73335 70.0352 1.76173 68.9742 1.57948 67.9394L0.785989 63.4343C0.536317 62.0167 1.28952 60.6124 2.6086 60.0362C4.12182 59.3752 5.00568 57.7835 4.76673 56.1496L4.07075 51.3902Z" stroke="black" stroke-width="0.544966"/>
<path d="M27.5536 73.6821L28.0105 73.5202C28.4036 73.3808 28.8409 73.4554 29.1657 73.7172L29.3971 73.9038C29.8027 74.2306 29.8544 74.8294 29.511 75.221C29.2363 75.5342 29.2076 75.9934 29.4411 76.3384L29.8314 76.9151C30.1787 77.4282 30.0561 78.1243 29.5543 78.4878C29.207 78.7394 28.7485 78.7763 28.3654 78.5837L27.5161 78.1566C26.5967 77.6942 26.0573 76.713 26.1598 75.689L26.1861 75.4263C26.2658 74.6292 26.7985 73.9497 27.5536 73.6821Z" fill="#E2A140" stroke="black" stroke-width="0.544966"/>
<path d="M68.3717 2.34461L71.3056 1.30477C71.9866 1.06342 72.744 1.19258 73.3065 1.64598L73.7075 1.96918C74.4099 2.53534 74.4995 3.57246 73.9047 4.25074C73.4288 4.79333 73.3791 5.5887 73.7836 6.18635L74.4697 7.19993C75.0657 8.08045 74.8552 9.27509 73.9941 9.89888C73.3859 10.3395 72.58 10.3958 71.9164 10.0441L68.3043 8.12981C65.9667 6.89097 66.0059 3.52867 68.3717 2.34461Z" fill="#E2A140" stroke="black" stroke-width="0.544966"/>
</svg>
