<svg width="80" height="77" viewBox="0 0 80 77" fill="none" xmlns="http://www.w3.org/2000/svg">
<path d="M15.0671 72.9064L15.2066 72.8323C15.6248 72.6099 15.8861 72.1749 15.8861 71.7013L15.8861 69.3806C15.8861 69.2776 15.9573 69.1884 16.0577 69.1656C16.8119 68.9944 16.8654 67.9404 16.1325 67.6937L15.0968 67.3451C14.7868 67.2407 14.4462 67.2835 14.1717 67.4613L12.2805 68.6858C12.1878 68.7458 12.1027 68.8168 12.0269 68.8971L11.7699 69.1698C11.031 69.9538 11.6216 71.2182 12.6746 71.2182C13.0319 71.2182 13.3242 71.5085 13.3242 71.8593C13.3242 72.754 14.2772 73.3266 15.0671 72.9064ZM14.9507 72.3511L14.8113 72.4253C14.3842 72.6524 13.8691 72.3429 13.8691 71.8593C13.8691 71.2009 13.3263 70.6732 12.6746 70.6732C12.0749 70.6732 11.7719 69.9622 12.1665 69.5436L12.4235 69.2709C12.4693 69.2224 12.5207 69.1795 12.5767 69.1432L14.4679 67.9187C14.6029 67.8313 14.7705 67.8102 14.9229 67.8616L15.9586 68.2102C16.1697 68.2812 16.1543 68.5848 15.9371 68.6341C15.5885 68.7133 15.3411 69.0231 15.3411 69.3806L15.3411 71.7013C15.3411 71.9734 15.191 72.2233 14.9507 72.3511ZM70.1221 73.4046L66.8006 74.2793C65.4907 74.6243 64.1418 74.7989 62.7872 74.7989L55.1554 74.7989C54.642 74.7989 54.1504 74.6014 53.6532 74.2902C53.2321 74.0266 52.8275 73.6954 52.4124 73.3556C52.3338 73.2913 52.2548 73.2267 52.1753 73.1621C51.6863 72.7652 51.1748 72.3709 50.6377 72.1347C50.0899 71.8937 49.5004 71.8105 48.8713 72.0529C48.4533 72.214 43.112 73.949 40.4627 74.8062L35.285 75.7085C33.2577 76.0618 31.1784 75.4934 29.6128 74.158L29.3797 73.9592C27.9328 72.7251 26.0331 72.1571 24.1461 72.3946L19.5016 72.9791C18.7734 73.0708 18.2272 73.69 18.2272 74.424C18.2272 74.9273 17.8192 75.3352 17.316 75.3352L11.7766 75.3352C11.3841 75.3352 10.9952 75.2597 10.6313 75.1127L7.75674 73.952C6.99717 73.6453 6.81905 72.6503 7.42505 72.0992C8.11237 71.474 8.15124 70.406 7.51116 69.7326L6.33695 68.4972C5.68681 67.8132 5.42824 66.846 5.65036 65.9288L6.06956 64.1977C6.43874 62.6732 6.25229 61.067 5.5437 59.6675L5.42242 59.428C4.41849 57.4453 4.45051 55.0964 5.50812 53.1418L5.83209 52.5431C6.90792 50.5548 7.15595 48.2257 6.54672 46.0509C6.2221 44.8921 5.90005 43.7227 5.65927 42.8083C5.53882 42.3509 5.43915 41.9589 5.36975 41.6646C5.335 41.5173 5.30835 41.3966 5.29054 41.3053C5.28162 41.2597 5.2753 41.2233 5.27132 41.1959C5.26691 41.1655 5.2668 41.1556 5.2668 41.1583C5.2668 41.0669 5.32134 40.4062 5.41434 39.3608C5.50629 38.3272 5.63364 36.9396 5.77517 35.4168C6.05764 32.3775 6.39651 28.8008 6.62296 26.4286L7.16021 23.7883C7.38228 22.6969 7.32511 21.5671 6.99399 20.5037L6.5978 19.2313C6.18031 17.8906 6.53027 16.4289 7.50967 15.4226C9.31267 13.5701 9.12423 10.5664 7.10386 8.95374L6.89262 8.78513C6.21991 8.24818 5.74487 7.50275 5.54229 6.6662C5.02115 4.51421 6.40388 2.36326 8.57798 1.94388L10.7203 1.53064C11.5302 1.37441 12.3637 1.38797 13.1681 1.57047L15.4686 2.09236C17.465 2.54527 19.5247 2.64939 21.5566 2.40008L27.3626 1.68774C29.5069 1.42465 31.6787 1.48586 33.8048 1.86932L37.8316 2.59559C38.451 2.7073 39.0568 2.88437 39.6389 3.12386L42.2603 4.20231C44.0044 4.91985 46.0051 4.57801 47.412 3.32209C48.7511 2.12676 50.684 1.8698 52.2888 2.6738L52.9859 3.02305C54.434 3.74849 56.1118 3.86532 57.6464 3.34755L57.9497 3.24522C58.8588 2.93846 59.8261 2.84363 60.7776 2.96798L67.2515 3.81409C68.833 4.02078 70.3687 4.49111 71.7947 5.20552L74.4895 6.55563C74.7775 6.6999 75.0952 6.77502 75.4172 6.77502C76.4179 6.77502 77.1478 7.72194 76.8931 8.68967L75.2876 14.7881C74.9096 16.2242 75.0027 17.7437 75.5533 19.1229L75.6231 19.2978C76.2013 20.7462 76.2761 22.3467 75.8357 23.8427L75.3346 25.5447C74.5283 28.2834 74.7414 31.2215 75.9346 33.8152C76.3374 34.6909 76.6262 35.6148 76.7938 36.564L77.0162 37.8236C77.3111 39.4935 77.1123 41.2132 76.4442 42.7718L74.9528 46.2512C74.7866 46.639 74.8058 47.0814 75.005 47.4533L75.8979 49.1208C75.99 49.2927 75.8112 49.4834 75.6337 49.4025C75.2036 49.2067 74.7018 49.4533 74.5942 49.9135L74.2481 51.3932C74.1438 51.8389 74.196 52.3069 74.3959 52.7186L74.9156 53.7889C75.3443 54.6718 75.4922 55.6649 75.3394 56.6345L74.8501 59.7396C74.7631 60.2916 74.7194 60.8496 74.7194 61.4085L74.7194 64.1394C74.7194 65.3199 75.2017 66.4491 76.0545 67.2654L76.097 67.3061C76.9529 68.1252 77.3604 69.3074 77.1911 70.4799C76.87 72.704 74.6099 74.1138 72.4556 73.4534C71.7002 73.2218 70.8872 73.2031 70.1221 73.4046ZM78.4097 2.25791L78.1982 2.08617L77.9651 2.37333C77.6882 2.71437 77.1627 2.69853 76.9069 2.34143L76.5445 1.83556C76.2388 1.40884 75.6699 1.26485 75.198 1.49476C74.9906 1.59579 74.7862 1.54953 74.6588 1.43936C74.5369 1.33387 74.4808 1.16882 74.5709 0.977111C74.6709 0.764434 74.7705 0.592689 74.8631 0.478347C74.9515 0.369239 74.9967 0.357345 74.9964 0.356254C74.9964 0.356239 74.9964 0.356224 74.9964 0.356208L76.2501 0.356209C76.5023 0.356209 76.737 0.484512 76.8732 0.696731L76.9473 0.812057C77.1376 1.10857 77.4657 1.28786 77.818 1.28786C78.2302 1.28786 78.458 1.76613 78.1982 2.08617L78.4097 2.25791ZM75.0733 4.09541L75.0733 4.22722C75.0733 4.63936 74.6186 4.88935 74.2706 4.6685C74.1195 4.57263 74.028 4.40614 74.028 4.22722L74.028 4.09541C74.028 3.74672 74.363 3.49581 74.6976 3.59383C74.9203 3.65906 75.0733 3.86334 75.0733 4.09541Z" stroke="black" stroke-width="0.544966"/>
<path d="M74.3607 69.1924L78.2046 64.6606L77.274 64.4179L77.4358 64.0942L76.4647 63.4063L77.719 62.3948L72.4185 62.3948L74.8463 64.0942L71.1642 66.36L74.037 65.6317L70.1931 68.8282L75.2509 66.7242L74.3607 69.1924Z" fill="#2B8962" stroke="black" stroke-width="0.544966"/>
<path d="M24.4339 68.7857L23.8988 74.7039L24.7996 74.3668L24.8535 74.7247L26.0435 74.7283L25.6 76.2774L29.9345 73.2266L26.9712 73.2342L28.678 69.2621L26.748 71.5111L28.0516 66.6848L25.1265 71.3164L24.4339 68.7857Z" fill="#2B8962" stroke="black" stroke-width="0.544966"/>
<path d="M8.86535 4.90348L2.99436 3.9851L3.27224 4.90585L2.91163 4.93645L2.83076 6.12371L1.3137 5.5805L4.07647 10.104L4.26138 7.14642L8.11428 9.10771L5.99535 7.03563L10.7268 8.64997L6.29499 5.43028L8.86535 4.90348Z" fill="#2B8962" stroke="black" stroke-width="0.544966"/>
</svg>
