<svg width="409" height="410" viewBox="0 0 409 410" fill="none" xmlns="http://www.w3.org/2000/svg">
<circle cx="204.5" cy="204.5" r="202" fill="#FEB9CA" stroke="black" stroke-width="5"/>
<path d="M52.9311 123.507C57.7311 107.507 74.9311 111.174 82.9311 115.007C82.9311 107.507 86.4311 92.007 105.431 95.5071C129.858 100.007 119.264 138.674 108.931 159.007C70.4311 159.007 46.9311 143.507 52.9311 123.507Z" fill="#E73560" stroke="black" stroke-width="5"/>
<path d="M310.5 225.653C308.5 222.986 298.317 214.885 296.5 224.653C292.5 246.153 328.4 281.153 332 305.153C333.2 313.153 326.167 351.273 323.5 368.107M310.5 225.653L332 263.153C328 249.986 323.8 217.653 331 209.653C342 197.431 344.5 214.653 345 228.153C345.4 238.953 347.167 254.153 347 259.653C346.667 255.82 347.203 247.697 357 247.153C366 246.653 372 269.607 374 283.107C375.6 293.907 375.167 303.94 374 313.107C361.6 335.992 335.167 359.309 323.5 368.107M310.5 225.653C305.127 184.624 267.308 115.92 204.5 122.554M323.5 368.107C219.9 441.792 111 394 74.5 357.5C94.5 324.5 99.5 288.454 106.5 248.607C114.908 200.747 134.5 133.653 200 123.153C201.514 122.91 203.014 122.711 204.5 122.554M199.5 252.416C202.776 252.255 206.421 250.186 208.5 248.107C211.058 250.096 215.444 252.304 219 252.521M199.5 252.416C202.167 258.422 209.8 266.852 219 252.521M199.5 252.416C198.44 252.468 197.418 252.32 196.5 251.909M219 252.521C220.474 252.61 221.805 252.358 222.804 251.607M222.804 251.607C223.635 250.982 224.237 250.012 224.5 248.607C226 240.607 213.5 236.653 208.5 236.653C204.5 236.653 190 240.107 193.5 248.607C194.198 250.302 195.253 251.349 196.5 251.909M222.804 251.607C223.536 257.773 222 268.607 209.5 268.607C196.644 268.607 195.333 256.975 196.5 251.909M204.5 122.554C202 108.572 192.5 83.1067 174.5 93.1067C177.333 88.7734 184.7 79.9067 191.5 79.1067C200 78.1067 209 83.5016 204.5 122.554ZM204.5 122.554C205.333 113.072 208.7 93.1068 215.5 89.1068C222.3 85.1068 227 94.7734 228.5 100.107C222 98.5717 208.1 100.912 204.5 122.554Z" stroke="black" stroke-width="5"/>
<path d="M258.5 181.5L242.09 201.112C240.009 203.599 240.81 207.379 243.721 208.809L265.5 219.5" stroke="black" stroke-width="5"/>
<path d="M264 186.5L246.5 208L272.5 217.5" stroke="black" stroke-width="5"/>
<path d="M262.5 181L244.5 204L272 212" stroke="black" stroke-width="5"/>
<path fill-rule="evenodd" clip-rule="evenodd" d="M175 204.5C175 213.06 168.06 220 159.5 220C150.94 220 144 213.06 144 204.5C144 195.94 150.94 189 159.5 189C168.06 189 175 195.94 175 204.5ZM171.5 207.893C169.95 214.093 164.995 215.893 161 215.893C157.005 215.893 156.917 211.733 158.467 207.6C161.5 201.393 164.005 198.893 168 198.893C171.995 198.893 172.921 202.21 171.5 207.893ZM151 207.893C154.139 207.893 158.983 200.405 158.983 197.267C158.983 194.128 157.617 193.36 154 194.393C150.9 195.279 148.033 197.76 147 201.893C146.483 206.027 147.861 207.893 151 207.893Z" fill="black"/>
<circle cx="159.5" cy="204.5" r="21" stroke="black" stroke-width="5"/>
</svg>
