<svg width="409" height="410" viewBox="0 0 409 410" fill="none" xmlns="http://www.w3.org/2000/svg">
<circle cx="204.5" cy="204.5" r="202" fill="#BBF9AB" stroke="black" stroke-width="5"/>
<path d="M88.5 370C84.1667 335.833 76.5 260.5 93 259C109.5 257.5 101 294 103 304.5C102.792 292 105.4 260.6 119 263C136 266 117.5 287.5 119 309.5C119.167 302.167 121.8 288.1 131 290.5C142.5 293.5 141.5 305 136 336.5C131.761 360.777 134.333 384.833 136 393.5M88.5 370C70.9 357.6 59.1667 344.5 55.5 339.5C63 327.333 75.2512 286.527 83.5 228C87.8293 197.282 98.1938 173.875 112 156.972M88.5 370C97.3333 376 119.2 389.1 136 393.5M136 393.5C178 412 255.5 418.5 332 361.5C324.833 350.167 307.342 309.128 295.5 236.5C282.218 155.037 240.318 128.066 200 122.956M164.5 186C160.167 188.167 149.9 189.4 143.5 177C135.5 161.5 129 153.443 112 156.972M112 156.972C131.678 132.879 158.348 122 184.5 122C187.145 122 189.815 122.079 192.5 122.248M207 173.5C210.5 172.009 216.369 169.01 219 164.5C222.5 158.5 224.5 145.5 234.5 153C244.5 160.5 250 174.5 254.5 193M109.5 181C113.332 180.84 119.919 181.247 127.5 182.945M153.5 194C151.709 192.747 149.868 191.607 148 190.571M127.5 182.945C126 191.13 125.1 207.7 133.5 208.5C141.9 209.3 146.667 196.881 148 190.571M127.5 182.945C133.973 184.395 141.171 186.786 148 190.571M204.5 189.5C209.028 190.881 216.404 193.62 224.451 197.5M252 215.5C250.133 213.737 248.117 212.044 246 210.426M224.451 197.5C222.634 204.333 220.9 218.8 228.5 222C236.1 225.2 243.333 215.618 246 210.426M224.451 197.5C231.614 200.954 239.309 205.314 246 210.426M148.5 245.874C138.639 247.813 136 243.039 136 240C137 228 149.5 241 160.5 229C171.5 217 180.5 225.5 181.5 227C182.5 228.5 191.015 238.306 199 239C210.5 240 216 250 207 255C205.49 255.839 203.98 256.27 202.5 256.396M148.5 245.874C149.995 245.58 151.657 245.132 153.5 244.5C154.344 244.211 155.178 243.954 156 243.727M148.5 245.874C153 256.749 166.9 277.6 186.5 274C199 271.704 205.333 260.764 202.5 256.396M202.5 256.396C199.033 256.692 195.735 255.317 193 253.609M156 243.727C172.23 239.258 180.534 243.727 186.5 248.5C189 250.5 189.947 251.701 193 253.609M156 243.727C160.5 249.485 171.257 260.81 178 262C186.5 263.5 190.833 256.739 193 253.609M192.5 122.248C187.833 118.832 178.9 109.1 180.5 97.5C184.667 97.6667 193.4 101.9 195 117.5C194.667 107.333 199.4 86.9 221 86.5C221.333 94.6374 217.6 113.321 200 122.956M192.5 122.248C194.989 122.405 197.491 122.638 200 122.956" stroke="black" stroke-width="5"/>
<path d="M318.929 136.657L327.526 113.554L327.736 138.203C327.75 139.794 328.602 141.259 329.978 142.057L348.372 152.728L327.443 156.492C325.878 156.774 324.577 157.861 324.022 159.352L315.426 182.454L315.215 157.805C315.202 156.215 314.349 154.749 312.973 153.951L294.579 143.281L315.508 139.516C317.074 139.235 318.375 138.147 318.929 136.657Z" fill="#4FE02A" stroke="black" stroke-width="5"/>
</svg>
