<svg width="409" height="409" viewBox="0 0 409 409" fill="none" xmlns="http://www.w3.org/2000/svg">
<circle cx="204.5" cy="204.5" r="202" fill="#FFB6B6" stroke="black" stroke-width="5"/>
<path d="M84.5 366C83.6667 347.667 82.9 320.205 90.5 295.805C100 265.305 107.5 267.805 113.5 269.305C119.5 270.805 125 284.805 121 293.305C122.833 289.139 128.8 282.905 138 291.305C147.2 299.705 143.833 310.139 141 314.305C143.333 311.305 149.1 306.705 153.5 312.305C159 319.305 154.273 327.889 139.5 364C135 375 131.667 388.5 136.5 393.5M84.5 366C74.9 359.2 67.1667 351.833 64.5 349C73.5 322.167 86.5 289.805 90.5 262.805C96.9237 219.445 116.356 119.363 203 116.374M84.5 366C93.5 372.833 116.5 387.9 136.5 393.5M136.5 393.5C157.667 404.167 217.8 418.1 289 388.5M336.5 358C337.667 338.833 337.61 320.745 333 302.305C328.5 284.305 319.5 259.844 307.5 266.305C301 269.805 299 281.805 307.5 297.805C304.167 292.639 296.2 281.105 289 288.305C281.8 295.505 286 307.305 289 312.305C285.167 308.805 277.8 301.705 273 307.305C267 314.305 270.766 317.684 282.5 340.5C291.5 358 293 380.5 289 388.5M336.5 358C322.9 371.2 299.167 383.833 289 388.5M336.5 358C342.833 352.167 356 339.6 358 336C351.352 319.833 337.5 295.805 330.5 262.805C321.982 222.648 296.584 118.696 210 116.346M207 116.305C205.651 116.305 204.318 116.328 203 116.374M207 116.305C209.167 107.305 208.9 86.0054 208.5 76.8054C208 65.3054 193 59.3054 187 58.3054C181 57.3054 180.5 58.3054 187 68.3054C192.2 76.3054 201.333 104.018 203 116.374M207 116.305C212 105.805 217.4 82.7054 217 78.3054C216.5 72.8054 221.5 72.8054 229 83.3054C235 91.7054 220.333 109.166 210 116.346M207 116.305C208.008 116.305 209.008 116.319 210 116.346M243 263.305C230.99 263.305 228.5 243.805 211 243.805C193.5 243.805 191 256.805 184 262.305C182.001 263.876 179.916 264.803 178 265.116M243 263.305C261.5 263.305 246 242.805 234.5 235.805C227.239 231.386 215 225.305 198 229.805C182.586 233.886 170.5 249.305 170.5 258.805C170.5 263.592 173.856 265.792 178 265.116M243 263.305C248 266.305 251.5 269.305 245.5 279.805C240.082 289.287 229 296.805 212.5 296.805C196 296.805 184 289.305 177 279.805C171.4 272.205 175.333 266.846 178 265.116M243 263.305C233 261.495 233.5 272.805 226 277.805C216.25 284.305 206.625 285.305 196 275.305C184.655 264.628 179.167 264.179 178 265.116" stroke="black" stroke-width="5"/>
<path d="M128.574 142.277C125.215 147.813 110.26 148.483 101.721 146.161C96.6114 144.57 96.4351 138.3 102.756 138.28C109.715 138.258 111.064 140.337 119.378 138.668C127.692 136.999 120.266 118.352 125.151 115.952C135.535 110.85 132.774 135.357 128.574 142.277Z" fill="#FF0000" stroke="black" stroke-width="5"/>
<path d="M134.666 149.321C131.449 143.701 138.104 130.291 144.269 123.944C148.136 120.244 153.707 123.125 150.664 128.665C147.314 134.765 144.841 134.939 142.277 143.022C139.712 151.104 159.622 153.635 159.357 159.072C158.793 170.628 138.688 156.345 134.666 149.321Z" fill="#FF0000" stroke="black" stroke-width="5"/>
<path d="M125.038 151.29C131.507 151.008 140.371 163.072 143.183 171.462C144.698 176.595 139.582 180.224 136.055 174.98C132.171 169.205 133.151 166.928 127.145 160.942C121.139 154.955 109.758 171.487 105.049 168.758C95.038 162.957 116.951 151.641 125.038 151.29Z" fill="#FF0000" stroke="black" stroke-width="5"/>
<path d="M288.948 179.957L269.655 190.202M269.655 190.202L240.99 205.423C241.934 213.496 247.219 229.256 260.814 227.717C274.41 226.177 272.373 202.066 269.655 190.202Z" stroke="black" stroke-width="5"/>
<path d="M128 182.297L147.374 192.389M147.374 192.389L176.158 207.383C175.279 215.463 170.118 231.264 156.511 229.833C142.904 228.401 144.75 204.274 147.374 192.389Z" stroke="black" stroke-width="5"/>
</svg>
