<svg width="409" height="409" viewBox="0 0 409 409" fill="none" xmlns="http://www.w3.org/2000/svg">
<circle cx="204.5" cy="204.5" r="202" fill="#B1E4FA" stroke="black" stroke-width="5"/>
<path d="M223.5 168.937H232M267.5 168.937H256.5M232 168.937C231 175.937 234.9 189.637 246.5 188.437C258.1 187.237 258.5 174.937 256.5 168.937M232 168.937H256.5" stroke="black" stroke-width="5"/>
<path d="M138 168.937H146M182 168.937H172.5M146 168.937C145 175.937 148.4 192.637 160 191.437C171.6 190.237 175 176.437 172.5 168.937M146 168.937H172.5" stroke="black" stroke-width="5"/>
<path d="M86.5 368C96.6667 348 100.598 341.399 101.398 334.599C102.101 328.621 91.9006 315.804 79.63 301.599M86.5 368C78.9 364 70 355.733 66.5 352.099C76.5 345.699 74.886 327.266 79.63 301.599M86.5 368C93.5 373.666 114.9 387.3 144.5 396.5M144.5 396.5C151.167 379.666 149.298 378.499 156.898 352.099C165.246 323.099 166.936 326.654 136.898 283.099C122.808 262.669 106.685 245.589 94.398 236.1M144.5 396.5C161.667 403.833 209.8 414.1 265 396.5M265 396.5C255.5 374.833 257.198 357.599 254.398 347.599C246.558 319.599 257.898 312.099 279.398 277.599C287.132 265.19 304.088 241.793 317.398 229.121M265 396.5C272.5 395 303 383.5 316.5 372M316.5 372C307.833 361.833 304.283 345.099 306.398 339.599C309.18 332.368 315.111 323.409 322.294 313.599M316.5 372C322.701 368.066 336.9 358.579 340.5 352.099C329.7 333.299 326.996 327.766 322.294 313.599M79.63 301.599C63.1662 282.541 42.9763 260.986 40.398 250.099C35.898 231.099 70.398 234.599 101.398 283.099C96.898 274.599 82.398 261.099 75.898 239.099C71.5402 224.35 80.5236 225.385 94.398 236.1M94.398 236.1C102.224 194.848 126.8 113.468 192 106.923M317.398 229.121C328.959 218.115 337.769 215.199 335.398 234.599C333.259 252.099 325.398 262.099 317.398 274.599C339.398 234.599 387.379 214.599 360.398 260.599C350.27 277.867 334.48 296.958 322.294 313.599M317.398 229.121C306.478 157.168 270.918 103.876 198 106.532M132.398 242.099C144.565 247.266 170.398 266.099 176.398 300.099M247.898 295.6C247.565 280.433 254.298 247.3 283.898 236.1M189.398 236.1C193.398 236.1 195.209 232.439 196.398 226.099C197.898 218.099 199.898 213.099 205.898 213.099C211.898 213.099 214.716 217.599 215.398 225.099C215.989 231.599 219.898 235.099 223.398 235.099M189.398 236.1C183.898 236.1 181.898 232.099 181.898 225.099C181.898 218.099 185.398 199.099 204.398 199.099C223.398 199.099 228.056 214.944 229.398 222.099C230.898 230.099 226.898 235.099 223.398 235.099M189.398 236.1C184.898 237.099 184.092 241.474 185.898 249.599C187.898 258.599 197.398 264.599 206.398 264.599C216.398 264.599 225.568 257.868 227.898 250.099C229.398 245.099 230.211 236.073 223.398 235.099M189.398 236.1C195.398 234.101 197.898 238.599 198.898 243.599C199.898 248.599 203.398 251.099 206.398 251.099C209.398 251.099 214.398 251.099 215.398 243.599C216.198 237.599 220.898 234.742 223.398 235.099M192 106.923C182 85.9372 166 110.923 152 105.5C145.473 102.971 146 91.5 156.5 85.5C167 79.5 188 78.5 194.5 106.711M192 106.923C192.827 106.84 193.66 106.769 194.5 106.711M194.5 106.711C195.129 106.667 195.762 106.63 196.398 106.599C196.934 106.574 197.468 106.552 198 106.532M194.5 106.711C197.333 97.7861 180.926 81.1744 189 76.5C198.5 71 204.398 99 198 106.532" stroke="black" stroke-width="5"/>
<path d="M271.5 62.5C271.5 74.098 262.098 83.5 250.5 83.5C238.902 83.5 229.5 74.098 229.5 62.5C229.5 50.902 238.902 41.5 250.5 41.5C262.098 41.5 271.5 50.902 271.5 62.5Z" fill="#23ACE7" stroke="black" stroke-width="5"/>
<circle cx="103.5" cy="113.5" r="14" fill="#23ACE7" stroke="black" stroke-width="5"/>
<circle cx="312" cy="147" r="8.5" fill="#23ACE7" stroke="black" stroke-width="5"/>
</svg>
