<svg width="409" height="409" viewBox="0 0 409 409" fill="none" xmlns="http://www.w3.org/2000/svg">
<circle cx="204.5" cy="204.5" r="202" fill="#FDE095" stroke="black" stroke-width="5"/>
<path d="M223.5 284.54C219.617 287.851 214.877 291 208 291C202.648 291 197.445 288.041 193 284.853V289.5V303.597V406C193 406 200.5 406.5 208.5 406.5C216.5 406.5 223.5 405.5 223.5 405.5V303.766V284.54Z" fill="url(#paint0_linear_165_2175)"/>
<path d="M207.5 117.5C205.995 117.529 204.494 117.589 203 117.681M207.5 117.5C219 70 205.024 50.238 189.5 58C184.5 60.5 182.5 69 188.5 82C193.3 92.4 203 113.954 203 117.681M207.5 117.5C210.5 107.333 222.517 79.9213 230 82C242 85.3334 223.5 106 217.5 111C212.7 115 210.898 117 210.597 117.5M207.5 117.5C208.534 117.48 209.566 117.48 210.597 117.5M105 368.5C113.833 357.167 130.8 322.1 132 296.5C133.5 264.5 139.5 262.5 148 277.5C156.5 292.5 163 318 159 331C155.8 341.4 148.667 371 145.5 384.5M282 375C272.833 365.667 256.8 341.5 256 321.5C255.2 301.5 258.5 287 263.5 277.5C268.5 268 282 244.13 282 293C282 321.5 307 344 317.5 352.5M284.5 244.5C273.667 247.667 251.4 260.4 249 286M130 243.5C140.833 247 163.5 260.4 167.5 286M181.5 277.099C183.519 277.461 185.793 276.788 188 274.5C192.5 269.833 201.062 260.316 208 259.5C216.5 258.5 226 271.5 231 276C231.561 276.505 231.5 277 235 277M181.5 277.099C180.198 276.865 179.002 276.2 178 275.261C176.331 273.696 175.197 271.37 175 269C174.5 263 181 255 189 249.5C202.452 240.251 217 239 234 254.5C249.094 268.262 240.962 278.12 235 277M181.5 277.099C172 275.697 171 285 176.5 292.5C179.886 297.117 185.736 301.166 193 303.597M181.5 277.099C183.654 277.099 187.811 281.132 193 284.853M235 277C240 277.346 246.5 280.4 240.5 290C236.037 297.14 230.336 301.448 223.5 303.766M235 277C231.057 277 227.805 280.87 223.5 284.54M193 406V303.597M193 406C138.2 404.8 87.5 371.5 69 355C76.5 340.667 93.3 296.5 100.5 234.5C109.239 159.243 152.868 120.762 203 117.681M193 406C193 406 200.5 406.5 208.5 406.5C216.5 406.5 223.5 405.5 223.5 405.5M223.5 284.54C219.617 287.851 214.877 291 208 291C202.648 291 197.445 288.041 193 284.853M223.5 284.54V303.766M223.5 405.5V303.766M223.5 405.5C295.1 397.1 342 356.167 356.5 336.5C346.833 325.333 325.5 289.3 317.5 234.5C307.699 167.362 261.394 118.476 210.597 117.5M193 303.597V289.5V284.853" stroke="black" stroke-width="5"/>
<path d="M149.582 163.169C150.164 161.31 152.553 160.801 153.842 162.262L164.759 174.631C166.202 176.265 168.284 177.191 170.463 177.167L186.96 176.989C188.908 176.968 190.13 179.084 189.14 180.761L180.75 194.966C179.641 196.843 179.404 199.109 180.1 201.174L185.367 216.809C185.989 218.655 184.355 220.471 182.454 220.047L166.351 216.457C164.224 215.983 161.995 216.458 160.246 217.758L147.004 227.599C145.441 228.76 143.208 227.767 143.024 225.829L141.462 209.405C141.256 207.235 140.115 205.262 138.338 204L124.887 194.447C123.3 193.32 123.554 190.89 125.341 190.115L140.478 183.554C142.478 182.688 144.002 180.994 144.653 178.914L149.582 163.169Z" fill="#EAA800" stroke="black" stroke-width="5"/>
<path d="M264.938 161.126C264.356 159.268 261.967 158.759 260.678 160.219L249.761 172.588C248.318 174.222 246.236 175.148 244.057 175.125L227.56 174.947C225.612 174.926 224.39 177.041 225.38 178.718L233.77 192.923C234.879 194.8 235.116 197.066 234.42 199.132L229.153 214.766C228.532 216.612 230.166 218.428 232.066 218.005L248.169 214.415C250.297 213.941 252.525 214.415 254.275 215.715L267.516 225.556C269.079 226.718 271.312 225.725 271.496 223.786L273.058 207.362C273.265 205.192 274.405 203.22 276.182 201.957L289.633 192.405C291.221 191.277 290.966 188.847 289.179 188.073L274.042 181.512C272.042 180.645 270.518 178.951 269.867 176.871L264.938 161.126Z" fill="#EAA800" stroke="black" stroke-width="5"/>
<defs>
<linearGradient id="paint0_linear_165_2175" x1="197" y1="341.5" x2="220" y2="341.5" gradientUnits="userSpaceOnUse">
<stop stop-color="#8F00FF"/>
<stop offset="0.165" stop-color="#1B07FF"/>
<stop offset="0.325" stop-color="#00A3FF"/>
<stop offset="0.49" stop-color="#3FD419"/>
<stop offset="0.65" stop-color="#F4EA07"/>
<stop offset="0.825" stop-color="#FF9A03"/>
<stop offset="1" stop-color="#FF0707"/>
</linearGradient>
</defs>
</svg>
