<svg width="409" height="410" viewBox="0 0 409 410" fill="none" xmlns="http://www.w3.org/2000/svg">
<circle cx="204.5" cy="204.5" r="202" fill="#D5ADF5" stroke="black" stroke-width="5"/>
<path d="M251.507 211L284 219.327L246.551 214.918L281.797 225.694L246 219.816L282.899 231.571L246 227.653C255.546 230.102 274.968 235 276.29 235" stroke="black" stroke-width="5"/>
<path d="M188.575 196.63L155.764 190.703L191.34 202.334L154.997 197.518L189.722 207.096L151.47 202.493L186.34 214.346C176.699 212.607 157.121 208.991 155.933 208.437" stroke="black" stroke-width="5"/>
<path d="M311.5 267.5C318.7 257.5 314.5 245 311.5 240C312 236 310.5 194.5 286.5 161C274.772 144.63 256.119 134.229 235.5 130.674M311.5 267.5C316 271.833 325.3 284.6 326.5 301C327.7 317.4 328 349.833 328 364C319.833 370.167 299.8 384 285 390M311.5 267.5C309.667 266 305.2 263.8 302 267C298.8 270.2 304 286.333 307 294C303.5 286.167 294.7 271.8 287.5 277C280.3 282.2 287.833 297.5 292.5 304.5C288.167 296.667 278 282.4 272 288C264.5 295 284.5 334.5 285 348.5C285.4 359.7 285.167 380.833 285 390M285 390C176.6 435.2 87.8333 377.5 57 343C66.1667 327.167 86.1 290.5 92.5 270.5C100.5 245.5 130.5 167 170 143C188.776 131.592 210.603 127.527 230.915 130M238.5 317.5C240.333 301.833 253 266.1 289 248.5M182 270.26C180.864 269.943 179.849 269.524 179 269C162 258.5 187 259 191 254C195 249 204.099 243.069 211.5 245C220.5 247.348 224.421 256.5 226 261.5C229 271 249.5 278.5 229.5 278.5C228.28 278.5 227.114 278.435 226 278.312M182 270.26C181.833 276.673 185.3 290 200.5 292C215.7 294 223.833 283.708 226 278.312M182 270.26C184.565 270.977 187.744 271.179 191 270.923M226 278.312C222.929 277.972 220.263 277.183 218 276.065M218 276.065C211.667 272.934 208.5 267.217 208.5 261.5C207.553 266.865 199.038 270.29 191 270.923M218 276.065C212 281.159 198.2 287.262 191 270.923M230.915 130C231.61 124.667 232.2 112.6 229 107C225 99.9999 212 105 215 83.4999C228.667 81.2824 251.9 87.6127 235.5 130.674M230.915 130C232.453 130.187 233.982 130.412 235.5 130.674" stroke="black" stroke-width="5"/>
<path d="M131.327 169.071C113.327 171.471 110.827 153.738 111.827 144.571C110.327 147.571 105.627 153.571 98.827 153.571C92.027 153.571 89.6604 146.238 89.327 142.571C77.3271 148.971 76.327 139.905 77.327 134.571C75.8269 135.071 60.327 136.071 57.327 123.071C54.927 112.671 66.3269 106.071 72.3269 104.071C67.5269 97.2714 73.6603 94.2381 77.327 93.5714C75.327 91.0714 76.827 81.0714 87.827 78.5714C96.627 76.5714 102.494 85.4048 104.327 90.0714C104.827 84.0714 111.827 74.5714 124.327 77.5714C134.327 79.9714 134.827 92.9048 133.827 99.0715C143.827 94.5715 150.827 102.571 151.327 112.571C151.727 120.571 143.827 124.905 139.827 126.071C142.66 128.738 146.627 135.171 139.827 139.571C133.027 143.971 127.327 141.405 125.327 139.571C112.127 158.771 123.827 167.238 131.327 169.071Z" fill="#9232DE" stroke="black" stroke-width="5"/>
</svg>
