<svg width="126" height="115" viewBox="0 0 126 115" fill="none" xmlns="http://www.w3.org/2000/svg">
<path d="M1.00029 111.596L17.4313 113.784C21.8195 109.845 30.8405 101.202 31.818 98.1388C33.04 94.3103 39.3531 85.6872 45.2757 83.4813C51.1983 81.2753 55.1111 82.0962 61.4687 85.8372C67.8262 89.5782 63.887 85.5697 69.7941 82.2583C75.7012 78.947 77.1624 78.9854 74.1134 79.1127C71.0644 79.2401 60.3436 75.5126 55.7517 73.7413C51.1599 71.9701 51.7949 69.7883 57.257 69.025C59.2599 68.7452 63.6168 67.2721 68.4464 65.463C69.0838 65.3285 69.7527 65.1707 70.4572 64.9845C75.8214 63.5663 82.0171 60.4408 84.4444 59.0553C80.5218 60.7176 74.154 63.325 68.4464 65.463C63.0172 66.6086 59.8796 66.0646 56.6005 67.0425C52.9365 68.1351 61.3496 61.5885 62.2126 59.8464C63.0756 58.1043 72.8333 51.192 76.3609 50.9117C79.8885 50.6314 85.4392 49.5907 88.3923 50.5332C91.3453 51.4758 88.7075 54.5467 92.2653 53.787C95.8231 53.0272 96.6671 55.1919 97.2515 53.3609C97.719 51.896 98.9618 50.9517 99.5248 50.6627C100.191 50.2434 100.664 49.1311 97.2321 48.0356C92.9418 46.6663 83.4558 47.9183 80.7031 48.0791C77.9504 48.2399 77.8839 46.1399 79.1236 42.2559C80.3632 38.3719 83.0054 32.9791 86.8672 32.8056C90.7291 32.632 96.371 31.498 100.093 29.2622C103.815 27.0264 110.359 21.7176 112.916 19.4768C115.474 17.236 119.411 15.8638 120.721 11.7578C122.032 7.6519 123.799 7.11553 124.335 4.47427C124.764 2.36125 123.289 1.53186 122.498 1.3813C120.324 4.53901 115.767 11.3138 114.935 13.1514C113.895 15.4484 108.281 15.9186 101.119 22.0085C93.9565 28.0984 97.2979 23.7848 91.0354 24.1704C84.7729 24.556 74.5051 20.1783 77.1852 22.7456C79.8653 25.3129 74.3163 31.7343 73.0412 35.7293C72.0211 38.9253 63.4088 49.366 59.2302 54.1869C58.8335 54.4679 58.4624 54.2842 60.1511 51.3016C62.2619 47.5734 59.5719 37.7275 58.2157 33.3207C56.8595 28.9138 59.3496 15.3412 58.3458 12.3307C57.3421 9.32024 59.0167 3.49635 58.6465 2.15544C58.3504 1.08272 55.9327 5.07984 54.7609 7.21248C54.8927 10.4541 55.2101 18.3852 55.4246 24.1762C55.6928 31.4149 52.3255 33.8862 53.4792 38.3507C54.6328 42.8151 52.1492 45.0182 48.4674 54.0531C44.7856 63.0881 37.3219 60.8893 39.6621 61.6362C42.0022 62.3831 38.3144 68.3593 39.5039 74.0579C40.6934 79.7566 25.5862 99.39 20.2293 105.017C15.9439 109.518 5.62437 111.279 1.00029 111.596Z" fill="#B7966F" stroke="black" stroke-width="2"/>
</svg>
