<svg width="126" height="115" viewBox="0 0 126 115" fill="none" xmlns="http://www.w3.org/2000/svg">
<path d="M125.29 111.596L108.859 113.784C104.471 109.845 95.4496 101.202 94.472 98.1388C93.2501 94.3103 86.937 85.6872 81.0144 83.4813C75.0917 81.2753 71.1789 82.0962 64.8214 85.8372C58.4639 89.5782 62.403 85.5697 56.4959 82.2583C50.5889 78.947 49.1277 78.9854 52.1766 79.1127C55.2256 79.2401 65.9465 75.5126 70.5383 73.7413C75.1301 71.9701 74.4952 69.7883 69.033 69.025C67.0302 68.7452 62.6732 67.2721 57.8436 65.463C57.2062 65.3285 56.5373 65.1707 55.8328 64.9845C50.4686 63.5663 44.273 60.4408 41.8457 59.0553C45.7682 60.7176 52.136 63.325 57.8436 65.463C63.2728 66.6086 66.4104 66.0646 69.6895 67.0425C73.3536 68.1351 64.9404 61.5885 64.0774 59.8464C63.2144 58.1043 53.4567 51.192 49.9291 50.9117C46.4016 50.6314 40.8509 49.5907 37.8978 50.5332C34.9447 51.4758 37.5825 54.5467 34.0247 53.787C30.4669 53.0272 29.6229 55.1919 29.0385 53.3609C28.571 51.896 27.3282 50.9517 26.7653 50.6627C26.0994 50.2434 25.6257 49.1311 29.0579 48.0356C33.3483 46.6663 42.8343 47.9183 45.587 48.0791C48.3396 48.2399 48.4061 46.1399 47.1665 42.2559C45.9268 38.3719 43.2847 32.9791 39.4228 32.8056C35.5609 32.632 29.9191 31.498 26.1971 29.2622C22.4752 27.0264 15.9306 21.7176 13.3736 19.4768C10.8165 17.236 6.87908 15.8638 5.56858 11.7578C4.25808 7.6519 2.49063 7.11553 1.95459 4.47427C1.52576 2.36125 3.00056 1.53186 3.79156 1.3813C5.96591 4.53901 10.5226 11.3138 11.3547 13.1514C12.3948 15.4484 18.009 15.9186 25.1713 22.0085C32.3335 28.0984 28.9921 23.7848 35.2546 24.1704C41.5172 24.556 51.7849 20.1783 49.1048 22.7456C46.4247 25.3129 51.9738 31.7343 53.2488 35.7293C54.2689 38.9253 62.8812 49.366 67.0599 54.1869C67.4565 54.4679 67.8277 54.2842 66.139 51.3016C64.0281 47.5734 66.7181 37.7275 68.0743 33.3207C69.4306 28.9138 66.9404 15.3412 67.9442 12.3307C68.948 9.32024 67.2734 3.49635 67.6435 2.15544C67.9396 1.08272 70.3573 5.07984 71.5292 7.21248C71.3973 10.4541 71.0799 18.3852 70.8654 24.1762C70.5972 31.4149 73.9645 33.8862 72.8109 38.3507C71.6572 42.8151 74.1408 45.0182 77.8226 54.0531C81.5045 63.0881 88.9682 60.8893 86.628 61.6362C84.2878 62.3831 87.9756 68.3593 86.7861 74.0579C85.5966 79.7566 100.704 99.39 106.061 105.017C110.346 109.518 120.666 111.279 125.29 111.596Z" fill="#B7966F" stroke="black" stroke-width="2"/>
</svg>
