<svg width="45" height="52" viewBox="0 0 45 52" fill="none" xmlns="http://www.w3.org/2000/svg">
<path d="M17.8401 1.47707C19.1139 2.3501 20.7198 3.39399 21.9005 3.9681C22.323 4.17354 22.8113 4.17354 23.2338 3.9681C24.4145 3.39399 26.0204 2.3501 27.2942 1.47707C28.3657 0.742769 29.9489 1.13188 30.8191 2.0962C31.7858 3.16751 33.314 4.44188 35.621 5.39179C38.3073 6.49794 40.7829 7.30161 42.4542 7.78366C43.4126 8.06006 44.0712 8.96902 43.9625 9.9605C42.9535 19.1639 39.6646 36.2529 33.067 42.8505C28.8318 47.0857 26.0971 48.9983 24.467 49.7263C23.4584 50.1767 21.6759 50.1767 20.6674 49.7263C19.0372 48.9983 16.3025 47.0857 12.0674 42.8505C5.46972 36.2529 2.18077 19.1639 1.17178 9.9605C1.06308 8.96902 1.72173 8.06006 2.68008 7.78366C4.35146 7.30161 6.827 6.49794 9.51335 5.39179C11.8203 4.44188 13.3485 3.16751 14.3152 2.0962C15.1854 1.13188 16.7687 0.742769 17.8401 1.47707Z" stroke="black" stroke-width="2"/>
</svg>
