<svg width="45" height="52" viewBox="0 0 45 52" fill="none" xmlns="http://www.w3.org/2000/svg">
<path d="M17.8401 1.47707C19.1139 2.3501 20.7198 3.39399 21.9005 3.9681C22.323 4.17354 22.8113 4.17354 23.2338 3.9681C24.4145 3.39399 26.0204 2.3501 27.2942 1.47707C28.3657 0.742769 29.9489 1.13188 30.8191 2.0962C31.7858 3.16751 33.314 4.44188 35.621 5.39179C38.3073 6.49794 40.7829 7.30161 42.4542 7.78366C43.4126 8.06006 44.0712 8.96902 43.9625 9.9605C42.9535 19.1639 39.6646 36.2529 33.067 42.8505C28.8318 47.0857 26.0971 48.9983 24.467 49.7263C23.4584 50.1767 21.6759 50.1767 20.6674 49.7263C19.0372 48.9983 16.3025 47.0857 12.0674 42.8505C5.46972 36.2529 2.18077 19.1639 1.17178 9.9605C1.06308 8.96902 1.72173 8.06006 2.68008 7.78366C4.35146 7.30161 6.827 6.49794 9.51335 5.39179C11.8203 4.44188 13.3485 3.16751 14.3152 2.0962C15.1854 1.13188 16.7687 0.742769 17.8401 1.47707Z" fill="url(#paint0_radial_468_3873)" stroke="black" stroke-width="2"/>
<path d="M15.6673 21.7291C15.0687 16.6313 14.1198 11.079 13.4954 7.84059C16.828 20.2307 18.3336 24.7973 20.026 30.6253C20.2348 31.3443 20.2037 32.1096 20.1141 32.853C19.7878 35.5574 22.144 34.0648 24.5765 31.8273C25.7192 30.7762 27.6756 31.5401 27.6756 33.0927C27.6756 33.6884 27.3621 34.2401 26.8503 34.545L22.7017 37.0165C18.0801 39.7698 12.1361 38.4412 9.07781 34.0426C8.93771 33.8835 8.79912 33.6984 8.66246 33.4858C7.85272 32.2262 8.14537 32.6484 8.96456 33.8763C9.00185 33.9322 9.03961 33.9876 9.07781 34.0426C12.3136 37.7175 16.3481 27.5261 15.6673 21.7291Z" fill="#FF7A00"/>
<path d="M29.0184 30.3221C27.968 25.0824 29.3165 12.3425 30.122 6.62745C26.9761 20.1339 25.5507 24.593 23.8847 31.1578C22.5519 36.4097 24.1319 41.0225 25.0885 42.6724C26.8361 40.7388 30.0687 35.5618 29.0184 30.3221Z" fill="#FF7A00"/>
<defs>
<radialGradient id="paint0_radial_468_3873" cx="0" cy="0" r="1" gradientUnits="userSpaceOnUse" gradientTransform="translate(20.0132 4.25668) rotate(97.8291) scale(68.7476 48.2508)">
<stop offset="0.455" stop-color="#FF9B04"/>
<stop offset="0.4551" stop-color="#FF7A00"/>
<stop offset="0.605" stop-color="#FF7A00"/>
<stop offset="0.6051" stop-color="#FF5C00"/>
</radialGradient>
</defs>
</svg>
