<svg width="98" height="98" viewBox="0 0 98 98" fill="none" xmlns="http://www.w3.org/2000/svg">
<g clip-path="url(#clip0_622_3881)">
<path d="M34.1549 66.1307L37.5129 64.0738L11.2131 28.6807L17.1912 3.80003C17.4717 2.63241 18.2046 1.62406 19.2286 0.996799C20.2526 0.369538 21.4839 0.174756 22.6515 0.455299L47.5354 6.43413C47.5354 6.43414 47.5355 6.43415 47.5355 6.43416C48.2097 6.59609 48.8377 6.91069 49.371 7.3537C49.9044 7.79674 50.329 8.35636 50.6119 8.98941L50.6121 8.98993L67.1064 45.9413L70.4711 43.8851C70.4715 43.8849 70.4719 43.8846 70.4723 43.8843C71.3376 43.3539 72.2989 42.9991 73.3013 42.8402C74.3042 42.6813 75.3286 42.7216 76.316 42.9588C77.3033 43.196 78.2342 43.6255 79.0554 44.2227C79.8766 44.8199 80.572 45.5731 81.1019 46.4392C81.1019 46.4393 81.102 46.4393 81.102 46.4394L84.8491 52.5621C84.8492 52.5622 84.8493 52.5624 84.8494 52.5625C84.8495 52.5626 84.8495 52.5626 84.8495 52.5626C85.3795 53.4278 85.7339 54.3889 85.8925 55.3911C86.0512 56.3935 86.0108 57.4173 85.7737 58.404C85.5366 59.3908 85.1074 60.3212 84.5107 61.1421C83.914 61.963 83.1615 62.6582 82.2961 63.1882C82.2961 63.1883 82.296 63.1883 82.296 63.1883L73.7846 68.402L81.3614 80.7713C81.3614 80.7713 81.3615 80.7714 81.3615 80.7714C81.8916 81.6367 82.2462 82.598 82.4048 83.6003C82.5634 84.6027 82.523 85.6265 82.286 86.6133C82.0489 87.6 81.6197 88.5304 81.023 89.3513C80.4263 90.1722 79.6737 90.8675 78.8083 91.3975L78.8079 91.3977L72.6894 95.1423C70.9423 96.2117 68.8421 96.5436 66.8503 96.0651C64.8586 95.5865 63.1384 94.3367 62.0679 92.5903L62.0676 92.5899L54.4907 80.2205L45.9798 85.4339C45.1142 85.9648 44.1525 86.3199 43.1495 86.4788C42.1466 86.6378 41.1222 86.5975 40.1349 86.3602C39.1476 86.123 38.2167 85.6935 37.3955 85.0963C36.5743 84.4991 35.8789 83.7459 35.349 82.8798C35.3489 82.8797 35.3489 82.8797 35.3489 82.8796L31.6017 76.757C31.0715 75.8916 30.717 74.9303 30.5583 73.9279C30.3997 72.9256 30.4401 71.9017 30.6772 70.915C30.9143 69.9282 31.3434 68.9978 31.9401 68.1769C32.5368 67.356 33.2894 66.6607 34.1549 66.1307ZM45.3016 59.2994L48.4492 57.3714L34.2732 34.2289L34.2729 34.2284C33.646 33.204 33.4518 31.9726 33.7328 30.805C34.0139 29.6374 34.7473 28.6293 35.7717 28.0024C36.7961 27.3756 38.0275 27.1813 39.1951 27.4624C40.3624 27.7434 41.3704 28.4766 41.9973 29.5006C41.9974 29.5008 41.9975 29.501 41.9976 29.5012L56.1739 52.6389L59.3183 50.7108L43.2518 14.7183L24.9384 10.3181L20.5383 28.6316L45.3016 59.2994ZM69.0884 86.7184L72.94 84.3612L66.0575 73.1253L62.2088 75.4829L69.0884 86.7184ZM42.3808 77.0116L76.4266 56.1598L74.0634 52.2985L40.0173 73.1566L42.3808 77.0116Z" fill="black" stroke="white" stroke-width="2.65758"/>
</g>
<defs>
<clipPath id="clip0_622_3881">
<rect width="98" height="98" fill="white"/>
</clipPath>
</defs>
</svg>
