<svg width="98" height="98" viewBox="0 0 98 98" fill="none" xmlns="http://www.w3.org/2000/svg">
<g clip-path="url(#clip0_622_3882)">
<path d="M63.8451 67.1307L60.4871 65.0738L86.7869 29.6807L80.8088 4.80003C80.5283 3.63241 79.7954 2.62406 78.7714 1.9968C77.7474 1.36954 76.5161 1.17476 75.3485 1.4553L50.4646 7.43413C50.4646 7.43414 50.4645 7.43415 50.4645 7.43416C49.7903 7.59609 49.1623 7.91069 48.629 8.3537C48.0956 8.79674 47.671 9.35636 47.3881 9.98941L47.3879 9.98993L30.8936 46.9413L27.5289 44.8851C27.5285 44.8849 27.5281 44.8846 27.5277 44.8843C26.6624 44.3539 25.7011 43.9991 24.6987 43.8402C23.6958 43.6813 22.6714 43.7216 21.684 43.9588C20.6967 44.196 19.7658 44.6255 18.9446 45.2227C18.1234 45.8199 17.428 46.5731 16.8981 47.4392C16.8981 47.4393 16.898 47.4393 16.898 47.4394L13.1509 53.5621C13.1508 53.5622 13.1507 53.5624 13.1506 53.5625C13.1505 53.5626 13.1505 53.5626 13.1505 53.5626C12.6205 54.4278 12.2661 55.3889 12.1075 56.3911C11.9488 57.3935 11.9892 58.4173 12.2263 59.404C12.4634 60.3908 12.8926 61.3212 13.4893 62.1421C14.086 62.963 14.8385 63.6582 15.7039 64.1882C15.7039 64.1883 15.704 64.1883 15.704 64.1883L24.2154 69.402L16.6386 81.7713C16.6386 81.7713 16.6385 81.7714 16.6385 81.7714C16.1084 82.6367 15.7538 83.598 15.5952 84.6003C15.4366 85.6027 15.477 86.6265 15.714 87.6133C15.9511 88.6 16.3803 89.5304 16.977 90.3513C17.5737 91.1722 18.3263 91.8675 19.1917 92.3975L19.1921 92.3977L25.3106 96.1423C27.0577 97.2117 29.1579 97.5436 31.1497 97.0651C33.1414 96.5865 34.8616 95.3367 35.9321 93.5903L35.9324 93.5899L43.5093 81.2205L52.0202 86.4339C52.8858 86.9648 53.8475 87.3199 54.8505 87.4788C55.8534 87.6378 56.8778 87.5975 57.8651 87.3602C58.8524 87.123 59.7833 86.6935 60.6045 86.0963C61.4257 85.4991 62.1211 84.7459 62.651 83.8798C62.6511 83.8797 62.6511 83.8797 62.6511 83.8796L66.3983 77.757C66.9285 76.8916 67.283 75.9303 67.4417 74.9279C67.6003 73.9256 67.5599 72.9017 67.3228 71.915C67.0857 70.9282 66.6566 69.9978 66.0599 69.1769C65.4632 68.356 64.7106 67.6607 63.8451 67.1307ZM52.6984 60.2994L49.5508 58.3714L63.7268 35.2289L63.7271 35.2284C64.354 34.204 64.5482 32.9726 64.2672 31.805C63.9861 30.6374 63.2527 29.6293 62.2283 29.0024C61.2039 28.3756 59.9725 28.1813 58.8049 28.4624C57.6376 28.7434 56.6296 29.4766 56.0027 30.5006C56.0026 30.5008 56.0025 30.501 56.0024 30.5012L41.8261 53.6389L38.6817 51.7108L54.7482 15.7183L73.0616 11.3181L77.4617 29.6316L52.6984 60.2994ZM28.9116 87.7184L25.06 85.3612L31.9425 74.1253L35.7912 76.4829L28.9116 87.7184ZM55.6192 78.0116L21.5734 57.1598L23.9366 53.2985L57.9827 74.1566L55.6192 78.0116Z" fill="black" stroke="white" stroke-width="2.65758"/>
</g>
<defs>
<clipPath id="clip0_622_3882">
<rect width="98" height="98" fill="white"/>
</clipPath>
</defs>
</svg>
