<svg width="131" height="204" viewBox="0 0 131 204" fill="none" xmlns="http://www.w3.org/2000/svg">
<path d="M34.9458 16.4059C32.2601 22.6879 39.9069 36.5476 44.066 42.6922C22.8041 58.3749 64.5259 120.029 88.0445 148.896C87.3172 153.425 83.3781 164.289 73.441 171.507C61.0196 180.529 57.2708 176.185 50.3327 171.507C44.7822 167.764 48.8406 165.232 51.5636 164.434C49.5866 163.71 44.1332 161.749 38.1351 159.7C32.137 157.65 36.5684 154.019 39.5339 152.46C38.4148 152.516 34.3974 151.135 27.2803 145.164C20.1632 139.194 23.2704 137.331 25.7136 137.145C22.1513 133.933 14.6351 125.906 13.0684 119.491C11.5017 113.075 18.4585 113.402 22.1327 114.367C17.47 110.636 7.43961 100.656 4.61961 90.5868C1.79962 80.5178 8.03271 80.6366 11.5018 81.9547C10.6438 81.3049 7.62985 76.586 2.43747 62.9082C-2.7549 49.2304 7.36128 52.9023 13.0684 56.448C2.997 29.3263 16.4256 42.6922 15.0268 37.2345C13.6279 31.7767 15.4184 6.77124 17.6006 3.26268C19.7827 -0.245878 29.0708 5.21188 32.4279 1.70332C35.7851 -1.80524 38.3029 8.55336 34.9458 16.4059Z" fill="#FAFAFA" stroke="black" stroke-width="2"/>
<path d="M94.7027 145.651C87.3188 174.081 115.158 190.138 130 194.612C130 210.543 123.287 197.063 116.239 192.273C109.191 187.483 97.6115 186.369 91.7939 181.523C85.9763 176.677 102.59 183.082 96.6606 180.631C90.7311 178.181 73.5019 170.271 67.013 163.81C60.5241 157.349 63.8245 159.521 67.013 156.847C70.2016 154.174 74.6207 151.444 70.9847 151.166C67.3487 150.887 58.2866 147.824 55.7134 145.651C53.1402 143.479 51.4621 153.227 46.6513 148.771C41.8406 144.315 46.8192 142.755 42.6797 139.747C38.5402 136.739 41.0015 130.779 40.6099 129.164C40.2184 127.549 37.813 126.045 34.0092 123.315C30.2053 120.586 35.0161 117.355 32.5548 111.952C30.0935 106.549 29.7019 107.719 32.5548 104.711C34.8371 102.305 34.4753 99.7354 34.0092 98.7513C26.491 91.3097 28.0051 88.5581 29.7019 88.1125C23.392 75.6801 30.9512 68.7472 35.5195 66.8348C32.2191 64.6625 35.5195 61.3761 32.8904 52.9096C30.2613 44.4431 35.2958 52.464 35.5195 43.4962C35.7433 34.5284 46.7073 36.5336 45.1969 37.8704C43.9886 38.9399 45.7004 44.406 46.7073 47.0053C48.4414 84.4919 61.3632 72.3492 59.7969 83.4336C58.2307 94.5181 61.6429 105.603 79.9349 125.655C94.5685 141.697 95.8774 145.67 94.7027 145.651Z" fill="#FFDAA3" stroke="black" stroke-width="2"/>
</svg>
