<svg width="131" height="204" viewBox="0 0 131 204" fill="none" xmlns="http://www.w3.org/2000/svg">
<path d="M96.0542 16.4059C98.7399 22.6879 91.0931 36.5476 86.934 42.6922C108.196 58.3749 66.4741 120.029 42.9555 148.896C43.6828 153.425 47.6219 164.289 57.559 171.507C69.9804 180.529 73.7292 176.185 80.6673 171.507C86.2178 167.764 82.1594 165.232 79.4364 164.434C81.4134 163.71 86.8668 161.749 92.8649 159.7C98.863 157.65 94.4316 154.019 91.4661 152.46C92.5852 152.516 96.6026 151.135 103.72 145.164C110.837 139.194 107.73 137.331 105.286 137.145C108.849 133.933 116.365 125.906 117.932 119.491C119.498 113.075 112.542 113.402 108.867 114.367C113.53 110.636 123.56 100.656 126.38 90.5868C129.2 80.5178 122.967 80.6366 119.498 81.9547C120.356 81.3049 123.37 76.586 128.563 62.9082C133.755 49.2304 123.639 52.9023 117.932 56.448C128.003 29.3263 114.574 42.6922 115.973 37.2345C117.372 31.7767 115.582 6.77124 113.399 3.26268C111.217 -0.245878 101.929 5.21188 98.5721 1.70332C95.2149 -1.80524 92.6971 8.55336 96.0542 16.4059Z" fill="#FAFAFA" stroke="black" stroke-width="2"/>
<path d="M36.2973 145.651C43.6812 174.081 15.8423 190.138 0.999916 194.612C0.999916 210.543 7.71256 197.063 14.7608 192.273C21.8091 187.483 33.3885 186.369 39.2061 181.523C45.0237 176.677 28.4099 183.082 34.3394 180.631C40.2689 178.181 57.4981 170.271 63.987 163.81C70.4759 157.349 67.1755 159.521 63.987 156.847C60.7984 154.174 56.3793 151.444 60.0153 151.166C63.6513 150.887 72.7134 147.824 75.2866 145.651C77.8598 143.479 79.5379 153.227 84.3487 148.771C89.1594 144.315 84.1808 142.755 88.3203 139.747C92.4598 136.739 89.9985 130.779 90.3901 129.164C90.7816 127.549 93.187 126.045 96.9908 123.315C100.795 120.586 95.9839 117.355 98.4452 111.952C100.907 106.549 101.298 107.719 98.4452 104.711C96.1629 102.305 96.5247 99.7354 96.9908 98.7513C104.509 91.3097 102.995 88.5581 101.298 88.1125C107.608 75.6801 100.049 68.7472 95.4805 66.8348C98.7809 64.6625 95.4805 61.3761 98.1096 52.9096C100.739 44.4431 95.7042 52.464 95.4805 43.4962C95.2567 34.5284 84.2927 36.5336 85.8031 37.8704C87.0114 38.9399 85.2996 44.406 84.2927 47.0053C82.5586 84.4919 69.6368 72.3492 71.2031 83.4336C72.7693 94.5181 69.3571 105.603 51.0651 125.655C36.4315 141.697 35.1226 145.67 36.2973 145.651Z" fill="#FFDAA3" stroke="black" stroke-width="2"/>
</svg>
