<svg width="272" height="271" viewBox="0 0 272 271" fill="none" xmlns="http://www.w3.org/2000/svg">
<g clip-path="url(#clip0_48_173)">
<path d="M31.1984 163.552C33.7578 157.898 40.9024 154.817 45.7849 153.548C47.4075 153.126 49.1221 153.643 50.2122 154.918C55.0059 160.524 58.8671 170.159 45.127 175.351C25.7769 182.663 27.3616 172.028 31.1984 163.552Z" fill="#FF9B04" stroke="black" stroke-width="2.73034"/>
<path fill-rule="evenodd" clip-rule="evenodd" d="M93.2081 87.9653C81.71 87.1234 61.509 91.0235 48.442 112.391C29.9606 142.612 53.0003 183.936 59.0502 184.437C63.119 184.774 72.9394 183.993 79.4613 183.356C81.4042 183.166 82.9603 181.666 83.2585 179.723L96.6308 92.59C96.9813 90.3061 95.4962 88.133 93.2081 87.9653ZM56.8954 128.67C56.7457 126.786 57.0683 125.284 57.6096 124.115C58.7654 121.619 61.9277 122.679 62.4832 125.374C63.1667 128.691 63.0025 132.147 60.9563 133.262C57.89 134.931 57.3927 134.931 56.8954 128.67Z" fill="white"/>
<path d="M62.4832 125.374C61.9277 122.679 58.7654 121.619 57.6096 124.115C57.0683 125.284 56.7457 126.786 56.8954 128.67C57.3927 134.931 57.89 134.931 60.9563 133.261C63.0025 132.147 63.1667 128.691 62.4832 125.374Z" fill="black"/>
<path d="M93.2082 87.9653C81.71 87.1234 61.509 91.0235 48.442 112.391C29.9606 142.612 53.0003 183.936 59.0502 184.437C63.119 184.774 72.9394 183.993 79.4614 183.356M93.2082 87.9653C95.4962 88.133 96.9813 90.3061 96.6308 92.59M93.2082 87.9653C95.4943 88.1328 96.9788 90.3227 96.6308 92.59M79.4614 183.356C81.4042 183.166 82.9603 181.666 83.2585 179.723M79.4614 183.356C81.4034 183.166 82.9624 181.652 83.2585 179.723M96.6308 92.59L83.2585 179.723M56.8954 128.67C56.7457 126.786 57.0683 125.284 57.6096 124.115C58.7654 121.619 61.9277 122.679 62.4832 125.374C63.1667 128.691 63.0025 132.147 60.9563 133.262C57.89 134.931 57.3927 134.931 56.8954 128.67Z" stroke="black" stroke-width="2.73034"/>
<path d="M66.8338 167.738C64.1018 192.807 85.7616 196.504 93.3728 197.794C95.0076 198.071 96.8614 198.282 98.5086 198.092C116.527 196.013 150.396 191.428 160.142 187.506C172.938 182.356 219.218 182.107 234.59 175.712C249.961 169.316 241.32 139.915 237.746 127.207C234.174 114.5 197.532 64.5833 172.273 55.9455C147.014 47.3075 134.219 48.9688 103.891 70.9786C73.5641 92.9882 70.0744 138.004 66.8338 167.738Z" fill="white"/>
<path d="M147.097 165.994L163.549 135.43M136.961 140.828L172.772 159.682M66.8338 167.738C64.1018 192.807 85.7616 196.504 93.3728 197.794C95.0076 198.071 96.8614 198.282 98.5086 198.092C116.527 196.013 150.396 191.428 160.142 187.506C172.938 182.356 219.218 182.107 234.59 175.712C249.961 169.316 241.32 139.915 237.746 127.207C234.174 114.5 197.532 64.5833 172.273 55.9455C147.014 47.3075 134.219 48.9688 103.891 70.9786C73.5641 92.9882 70.0744 138.004 66.8338 167.738Z" stroke="black" stroke-width="2.73034"/>
<path d="M94.8016 171.313C77.9118 192.617 80.8232 211.193 82.1491 217.938C82.4569 219.505 83.5556 221.72 84.8687 220.812C85.3979 220.447 85.7828 219.755 86.0352 219.058C86.2828 218.375 86.556 217.644 86.9665 217.045C106.378 188.666 107.631 231.108 118.317 217.997C129.119 204.742 137.678 218.497 141.666 220.413C145.655 222.332 141.168 203.825 139.755 191.32C138.343 178.816 114.827 146.054 94.8016 171.313Z" fill="#FF9B04"/>
<path d="M171.663 207.659C170.733 219.197 173.104 217.635 174.405 215.412C177.258 211.523 180.543 207.511 188.918 205.11C199.388 202.109 204.568 220.413 214.29 209.327C224.012 198.239 231.906 222.082 234.483 212.578C237.057 203.074 230.993 153.473 199.5 156.724C168.007 159.975 172.827 193.237 171.663 207.659Z" fill="#FF9B04"/>
<path d="M94.8016 171.313C77.9118 192.617 80.8232 211.193 82.1491 217.938C82.4569 219.505 83.5556 221.72 84.8687 220.812C85.3979 220.447 85.7828 219.755 86.0352 219.058C86.2828 218.375 86.556 217.644 86.9665 217.045C106.378 188.666 107.631 231.108 118.317 217.997C129.119 204.742 137.678 218.497 141.666 220.413C145.655 222.332 141.168 203.825 139.755 191.32C138.343 178.816 114.827 146.054 94.8016 171.313Z" stroke="black" stroke-width="2.73034"/>
<path d="M171.663 207.659C170.733 219.197 173.104 217.635 174.405 215.412C177.258 211.523 180.543 207.511 188.918 205.11C199.388 202.109 204.568 220.413 214.29 209.327C224.012 198.239 231.906 222.082 234.483 212.578C237.057 203.074 230.993 153.473 199.5 156.724C168.007 159.975 172.827 193.237 171.663 207.659Z" stroke="black" stroke-width="2.73034"/>
</g>
<defs>
<clipPath id="clip0_48_173">
<rect x="0.0292358" y="0.0292969" width="271.942" height="270.849" rx="135.425" fill="white"/>
</clipPath>
</defs>
</svg>
