<svg width="23" height="23" viewBox="0 0 23 23" fill="none" xmlns="http://www.w3.org/2000/svg">
<path d="M12.7656 16.9844C12.7656 17.2347 12.6914 17.4794 12.5523 17.6875C12.4133 17.8956 12.2156 18.0579 11.9843 18.1537C11.7531 18.2495 11.4986 18.2745 11.2531 18.2257C11.0076 18.1768 10.7821 18.0563 10.6051 17.8793C10.4281 17.7023 10.3075 17.4768 10.2587 17.2313C10.2099 16.9858 10.2349 16.7313 10.3307 16.5C10.4265 16.2688 10.5887 16.0711 10.7969 15.932C11.005 15.793 11.2497 15.7187 11.5 15.7187C11.8357 15.7187 12.1576 15.8521 12.3949 16.0894C12.6323 16.3268 12.7656 16.6487 12.7656 16.9844ZM11.5 5.59375C9.17336 5.59375 7.28125 7.29707 7.28125 9.39062V9.8125C7.28125 10.0363 7.37015 10.2509 7.52838 10.4091C7.68662 10.5674 7.90123 10.6562 8.125 10.6562C8.34878 10.6562 8.56339 10.5674 8.72163 10.4091C8.87986 10.2509 8.96875 10.0363 8.96875 9.8125V9.39062C8.96875 8.23047 10.1047 7.28125 11.5 7.28125C12.8954 7.28125 14.0313 8.23047 14.0313 9.39062C14.0313 10.5508 12.8954 11.5 11.5 11.5C11.2762 11.5 11.0616 11.5889 10.9034 11.7471C10.7451 11.9054 10.6563 12.12 10.6563 12.3437V13.1875C10.6563 13.4113 10.7451 13.6259 10.9034 13.7841C11.0616 13.9424 11.2762 14.0312 11.5 14.0312C11.7238 14.0312 11.9384 13.9424 12.0966 13.7841C12.2549 13.6259 12.3438 13.4113 12.3438 13.1875V13.1116C14.2675 12.7582 15.7188 11.2237 15.7188 9.39062C15.7188 7.29707 13.8266 5.59375 11.5 5.59375ZM22.4688 11.5C22.4688 13.6694 21.8254 15.7901 20.6202 17.5939C19.4149 19.3977 17.7018 20.8036 15.6976 21.6338C13.6933 22.464 11.4878 22.6812 9.36011 22.258C7.23238 21.8348 5.27793 20.7901 3.74393 19.2561C2.20992 17.7221 1.16525 15.7676 0.742016 13.6399C0.318785 11.5122 0.536003 9.30672 1.3662 7.30244C2.1964 5.29816 3.60229 3.58508 5.40609 2.37982C7.2099 1.17456 9.33059 0.53125 11.5 0.53125C14.4082 0.534321 17.1963 1.69094 19.2527 3.74731C21.3091 5.80369 22.4657 8.59185 22.4688 11.5ZM20.7813 11.5C20.7813 9.66434 20.2369 7.86991 19.2171 6.34361C18.1972 4.81732 16.7477 3.62772 15.0518 2.92524C13.3559 2.22277 11.4897 2.03897 9.68932 2.39709C7.88894 2.75521 6.23518 3.63916 4.93717 4.93717C3.63916 6.23517 2.75521 7.88893 2.39709 9.68932C2.03897 11.4897 2.22277 13.3559 2.92525 15.0518C3.62772 16.7477 4.81732 18.1972 6.34362 19.2171C7.86991 20.2369 9.66435 20.7812 11.5 20.7812C13.9607 20.7785 16.3198 19.7997 18.0598 18.0598C19.7997 16.3198 20.7785 13.9607 20.7813 11.5Z" fill="black"/>
</svg>
