<svg width="300" height="300" viewBox="0 0 300 300" fill="none" xmlns="http://www.w3.org/2000/svg">
<path d="M117.096 223.004C119.705 224.601 119.621 225.524 119.608 225.623C119.585 225.79 119.467 226.159 118.949 226.727C118.434 227.294 117.631 227.938 116.495 228.63C111.86 231.456 103.362 234.117 93.6452 236.205C84.0187 238.273 73.5238 239.711 65.1168 240.223C60.905 240.479 57.2893 240.499 54.5991 240.268C53.2486 240.152 52.2111 239.979 51.4804 239.774C51.1443 239.68 50.9337 239.595 50.8118 239.539C50.7913 239.425 50.7677 239.243 50.7581 238.973C50.7324 238.241 50.8204 237.198 51.0569 235.84C51.5274 233.138 52.5183 229.553 53.9211 225.43C56.7203 217.201 61.0551 207.13 65.7464 198.259C68.0908 193.826 70.5066 189.727 72.8444 186.324C75.2042 182.889 77.3967 180.294 79.2704 178.758C81.3021 177.093 82.1278 177.308 82.2862 177.383C82.432 177.452 82.7956 177.696 83.234 178.535C83.6739 179.378 84.1046 180.664 84.4446 182.532C84.63 183.551 84.7934 184.509 84.9372 185.41C85.4832 188.831 88.4362 191.547 91.2599 193.19C94.1401 194.865 97.8568 195.999 100.961 195.422C103.667 194.92 105.397 195.359 106.395 196.543C107.727 198.123 107.631 200.537 106.001 203.844C104.6 206.685 104.865 210.24 105.874 213.133C106.881 216.019 108.889 218.987 111.846 220.269C113.494 220.984 115.259 221.88 117.096 223.004Z" fill="black" stroke="black" stroke-width="5"/>
<path d="M246.956 214.723C249.775 215.912 249.83 216.837 249.832 216.937C249.835 217.106 249.773 217.488 249.346 218.128C248.922 218.765 248.224 219.522 247.204 220.377C243.044 223.864 235.041 227.767 225.746 231.286C216.537 234.771 206.376 237.764 198.14 239.528C194.014 240.412 190.442 240.973 187.748 241.147C186.395 241.234 185.343 241.218 184.59 241.125C184.244 241.082 184.023 241.03 183.894 240.993C183.856 240.883 183.806 240.707 183.756 240.441C183.621 239.721 183.552 238.678 183.583 237.299C183.643 234.557 184.086 230.864 184.856 226.577C186.392 218.023 189.171 207.416 192.482 197.943C194.136 193.209 195.911 188.794 197.713 185.08C199.533 181.33 201.312 178.436 202.935 176.638C204.694 174.687 205.543 174.776 205.711 174.826C205.865 174.873 206.261 175.06 206.82 175.824C207.381 176.591 208 177.798 208.615 179.594C208.951 180.574 209.256 181.497 209.533 182.366C210.585 185.667 213.911 187.91 216.949 189.112C220.048 190.337 223.892 190.902 226.875 189.867C229.475 188.966 231.252 189.141 232.416 190.162C233.969 191.526 234.235 193.926 233.119 197.44C232.159 200.459 232.953 203.934 234.384 206.643C235.811 209.346 238.241 211.98 241.357 212.805C243.093 213.265 244.972 213.887 246.956 214.723Z" fill="black" stroke="black" stroke-width="5"/>
<path d="M240.187 93.7991C242.717 95.5198 242.589 96.4376 242.571 96.5355C242.54 96.7017 242.404 97.0642 241.86 97.6074C241.318 98.1488 240.485 98.753 239.317 99.3904C234.551 101.991 225.935 104.24 216.13 105.859C206.415 107.462 195.863 108.395 187.441 108.502C183.222 108.556 179.609 108.402 176.934 108.042C175.59 107.861 174.562 107.638 173.842 107.399C173.511 107.288 173.305 107.194 173.186 107.132C173.171 107.017 173.156 106.834 173.159 106.564C173.169 105.831 173.307 104.795 173.608 103.449C174.208 100.772 175.37 97.2395 176.969 93.1881C180.16 85.1036 184.973 75.2525 190.085 66.6173C192.64 62.3019 195.25 58.3229 197.748 55.0362C200.27 51.7185 202.585 49.2321 204.53 47.788C206.64 46.2223 207.454 46.4766 207.609 46.559C207.751 46.6349 208.102 46.8963 208.5 47.7557C208.899 48.6181 209.267 49.9234 209.517 51.8059C209.654 52.8324 209.771 53.7976 209.871 54.7044C210.252 58.1472 213.071 61.0023 215.813 62.7786C218.609 64.5905 222.267 65.9012 225.396 65.4745C228.123 65.1026 229.83 65.6247 230.769 66.8551C232.024 68.4975 231.812 70.9039 230.025 74.1284C228.489 76.8995 228.584 80.4623 229.453 83.4005C230.32 86.3318 232.183 89.393 235.075 90.8157C236.687 91.6084 238.407 92.5881 240.187 93.7991Z" fill="black" stroke="black" stroke-width="5"/>
</svg>
