<svg width="600" height="600" viewBox="0 0 600 600" fill="none" xmlns="http://www.w3.org/2000/svg">
<g clip-path="url(#clip0_567_3869)">
<circle cx="299.5" cy="299.5" r="300.5" fill="#EEEEEE"/>
<path fill-rule="evenodd" clip-rule="evenodd" d="M140.231 224.914C129.208 268.455 133.801 341.803 137.476 373.035C128.993 392.239 118.147 425.096 122.238 443.995C124.017 452.215 128.622 457.794 137.476 458.462C146.781 459.165 155.822 453.313 164.133 443.995H515.699C410.469 400.768 368.336 319.074 336.504 255.916C318.112 219.423 303.16 189.119 281.462 176C251.903 158.127 220.115 156.716 193.968 166.548C167.706 176.424 147.136 197.642 140.231 224.914ZM226.348 247.649C227.037 233.87 221.984 230.885 218.769 230.426L215.325 231.596C211.191 238.004 210.502 243.515 211.88 253.16C213.15 262.053 225.516 264.291 226.348 247.649ZM302.13 246.271C302.13 234.559 299.145 231.344 296.619 230.426L291.796 232.033C289.041 236.396 287.814 244.96 289.041 251.094C291.107 261.428 302.13 259.648 302.13 246.271Z" fill="white"/>
<path d="M218.769 230.426C221.984 230.885 227.037 233.87 226.348 247.649C225.516 264.291 213.15 262.053 211.88 253.16C210.502 243.515 211.191 238.004 215.325 231.596L218.769 230.426Z" fill="black"/>
<path d="M296.619 230.426C299.145 231.344 302.13 234.559 302.13 246.271C302.13 259.648 291.107 261.428 289.041 251.094C287.814 244.96 289.041 236.396 291.796 232.033L296.619 230.426Z" fill="black"/>
<path d="M193.968 166.548C183.864 161.432 165.308 146.1 171.922 125.708C178.536 105.316 189.375 144.438 193.968 166.548Z" fill="white"/>
<path d="M420.627 155.332C409.604 159.741 396.744 156.251 391.692 153.954L391.838 163.599C396.915 168.56 413.146 167.503 420.627 166.355V155.332Z" fill="#FF7A00"/>
<path d="M377.224 204.935C385.491 206.038 390.773 201.72 392.38 199.424C391.462 196.209 387.145 190.468 377.224 193.223C364.823 196.668 366.89 203.557 377.224 204.935Z" fill="#FF7A00"/>
<path d="M142.298 405.415C153.321 391.085 174.907 368.212 184.323 358.567C187.63 324.947 198.102 350.07 202.924 366.834C196.352 388.273 181.91 424.064 164.133 443.995M-1 443.995H122.238M122.238 443.995C118.147 425.096 128.993 392.239 137.476 373.035C133.801 341.803 129.208 268.455 140.231 224.914C147.136 197.642 167.706 176.424 193.968 166.548M122.238 443.995C124.017 452.215 128.622 457.794 137.476 458.462C146.781 459.165 155.822 453.313 164.133 443.995M164.133 443.995H594.927M164.133 443.995H515.699C410.469 400.768 368.336 319.074 336.504 255.916M165.033 326.187C168.937 313.557 187.905 302.35 232.548 358.567M182.256 242.827L215.325 231.596M215.325 231.596L218.769 230.426C221.984 230.885 227.037 233.87 226.348 247.649C225.516 264.291 213.15 262.053 211.88 253.16C210.502 243.515 211.191 238.004 215.325 231.596ZM265.617 240.76L291.796 232.033M291.796 232.033L296.619 230.426C299.145 231.344 302.13 234.559 302.13 246.271C302.13 259.648 291.107 261.428 289.041 251.094C287.814 244.96 289.041 236.396 291.796 232.033ZM193.968 166.548C220.115 156.716 251.903 158.127 281.462 176C303.16 189.119 318.112 219.423 336.504 255.916M193.968 166.548C183.864 161.432 165.308 146.1 171.922 125.708C178.536 105.316 189.375 144.438 193.968 166.548ZM308.331 277.273C309.66 270.384 317.156 256.467 336.504 255.916M336.504 255.916C348.24 256.835 374.468 253.023 385.491 230.426M392.38 199.424C390.773 201.72 385.491 206.038 377.224 204.935C366.89 203.557 364.823 196.668 377.224 193.223C387.145 190.468 391.462 196.209 392.38 199.424ZM392.38 199.424L391.838 163.599M391.838 163.599L391.692 153.954C396.744 156.251 409.604 159.741 420.627 155.332V166.355C413.146 167.503 396.915 168.56 391.838 163.599Z" stroke="black" stroke-width="5"/>
<path fill-rule="evenodd" clip-rule="evenodd" d="M140.231 224.914C129.208 268.455 133.801 341.803 137.476 373.035C128.993 392.239 118.147 425.096 122.238 443.995C124.017 452.215 128.622 457.794 137.476 458.462C146.781 459.165 155.822 453.313 164.133 443.995H515.699C410.469 400.768 368.336 319.074 336.504 255.916C318.112 219.423 303.16 189.119 281.462 176C251.903 158.127 220.115 156.716 193.968 166.548C167.706 176.424 147.136 197.642 140.231 224.914ZM226.348 247.649C227.037 233.87 221.984 230.885 218.769 230.426L215.325 231.596C211.191 238.004 210.502 243.515 211.88 253.16C213.15 262.053 225.516 264.291 226.348 247.649ZM302.13 246.271C302.13 234.559 299.145 231.344 296.619 230.426L291.796 232.033C289.041 236.396 287.814 244.96 289.041 251.094C291.107 261.428 302.13 259.648 302.13 246.271Z" fill="white"/>
<path d="M218.769 230.426C221.984 230.885 227.037 233.87 226.348 247.649C225.516 264.291 213.15 262.053 211.88 253.16C210.502 243.515 211.191 238.004 215.325 231.596L218.769 230.426Z" fill="black"/>
<path d="M296.619 230.426C299.145 231.344 302.13 234.559 302.13 246.271C302.13 259.648 291.107 261.428 289.041 251.094C287.814 244.96 289.041 236.396 291.796 232.033L296.619 230.426Z" fill="black"/>
<path d="M193.968 166.548C183.864 161.432 165.308 146.1 171.922 125.708C178.536 105.316 189.375 144.438 193.968 166.548Z" fill="white"/>
<path d="M420.627 155.332C409.604 159.741 396.744 156.251 391.692 153.954L391.838 163.599C396.915 168.56 413.146 167.503 420.627 166.355V155.332Z" fill="#FF7A00"/>
<path d="M377.224 204.935C385.491 206.038 390.773 201.72 392.38 199.424C391.462 196.209 387.145 190.468 377.224 193.223C364.823 196.668 366.89 203.557 377.224 204.935Z" fill="#FF7A00"/>
<path d="M142.298 405.415C153.321 391.085 174.907 368.212 184.323 358.567C187.63 324.947 198.102 350.07 202.924 366.834C196.352 388.273 181.91 424.064 164.133 443.995M-1 443.995H122.238M122.238 443.995C118.147 425.096 128.993 392.239 137.476 373.035C133.801 341.803 129.208 268.455 140.231 224.914C147.136 197.642 167.706 176.424 193.968 166.548M122.238 443.995C124.017 452.215 128.622 457.794 137.476 458.462C146.781 459.165 155.822 453.313 164.133 443.995M164.133 443.995H594.927M164.133 443.995H515.699C410.469 400.768 368.336 319.074 336.504 255.916M165.033 326.187C168.937 313.557 187.905 302.35 232.548 358.567M182.256 242.827L215.325 231.596M215.325 231.596L218.769 230.426C221.984 230.885 227.037 233.87 226.348 247.649C225.516 264.291 213.15 262.053 211.88 253.16C210.502 243.515 211.191 238.004 215.325 231.596ZM265.617 240.76L291.796 232.033M291.796 232.033L296.619 230.426C299.145 231.344 302.13 234.559 302.13 246.271C302.13 259.648 291.107 261.428 289.041 251.094C287.814 244.96 289.041 236.396 291.796 232.033ZM193.968 166.548C220.115 156.716 251.903 158.127 281.462 176C303.16 189.119 318.112 219.423 336.504 255.916M193.968 166.548C183.864 161.432 165.308 146.1 171.922 125.708C178.536 105.316 189.375 144.438 193.968 166.548ZM308.331 277.273C309.66 270.384 317.156 256.467 336.504 255.916M336.504 255.916C348.24 256.835 374.468 253.023 385.491 230.426M392.38 199.424C390.773 201.72 385.491 206.038 377.224 204.935C366.89 203.557 364.823 196.668 377.224 193.223C387.145 190.468 391.462 196.209 392.38 199.424ZM392.38 199.424L391.838 163.599M391.838 163.599L391.692 153.954C396.744 156.251 409.604 159.741 420.627 155.332V166.355C413.146 167.503 396.915 168.56 391.838 163.599Z" stroke="black" stroke-width="5"/>
<path d="M218.769 230.426C221.985 230.885 227.037 233.87 226.348 247.649C225.516 264.291 213.15 262.053 211.88 253.16C210.502 243.515 211.191 238.004 215.325 231.596L218.769 230.426Z" fill="black"/>
<path d="M296.619 230.426C299.145 231.344 302.13 234.559 302.13 246.271C302.13 259.648 291.107 261.428 289.041 251.094C287.814 244.96 289.041 236.396 291.796 232.033L296.619 230.426Z" fill="black"/>
<path d="M420.627 155.332C409.604 159.741 396.744 156.251 391.692 153.954L391.838 163.599C396.915 168.56 413.146 167.503 420.627 166.355V155.332Z" fill="#FF7A00"/>
<path d="M377.224 204.935C385.491 206.038 390.773 201.72 392.38 199.424C391.462 196.209 387.145 190.468 377.224 193.223C364.823 196.668 366.89 203.557 377.224 204.935Z" fill="#FF7A00"/>
<path fill-rule="evenodd" clip-rule="evenodd" d="M140.231 224.914C129.208 268.455 133.801 341.803 137.476 373.035C128.993 392.239 118.147 425.096 122.238 443.995C124.017 452.215 128.622 457.794 137.476 458.462C146.781 459.165 155.822 453.313 164.133 443.995H515.699C410.469 400.768 368.336 319.074 336.504 255.916C318.112 219.423 303.16 189.119 281.462 176C251.903 158.127 220.115 156.716 193.968 166.548C167.706 176.424 147.136 197.642 140.231 224.914ZM226.348 247.649C227.037 233.87 221.985 230.885 218.769 230.426L215.325 231.596C211.191 238.004 210.502 243.515 211.88 253.16C213.15 262.053 225.516 264.291 226.348 247.649ZM302.13 246.271C302.13 234.559 299.145 231.344 296.619 230.426L291.796 232.033C289.041 236.396 287.814 244.96 289.041 251.094C291.107 261.428 302.13 259.648 302.13 246.271Z" fill="#F3A8FF"/>
<path d="M193.968 166.548C183.864 161.432 165.308 146.1 171.922 125.708C178.536 105.316 189.375 144.438 193.968 166.548Z" fill="#F3A8FF"/>
<path d="M142.298 405.415C153.321 391.085 174.907 368.212 184.323 358.567C187.63 324.947 198.101 350.07 202.924 366.834C196.352 388.273 181.91 424.064 164.133 443.995M-1 443.995H122.238M122.238 443.995C118.147 425.096 128.993 392.239 137.476 373.035C133.801 341.803 129.208 268.455 140.231 224.914C147.136 197.642 167.706 176.424 193.968 166.548M122.238 443.995C124.017 452.215 128.622 457.794 137.476 458.462C146.781 459.165 155.822 453.313 164.133 443.995M164.133 443.995H594.927M164.133 443.995H515.699C410.469 400.768 368.336 319.074 336.504 255.916M165.033 326.187C168.937 313.557 187.905 302.35 232.548 358.567M182.256 242.827L215.325 231.596M215.325 231.596L218.769 230.426C221.985 230.885 227.037 233.87 226.348 247.649C225.516 264.291 213.15 262.053 211.88 253.16C210.502 243.515 211.191 238.004 215.325 231.596ZM265.617 240.76L291.796 232.033M291.796 232.033L296.619 230.426C299.145 231.344 302.13 234.559 302.13 246.271C302.13 259.648 291.107 261.428 289.041 251.094C287.814 244.96 289.041 236.396 291.796 232.033ZM193.968 166.548C220.115 156.716 251.903 158.127 281.462 176C303.16 189.119 318.112 219.423 336.504 255.916M193.968 166.548C183.864 161.432 165.308 146.1 171.922 125.708C178.536 105.316 189.375 144.438 193.968 166.548ZM308.331 277.273C309.66 270.384 317.156 256.467 336.504 255.916M336.504 255.916C348.24 256.835 374.468 253.023 385.491 230.426M392.38 199.424C390.773 201.72 385.491 206.038 377.224 204.935C366.89 203.557 364.823 196.668 377.224 193.223C387.145 190.468 391.462 196.209 392.38 199.424ZM392.38 199.424L391.838 163.599M391.838 163.599L391.692 153.954C396.744 156.251 409.604 159.741 420.627 155.332V166.355C413.146 167.503 396.915 168.56 391.838 163.599Z" stroke="black" stroke-width="5"/>
<path d="M262.861 266.522C262.31 273.687 256.201 286.042 253.216 291.324L271.817 307.858C278.017 308.547 289.729 300.969 284.218 292.701C279.809 286.088 272.736 289.027 269.75 291.324C286.285 276.167 263.55 257.566 262.861 266.522Z" fill="#FF7A00" stroke="black" stroke-width="5"/>
<path d="M252.717 294.745L257.197 290.265L274.085 305.006L267.279 307.627L252.717 294.745Z" fill="#FF7A00"/>
</g>
<defs>
<clipPath id="clip0_567_3869">
<rect width="600" height="600" fill="white"/>
</clipPath>
</defs>
</svg>
