<svg width="600" height="600" viewBox="0 0 600 600" fill="none" xmlns="http://www.w3.org/2000/svg">
<path d="M250.643 262.07C248.207 266.338 247.112 274.02 262.211 270.606C281.084 266.338 287.782 264.78 282.302 256.414C275.269 259.736 265.028 262.07 250.643 262.07Z" fill="#FF7A00"/>
<path d="M234.813 248.048C232.378 257.803 244.351 261.461 250.643 262.07C265.028 262.07 275.269 259.736 282.302 256.414C299.381 248.348 297.548 234.458 290.217 234.026C279.867 233.416 278.649 236.464 266.472 243.78C254.296 251.096 237.857 235.855 234.813 248.048Z" fill="#FF7A00"/>
<path d="M245.163 487.037C236.64 499.23 203.762 492.524 218.374 499.84C232.986 507.156 228.725 498.621 233.595 509.595C238.466 520.569 242.119 501.059 253.078 508.375C264.037 515.691 256.731 502.888 245.163 487.037Z" fill="#FF7A00"/>
<path d="M355.362 493.134C345.824 495.979 326.382 503.01 324.92 508.375C323.094 515.082 337.097 502.888 344.403 519.959C351.709 537.03 348.665 504.717 368.148 511.424C383.734 516.789 366.118 501.466 355.362 493.134Z" fill="#FF7A00"/>
<path fill-rule="evenodd" clip-rule="evenodd" d="M435.119 410.829C494.785 354.13 452.775 280.36 365.103 312.063C351.1 220.003 315.52 131.297 277.431 117.58C269.67 114.784 262.366 113.689 255.513 114.101C251.283 114.355 247.224 115.183 243.337 116.539C197.208 132.638 175.147 223.169 175.147 312.063C175.147 332.115 174.233 364.186 180.333 393.148C181.844 400.326 183.786 407.312 186.28 413.877C195.446 438.01 212.062 456.453 242.12 457.773C246.082 457.947 250.146 458.103 254.296 458.228C286.001 459.186 322.704 458.358 357.189 450.199C386.156 443.345 413.559 431.317 435.119 410.829ZM198.892 213.297C201.075 205.703 206.056 196.271 213.504 195.095C219.209 194.194 226.362 198.139 234.813 211.468C230.705 207.718 223.073 203.204 214.999 203.663C214.704 203.68 214.409 203.704 214.113 203.734C208.902 204.268 203.555 206.947 198.892 213.297ZM278.649 204.762C281.935 196.076 289.047 184.897 298.741 183.573C305.376 182.666 313.221 186.377 321.876 198.665C317.189 196.319 308.858 193.824 299.958 194.568C299.806 194.581 299.654 194.595 299.502 194.609C292.354 195.295 284.875 198.098 278.649 204.762ZM250.643 262.07C244.351 261.461 232.378 257.803 234.813 248.048C237.857 235.855 254.296 251.096 266.472 243.78C278.649 236.464 279.867 233.416 290.217 234.026C297.548 234.458 299.381 248.348 282.302 256.414C287.782 264.78 281.084 266.338 262.211 270.606C247.112 274.02 248.207 266.338 250.643 262.07Z" fill="white"/>
<path d="M180.333 393.148C166.624 405.342 145.314 429.728 137.4 441.922C128.94 454.954 160.535 442.531 186.28 413.877C183.786 407.312 181.844 400.326 180.333 393.148Z" fill="white"/>
<path d="M230.551 84.048C229.09 97.7045 238.466 111.399 243.337 116.539C247.224 115.183 251.283 114.355 255.513 114.101C267.69 103.306 273.17 76.7321 260.384 79.7804C251.141 81.9842 248.162 96.9676 247.674 106.282C247.672 107.415 247.642 108.353 247.599 109.044C247.599 108.203 247.622 107.275 247.674 106.282C247.683 102.089 247.306 95.2277 245.772 88.3157C243.337 77.3417 232.378 66.9774 230.551 84.048Z" fill="white"/>
<path fill-rule="evenodd" clip-rule="evenodd" d="M213.504 195.095C206.056 196.271 201.075 205.703 198.892 213.297C203.555 206.947 208.902 204.268 214.113 203.734C211.963 203.847 209.851 202.323 209.851 199.884C209.851 198.055 211.068 195.48 213.504 195.095ZM214.999 203.663C223.073 203.204 230.705 207.718 234.813 211.468C226.362 198.139 219.209 194.194 213.504 195.095C217.157 195.183 218.374 197.446 218.374 199.884C218.374 202.828 216.404 203.485 214.999 203.663C214.999 203.663 214.999 203.663 214.999 203.663Z" fill="white"/>
<path fill-rule="evenodd" clip-rule="evenodd" d="M298.741 183.573C289.047 184.897 281.935 196.076 278.649 204.762C284.875 198.098 292.354 195.295 299.502 194.609C297.021 194.753 294.88 193.543 294.479 189.52C294.174 186.472 296.914 183.93 298.741 183.573ZM299.958 194.568C308.858 193.824 317.189 196.319 321.876 198.665C313.221 186.377 305.376 182.666 298.741 183.573C302.394 183.424 304.829 185.196 304.829 188.911C304.829 193.178 302.629 194.247 299.958 194.568Z" fill="white"/>
<path d="M298.741 183.573C296.914 183.93 294.174 186.472 294.479 189.52C294.88 193.543 297.021 194.753 299.502 194.609C299.654 194.595 299.806 194.581 299.958 194.568C302.629 194.247 304.829 193.178 304.829 188.911C304.829 185.196 302.394 183.424 298.741 183.573Z" fill="black"/>
<path d="M213.504 195.095C211.068 195.48 209.851 198.055 209.851 199.884C209.851 202.323 211.963 203.847 214.113 203.734C214.409 203.704 214.704 203.68 214.999 203.663C216.404 203.485 218.374 202.828 218.374 199.884C218.374 197.446 217.157 195.183 213.504 195.095Z" fill="black"/>
<path d="M365.103 312.063C452.775 280.36 494.785 354.13 435.119 410.829C413.559 431.317 386.156 443.345 357.189 450.199M365.103 312.063C351.1 220.003 315.52 131.297 277.431 117.58C269.67 114.784 262.366 113.689 255.513 114.101M365.103 312.063C366.524 319.988 374.479 336.571 377.889 339.498M243.337 116.539C197.208 132.638 175.147 223.169 175.147 312.063C175.147 332.115 174.233 364.186 180.333 393.148M243.337 116.539C238.466 111.399 229.09 97.7045 230.551 84.048C232.378 66.9774 243.337 77.3417 245.772 88.3157C247.306 95.2277 247.683 102.089 247.674 106.282M243.337 116.539C247.224 115.183 251.283 114.355 255.513 114.101M255.513 114.101C267.69 103.306 273.17 76.7321 260.384 79.7804C251.141 81.9842 248.162 96.9676 247.674 106.282M250.643 262.07C244.351 261.461 232.378 257.803 234.813 248.048C237.857 235.855 254.296 251.096 266.472 243.78C278.649 236.464 279.867 233.416 290.217 234.026C297.548 234.458 299.381 248.348 282.302 256.414M250.643 262.07C248.207 266.338 247.112 274.02 262.211 270.606C281.084 266.338 287.782 264.78 282.302 256.414M250.643 262.07C265.028 262.07 275.269 259.736 282.302 256.414M180.333 393.148C166.624 405.342 145.314 429.728 137.4 441.922C128.94 454.954 160.535 442.531 186.28 413.877M180.333 393.148C181.844 400.326 183.786 407.312 186.28 413.877M186.28 413.877C195.446 438.01 212.062 456.453 242.12 457.773C246.082 457.947 250.146 458.103 254.296 458.228M397.981 359.007C407.316 365.307 428.301 378.395 437.555 380.345C449.123 382.784 406.504 387.052 394.328 377.907M254.296 458.228C254.093 463.767 251.982 477.282 245.163 487.037M254.296 458.228C286.001 459.186 322.704 458.358 357.189 450.199M245.163 487.037C236.64 499.23 203.762 492.524 218.374 499.84C232.986 507.156 228.725 498.621 233.595 509.595C238.466 520.569 242.119 501.059 253.078 508.375C264.037 515.691 256.731 502.888 245.163 487.037ZM357.189 450.199C358.406 459.023 359.746 479.965 355.362 493.134M355.362 493.134C345.824 495.979 326.382 503.01 324.92 508.375C323.094 515.082 337.097 502.888 344.403 519.959C351.709 537.03 348.665 504.717 368.148 511.424C383.734 516.789 366.118 501.466 355.362 493.134ZM247.674 106.282C247.672 107.415 247.642 108.353 247.599 109.044C247.599 108.203 247.622 107.275 247.674 106.282ZM213.504 195.095C206.056 196.271 201.075 205.703 198.892 213.297C203.555 206.947 208.902 204.268 214.113 203.734M213.504 195.095C219.209 194.194 226.362 198.139 234.813 211.468C230.705 207.718 223.073 203.204 214.999 203.663M213.504 195.095C211.068 195.48 209.851 198.055 209.851 199.884C209.851 202.323 211.963 203.847 214.113 203.734M213.504 195.095C217.157 195.183 218.374 197.446 218.374 199.884C218.374 202.828 216.404 203.485 214.999 203.663M214.113 203.734C214.351 203.722 214.658 203.707 214.999 203.663M214.113 203.734C214.409 203.704 214.704 203.68 214.999 203.663M298.741 183.573C289.047 184.897 281.935 196.076 278.649 204.762C284.875 198.098 292.354 195.295 299.502 194.609M298.741 183.573C305.376 182.666 313.221 186.377 321.876 198.665C317.189 196.319 308.858 193.824 299.958 194.568M298.741 183.573C296.914 183.93 294.174 186.472 294.479 189.52C294.88 193.543 297.021 194.753 299.502 194.609M298.741 183.573C302.394 183.424 304.829 185.196 304.829 188.911C304.829 193.178 302.629 194.247 299.958 194.568M299.958 194.568C299.805 194.587 299.653 194.6 299.502 194.609M299.958 194.568C299.806 194.581 299.654 194.595 299.502 194.609M214.999 203.663C214.999 203.663 214.999 203.663 214.999 203.663Z" stroke="black" stroke-width="2"/>
</svg>
