<svg width="600" height="600" viewBox="0 0 600 600" fill="none" xmlns="http://www.w3.org/2000/svg">
<path fill-rule="evenodd" clip-rule="evenodd" d="M62 438H535.862C540.249 427.169 540.817 400.399 507.988 379.974C466.951 354.443 495.599 351.348 477.79 320.401C459.982 289.455 441.399 321.175 429.011 276.302C416.622 231.429 401.136 159.477 339.194 161.025C277.251 162.572 268.734 202.029 232.342 256.187C195.951 310.344 151.043 306.475 132.46 333.554C113.877 360.633 140.203 383.069 116.2 396.995C92.1971 410.921 62 417.111 62 438ZM357.002 301.06C348.95 301.679 327.837 294.612 318.288 291.002C325.102 276.147 344.356 276.56 353.131 278.623C367.842 270.113 393.394 280.944 388.748 285.586C384.102 290.228 367.068 300.286 357.002 301.06ZM289.639 203.577C279.832 214.408 261.61 239.32 267.185 252.318C274.154 268.565 288.094 232.203 289.639 203.577ZM326.805 243.034C320.611 244.272 321.484 234.266 322.696 229.108C324.05 228.122 325.428 227.05 326.805 225.89C330.915 224.993 334.548 241.487 326.805 243.034ZM381.005 241.487C376.669 237.773 378.166 230.707 379.456 227.638C381.356 229.193 383.531 230.736 386.006 232.203C388.685 235.297 386.425 246.129 381.005 241.487Z" fill="white"/>
<path d="M318.288 291.002C327.837 294.612 348.95 301.679 357.002 301.06C367.068 300.286 384.102 290.228 388.748 285.586C393.394 280.944 367.842 270.113 353.131 278.623C344.356 276.56 325.102 276.147 318.288 291.002Z" fill="#FF7A00"/>
<path d="M289.639 203.577C279.832 214.408 261.61 239.32 267.185 252.318C274.154 268.565 288.094 232.203 289.639 203.577Z" fill="#64DAFF"/>
<path d="M322.696 229.108C321.484 234.266 320.611 244.272 326.805 243.034C334.548 241.487 330.915 224.993 326.805 225.89C325.428 227.05 324.05 228.122 322.696 229.108Z" fill="black"/>
<path d="M379.456 227.638C378.166 230.707 376.669 237.773 381.005 241.487C386.425 246.129 388.685 235.297 386.006 232.203C383.531 230.736 381.356 229.193 379.456 227.638Z" fill="black"/>
<path d="M232.342 343.612C228.987 358.054 224.29 386.319 232.342 383.843C240.395 381.367 251.183 358.569 255.571 347.48M436.753 341.291C440.625 348.254 449.452 362.18 453.788 362.18C459.208 362.18 463.853 349.801 459.982 335.101M308.997 236.845C312.05 235.701 317.173 233.128 322.696 229.108M339.194 212.087C335.605 217.585 331.208 222.183 326.805 225.89M368.616 213.634C369.575 216.667 372.846 222.227 379.456 227.638M395.716 236.845C392.063 235.46 388.838 233.881 386.006 232.203M322.696 229.108C321.484 234.266 320.611 244.272 326.805 243.034C334.548 241.487 330.915 224.993 326.805 225.89M322.696 229.108C324.05 228.122 325.428 227.05 326.805 225.89M379.456 227.638C378.166 230.707 376.669 237.773 381.005 241.487C386.425 246.129 388.685 235.297 386.006 232.203M379.456 227.638C381.356 229.193 383.531 230.736 386.006 232.203M62 438H535.862C540.249 427.169 540.817 400.399 507.988 379.974C466.951 354.443 495.599 351.348 477.79 320.401C459.982 289.455 441.399 321.175 429.011 276.302C416.622 231.429 401.136 159.477 339.194 161.025C277.251 162.572 268.734 202.029 232.342 256.187C195.951 310.344 151.043 306.475 132.46 333.554C113.877 360.633 140.203 383.069 116.2 396.995C92.1971 410.921 62 417.111 62 438ZM318.288 291.002C327.837 294.612 348.95 301.679 357.002 301.06C367.068 300.286 384.102 290.228 388.748 285.586C393.394 280.944 367.842 270.113 353.131 278.623C344.356 276.56 325.102 276.147 318.288 291.002ZM289.639 203.577C279.832 214.408 261.61 239.32 267.185 252.318C274.154 268.565 288.094 232.203 289.639 203.577Z" stroke="black" stroke-width="2"/>
</svg>
