<svg width="600" height="600" viewBox="0 0 600 600" fill="none" xmlns="http://www.w3.org/2000/svg">
<g clip-path="url(#clip0_567_3865)">
<circle cx="299.5" cy="299.5" r="300.5" fill="#EEEEEE"/>
<path d="M241.431 254.653C238.512 259.755 237.198 268.939 255.298 264.857C277.924 259.755 285.952 257.893 279.384 247.891C270.952 251.862 258.676 254.653 241.431 254.653Z" fill="#FF7A00"/>
<path d="M222.455 237.889C219.535 249.551 233.889 253.924 241.431 254.653C258.676 254.653 270.952 251.862 279.384 247.891C299.857 238.247 297.66 221.64 288.872 221.124C276.464 220.395 275.004 224.04 260.407 232.786C245.81 241.533 226.104 223.311 222.455 237.889Z" fill="#FF7A00"/>
<path d="M234.862 523.613C224.644 538.191 185.232 530.173 202.749 538.92C220.265 547.666 215.156 537.462 220.995 550.582C226.834 563.702 231.213 540.378 244.35 549.124C257.488 557.871 248.73 542.564 234.862 523.613Z" fill="#FF7A00"/>
<path d="M366.966 530.902C355.532 534.303 332.225 542.71 330.473 549.124C328.284 557.142 345.07 542.564 353.829 562.973C362.587 583.382 358.938 544.751 382.293 552.769C400.977 559.183 379.86 540.863 366.966 530.902Z" fill="#FF7A00"/>
<path fill-rule="evenodd" clip-rule="evenodd" d="M196.91 174.58C187.982 175.986 182.011 187.262 179.393 196.342C184.983 188.75 191.393 185.548 197.64 184.909C195.062 185.043 192.531 183.222 192.531 180.306C192.531 178.12 193.99 175.04 196.91 174.58ZM198.703 184.824C208.381 184.275 217.53 189.671 222.455 194.155C212.324 178.22 203.749 173.504 196.91 174.58C201.289 174.685 202.749 177.391 202.749 180.306C202.749 183.825 200.386 184.612 198.703 184.824Z" fill="white"/>
<path fill-rule="evenodd" clip-rule="evenodd" d="M299.09 160.805C287.469 162.388 278.943 175.753 275.004 186.137C282.467 178.17 291.433 174.819 300.002 173.999C297.028 174.171 294.462 172.725 293.981 167.915C293.616 164.271 296.9 161.231 299.09 160.805ZM300.549 173.95C311.218 173.061 321.206 176.043 326.824 178.849C316.449 164.158 307.044 159.721 299.09 160.805C303.469 160.626 306.388 162.746 306.388 167.186C306.388 172.289 303.75 173.566 300.549 173.95Z" fill="white"/>
<path d="M299.09 160.805C296.9 161.231 293.616 164.271 293.981 167.915C294.462 172.725 297.028 174.171 300.002 173.999C300.185 173.982 300.367 173.966 300.549 173.95C303.75 173.566 306.388 172.289 306.388 167.186C306.388 162.746 303.469 160.626 299.09 160.805Z" fill="black"/>
<path d="M196.91 174.58C193.99 175.04 192.531 178.12 192.531 180.306C192.531 183.222 195.062 185.043 197.64 184.909C197.995 184.872 198.349 184.844 198.703 184.824C200.386 184.612 202.749 183.825 202.749 180.306C202.749 177.391 201.289 174.685 196.91 174.58Z" fill="black"/>
<path fill-rule="evenodd" clip-rule="evenodd" d="M197.64 184.909L197.678 184.907C197.958 184.892 198.312 184.874 198.703 184.824C198.349 184.844 197.995 184.872 197.64 184.909ZM300.002 173.999C300.183 173.989 300.366 173.973 300.549 173.95C300.367 173.966 300.185 173.982 300.002 173.999Z" fill="white"/>
<path fill-rule="evenodd" clip-rule="evenodd" d="M462.577 432.502C534.103 364.715 483.743 276.52 378.644 314.422C361.857 204.359 319.204 98.306 273.544 81.9062C264.241 78.5646 255.485 77.2553 247.27 77.747C242.198 78.0505 237.333 79.0406 232.673 80.6626C177.375 99.9096 150.929 208.144 150.929 314.422C150.929 338.395 149.833 376.738 157.145 411.364C158.957 419.945 161.285 428.297 164.274 436.146C175.262 464.998 195.181 487.048 231.214 488.626C235.964 488.834 240.836 489.021 245.81 489.171C283.818 490.315 327.816 489.326 369.156 479.571C403.881 471.376 436.731 456.997 462.577 432.502ZM241.431 254.653C233.889 253.924 219.535 249.551 222.455 237.889C226.104 223.311 245.81 241.533 260.407 232.786C275.004 224.04 276.464 220.395 288.872 221.124C297.66 221.64 299.857 238.247 279.384 247.891C285.952 257.893 277.924 259.755 255.298 264.857C237.198 268.939 238.512 259.755 241.431 254.653ZM179.393 196.342C182.011 187.262 187.982 175.986 196.91 174.58C203.749 173.504 212.324 178.22 222.455 194.155C217.53 189.671 208.381 184.275 198.703 184.824C198.312 184.874 197.958 184.892 197.678 184.907L197.64 184.909C191.393 185.548 184.983 188.75 179.393 196.342ZM275.004 186.137C278.943 175.753 287.469 162.388 299.09 160.805C307.044 159.721 316.449 164.158 326.824 178.849C321.206 176.043 311.218 173.061 300.549 173.95C300.366 173.973 300.183 173.989 300.002 173.999C291.433 174.819 282.467 178.17 275.004 186.137Z" fill="#FFDC61"/>
<path d="M157.145 411.364C140.711 425.942 115.166 455.097 105.678 469.675C95.5368 485.256 133.412 470.404 164.274 436.146C161.285 428.297 158.957 419.945 157.145 411.364Z" fill="#FFDC61"/>
<path d="M217.346 41.8174C215.594 58.1446 226.834 74.5172 232.673 80.6626C237.333 79.0406 242.198 78.0505 247.27 77.747C261.867 64.841 268.436 33.0708 253.109 36.7152C242.028 39.35 238.457 57.2634 237.873 68.3996C237.87 69.7538 237.834 70.8751 237.782 71.7019C237.782 70.6959 237.81 69.5862 237.873 68.3996C237.882 63.3867 237.431 55.1833 235.592 46.9197C232.673 33.7997 219.535 21.4085 217.346 41.8174Z" fill="#FFDC61"/>
<path d="M378.644 314.422C483.743 276.52 534.103 364.715 462.577 432.502C436.731 456.997 403.881 471.376 369.156 479.571M378.644 314.422C361.857 204.359 319.204 98.306 273.544 81.9062C264.241 78.5646 255.485 77.2553 247.27 77.747M378.644 314.422C380.347 323.897 389.883 343.723 393.971 347.222M232.673 80.6626C177.375 99.9096 150.929 208.144 150.929 314.422C150.929 338.395 149.833 376.738 157.145 411.364M232.673 80.6626C226.834 74.5172 215.594 58.1446 217.346 41.8174C219.535 21.4085 232.673 33.7997 235.592 46.9197C237.431 55.1833 237.882 63.3867 237.873 68.3996M232.673 80.6626C237.333 79.0406 242.198 78.0505 247.27 77.747M247.27 77.747C261.867 64.841 268.436 33.0708 253.109 36.7152C242.028 39.35 238.457 57.2634 237.873 68.3996M241.431 254.653C233.889 253.924 219.535 249.551 222.455 237.889C226.104 223.311 245.81 241.533 260.407 232.786C275.004 224.04 276.464 220.395 288.872 221.124C297.66 221.64 299.857 238.247 279.384 247.891M241.431 254.653C238.512 259.755 237.198 268.939 255.298 264.857C277.924 259.755 285.952 257.893 279.384 247.891M241.431 254.653C258.676 254.653 270.952 251.862 279.384 247.891M157.145 411.364C140.711 425.942 115.166 455.097 105.678 469.675C95.5368 485.256 133.412 470.404 164.274 436.146M157.145 411.364C158.957 419.945 161.285 428.297 164.274 436.146M164.274 436.146C175.262 464.998 195.181 487.048 231.214 488.626C235.964 488.834 240.836 489.021 245.81 489.171M418.056 370.546C429.247 378.078 454.403 393.725 465.497 396.058C479.364 398.973 428.274 404.075 413.677 393.142M245.81 489.171C245.567 495.792 243.037 511.951 234.862 523.613M245.81 489.171C283.818 490.315 327.816 489.326 369.156 479.571M234.862 523.613C224.644 538.191 185.232 530.173 202.749 538.92C220.265 547.666 215.156 537.462 220.995 550.582C226.834 563.702 231.213 540.378 244.35 549.124C257.488 557.871 248.73 542.564 234.862 523.613ZM369.156 479.571C370.615 490.121 372.221 515.158 366.966 530.902M366.966 530.902C355.532 534.303 332.225 542.71 330.473 549.124C328.284 557.142 345.07 542.564 353.829 562.973C362.587 583.382 358.938 544.751 382.293 552.769C400.977 559.183 379.86 540.863 366.966 530.902ZM237.873 68.3996C237.87 69.7538 237.834 70.8751 237.782 71.7019C237.782 70.6959 237.81 69.5862 237.873 68.3996ZM196.91 174.58C187.982 175.986 182.011 187.262 179.393 196.342C184.983 188.75 191.393 185.548 197.64 184.909M196.91 174.58C203.749 173.504 212.324 178.22 222.455 194.155C217.53 189.671 208.381 184.275 198.703 184.824M196.91 174.58C193.99 175.04 192.531 178.12 192.531 180.306C192.531 183.222 195.062 185.043 197.64 184.909M196.91 174.58C201.289 174.685 202.749 177.391 202.749 180.306C202.749 183.825 200.386 184.612 198.703 184.824M197.64 184.909C197.995 184.872 198.349 184.844 198.703 184.824M197.64 184.909L197.678 184.907M197.64 184.909C197.652 184.908 197.665 184.907 197.678 184.907M299.09 160.805C287.469 162.388 278.943 175.753 275.004 186.137C282.467 178.17 291.433 174.819 300.002 173.999M299.09 160.805C307.044 159.721 316.449 164.158 326.824 178.849C321.206 176.043 311.218 173.061 300.549 173.95M299.09 160.805C296.9 161.231 293.616 164.271 293.981 167.915C294.462 172.725 297.028 174.171 300.002 173.999M299.09 160.805C303.469 160.626 306.388 162.746 306.388 167.186C306.388 172.289 303.75 173.566 300.549 173.95M300.549 173.95C300.366 173.973 300.183 173.989 300.002 173.999M300.549 173.95C300.367 173.966 300.185 173.982 300.002 173.999M198.703 184.824C198.312 184.874 197.958 184.892 197.678 184.907" stroke="black" stroke-width="5"/>
</g>
<defs>
<clipPath id="clip0_567_3865">
<rect width="600" height="600" fill="white"/>
</clipPath>
</defs>
</svg>
