<svg width="600" height="600" viewBox="0 0 600 600" fill="none" xmlns="http://www.w3.org/2000/svg">
<g clip-path="url(#clip0_567_3867)">
<circle cx="299.5" cy="299.5" r="300.5" fill="#EEEEEE"/>
<path d="M245.444 532.511C233.986 538.354 210.631 551.356 208.876 556.615C206.682 563.189 229.354 544.198 239.593 560.998C249.832 577.798 246.175 543.467 265.191 564.65C284.206 585.832 255.683 537.624 245.444 532.511Z" fill="#FF7A00"/>
<path d="M350.329 528.128C339.258 537.867 316.824 558.806 315.654 564.65C314.191 571.954 335.401 544.198 347.102 556.615C358.804 569.032 346.371 539.085 363.924 556.615C381.476 574.145 380.616 554.666 350.329 528.128Z" fill="#FF7A00"/>
<path d="M292.982 238.877C298.833 226.46 331.744 264.442 322.236 271.016C318.58 276.129 286.443 252.755 292.982 238.877Z" fill="#FF7A00"/>
<path d="M262.265 126.391C258.852 124.93 246.322 125.514 243.981 133.695C241.056 143.921 245.444 152.686 262.265 145.382C275.722 139.538 269.579 129.556 262.265 126.391Z" fill="#FF7A00"/>
<path d="M227.891 69.417L224.235 85.4865C212.777 84.756 192.201 77.0135 201.563 51.8866C213.264 20.478 244.713 29.9737 254.22 37.278C263.728 44.5823 268.116 57.7301 258.608 79.643C251.002 97.1734 252.514 105.452 254.22 107.399L236.668 114.704C233.498 109.591 228.33 97.6116 233.011 90.5995C238.862 81.8343 252.757 66.4952 240.324 51.8866C227.891 37.278 201.563 65.7648 227.891 69.417Z" fill="#FF7A00"/>
<path d="M175.965 133.695L181.816 141.73C172.308 152.686 150.368 149.813 150.368 127.851C150.368 109.591 167.693 100.302 179.622 101.556C193.518 103.017 201.563 114.704 201.563 126.391C201.563 143.921 203.757 140.269 211.801 146.843L201.563 158.53C196.443 156.338 185.73 151.186 188.398 143.191C192.786 130.043 186.935 119.086 179.622 117.625C164.224 114.55 157.681 138.078 175.965 133.695Z" fill="#FF7A00"/>
<path d="M224.966 157.069C221.553 155.608 216.336 156.923 213.996 165.104C211.655 173.284 221.309 175.33 224.966 172.408C230.817 167.733 232.279 160.234 224.966 157.069Z" fill="#FF7A00"/>
<path d="M314.923 191.399C317.117 197.973 334.962 191.837 339.058 178.982C344.177 162.912 314.923 181.903 314.923 191.399Z" fill="black"/>
<path d="M366.849 238.877C363.802 231.573 377.234 215.211 389.521 219.886C396.835 222.668 369.287 244.721 366.849 238.877Z" fill="black"/>
<path fill-rule="evenodd" clip-rule="evenodd" d="M380.013 140.269C314.031 116.912 199.368 200.164 170.114 323.607C167 336.75 164.838 349.165 163.582 360.859C160.871 386.095 162.373 407.978 167.601 426.598C178.592 465.745 206.051 490.468 245.444 501.591C260.185 505.753 276.598 508.011 294.445 508.407C315.239 508.868 325.893 508.407 350.329 504.024C411.936 485.826 437.373 433.172 439.985 400.303C443.641 354.285 413.656 315.572 396.813 299.503C401.33 293.273 407.92 286.21 417.313 279.051C434.896 265.649 438.427 221.841 424.017 186.286C422.102 181.561 419.87 176.982 417.313 172.639C408.696 158.009 396.379 146.062 380.013 140.269ZM292.982 238.877C298.833 226.46 331.744 264.442 322.236 271.016C318.58 276.129 286.443 252.755 292.982 238.877ZM314.923 191.399C317.117 197.973 334.962 191.837 339.058 178.982C344.177 162.912 314.923 181.903 314.923 191.399ZM366.849 238.877C363.802 231.573 377.234 215.211 389.521 219.886C396.835 222.668 369.287 244.721 366.849 238.877Z" fill="#99DF88"/>
<path d="M459 200.895C459 182.072 429.746 172.639 417.313 172.639C419.87 176.982 422.102 181.561 424.017 186.286C432.671 186.286 459 230.112 459 200.895Z" fill="#99DF88"/>
<path d="M163.582 360.859C155.033 382.772 138.373 429.958 140.129 443.398C141.884 456.838 159.175 437.798 167.601 426.598C162.373 407.978 160.871 386.095 163.582 360.859Z" fill="#99DF88"/>
<path d="M388.058 318.494C388.34 314.979 390.638 308.02 396.813 299.503M396.813 299.503C401.33 293.273 407.92 286.21 417.313 279.051C434.896 265.649 438.427 221.841 424.017 186.286M396.813 299.503C413.656 315.572 443.641 354.285 439.985 400.303C437.373 433.172 411.936 485.826 350.329 504.024M163.582 360.859C164.838 349.165 167 336.75 170.114 323.607C199.368 200.164 314.031 116.912 380.013 140.269C396.379 146.062 408.696 158.009 417.313 172.639M163.582 360.859C155.033 382.772 138.373 429.958 140.129 443.398C141.884 456.838 159.175 437.798 167.601 426.598M163.582 360.859C160.871 386.095 162.373 407.978 167.601 426.598M167.601 426.598C178.592 465.745 206.051 490.468 245.444 501.591M245.444 501.591C260.185 505.753 276.598 508.011 294.445 508.407C315.239 508.868 325.893 508.407 350.329 504.024M245.444 501.591V532.511M245.444 532.511C233.986 538.354 210.631 551.356 208.876 556.615C206.682 563.189 229.354 544.198 239.593 560.998C249.832 577.798 246.175 543.467 265.191 564.65C284.206 585.832 255.683 537.624 245.444 532.511ZM350.329 504.024V528.128M350.329 528.128C339.258 537.867 316.824 558.806 315.654 564.65C314.191 571.954 335.401 544.198 347.102 556.615C358.804 569.032 346.371 539.085 363.924 556.615C381.476 574.145 380.616 554.666 350.329 528.128ZM336.132 374.738C332.475 341.868 328.526 276.714 341.983 279.051C358.804 281.973 369.043 349.172 393.178 355.016M417.313 172.639C429.746 172.639 459 182.072 459 200.895C459 230.112 432.671 186.286 424.017 186.286M417.313 172.639C419.87 176.982 422.102 181.561 424.017 186.286M292.982 238.877C298.833 226.46 331.744 264.442 322.236 271.016C318.58 276.129 286.443 252.755 292.982 238.877ZM314.923 191.399C317.117 197.973 334.962 191.837 339.058 178.982C344.177 162.912 314.923 181.903 314.923 191.399ZM366.849 238.877C363.802 231.573 377.234 215.211 389.521 219.886C396.835 222.668 369.287 244.721 366.849 238.877ZM227.891 69.417L224.235 85.4865C212.777 84.756 192.201 77.0135 201.563 51.8866C213.264 20.478 244.713 29.9737 254.22 37.278C263.728 44.5823 268.116 57.7301 258.608 79.643C251.002 97.1734 252.514 105.452 254.22 107.399L236.668 114.704C233.498 109.591 228.33 97.6116 233.011 90.5995C238.862 81.8343 252.757 66.4952 240.324 51.8866C227.891 37.278 201.563 65.7648 227.891 69.417ZM262.265 126.391C258.852 124.93 246.322 125.514 243.981 133.695C241.056 143.921 245.444 152.686 262.265 145.382C275.722 139.538 269.579 129.556 262.265 126.391ZM175.965 133.695L181.816 141.73C172.308 152.686 150.368 149.813 150.368 127.851C150.368 109.591 167.693 100.302 179.622 101.556C193.518 103.017 201.563 114.704 201.563 126.391C201.563 143.921 203.757 140.269 211.801 146.843L201.563 158.53C196.443 156.338 185.73 151.186 188.398 143.191C192.786 130.043 186.935 119.086 179.622 117.625C164.224 114.55 157.681 138.078 175.965 133.695ZM224.966 157.069C221.553 155.608 216.336 156.923 213.996 165.104C211.655 173.284 221.309 175.33 224.966 172.408C230.817 167.733 232.279 160.234 224.966 157.069Z" stroke="black" stroke-width="5"/>
</g>
<defs>
<clipPath id="clip0_567_3867">
<rect width="600" height="600" fill="white"/>
</clipPath>
</defs>
</svg>
