<svg width="600" height="600" viewBox="0 0 600 600" fill="none" xmlns="http://www.w3.org/2000/svg">
<path fill-rule="evenodd" clip-rule="evenodd" d="M220.611 207.981C194.108 324.974 160.495 368.927 194.108 418.698C207.352 438.308 229.677 451.482 254.871 458.619C285.466 467.286 320.293 467.049 348.225 458.619C362.495 454.313 374.965 447.869 384.153 439.382C460.43 368.927 392.557 257.752 384.153 207.981C380.094 183.94 362.874 126.97 314.341 117.532C309.871 116.663 305.135 116.197 300.12 116.197C298.432 116.197 296.705 116.262 294.949 116.404C269.123 118.494 236.657 137.152 220.611 207.981ZM275.556 195.054C274.005 190.917 272.324 190.314 271.678 190.529C267.799 191.822 267.153 195.054 268.446 199.578C269.738 204.103 277.495 200.225 275.556 195.054ZM332.441 195.054C329.855 191.434 331.794 187.513 333.087 186.005C333.974 184.698 338.258 184.712 338.258 190.529C338.258 196.347 335.673 199.578 332.441 195.054ZM282.02 255.813C277.883 248.573 286.761 236.422 291.717 231.251C298.181 222.912 299.473 250.642 307.877 233.836C316.28 217.03 328.562 236.422 327.269 250.642C325.976 264.862 315.634 255.813 310.463 253.227C305.291 250.642 307.23 259.045 299.473 257.752C291.717 256.459 287.192 264.862 282.02 255.813Z" fill="white"/>
<path d="M254.871 486.567C246.468 491.953 228.885 504.148 225.782 509.836C221.904 516.946 240.65 500.787 245.175 515.007C249.7 529.227 253.578 500.141 270.385 509.836C283.83 517.593 265.645 497.555 254.871 486.567Z" fill="#FF7A00"/>
<path d="M348.225 486.567C339.301 492.6 322.227 505.699 325.33 509.836C329.209 515.007 343.43 500.141 354.419 515.007C365.408 529.874 349.894 494.97 370.579 507.251C391.264 519.532 360.778 491.091 348.225 486.567Z" fill="#FF7A00"/>
<path d="M291.717 231.251C286.761 236.422 277.883 248.573 282.02 255.813C287.192 264.862 291.717 256.459 299.473 257.752C307.23 259.045 305.291 250.642 310.463 253.227C315.634 255.813 325.976 264.862 327.269 250.642C328.562 236.422 316.28 217.03 307.877 233.836C299.473 250.642 298.181 222.912 291.717 231.251Z" fill="#FF7A00"/>
<path d="M294.949 116.404C296.705 116.262 298.432 116.197 300.12 116.197C305.135 116.197 309.871 116.663 314.341 117.532C335.543 108.259 329.209 88.6467 323.391 80C325.33 84.9555 324.942 94.8665 307.877 94.8665C290.812 94.8665 292.147 109.225 294.949 116.404Z" fill="white"/>
<path d="M271.678 190.529C272.324 190.314 274.005 190.917 275.556 195.054C277.495 200.225 269.738 204.103 268.446 199.578C267.153 195.054 267.799 191.822 271.678 190.529Z" fill="black"/>
<path d="M333.087 186.005C331.794 187.513 329.855 191.434 332.441 195.054C335.673 199.578 338.258 196.347 338.258 190.529C338.258 184.712 333.974 184.698 333.087 186.005Z" fill="black"/>
<path d="M254.871 458.619C229.677 451.482 207.352 438.308 194.108 418.698C160.495 368.927 194.108 324.974 220.611 207.981C236.657 137.152 269.123 118.494 294.949 116.404M254.871 458.619V486.567M254.871 458.619C285.466 467.286 320.293 467.049 348.225 458.619M254.871 486.567C246.468 491.953 228.885 504.148 225.782 509.836C221.904 516.946 240.65 500.787 245.175 515.007C249.7 529.227 253.578 500.141 270.385 509.836C283.83 517.593 265.645 497.555 254.871 486.567ZM348.225 458.619C362.495 454.313 374.965 447.869 384.153 439.382C460.43 368.927 392.557 257.752 384.153 207.981C380.094 183.94 362.874 126.97 314.341 117.532M348.225 458.619V486.567M348.225 486.567C339.301 492.6 322.227 505.699 325.33 509.836C329.209 515.007 343.43 500.141 354.419 515.007C365.408 529.874 349.894 494.97 370.579 507.251C391.264 519.532 360.778 491.091 348.225 486.567ZM218.672 293.949C224.705 288.778 238.193 275.721 243.882 264.862C250.992 251.288 260.689 304.937 243.882 326.267M388.679 295.888C380.06 291.794 361.012 279.47 353.772 262.923C344.722 242.239 333.734 296.534 358.944 317.218M282.02 186.005C276.203 174.585 258.874 163.382 250.346 195.054C241.296 228.665 267.153 230.604 282.02 213.152M327.269 175.663C331.363 170.707 342.395 165.192 353.772 182.773C367.993 204.749 350.54 244.178 333.087 211.86M294.949 116.404C296.705 116.262 298.432 116.197 300.12 116.197C305.135 116.197 309.871 116.663 314.341 117.532M294.949 116.404C292.147 109.225 290.812 94.8665 307.877 94.8665C324.942 94.8665 325.33 84.9555 323.391 80C329.209 88.6467 335.543 108.259 314.341 117.532M271.678 190.529C272.324 190.314 274.005 190.917 275.556 195.054C277.495 200.225 269.738 204.103 268.446 199.578C267.153 195.054 267.799 191.822 271.678 190.529ZM333.087 186.005C331.794 187.513 329.855 191.434 332.441 195.054C335.673 199.578 338.258 196.347 338.258 190.529C338.258 184.712 333.974 184.698 333.087 186.005ZM291.717 231.251C286.761 236.422 277.883 248.573 282.02 255.813C287.192 264.862 291.717 256.459 299.473 257.752C307.23 259.045 305.291 250.642 310.463 253.227C315.634 255.813 325.976 264.862 327.269 250.642C328.562 236.422 316.28 217.03 307.877 233.836C299.473 250.642 298.181 222.912 291.717 231.251Z" stroke="black" stroke-width="2"/>
</svg>
