<svg width="600" height="600" viewBox="0 0 600 600" fill="none" xmlns="http://www.w3.org/2000/svg">
<path fill-rule="evenodd" clip-rule="evenodd" d="M371.175 158.608C312.846 137.933 211.482 211.627 185.621 320.897C182.868 332.531 180.957 343.52 179.847 353.872C177.45 376.21 178.778 395.581 183.399 412.063C193.116 446.715 217.39 468.6 252.214 478.445C265.245 482.13 279.755 484.128 295.531 484.478C313.914 484.887 323.332 484.478 344.934 480.599C399.395 464.49 421.881 417.882 424.19 388.786C427.423 348.053 400.915 313.785 386.026 299.56C390.019 294.046 395.845 287.793 404.148 281.456C419.691 269.593 422.813 230.815 410.075 199.342C408.382 195.16 406.409 191.106 404.148 187.262C396.53 174.311 385.642 163.736 371.175 158.608ZM294.238 245.895C299.41 234.903 328.504 268.525 320.099 274.344C316.867 278.87 288.457 258.18 294.238 245.895ZM313.634 203.868C315.573 209.687 331.349 204.256 334.969 192.876C339.495 178.652 313.634 195.463 313.634 203.868ZM359.537 245.895C356.844 239.429 368.718 224.946 379.58 229.084C386.045 231.547 361.693 251.067 359.537 245.895Z" fill="white"/>
<path d="M179.847 353.872C172.289 373.269 157.562 415.037 159.114 426.934C160.665 438.831 175.951 421.977 183.399 412.063C178.778 395.581 177.45 376.21 179.847 353.872Z" fill="white"/>
<path d="M252.214 505.815C242.085 510.988 221.439 522.497 219.887 527.152C217.948 532.971 237.99 516.16 247.041 531.031C256.093 545.902 252.86 515.514 269.67 534.264C286.48 553.015 261.265 510.341 252.214 505.815Z" fill="#FF7A00"/>
<path d="M344.934 501.936C335.147 510.557 315.315 529.092 314.28 534.264C312.987 540.73 331.737 516.16 342.081 527.152C352.426 538.144 341.435 511.634 356.951 527.152C372.468 542.67 371.708 525.426 344.934 501.936Z" fill="#FF7A00"/>
<path d="M294.238 245.895C299.41 234.903 328.504 268.525 320.099 274.344C316.867 278.87 288.457 258.18 294.238 245.895Z" fill="#FF7A00"/>
<path d="M441 212.273C441 195.612 415.139 187.262 404.148 187.262C406.409 191.106 408.382 195.16 410.075 199.342C417.725 199.342 441 238.136 441 212.273Z" fill="white"/>
<path d="M267.084 146.324C264.067 145.03 252.99 145.548 250.921 152.789C248.335 161.841 252.214 169.6 267.084 163.134C278.98 157.962 273.549 149.125 267.084 146.324Z" fill="#FF7A00"/>
<path d="M236.697 95.8913L233.464 110.116C223.335 109.469 205.146 102.616 213.422 80.3737C223.766 52.5713 251.567 60.9767 259.972 67.4423C268.377 73.908 272.256 85.5462 263.851 104.943C257.127 120.461 258.463 127.789 259.972 129.513L244.455 135.978C241.654 131.453 237.085 120.849 241.223 114.642C246.395 106.883 258.679 93.305 247.688 80.3737C236.697 67.4423 213.422 92.6585 236.697 95.8913Z" fill="#FF7A00"/>
<path d="M190.794 152.789L195.966 159.901C187.561 169.6 168.165 167.057 168.165 147.617C168.165 131.453 183.481 123.23 194.026 124.34C206.31 125.633 213.422 135.978 213.422 146.324C213.422 161.841 215.362 158.608 222.473 164.427L213.422 174.773C208.896 172.833 199.426 168.272 201.785 161.195C205.664 149.556 200.491 139.858 194.026 138.565C180.414 135.842 174.63 156.669 190.794 152.789Z" fill="#FF7A00"/>
<path d="M234.111 173.479C231.094 172.186 226.482 173.35 224.413 180.592C222.344 187.833 230.878 189.644 234.111 187.057C239.283 182.919 240.576 176.281 234.111 173.479Z" fill="#FF7A00"/>
<path d="M313.634 203.868C315.573 209.687 331.349 204.256 334.969 192.876C339.495 178.652 313.634 195.463 313.634 203.868Z" fill="black"/>
<path d="M359.537 245.895C356.844 239.429 368.718 224.946 379.58 229.084C386.045 231.547 361.693 251.067 359.537 245.895Z" fill="black"/>
<path d="M378.287 316.371C378.536 313.259 380.567 307.099 386.026 299.56M386.026 299.56C390.019 294.046 395.845 287.793 404.148 281.456C419.691 269.593 422.813 230.815 410.075 199.342M386.026 299.56C400.915 313.785 427.423 348.053 424.19 388.786C421.881 417.882 399.395 464.49 344.934 480.599M179.847 353.872C180.957 343.52 182.868 332.531 185.621 320.897C211.482 211.627 312.846 137.933 371.175 158.608C385.642 163.736 396.53 174.311 404.148 187.262M179.847 353.872C172.289 373.269 157.562 415.037 159.114 426.934C160.665 438.831 175.951 421.977 183.399 412.063M179.847 353.872C177.45 376.21 178.778 395.581 183.399 412.063M183.399 412.063C193.116 446.715 217.39 468.6 252.214 478.445M252.214 478.445C265.245 482.13 279.755 484.128 295.531 484.478C313.914 484.887 323.332 484.478 344.934 480.599M252.214 478.445V505.815M252.214 505.815C242.085 510.988 221.439 522.497 219.887 527.152C217.948 532.971 237.99 516.16 247.041 531.031C256.093 545.902 252.86 515.514 269.67 534.264C286.48 553.015 261.265 510.341 252.214 505.815ZM344.934 480.599V501.936M344.934 501.936C335.147 510.557 315.315 529.092 314.28 534.264C312.987 540.73 331.737 516.16 342.081 527.152C352.426 538.144 341.435 511.634 356.951 527.152C372.468 542.67 371.708 525.426 344.934 501.936ZM332.383 366.157C329.151 337.061 325.659 279.387 337.555 281.456C352.426 284.043 361.477 343.527 382.812 348.699M404.148 187.262C415.139 187.262 441 195.612 441 212.273C441 238.136 417.725 199.342 410.075 199.342M404.148 187.262C406.409 191.106 408.382 195.16 410.075 199.342M294.238 245.895C299.41 234.903 328.504 268.525 320.099 274.344C316.867 278.87 288.457 258.18 294.238 245.895ZM313.634 203.868C315.573 209.687 331.349 204.256 334.969 192.876C339.495 178.652 313.634 195.463 313.634 203.868ZM359.537 245.895C356.844 239.429 368.718 224.946 379.58 229.084C386.045 231.547 361.693 251.067 359.537 245.895ZM236.697 95.8913L233.464 110.116C223.335 109.469 205.146 102.616 213.422 80.3737C223.766 52.5713 251.567 60.9767 259.972 67.4423C268.377 73.908 272.256 85.5462 263.851 104.943C257.127 120.461 258.463 127.789 259.972 129.513L244.455 135.978C241.654 131.453 237.085 120.849 241.223 114.642C246.395 106.883 258.679 93.305 247.688 80.3737C236.697 67.4423 213.422 92.6585 236.697 95.8913ZM267.084 146.324C264.067 145.03 252.99 145.548 250.921 152.789C248.335 161.841 252.214 169.6 267.084 163.134C278.98 157.962 273.549 149.125 267.084 146.324ZM190.794 152.789L195.966 159.901C187.561 169.6 168.165 167.057 168.165 147.617C168.165 131.453 183.481 123.23 194.026 124.34C206.31 125.633 213.422 135.978 213.422 146.324C213.422 161.841 215.362 158.608 222.473 164.427L213.422 174.773C208.896 172.833 199.426 168.272 201.785 161.195C205.664 149.556 200.491 139.858 194.026 138.565C180.414 135.842 174.63 156.669 190.794 152.789ZM234.111 173.479C231.094 172.186 226.482 173.35 224.413 180.592C222.344 187.833 230.878 189.644 234.111 187.057C239.283 182.919 240.576 176.281 234.111 173.479Z" stroke="black" stroke-width="2"/>
</svg>
