<svg width="600" height="600" viewBox="0 0 600 600" fill="none" xmlns="http://www.w3.org/2000/svg">
<g clip-path="url(#clip0_567_3866)">
<circle cx="299.5" cy="299.5" r="300.5" fill="#EEEEEE"/>
<path d="M243.653 531.809C233.254 538.484 211.495 553.596 207.656 560.644C202.856 569.455 226.054 549.431 231.654 567.052C237.253 584.673 242.053 548.63 262.851 560.644C279.49 570.256 256.985 545.426 243.653 531.809Z" fill="#FF7A00"/>
<path d="M359.179 531.809C348.135 539.285 327.006 555.518 330.846 560.644C335.646 567.052 353.244 548.63 366.843 567.052C380.442 585.474 361.243 542.222 386.841 557.44C412.439 572.659 374.713 537.416 359.179 531.809Z" fill="#FF7A00"/>
<path d="M289.249 215.427C283.116 221.834 272.131 236.893 277.25 245.864C283.65 257.077 289.249 246.665 298.848 248.266C308.448 249.868 306.048 239.456 312.447 242.66C318.847 245.864 331.646 257.077 333.246 239.456C334.846 221.834 319.647 197.805 309.248 218.631C298.848 239.456 297.249 205.094 289.249 215.427Z" fill="#FF7A00"/>
<path d="M264.451 164.966C265.251 164.699 267.331 165.446 269.251 170.572C271.651 176.98 262.051 181.786 260.451 176.179C258.852 170.572 259.652 166.568 264.451 164.966Z" fill="black"/>
<path d="M340.445 159.359C338.845 161.228 336.445 166.087 339.645 170.572C343.645 176.179 346.845 172.174 346.845 164.966C346.845 157.757 341.543 157.739 340.445 159.359Z" fill="black"/>
<path fill-rule="evenodd" clip-rule="evenodd" d="M201.256 186.592C168.458 331.567 126.862 386.033 168.459 447.708C184.848 472.008 212.475 488.333 243.653 497.177C281.514 507.917 324.612 507.623 359.179 497.177C376.837 491.841 392.269 483.856 403.64 473.339C498.032 386.033 414.039 248.266 403.64 186.592C398.617 156.801 377.306 86.2049 317.247 74.5091C311.715 73.4318 305.855 72.8543 299.648 72.8543C297.559 72.8543 295.423 72.9354 293.249 73.1115C261.29 75.7008 221.112 98.8214 201.256 186.592ZM269.251 170.572C267.331 165.446 265.251 164.699 264.451 164.966C259.652 166.568 258.852 170.572 260.451 176.179C262.051 181.786 271.651 176.98 269.251 170.572ZM339.645 170.572C336.445 166.087 338.845 161.228 340.445 159.359C341.543 157.739 346.845 157.757 346.845 164.966C346.845 172.174 343.645 176.179 339.645 170.572ZM277.25 245.864C272.131 236.893 283.116 221.834 289.249 215.427C297.249 205.094 298.848 239.456 309.248 218.631C319.647 197.805 334.846 221.834 333.246 239.456C331.646 257.077 318.847 245.864 312.447 242.66C306.048 239.456 308.448 249.868 298.848 248.266C289.249 246.665 283.65 257.077 277.25 245.864Z" fill="#A5D9FF"/>
<path d="M293.249 73.1115C295.423 72.9354 297.559 72.8543 299.648 72.8543C305.855 72.8543 311.715 73.4318 317.247 74.5091C343.485 63.0174 335.646 38.7148 328.446 28C330.846 34.1408 330.366 46.4223 309.248 46.4223C288.129 46.4223 289.782 64.2151 293.249 73.1115Z" fill="#A5D9FF"/>
<path d="M243.653 497.177C212.475 488.333 184.848 472.008 168.459 447.708C126.862 386.033 168.458 331.567 201.256 186.592C221.112 98.8214 261.29 75.7008 293.249 73.1115M243.653 497.177V531.809M243.653 497.177C281.514 507.917 324.612 507.623 359.179 497.177M243.653 531.809C233.254 538.484 211.495 553.596 207.656 560.644C202.856 569.455 226.054 549.431 231.654 567.052C237.253 584.673 242.053 548.63 262.851 560.644C279.49 570.256 256.985 545.426 243.653 531.809ZM359.179 497.177C376.837 491.841 392.269 483.856 403.64 473.339C498.032 386.033 414.039 248.266 403.64 186.592C398.617 156.801 377.306 86.2049 317.247 74.5091M359.179 497.177V531.809M359.179 531.809C348.135 539.285 327.006 555.518 330.846 560.644C335.646 567.052 353.244 548.63 366.843 567.052C380.442 585.474 361.243 542.222 386.841 557.44C412.439 572.659 374.713 537.416 359.179 531.809ZM198.856 293.121C206.322 286.713 223.014 270.533 230.054 257.077C238.853 240.257 250.852 306.737 230.054 333.169M409.24 295.524C398.574 290.451 375.002 275.179 366.043 254.674C354.844 229.043 341.245 296.325 372.443 321.956M277.25 159.359C270.051 145.208 248.606 131.325 238.053 170.572C226.854 212.223 258.852 214.626 277.25 193M333.246 146.543C338.312 140.403 351.964 133.568 366.043 155.354C383.642 182.587 362.043 231.446 340.445 191.398M293.249 73.1115C295.423 72.9354 297.559 72.8543 299.648 72.8543C305.855 72.8543 311.715 73.4318 317.247 74.5091M293.249 73.1115C289.782 64.2151 288.129 46.4223 309.248 46.4223C330.366 46.4223 330.846 34.1408 328.446 28C335.646 38.7148 343.485 63.0174 317.247 74.5091M264.451 164.966C265.251 164.699 267.331 165.446 269.251 170.572C271.651 176.98 262.051 181.786 260.451 176.179C258.852 170.572 259.652 166.568 264.451 164.966ZM340.445 159.359C338.845 161.228 336.445 166.087 339.645 170.572C343.645 176.179 346.845 172.174 346.845 164.966C346.845 157.757 341.543 157.739 340.445 159.359ZM289.249 215.427C283.116 221.834 272.131 236.893 277.25 245.864C283.65 257.077 289.249 246.665 298.848 248.266C308.448 249.868 306.048 239.456 312.447 242.66C318.847 245.864 331.646 257.077 333.246 239.456C334.846 221.834 319.647 197.805 309.248 218.631C298.848 239.456 297.249 205.094 289.249 215.427Z" stroke="black" stroke-width="5"/>
</g>
<defs>
<clipPath id="clip0_567_3866">
<rect width="600" height="600" fill="white"/>
</clipPath>
</defs>
</svg>
