<svg width="600" height="600" viewBox="0 0 600 600" fill="none" xmlns="http://www.w3.org/2000/svg">
<path fill-rule="evenodd" clip-rule="evenodd" d="M160.081 242.66C150.24 281.53 154.341 347.01 157.621 374.891C150.049 392.036 140.366 421.367 144.018 438.239C145.606 445.577 149.717 450.558 157.621 451.155C165.929 451.782 173.999 446.558 181.419 438.239H495.272C401.33 399.649 363.716 326.718 335.299 270.336C318.88 237.758 305.532 210.705 286.162 198.993C259.774 183.037 231.395 181.777 208.053 190.555C184.609 199.371 166.245 218.313 160.081 242.66ZM236.96 262.956C237.575 250.655 233.064 247.99 230.194 247.58L227.119 248.624C223.429 254.345 222.814 259.266 224.044 267.876C225.178 275.814 236.217 277.813 236.96 262.956ZM304.613 261.726C304.613 251.27 301.948 248.4 299.692 247.58L295.387 249.015C292.927 252.91 291.832 260.555 292.927 266.031C294.772 275.256 304.613 273.667 304.613 261.726Z" fill="white"/>
<path d="M230.194 247.58C233.064 247.99 237.575 250.655 236.96 262.956C236.217 277.813 225.178 275.814 224.044 267.876C222.814 259.266 223.429 254.345 227.119 248.624L230.194 247.58Z" fill="black"/>
<path d="M299.692 247.58C301.948 248.4 304.613 251.27 304.613 261.726C304.613 273.667 294.772 275.256 292.927 266.031C291.832 260.555 292.927 252.91 295.387 249.015L299.692 247.58Z" fill="black"/>
<path d="M208.053 190.555C199.033 185.987 182.468 172.301 188.372 154.096C194.277 135.891 203.953 170.817 208.053 190.555Z" fill="white"/>
<path d="M410.398 180.542C400.557 184.478 389.077 181.362 384.566 179.312L384.697 187.922C389.229 192.35 403.719 191.407 410.398 190.382V180.542Z" fill="#FF7A00"/>
<path d="M371.651 224.824C379.031 225.808 383.746 221.954 385.182 219.904C384.361 217.034 380.507 211.908 371.651 214.369C360.58 217.444 362.425 223.594 371.651 224.824Z" fill="#FF7A00"/>
<path d="M161.926 403.797C171.766 391.005 191.037 370.586 199.443 361.975C202.395 331.962 211.743 354.39 216.049 369.356C210.181 388.494 197.289 420.446 181.419 438.239M34 438.239H144.018M144.018 438.239C140.366 421.367 150.049 392.036 157.621 374.891C154.341 347.01 150.24 281.53 160.081 242.66C166.245 218.313 184.609 199.371 208.053 190.555M144.018 438.239C145.606 445.577 149.717 450.558 157.621 451.155C165.929 451.782 173.999 446.558 181.419 438.239M181.419 438.239H566M181.419 438.239H495.272C401.33 399.649 363.716 326.718 335.299 270.336M182.222 333.069C185.707 321.794 202.641 311.789 242.495 361.975M197.598 258.651L227.119 248.624M227.119 248.624L230.194 247.58C233.064 247.99 237.575 250.655 236.96 262.956C236.217 277.813 225.178 275.814 224.044 267.876C222.814 259.266 223.429 254.345 227.119 248.624ZM272.016 256.805L295.387 249.015M295.387 249.015L299.692 247.58C301.948 248.4 304.613 251.27 304.613 261.726C304.613 273.667 294.772 275.256 292.927 266.031C291.832 260.555 292.927 252.91 295.387 249.015ZM208.053 190.555C231.395 181.777 259.774 183.037 286.162 198.993C305.532 210.705 318.88 237.758 335.299 270.336M208.053 190.555C199.033 185.987 182.468 172.301 188.372 154.096C194.277 135.891 203.953 170.817 208.053 190.555ZM310.148 289.402C311.335 283.252 318.027 270.828 335.299 270.336M335.299 270.336C345.776 271.156 369.191 267.753 379.031 247.58M385.182 219.904C383.746 221.954 379.031 225.808 371.651 224.824C362.425 223.594 360.58 217.444 371.651 214.369C380.507 211.908 384.361 217.034 385.182 219.904ZM385.182 219.904L384.697 187.922M384.697 187.922L384.566 179.312C389.077 181.362 400.557 184.478 410.398 180.542V190.382C403.719 191.407 389.229 192.35 384.697 187.922Z" stroke="black" stroke-width="2"/>
<path fill-rule="evenodd" clip-rule="evenodd" d="M160.081 242.66C150.24 281.53 154.341 347.01 157.621 374.891C150.049 392.036 140.366 421.367 144.018 438.239C145.606 445.577 149.717 450.558 157.621 451.155C165.929 451.782 173.999 446.558 181.419 438.239H495.272C401.33 399.649 363.716 326.718 335.299 270.336C318.88 237.758 305.532 210.705 286.162 198.993C259.774 183.037 231.395 181.777 208.053 190.555C184.609 199.371 166.245 218.313 160.081 242.66ZM236.96 262.956C237.575 250.655 233.064 247.99 230.194 247.58L227.119 248.624C223.429 254.345 222.814 259.266 224.044 267.876C225.178 275.814 236.217 277.813 236.96 262.956ZM304.613 261.726C304.613 251.27 301.948 248.4 299.692 247.58L295.387 249.015C292.927 252.91 291.832 260.555 292.927 266.031C294.772 275.256 304.613 273.667 304.613 261.726Z" fill="white"/>
<path d="M230.194 247.58C233.064 247.99 237.575 250.655 236.96 262.956C236.217 277.813 225.178 275.814 224.044 267.876C222.814 259.266 223.429 254.345 227.119 248.624L230.194 247.58Z" fill="black"/>
<path d="M299.692 247.58C301.948 248.4 304.613 251.27 304.613 261.726C304.613 273.667 294.772 275.256 292.927 266.031C291.832 260.555 292.927 252.91 295.387 249.015L299.692 247.58Z" fill="black"/>
<path d="M208.053 190.555C199.033 185.987 182.468 172.301 188.372 154.096C194.277 135.891 203.953 170.817 208.053 190.555Z" fill="white"/>
<path d="M410.398 180.542C400.557 184.478 389.077 181.362 384.566 179.312L384.697 187.922C389.229 192.35 403.719 191.407 410.398 190.382V180.542Z" fill="#FF7A00"/>
<path d="M371.651 224.824C379.031 225.808 383.746 221.954 385.182 219.904C384.361 217.034 380.507 211.908 371.651 214.369C360.58 217.444 362.425 223.594 371.651 224.824Z" fill="#FF7A00"/>
<path d="M161.926 403.797C171.766 391.005 191.037 370.586 199.443 361.975C202.395 331.962 211.743 354.39 216.049 369.356C210.181 388.494 197.289 420.446 181.419 438.239M34 438.239H144.018M144.018 438.239C140.366 421.367 150.049 392.036 157.621 374.891C154.341 347.01 150.24 281.53 160.081 242.66C166.245 218.313 184.609 199.371 208.053 190.555M144.018 438.239C145.606 445.577 149.717 450.558 157.621 451.155C165.929 451.782 173.999 446.558 181.419 438.239M181.419 438.239H566M181.419 438.239H495.272C401.33 399.649 363.716 326.718 335.299 270.336M182.222 333.069C185.707 321.794 202.641 311.789 242.495 361.975M197.598 258.651L227.119 248.624M227.119 248.624L230.194 247.58C233.064 247.99 237.575 250.655 236.96 262.956C236.217 277.813 225.178 275.814 224.044 267.876C222.814 259.266 223.429 254.345 227.119 248.624ZM272.016 256.805L295.387 249.015M295.387 249.015L299.692 247.58C301.948 248.4 304.613 251.27 304.613 261.726C304.613 273.667 294.772 275.256 292.927 266.031C291.832 260.555 292.927 252.91 295.387 249.015ZM208.053 190.555C231.395 181.777 259.774 183.037 286.162 198.993C305.532 210.705 318.88 237.758 335.299 270.336M208.053 190.555C199.033 185.987 182.468 172.301 188.372 154.096C194.277 135.891 203.953 170.817 208.053 190.555ZM310.148 289.402C311.335 283.252 318.027 270.828 335.299 270.336M335.299 270.336C345.776 271.156 369.191 267.753 379.031 247.58M385.182 219.904C383.746 221.954 379.031 225.808 371.651 224.824C362.425 223.594 360.58 217.444 371.651 214.369C380.507 211.908 384.361 217.034 385.182 219.904ZM385.182 219.904L384.697 187.922M384.697 187.922L384.566 179.312C389.077 181.362 400.557 184.478 410.398 180.542V190.382C403.719 191.407 389.229 192.35 384.697 187.922Z" stroke="black" stroke-width="2"/>
<path fill-rule="evenodd" clip-rule="evenodd" d="M160.081 242.66C150.24 281.53 154.341 347.01 157.621 374.891C150.049 392.036 140.366 421.367 144.018 438.239C145.606 445.577 149.717 450.558 157.621 451.155C165.929 451.782 173.999 446.558 181.419 438.239H495.272C401.33 399.649 363.716 326.718 335.299 270.336C318.88 237.758 305.532 210.705 286.162 198.993C259.774 183.037 231.395 181.777 208.053 190.555C184.609 199.371 166.245 218.313 160.081 242.66ZM236.96 262.956C237.575 250.655 233.064 247.99 230.194 247.58L227.119 248.624C223.429 254.345 222.814 259.266 224.044 267.876C225.178 275.814 236.217 277.813 236.96 262.956ZM304.613 261.726C304.613 251.27 301.948 248.4 299.692 247.58L295.387 249.015C292.927 252.91 291.832 260.555 292.927 266.031C294.772 275.256 304.613 273.667 304.613 261.726Z" fill="white"/>
<path d="M230.194 247.58C233.064 247.99 237.575 250.655 236.96 262.956C236.217 277.813 225.178 275.814 224.044 267.876C222.814 259.266 223.429 254.345 227.119 248.624L230.194 247.58Z" fill="black"/>
<path d="M299.692 247.58C301.948 248.4 304.613 251.27 304.613 261.726C304.613 273.667 294.772 275.256 292.927 266.031C291.832 260.555 292.927 252.91 295.387 249.015L299.692 247.58Z" fill="black"/>
<path d="M208.053 190.555C199.033 185.987 182.468 172.301 188.372 154.096C194.277 135.891 203.953 170.817 208.053 190.555Z" fill="white"/>
<path d="M410.398 180.542C400.557 184.478 389.077 181.362 384.566 179.312L384.697 187.922C389.229 192.35 403.719 191.407 410.398 190.382V180.542Z" fill="#FF7A00"/>
<path d="M371.651 224.824C379.031 225.808 383.746 221.954 385.182 219.904C384.361 217.034 380.507 211.908 371.651 214.369C360.58 217.444 362.425 223.594 371.651 224.824Z" fill="#FF7A00"/>
<path d="M161.926 403.797C171.766 391.005 191.037 370.586 199.443 361.975C202.395 331.962 211.743 354.39 216.049 369.356C210.181 388.494 197.289 420.446 181.419 438.239M34 438.239H144.018M144.018 438.239C140.366 421.367 150.049 392.036 157.621 374.891C154.341 347.01 150.24 281.53 160.081 242.66C166.245 218.313 184.609 199.371 208.053 190.555M144.018 438.239C145.606 445.577 149.717 450.558 157.621 451.155C165.929 451.782 173.999 446.558 181.419 438.239M181.419 438.239H566M181.419 438.239H495.272C401.33 399.649 363.716 326.718 335.299 270.336M182.222 333.069C185.707 321.794 202.641 311.789 242.495 361.975M197.598 258.651L227.119 248.624M227.119 248.624L230.194 247.58C233.064 247.99 237.575 250.655 236.96 262.956C236.217 277.813 225.178 275.814 224.044 267.876C222.814 259.266 223.429 254.345 227.119 248.624ZM272.016 256.805L295.387 249.015M295.387 249.015L299.692 247.58C301.948 248.4 304.613 251.27 304.613 261.726C304.613 273.667 294.772 275.256 292.927 266.031C291.832 260.555 292.927 252.91 295.387 249.015ZM208.053 190.555C231.395 181.777 259.774 183.037 286.162 198.993C305.532 210.705 318.88 237.758 335.299 270.336M208.053 190.555C199.033 185.987 182.468 172.301 188.372 154.096C194.277 135.891 203.953 170.817 208.053 190.555ZM310.148 289.402C311.335 283.252 318.027 270.828 335.299 270.336M335.299 270.336C345.776 271.156 369.191 267.753 379.031 247.58M385.182 219.904C383.746 221.954 379.031 225.808 371.651 224.824C362.425 223.594 360.58 217.444 371.651 214.369C380.507 211.908 384.361 217.034 385.182 219.904ZM385.182 219.904L384.697 187.922M384.697 187.922L384.566 179.312C389.077 181.362 400.557 184.478 410.398 180.542V190.382C403.719 191.407 389.229 192.35 384.697 187.922Z" stroke="black" stroke-width="2"/>
<path d="M269.556 279.804C269.064 286.2 263.61 297.23 260.945 301.945L277.551 316.706C283.086 317.321 293.542 310.556 288.622 303.175C284.685 297.271 278.371 299.895 275.706 301.945C290.467 288.415 270.171 271.809 269.556 279.804Z" fill="#FF7A00" stroke="black" stroke-width="2"/>
<rect x="260.819" y="303.462" width="3.76282" height="20.9248" transform="rotate(-48.342 260.819 303.462)" fill="#FF7A00"/>
</svg>
