<svg width="600" height="600" viewBox="0 0 600 600" fill="none" xmlns="http://www.w3.org/2000/svg">
<g clip-path="url(#clip0_567_3868)">
<circle cx="299.5" cy="299.5" r="300.5" fill="#EEEEEE"/>
<path d="M132.702 442.699C120.262 440.629 94.7589 438.042 92.2708 444.252C89.1607 452.014 114.041 452.014 105.489 466.762C96.9359 481.511 129.592 459 135.035 474.525C140.477 490.049 138.922 454.343 132.702 442.699Z" fill="#FF7A00"/>
<path d="M229.115 499.364C222.895 499.105 207.344 501.227 194.904 511.784C179.353 524.98 215.897 506.35 213.564 523.428C211.232 540.505 227.56 517.994 240 531.19C252.441 544.386 237.668 507.258 229.115 499.364Z" fill="#FF7A00"/>
<path d="M281.986 208.276C273.693 215.004 258.039 230.166 261.771 236.997C266.436 245.535 296.759 236.997 331.748 247.864C366.736 258.731 291.371 199.738 281.986 208.276Z" fill="#FF7A00"/>
<path fill-rule="evenodd" clip-rule="evenodd" d="M394.727 157.821C388.507 150.835 353.518 142.296 347.298 175.674C340.056 214.535 390.84 216.815 400.947 196.633C410.278 178.003 400.947 164.807 394.727 157.821ZM369.069 187.318C363.471 181.729 369.069 173.346 374.512 174.122C379.954 174.898 381.509 180.206 381.509 182.66C381.509 186.542 374.667 192.907 369.069 187.318Z" fill="white"/>
<path fill-rule="evenodd" clip-rule="evenodd" d="M280.431 150.835C276.699 146.177 253.685 136.552 243.11 166.36C229.892 203.619 273.434 205.948 283.541 185.765C291.705 169.464 284.163 155.492 280.431 150.835ZM260.993 177.227C257.307 171.339 261.771 167.33 265.658 166.36C271.879 164.807 273.338 171.494 272.656 174.898C271.879 178.779 264.881 183.437 260.993 177.227Z" fill="white"/>
<path d="M265.658 166.36C261.771 167.33 257.307 171.339 260.993 177.227C264.881 183.437 271.879 178.779 272.656 174.898C273.338 171.494 271.879 164.807 265.658 166.36Z" fill="black"/>
<path d="M374.512 174.122C369.069 173.346 363.471 181.729 369.069 187.318C374.667 192.907 381.509 186.542 381.509 182.66C381.509 180.206 379.954 174.898 374.512 174.122Z" fill="black"/>
<path fill-rule="evenodd" clip-rule="evenodd" d="M336.413 497.036C418.83 483.84 491.14 377.495 473.257 261.06C458.922 167.723 414.108 100.324 349.631 94.0501C333.675 92.4976 316.515 94.6884 298.314 101.156C232.225 124.64 209.677 209.118 209.677 282.018C155.25 300.648 123.667 336.766 131.147 393.02C133.164 408.189 138.157 421.617 145.464 433.384C163.558 462.526 195.838 481.481 232.225 491.47C266.105 500.771 303.547 502.298 336.413 497.036ZM261.771 236.997C258.039 230.166 273.693 215.004 281.986 208.276C291.371 199.738 366.736 258.731 331.748 247.864C296.759 236.997 266.436 245.535 261.771 236.997ZM243.11 166.36C253.685 136.552 276.699 146.177 280.431 150.835C284.163 155.492 291.705 169.464 283.541 185.765C273.434 205.948 229.892 203.619 243.11 166.36ZM347.298 175.674C353.518 142.296 388.507 150.835 394.727 157.821C400.947 164.807 410.278 178.003 400.947 196.633C390.84 216.815 340.056 214.535 347.298 175.674Z" fill="#F8A4A4"/>
<path d="M349.631 94.0501C349.372 85.8101 351.963 68.554 364.404 65.449C379.954 61.5679 379.177 83.8394 349.631 94.0501Z" fill="#F8A4A4"/>
<path d="M239.223 282.018C229.892 280.466 222.117 280.466 209.677 282.018M209.677 282.018C155.25 300.648 123.667 336.766 131.147 393.02C133.164 408.189 138.157 421.617 145.464 433.384M209.677 282.018C209.677 209.118 232.225 124.64 298.314 101.156C316.515 94.6884 333.675 92.4976 349.631 94.0501M402.502 310.739C391.358 326.523 374.552 362.747 381.509 370.509C387.77 377.495 412.61 356.537 421.163 341.012M349.631 94.0501C414.108 100.324 458.922 167.723 473.257 261.06C491.14 377.495 418.83 483.84 336.413 497.036C303.547 502.298 266.105 500.771 232.225 491.47M349.631 94.0501C349.372 85.8101 351.963 68.554 364.404 65.449C379.954 61.5679 379.177 83.8394 349.631 94.0501ZM167.691 419.412L145.464 433.384M145.464 433.384L132.702 442.699M145.464 433.384C163.558 462.526 195.838 481.481 232.225 491.47M132.702 442.699C120.262 440.629 94.7589 438.042 92.2708 444.252C89.1607 452.014 114.041 452.014 105.489 466.762C96.9359 481.511 129.592 459 135.035 474.525C140.477 490.049 138.922 454.343 132.702 442.699ZM232.225 491.47C235.853 482.976 245.598 463.657 255.551 454.343M232.225 491.47L229.115 499.364M229.115 499.364C222.895 499.105 207.344 501.227 194.904 511.784C179.353 524.98 215.897 506.35 213.564 523.428C211.232 540.505 227.56 517.994 240 531.19C252.441 544.386 237.668 507.258 229.115 499.364ZM281.986 208.276C273.693 215.004 258.039 230.166 261.771 236.997C266.436 245.535 296.759 236.997 331.748 247.864C366.736 258.731 291.371 199.738 281.986 208.276ZM280.431 150.835C276.699 146.177 253.685 136.552 243.11 166.36C229.892 203.619 273.434 205.948 283.541 185.765C291.705 169.464 284.163 155.492 280.431 150.835ZM394.727 157.821C388.507 150.835 353.518 142.296 347.298 175.674C340.056 214.535 390.84 216.815 400.947 196.633C410.278 178.003 400.947 164.807 394.727 157.821ZM265.658 166.36C261.771 167.33 257.307 171.339 260.993 177.227C264.881 183.437 271.879 178.779 272.656 174.898C273.338 171.494 271.879 164.807 265.658 166.36ZM374.512 174.122C369.069 173.346 363.471 181.729 369.069 187.318C374.667 192.907 381.509 186.542 381.509 182.66C381.509 180.206 379.954 174.898 374.512 174.122Z" stroke="black" stroke-width="5"/>
</g>
<defs>
<clipPath id="clip0_567_3868">
<rect width="600" height="600" fill="white"/>
</clipPath>
</defs>
</svg>
