<svg width="600" height="600" viewBox="0 0 600 600" fill="none" xmlns="http://www.w3.org/2000/svg">
<path fill-rule="evenodd" clip-rule="evenodd" d="M329.226 477.661C403.488 465.759 468.642 369.845 452.528 264.83C439.612 180.648 399.233 119.859 341.136 114.201C326.759 112.801 311.297 114.777 294.898 120.61C235.348 141.791 215.032 217.982 215.032 283.733C165.991 300.536 137.533 333.111 144.273 383.847C146.09 397.529 150.59 409.64 157.173 420.253C173.477 446.536 202.562 463.632 235.349 472.642C265.876 481.03 299.612 482.407 329.226 477.661ZM261.971 243.127C258.608 236.966 272.713 223.291 280.186 217.224C288.641 209.522 356.549 262.73 325.023 252.929C293.497 243.127 266.174 250.828 261.971 243.127ZM245.157 179.418C254.685 152.534 275.422 161.215 278.784 165.416C282.147 169.617 288.943 182.218 281.587 196.921C272.479 215.123 233.247 213.023 245.157 179.418ZM339.034 187.819C344.639 157.715 376.165 165.416 381.77 171.717C387.374 178.018 395.781 189.92 387.374 206.722C378.267 224.925 332.509 222.868 339.034 187.819Z" fill="white"/>
<path d="M341.136 114.201C340.903 106.769 343.238 91.2054 354.447 88.405C368.459 84.9045 367.758 104.992 341.136 114.201Z" fill="white"/>
<path d="M145.674 428.654C134.465 426.787 111.486 424.453 109.244 430.054C106.442 437.055 128.86 437.055 121.154 450.357C113.447 463.659 142.872 443.356 147.776 457.358C152.68 471.36 151.279 439.156 145.674 428.654Z" fill="#FF7A00"/>
<path d="M232.546 479.761C226.942 479.528 212.93 481.442 201.721 490.963C187.709 502.865 220.636 486.062 218.535 501.464C216.433 516.867 231.145 496.564 242.354 508.466C253.564 520.367 240.253 486.881 232.546 479.761Z" fill="#FF7A00"/>
<path d="M280.186 217.224C272.713 223.291 258.608 236.966 261.971 243.127C266.174 250.828 293.497 243.127 325.023 252.929C356.549 262.73 288.641 209.522 280.186 217.224Z" fill="#FF7A00"/>
<path fill-rule="evenodd" clip-rule="evenodd" d="M381.77 171.717C376.165 165.416 344.639 157.715 339.034 187.819C332.509 222.868 378.267 224.925 387.374 206.722C395.781 189.92 387.374 178.018 381.77 171.717ZM358.651 198.321C353.606 193.28 358.651 185.719 363.555 186.419C368.459 187.119 369.86 191.906 369.86 194.12C369.86 197.621 363.695 203.362 358.651 198.321Z" fill="white"/>
<path fill-rule="evenodd" clip-rule="evenodd" d="M278.784 165.416C275.422 161.215 254.685 152.534 245.157 179.418C233.247 213.023 272.479 215.123 281.587 196.921C288.943 182.218 282.147 169.617 278.784 165.416ZM261.27 189.22C257.949 183.909 261.971 180.293 265.473 179.418C271.078 178.018 272.393 184.049 271.779 187.119C271.078 190.62 264.773 194.82 261.27 189.22Z" fill="white"/>
<path d="M265.473 179.418C261.971 180.293 257.949 183.909 261.27 189.22C264.773 194.82 271.078 190.62 271.779 187.119C272.393 184.049 271.078 178.018 265.473 179.418Z" fill="black"/>
<path d="M363.555 186.419C358.651 185.719 353.606 193.28 358.651 198.321C363.695 203.362 369.86 197.621 369.86 194.12C369.86 191.906 368.459 187.119 363.555 186.419Z" fill="black"/>
<path d="M241.654 283.733C233.247 282.333 226.241 282.333 215.032 283.733M215.032 283.733C165.991 300.536 137.533 333.111 144.273 383.847C146.09 397.529 150.59 409.64 157.173 420.253M215.032 283.733C215.032 217.982 235.348 141.791 294.898 120.61C311.297 114.777 326.759 112.801 341.136 114.201M388.776 309.637C378.734 323.872 363.592 356.544 369.86 363.545C375.501 369.846 397.883 350.943 405.59 336.941M341.136 114.201C399.233 119.859 439.612 180.648 452.528 264.83C468.642 369.845 403.488 465.759 329.226 477.661C299.612 482.407 265.876 481.03 235.349 472.642M341.136 114.201C340.903 106.769 343.238 91.2054 354.447 88.405C368.459 84.9045 367.758 104.992 341.136 114.201ZM177.2 407.651L157.173 420.253M157.173 420.253L145.674 428.654M157.173 420.253C173.477 446.536 202.562 463.632 235.349 472.642M145.674 428.654C134.465 426.787 111.486 424.453 109.244 430.054C106.442 437.055 128.86 437.055 121.154 450.357C113.447 463.659 142.872 443.356 147.776 457.358C152.68 471.36 151.279 439.156 145.674 428.654ZM235.349 472.642C238.618 464.98 247.399 447.557 256.366 439.156M235.349 472.642L232.546 479.761M232.546 479.761C226.942 479.528 212.93 481.442 201.721 490.963C187.709 502.865 220.636 486.062 218.535 501.464C216.433 516.867 231.145 496.564 242.354 508.466C253.564 520.367 240.253 486.881 232.546 479.761ZM280.186 217.224C272.713 223.291 258.608 236.966 261.971 243.127C266.174 250.828 293.497 243.127 325.023 252.929C356.549 262.73 288.641 209.522 280.186 217.224ZM278.784 165.416C275.422 161.215 254.685 152.534 245.157 179.418C233.247 213.023 272.479 215.123 281.587 196.921C288.943 182.218 282.147 169.617 278.784 165.416ZM381.77 171.717C376.165 165.416 344.639 157.715 339.034 187.819C332.509 222.868 378.267 224.925 387.374 206.722C395.781 189.92 387.374 178.018 381.77 171.717ZM265.473 179.418C261.971 180.293 257.949 183.909 261.27 189.22C264.773 194.82 271.078 190.62 271.779 187.119C272.393 184.049 271.078 178.018 265.473 179.418ZM363.555 186.419C358.651 185.719 353.606 193.28 358.651 198.321C363.695 203.362 369.86 197.621 369.86 194.12C369.86 191.906 368.459 187.119 363.555 186.419Z" stroke="black" stroke-width="2"/>
</svg>
