<svg width="600" height="600" viewBox="0 0 600 600" fill="none" xmlns="http://www.w3.org/2000/svg">
<g clip-path="url(#clip0_567_3870)">
<circle cx="299.5" cy="299.5" r="300.5" fill="#EEEEEE"/>
<path fill-rule="evenodd" clip-rule="evenodd" d="M15 440H581.444C586.689 427.057 587.368 395.069 548.124 370.663C499.069 340.154 533.315 336.456 512.027 299.476C490.739 262.496 468.525 300.401 453.716 246.78C438.907 193.159 420.396 107.18 346.351 109.029C272.306 110.878 262.125 158.028 218.624 222.743C175.122 287.458 121.44 282.835 99.2262 315.193C77.0127 347.55 108.482 374.361 79.7893 391.002C51.0969 407.643 15 415.039 15 440ZM367.639 276.364C358.013 277.103 332.776 268.66 321.361 264.345C329.506 246.595 352.522 247.088 363.011 249.553C380.597 239.384 411.141 252.327 405.587 257.874C400.034 263.421 379.671 275.439 367.639 276.364ZM287.115 159.877C275.391 172.82 253.61 202.589 260.274 218.12C268.604 237.535 285.268 194.083 287.115 159.877ZM331.542 207.026C324.138 208.505 325.182 196.549 326.63 190.385C328.248 189.208 329.896 187.926 331.542 186.54C336.455 185.469 340.798 205.177 331.542 207.026ZM396.332 205.177C391.148 200.74 392.938 192.296 394.48 188.629C396.751 190.487 399.351 192.33 402.31 194.083C405.512 197.781 402.811 210.724 396.332 205.177Z" fill="#F8A7E1"/>
<path d="M321.361 264.345C332.776 268.66 358.013 277.103 367.639 276.364C379.671 275.439 400.034 263.421 405.587 257.874C411.141 252.327 380.597 239.384 363.011 249.553C352.522 247.088 329.506 246.595 321.361 264.345Z" fill="#FF7A00"/>
<path d="M287.115 159.877C275.391 172.82 253.61 202.589 260.274 218.12C268.604 237.535 285.268 194.083 287.115 159.877Z" fill="#64DAFF"/>
<path d="M326.63 190.385C325.182 196.549 324.138 208.505 331.542 207.026C340.798 205.177 336.455 185.469 331.542 186.54C329.896 187.926 328.248 189.208 326.63 190.385Z" fill="black"/>
<path d="M394.48 188.629C392.938 192.296 391.148 200.74 396.332 205.177C402.811 210.724 405.512 197.781 402.31 194.083C399.351 192.33 396.751 190.487 394.48 188.629Z" fill="black"/>
<path d="M218.624 327.211C214.613 344.468 208.998 378.243 218.624 375.285C228.25 372.327 241.146 345.085 246.391 331.834M462.972 324.438C467.6 332.758 478.151 349.399 483.334 349.399C489.813 349.399 495.367 334.607 490.739 317.042M310.254 199.63C313.904 198.263 320.028 195.189 326.63 190.385M346.351 170.046C342.061 176.616 336.805 182.111 331.542 186.54M381.523 171.895C382.668 175.518 386.578 182.163 394.48 188.629M413.917 199.63C409.55 197.975 405.695 196.089 402.31 194.083M326.63 190.385C325.182 196.549 324.138 208.505 331.542 207.026C340.798 205.177 336.455 185.469 331.542 186.54M326.63 190.385C328.248 189.208 329.896 187.926 331.542 186.54M394.48 188.629C392.938 192.296 391.148 200.74 396.332 205.177C402.811 210.724 405.512 197.781 402.31 194.083M394.48 188.629C396.751 190.487 399.351 192.33 402.31 194.083M15 440H581.444C586.689 427.057 587.368 395.069 548.124 370.663C499.069 340.154 533.315 336.456 512.027 299.476C490.739 262.496 468.525 300.401 453.716 246.78C438.907 193.159 420.396 107.18 346.351 109.029C272.306 110.878 262.125 158.028 218.624 222.743C175.122 287.458 121.44 282.835 99.2262 315.193C77.0127 347.55 108.482 374.361 79.7893 391.002C51.0969 407.643 15 415.039 15 440ZM321.361 264.345C332.776 268.66 358.013 277.103 367.639 276.364C379.671 275.439 400.034 263.421 405.587 257.874C411.141 252.327 380.597 239.384 363.011 249.553C352.522 247.088 329.506 246.595 321.361 264.345ZM287.115 159.877C275.391 172.82 253.61 202.589 260.274 218.12C268.604 237.535 285.268 194.083 287.115 159.877Z" stroke="black" stroke-width="5"/>
</g>
<defs>
<clipPath id="clip0_567_3870">
<rect width="600" height="600" fill="white"/>
</clipPath>
</defs>
</svg>
