<svg width="764" height="764" viewBox="0 0 764 764" fill="none" xmlns="http://www.w3.org/2000/svg">
<circle cx="382" cy="382" r="382" fill="#D9D9D9"/>
<circle cx="381.5" cy="382.5" r="341" stroke="black" stroke-width="5"/>
<path d="M196.938 491.207C153.505 520.031 120.885 556.892 107.467 580.347C106.539 581.969 106.67 583.977 107.747 585.504C163.82 664.975 250.676 701.923 287.438 710.5M196.938 491.207C218.938 501.716 252.438 533.242 252.438 586.234C252.438 657.234 272.438 690.5 287.438 710.5M196.938 491.207C205.505 485.522 214.67 480.032 224.438 474.856M287.438 710.5C387 737 460.959 716.156 495 704M495 704C451.667 693.5 385.238 667.834 362.438 600.234C333.938 515.734 269.938 480.478 224.438 474.856M495 704C528.592 693.297 607.674 653.959 658.175 581.647C659.294 580.044 659.359 577.927 658.32 576.271C641.412 549.34 608.31 511.934 556.631 481.234C536.736 468.247 508.879 457.321 497.438 453.482C462.238 441.065 422.119 433.729 377.438 435.234C315.907 437.306 264.985 453.37 224.438 474.856M310.938 623.234C297.238 614.622 302.849 595.733 307.625 586.806C307.832 586.421 308.118 586.042 308.435 585.742C324.517 570.542 328.261 634.122 310.938 623.234ZM284.125 627.806C279.349 636.733 277.938 655.734 287.438 664.234C302.686 677.877 301.017 611.542 284.935 626.742C284.618 627.042 284.332 627.421 284.125 627.806ZM345.248 621.234C340.472 630.161 337.23 660.127 350.748 651.234C369.748 638.734 362.139 604.97 346.058 620.17C345.74 620.47 345.454 620.848 345.248 621.234Z" stroke="black" stroke-width="5"/>
<path d="M586.733 478.513C582.977 476.521 580.374 472.784 579.5 471C583.009 470.667 590.926 469 594.514 465C595.343 468.52 598.5 476.654 604.5 481.03C601.5 482 596.912 481.403 594.514 481.03M586.733 478.513C583.448 482.862 576.77 491.856 576.338 493.045L590.5 503.5C589.354 501.468 592.157 489.97 594.514 481.03M586.733 478.513C588.829 479.625 591.409 480.547 594.514 481.03M613.5 523C615.877 515.228 621.701 502.034 628 491C632.5 491 641 486.5 645 483.5C639.868 494.532 627.974 519.406 627.5 537L613.5 523Z" stroke="black" stroke-width="5"/>
<path d="M416.438 552.45C410.876 558.156 403.388 562.914 400.438 562.233C399.089 561.922 397.936 560.426 397.098 558.234M416.438 552.45C419.056 549.765 421.247 546.87 422.339 544.233M416.438 552.45C417.074 555.68 418.917 560.788 422.339 565.027M422.339 544.233C423.016 542.596 423.27 541.059 422.938 539.733C422.588 538.332 420.888 536.134 418.419 534.234M422.339 544.233C424.822 543.816 426.828 544.138 428.438 544.927M459.438 543.471C464.012 544.662 468.277 548.058 471.938 553.733C472.614 554.781 473.094 555.78 473.396 556.733M459.438 543.471C456.105 529.058 456.438 502.234 462.938 486.234C471.295 465.663 483.438 452.734 513.938 452.234C544.438 451.734 551.302 463.428 560.938 493.234C568.859 517.734 528.517 556.233 506.517 557.233C505.658 557.272 504.812 557.309 503.981 557.344M459.438 543.471C458.614 543.256 457.78 543.113 456.938 543.042M473.396 556.733C477.076 552.058 485.538 542.861 489.938 543.471C493.114 543.911 498.789 550.764 503.981 557.344M473.396 556.733C474.044 558.779 473.874 560.609 473.075 562.233M469.938 521.234C473.772 521.567 483.638 524.234 492.438 532.234C501.238 540.234 508.105 541.234 510.438 540.734M466.938 493.234C471.605 491.234 482.238 488.434 487.438 493.234C493.938 499.234 504.438 495.734 507.438 499.734C510.438 503.734 515.438 518.234 529.938 519.734M492.438 467.734C494.272 468.234 499.838 470.634 507.438 476.234C516.938 483.234 527.438 475.734 533.938 487.734C540.438 499.734 540.438 493.234 546.938 503.734M402.441 532.234C401.764 532.648 401.095 533.145 400.438 533.733C395.797 538.993 394.909 548.197 396.138 554.734M402.441 532.234C399.94 526.734 396.838 512.534 404.438 499.734C403.438 509.552 402.738 529.454 407.938 530.516M402.441 532.234C404.248 531.126 406.109 530.607 407.938 530.516M407.938 530.516C410.521 530.387 413.041 531.11 415.258 532.234M415.258 532.234C418.651 526.567 424.938 513.034 422.938 504.234C425.426 509.9 428.004 523.834 418.419 534.234M415.258 532.234C416.403 532.814 417.468 533.502 418.419 534.234M397.098 558.234C395.711 560.4 393.438 566.233 395.438 572.233C397.938 579.734 385.838 558.734 396.138 554.734M397.098 558.234C396.704 557.204 396.38 556.02 396.138 554.734M406.938 560.734C407.104 563.233 406.936 569.033 404.938 572.233C402.441 576.234 412.938 567.233 409.938 556.733M473.075 562.233C475.158 561 478.244 559.23 481.229 557.625M473.075 562.233C472.411 563.58 471.315 564.785 469.893 565.855M456.938 543.042C454.772 536.606 449.538 523.734 445.938 523.734C442.338 523.734 432.772 537.863 428.438 544.927M456.938 543.042C454.815 542.861 452.639 543.132 450.438 543.848M428.438 544.927C428.79 545.1 429.123 545.295 429.438 545.509M429.438 545.509C433.209 548.075 434.393 553.436 434.438 556.733C439.659 549.906 445.122 545.578 450.438 543.848M429.438 545.509C434.105 540.25 443.938 530.533 445.938 533.733C447.938 536.934 449.772 541.81 450.438 543.848M448.438 560.734C453.272 558.567 463.538 555.034 465.938 558.234C467.322 560.078 468.493 562.668 469.893 565.855M448.438 568.734C458.669 566.176 461.954 567.333 463.435 569.176M422.339 565.027C419.872 565.763 414.338 568.434 411.938 573.234C408.938 579.234 407.438 592.234 405.938 598.234C404.438 604.234 408.619 593.234 411.938 586.734C415.258 580.234 415.177 570.734 427.557 569.734M422.339 565.027C423.786 566.821 425.517 568.459 427.557 569.734M427.557 569.734C429.547 570.976 431.832 571.874 434.438 572.233C441.983 573.274 454.537 572.419 463.435 569.176M495.625 557.629C502.401 563.283 512.812 573.399 514.938 576.234C517.938 580.234 526.938 601.234 528.438 602.234C529.938 603.234 518.438 573.234 513.438 568.734C511.325 566.832 507.783 562.161 503.981 557.344M495.625 557.629C492.839 555.304 490.667 553.733 489.938 553.733C488.809 553.733 485.103 555.541 481.229 557.625M495.625 557.629C489.809 557.777 484.982 557.778 481.229 557.625M463.435 569.176C464.559 570.576 464.643 572.37 465.938 573.234C468.938 575.234 478.938 594.734 482.438 605.234C485.238 613.634 485.938 612.067 485.938 610.234C484.605 603.067 480.838 586.834 476.438 579.234C473.475 574.116 471.528 569.578 469.893 565.855" stroke="black" stroke-width="5"/>
<path d="M336.938 463.091C332.898 462.761 329.231 463.999 329.438 467.734C329.938 476.734 334.438 479.534 335.438 479.734C336.092 479.865 338.673 479.182 341.64 476.734M336.938 463.091C336.938 461.139 336.038 456.434 332.438 453.234M336.938 463.091C338.273 463.2 339.648 463.481 340.938 463.898M340.938 463.898C345.153 465.264 348.454 468.098 346.438 471.234C345.948 471.997 345.445 472.697 344.938 473.338M340.938 463.898C342.938 462.01 347.238 456.734 348.438 450.734M341.64 476.734C342.713 475.848 343.837 474.731 344.938 473.338M341.64 476.734C341.206 478.21 341.005 480.558 342.067 482.234M346.438 484.234C347.854 484.234 349.004 484.049 349.938 483.743M346.438 484.234C344.145 484.234 342.802 483.395 342.067 482.234M346.438 484.234L345.938 498.734M353.938 478.234C353.938 476.734 353.438 471.943 344.938 473.338M353.938 478.234C359.605 477.234 371.638 475.734 374.438 477.734C376.861 479.464 374.492 484.788 370.317 488.234M353.938 478.234C353.938 479.43 353.62 482.536 349.938 483.743M349.938 483.743C352.105 486.573 357.938 492.034 363.938 491.234C364.023 491.222 364.109 491.21 364.194 491.196M342.067 482.234L333.938 496.234M364.194 491.196L367.438 501.234M364.194 491.196C366.41 490.84 368.529 489.709 370.317 488.234M370.317 488.234L377.938 497.734" stroke="black" stroke-width="5"/>
<path d="M528.508 622.358C524.468 622.027 520.801 623.265 521.008 627C521.508 636 526.008 638.8 527.008 639C527.663 639.131 530.243 638.448 533.21 636M528.508 622.358C528.508 620.405 527.608 615.7 524.008 612.5M528.508 622.358C529.843 622.467 531.219 622.747 532.508 623.165M532.508 623.165C536.723 624.53 540.024 627.365 538.008 630.5C537.518 631.263 537.016 631.963 536.508 632.604M532.508 623.165C534.508 621.276 538.808 616 540.008 610M533.21 636C534.283 635.114 535.407 633.997 536.508 632.604M533.21 636C532.777 637.476 532.576 639.825 533.637 641.5M538.008 643.5C539.425 643.5 540.575 643.316 541.508 643.01M538.008 643.5C535.715 643.5 534.373 642.662 533.637 641.5M538.008 643.5L537.508 658M545.508 637.5C545.508 636 545.008 631.209 536.508 632.604M545.508 637.5C551.175 636.5 563.208 635 566.008 637C568.431 638.731 566.062 644.055 561.887 647.5M545.508 637.5C545.508 638.697 545.19 641.802 541.508 643.01M541.508 643.01C543.675 645.84 549.508 651.3 555.508 650.5C555.594 650.489 555.679 650.476 555.764 650.462M533.637 641.5L525.508 655.5M555.764 650.462L559.008 660.5M555.764 650.462C557.98 650.106 560.099 648.975 561.887 647.5M561.887 647.5L569.508 657" stroke="black" stroke-width="5"/>
<path d="M169.839 555.728C170.858 556.553 171.052 563.113 170.316 564.022C169.581 564.93 168.158 564.998 167.139 564.173C166.119 563.348 165.926 556.787 166.662 555.879C167.397 554.97 168.82 554.903 169.839 555.728Z" fill="black"/>
<path d="M179.786 562.234C178.221 551.962 174.289 542.234 160.794 542.234C154.961 542.234 142.994 545.934 141.794 560.734C140.294 579.234 133.294 590.234 135.294 601.734C136.466 608.469 141.582 614.004 149.438 616.43C152.995 609.442 164.148 598.421 180.304 610.234C187.252 602.426 184.913 590.09 182.294 582.234C181.432 579.646 181.116 575.904 180.778 571.734M179.786 562.234C182.289 561.734 187.694 561.734 189.294 565.734C190.894 569.734 184.283 571.4 180.778 571.734M179.786 562.234C180.274 565.44 180.532 568.7 180.778 571.734M160.794 576.734C162.128 578.734 165.157 583.282 168.294 586.734C173.294 592.234 178.294 593.234 173.294 595.234C167.724 597.462 160.294 594.734 157.294 588.734" stroke="black" stroke-width="5"/>
<path d="M216.839 580.728C217.858 581.553 218.052 588.113 217.316 589.022C216.581 589.93 215.158 589.998 214.139 589.173C213.119 588.348 212.926 581.787 213.662 580.879C214.397 579.97 215.82 579.903 216.839 580.728Z" fill="black"/>
<path d="M226.786 587.234C225.221 576.962 221.289 567.234 207.794 567.234C201.961 567.234 189.994 570.934 188.794 585.734C187.892 596.87 184.164 605.788 182.438 613.234C184.076 616.812 186.541 626.287 187 636.5C191.144 640.224 198.22 642.771 205.794 642.752M226.786 587.234C229.289 586.734 234.694 586.734 236.294 590.734C237.894 594.734 231.283 596.4 227.778 596.734M226.786 587.234C227.274 590.44 227.532 593.7 227.778 596.734M227.778 596.734C228.116 600.904 228.432 604.646 229.294 607.234C232.794 617.734 235.794 636.234 216.794 641.234C212.876 642.265 209.192 642.743 205.794 642.752M207.794 601.734C209.128 603.734 212.157 608.282 215.294 611.734C220.294 617.234 225.294 618.234 220.294 620.234C214.724 622.462 207.294 619.734 204.294 613.734M205.794 642.752V650.234M205.794 650.234L201.294 651.234C206.461 652.067 216.994 653.234 217.794 651.234C218.594 649.234 210.128 649.734 205.794 650.234Z" stroke="black" stroke-width="5"/>
<path d="M175.983 618.728C177.002 619.553 177.195 626.113 176.46 627.022C175.724 627.93 174.302 627.998 173.282 627.173C172.263 626.348 172.07 619.787 172.805 618.879C173.541 617.97 174.963 617.903 175.983 618.728Z" fill="black"/>
<path d="M185.929 625.234C184.365 614.962 180.433 605.234 166.938 605.234C161.104 605.234 149.138 608.934 147.938 623.734C147.745 626.107 147.462 628.357 147.12 630.5C154.329 637.333 173.072 653.9 190.373 665.5C192.012 658.634 190.296 650.807 188.438 645.234C187.575 642.646 187.259 638.904 186.921 634.734M185.929 625.234C188.432 624.734 193.838 624.734 195.438 628.734C197.038 632.734 190.427 634.4 186.921 634.734M185.929 625.234C186.417 628.44 186.675 631.7 186.921 634.734" stroke="black" stroke-width="5"/>
<path d="M656.756 497.148C647.114 511.098 636.954 525.541 629.5 538.5L654.802 569.686C657.954 535.288 664.697 516.757 669.802 504.067M656.756 497.148C667.026 482.289 675.602 472.491 676.233 479.731C676.911 487.522 673.879 493.932 669.802 504.067M656.756 497.148C645.151 488.52 625.843 465.358 647.874 436.952C667.619 411.494 702.298 419.809 717.189 442C715.793 452.057 710.2 479.105 699 506.836C687.777 511.591 675.984 509.325 669.802 504.067" stroke="black" stroke-width="5"/>
<path d="M606.998 482.652C600.619 491.824 596.932 495.979 592 504.5L608 518.5C610.082 495.881 612.256 495.547 615.634 487.203M606.998 482.652C613.794 472.882 619.468 466.44 619.886 471.201C620.336 476.325 618.331 480.539 615.634 487.203M606.998 482.652C602.58 479.387 596.473 472.96 594.858 464.533M615.634 487.203C621.37 492.051 634.405 493.033 643.464 482.849M605.772 438.318C617.805 428.677 634.588 432.456 644.181 442.854" stroke="black" stroke-width="5"/>
<path d="M560.713 468.937C564.911 456.457 569.012 447.781 571.129 452.467C573.407 457.509 572.63 462.546 571.929 470.333M560.713 468.937C550.171 466.041 530.622 455.333 540.42 430.88C553.095 399.249 604.808 406.968 604.76 439.882C604.722 466.214 582.503 473.975 571.929 470.333M560.713 468.937C559.495 472.557 558.688 477.474 557.5 481.5L572.5 491C572.28 483.5 571.457 475.585 571.929 470.333" stroke="black" stroke-width="5"/>
<path d="M145.438 491.734C133.789 478.531 114.616 453.36 114.438 460.234C114.246 467.63 124.535 492 129.438 501.234M145.438 491.734C156.927 482.696 178.273 457.8 153.511 432.749C121.48 400.342 61.7538 436.685 78.8892 477.224C92.5976 509.655 118.296 511.207 129.438 501.234M145.438 491.734C148.816 495.563 161.885 509.888 165.438 514.234L143.438 534.734C139.819 525.377 132.745 507.461 129.438 501.234" stroke="black" stroke-width="5"/>
<path d="M113.346 530.463C101.917 521.12 82.7535 502.942 83.3001 508.554C83.8884 514.594 95.2791 533.185 100.465 540.108M113.346 530.463C116.661 533.173 129.434 543.26 132.953 546.369L116 567.5C111.913 560.322 103.963 544.778 100.465 540.108M113.346 530.463C118.844 525.145 126.908 514.6 126.946 503.234C98.9031 513.021 82.923 489.874 78.4383 477.077C70.5059 479.882 63.3491 484.839 58.1935 491C60.6291 498.842 68.9002 520.924 82.5002 546.513C89.9913 547.034 96.6061 544.334 100.465 540.108" stroke="black" stroke-width="5"/>
<path d="M620.978 432.726C614.407 424.145 603.732 423.091 599.215 423.636C601.31 426.424 605.4 433.3 605 438.5C607.152 436.65 613.361 432.906 620.978 432.726Z" stroke="black" stroke-width="5"/>
<path d="M643.023 412.812C630.531 416.077 624.963 427.691 624 432.5C629 433 639.5 437 643.023 442C646.5 436.5 657.879 422.602 678.822 420.779C670.013 413.539 658.639 408.731 643.023 412.812Z" stroke="black" stroke-width="5"/>
<path d="M184.376 451.311C181.042 450.811 175.376 447.911 179.376 440.311C183.376 432.711 193.376 435.145 197.876 437.311C198.542 430.978 202.776 418.911 214.376 421.311C225.976 423.711 227.542 432.978 226.876 437.311C227.376 432.811 230.276 425.711 237.876 433.311C243.209 430.478 253.776 427.911 253.376 440.311C258.876 439.811 272.576 439.811 283.376 443.811C294.176 447.811 221.876 450.478 184.376 451.311Z" stroke="black" stroke-width="5"/>
<path d="M237.086 411.007C199.339 411.007 112.586 413.674 73.5857 411.007C64.0857 410.357 51.1657 411.007 50.0857 402.007C48.8857 392.007 60.5857 387.84 66.5857 387.007C66.9857 371.007 82.7524 365.34 90.5857 364.507C90.2524 356.84 96.4857 341.407 124.086 341.007C151.686 340.607 158.252 357.507 158.086 366.007C162.586 354.507 177.086 348.507 194.586 356.007C208.586 362.007 210.752 376.174 210.086 382.507C232.486 375.707 234.752 391.34 233.086 400.007C249.919 401.007 278.086 411.007 237.086 411.007Z" stroke="black" stroke-width="5"/>
<path d="M611.132 253.24C594.299 254.24 566.132 264.24 607.132 264.24C628.642 264.24 666.067 265.106 701.5 265.358C697.1 251.644 686.667 229.739 682 220.5C676.313 209.24 667.132 201.74 649.632 209.24C635.632 215.24 633.465 229.407 634.132 235.74C611.732 228.94 609.465 244.574 611.132 253.24Z" stroke="black" stroke-width="5"/>
<path d="M361.938 360.734C353.138 396.334 365.167 424.833 372.5 435C436.5 434 461.5 442.5 498 453.5C510.8 449.5 530.667 451.833 539 453.5C536.5 447 534.5 418.5 560 411.5C580.4 405.9 595.167 415.833 600 421.5C617 351.5 574.105 260.04 566.938 204.693M361.938 360.734C367.938 359.734 382.338 356.834 391.938 353.234M361.938 360.734C338.105 365.734 289.038 373.034 283.438 362.234C279.595 354.821 278.464 340.776 276.323 324.734M407.938 287.734C401.073 289.218 387.99 294.059 373.938 299.721M373.938 299.721C357.697 306.266 340.161 313.908 329.438 318.734C329.086 316.874 328.337 314.108 327.111 310.734M373.938 299.721C376.271 288.225 380.238 256.334 377.438 220.734M377.438 220.734C367.271 219.9 346.838 215.934 346.438 206.734C345.999 196.637 357.893 193.478 369.938 195.226M377.438 220.734C379.938 221.067 387.838 221.534 399.438 220.734C413.938 219.734 410.438 213.234 406.938 210.234C404.743 208.352 391.093 201.132 378.451 197.234M378.451 197.234C377.268 196.869 376.093 196.533 374.938 196.234C373.29 195.806 371.613 195.469 369.938 195.226M378.451 197.234C379.613 187.234 384.749 165 393.549 159M387 167.283C386.854 164.997 386.18 161.072 386.185 158.234M480.438 163.234C458.438 163.634 449.938 142.067 448.438 131.234C447.638 159.234 459.771 169.567 465.938 171.234C449.138 175.234 439.605 151.234 436.938 138.734C440.138 148.334 438.938 162.4 437.938 168.234C440.338 157.434 433.605 147.067 429.938 143.234C435.138 154.034 430.438 170.067 427.438 176.734C427.438 163.134 413.771 151.4 406.938 147.234C408.538 169.234 399.271 184.734 394.438 189.734C397.438 180.734 393.938 151.734 389.438 147.234C386.889 144.684 386.195 151.346 386.185 158.234M480.438 163.234C479.771 164.9 477.938 168.834 475.938 171.234C479.205 168.153 484.019 162.345 486.991 155.581M480.438 163.234C481.316 161.228 482.368 158.142 483.105 154.582M481.938 135.734C484.683 141.473 484.327 148.679 483.105 154.582M488.938 138.734C490.522 144.365 489.325 150.268 486.991 155.581M462.438 137.734C465.908 142.823 471.802 150.993 483.105 154.582M501.473 156C495.94 156.646 491.149 156.412 486.991 155.581M496.438 131.234C499.438 139.4 504.238 157.834 499.438 166.234C504.105 161.067 512.638 148.534 509.438 139.734C517.938 148.4 534.138 168.534 530.938 179.734C532.771 170.567 532.846 150.234 528.438 141.734C534.605 154.4 548.738 179.134 555.938 176.734M555.938 176.734C555.938 172.4 553.638 161.034 544.438 150.234M555.938 176.734C556.605 180.734 556.838 190.234 552.438 196.234C556.438 192.234 564.438 182.534 564.438 175.734C566.438 186.4 566.239 207.666 558.938 213.234C561.494 211.285 564.389 208.383 566.938 204.693M439.5 97.9574C443.833 94.624 454.438 87.7337 462.438 87.7337C472.438 87.7337 490.938 83.2337 513.938 88.7337C532.338 93.1337 545.271 107.234 549.438 113.734C535.438 97.7337 504.605 91.4003 490.938 90.2337L468.5 92.5L448 97C475.5 91 506.443 92.7265 520.438 101.234C545.938 116.734 544.438 125.234 552.438 138.734C558.838 149.534 573.771 151.9 580.438 151.734C578.438 156.534 568.938 157.734 564.438 157.734C578.648 177.273 574.198 194.183 566.938 204.693M379.438 143.234C379.525 140.091 380.015 135.249 381.208 131.234M436.938 110.234C462.938 124.234 477.771 123.734 481.938 121.734C467.438 124.234 447.438 101.234 442.438 98.7337C437.438 96.2337 423.438 99.7337 417.438 97.7337C412.638 96.1337 409.105 99.4003 407.938 101.234C402.938 108.567 391.638 123.434 386.438 124.234C383.961 124.615 382.294 127.582 381.208 131.234M391.438 137.734C396.771 130.9 408.438 117.134 412.438 116.734C416.438 116.334 426.438 114.567 430.938 113.734M381.208 131.234C377.952 131.734 371.538 135.234 371.938 145.234C372.438 157.734 358.668 183.718 369.938 195.226M369.938 195.226C368.436 186.562 369.582 167.034 386.185 158.234M276.323 324.734C274.564 311.559 272.124 297.036 266.938 283.734C255.438 254.234 293.938 262.234 309.938 281.234C318.878 291.849 324.273 302.921 327.111 310.734M276.323 324.734C250.861 334.234 198.038 351.134 190.438 342.734C180.938 332.234 159.938 171.234 161.438 158.234C162.938 145.234 275.938 119.734 298.438 116.734C320.938 113.734 316.938 115.234 317.938 143.234C318.938 171.234 331.438 269.234 338.938 287.734C346.438 306.234 344.285 304.734 327.111 310.734M483.105 154.582C484.335 154.973 485.629 155.309 486.991 155.581M416.938 188.234L462.438 178.234C463.771 183.734 458.938 195.734 444.938 199.234C430.938 202.734 418.438 194.234 416.938 188.234Z" stroke="black" stroke-width="5"/>
<circle cx="441.438" cy="190.734" r="8.5" fill="black"/>
<path d="M496.715 179.855L508.654 167.969L505.407 184.5C505.157 185.77 505.467 187.087 506.257 188.113L515.99 200.748L500.077 199.679C498.785 199.592 497.518 200.066 496.6 200.98L484.662 212.866L487.909 196.335C488.158 195.064 487.848 193.747 487.058 192.721L477.326 180.087L493.238 181.156C494.531 181.243 495.797 180.769 496.715 179.855Z" stroke="black" stroke-width="5"/>
</svg>
