<svg width="764" height="764" viewBox="0 0 764 764" fill="none" xmlns="http://www.w3.org/2000/svg">
<circle cx="382" cy="382" r="382" fill="#D9D9D9"/>
<circle cx="381.5" cy="382.5" r="341" stroke="black" stroke-width="5"/>
<path d="M331 606.647C331 606.647 271.849 595.147 237 537.647C207 488.147 214 440.147 214 440.147C214 440.147 204.241 441.297 195.5 451.147C190.716 456.538 183 466.592 173 468.647C126.783 478.147 119.137 508.729 109.5 550.647C107.338 560.051 105.574 570.46 104.136 581C115.091 596.765 146 634.465 182 659.147C200.142 673.265 230.893 688.598 244 694.5M331 606.647C349.167 578.647 387.3 511.847 394.5 468.647C401.7 425.447 415.167 415.314 421 415.647C427.167 415.314 442.9 429.747 444.5 466.147C446.1 502.547 442.167 520.981 441.5 528.647C442.5 527.981 445.738 524.147 451 515.647C456.262 507.147 461.078 483.537 470.5 497.147C479.5 510.147 472.834 548.814 468 564.147C469.552 558.647 472.427 552.911 474.5 550.147C479 544.147 487 539.647 489.5 550.147C491.713 559.44 494.5 587.147 462 659.147C456 672.431 438.3 703.6 415.5 722C387.5 726.333 314 726.9 244 694.5M331 606.647C323.334 617.314 303.6 642.747 286 659.147C275.834 668.098 253.2 687.7 244 694.5" stroke="black" stroke-width="5"/>
<path d="M167 628.647C161.341 631.005 154.042 636.855 159.5 639.647C174 647.066 186.403 643.376 205 633.147C235 616.647 248.254 629.145 248 613.647C247.854 604.691 243.036 600.677 237.067 595.703L237 595.647C229.384 589.3 223 580.147 221 570.647C219.013 561.207 212.5 554.647 204 560.147C193.294 567.075 191.5 577.647 191.5 591.147C191.5 601.708 188.553 607.493 182.5 616.147C178.653 621.647 173 626.147 167 628.647Z" stroke="black" stroke-width="5"/>
<rect width="10.6869" height="24.0454" rx="5.34343" transform="matrix(-0.933673 0.358126 0.358126 0.933673 143.978 534.147)" fill="black"/>
<path d="M189.5 520.647C190.206 527.251 190.167 527.814 192.5 532.147C195.7 536.547 192.656 525.823 192.5 518.147C192.377 512.083 195 505.647 193.5 505.647C192.5 505.647 188.66 512.78 189.5 520.647Z" stroke="black" stroke-width="5"/>
<path d="M545 231.647C539 235.48 523.4 241.247 509 233.647C491 224.147 480 243.147 484.5 252.147C485.982 255.11 489.142 258.072 494 259.341M545 231.647C539.334 238.147 526.9 254.147 522.5 266.147C517 281.147 491.5 278.534 494 259.341M545 231.647C520.851 257.474 503.901 261.925 494 259.341" stroke="black" stroke-width="5"/>
<path d="M509 167.647C511.167 173.98 518.8 186.047 532 183.647C534.777 183.142 537.851 182.383 541 181.371M566.5 148.147C571.157 158.753 566.177 167.084 558 173.071M541 181.371C535.334 180.796 523.6 176.047 522 161.647M541 181.371C541.995 181.051 542.998 180.706 544 180.336M541 181.371C532.6 185.692 533.167 194.022 534.5 197.647M540 156.147C542 159.44 545.6 168.887 544 180.336M544 180.336C545.17 179.905 546.34 179.439 547.5 178.939M554.5 150.147C557 155.528 560.3 168.225 553.5 175.968M553.5 175.968C552.463 176.559 551.398 177.118 550.316 177.647M553.5 175.968C555.074 175.073 556.585 174.107 558 173.071M546 192.647C544.834 190.842 543.5 185.573 547.5 178.939M547.5 178.939C548.448 178.531 549.389 178.101 550.316 177.647M563.5 185.147C561.544 182.216 556.169 176.613 550.316 177.647M573 175.968C570.167 174.036 563.2 170.752 558 173.071" stroke="black" stroke-width="5"/>
<path d="M554.5 392.647C557.5 404.647 557 419.647 540 422.147C523 424.647 522 391.147 509 371.647C502.886 362.476 514.055 348.826 532.5 333.147M554.5 392.647C545.7 395.047 537.5 383.647 534.5 377.647M554.5 392.647C561.667 389.647 570.6 380.647 549 368.647C551.014 366.487 553.615 364.094 556.607 361.647M467.5 328.647C464.167 324.314 458.7 313.947 463.5 307.147C469.5 298.647 486.5 296.647 491 314.147M491 314.147C487.5 317.314 483.8 325.547 497 333.147M491 314.147C494.5 311.981 502.7 310.747 507.5 323.147C509.5 322.314 513.8 322.539 517 315.739M517 315.739C522.884 323.191 528.25 329.164 532.5 333.147M517 315.739C500.045 294.263 477.643 258.5 466.359 224.647M574.5 301.647C563.717 308.584 545.431 322.156 532.5 333.147M556.607 361.647C567.234 352.957 582.796 343.598 594.5 341.647M556.607 361.647C572.405 383.48 628 444.5 713.5 459.5C716.834 448.167 723.2 415.9 722 377.5M438.5 203.647C440.126 207.814 445.102 217.847 452 224.647M438.5 203.647C428.667 176.98 419.8 113.947 463 75.1471C467.076 69.7126 473.371 63.1079 481.694 56.5C543.5 78 599.348 100.733 657.5 181.5C720.5 269 722 355.5 722 377.5M438.5 203.647C436.164 206.632 433.626 212.785 431.812 219.647M452 224.647C435.2 245.047 431.541 229.814 431.812 219.647M452 224.647C453.643 221.831 455.777 217.045 457.731 210.647M722 377.5C714.834 387.779 690.9 413.347 674.5 414.147C679.565 409.083 684.263 394.442 674.143 369.941M649.69 240.511C646.036 274.431 634.005 307.441 657.5 340.647C660.213 344.481 662.629 348.166 664.777 351.703M649.69 240.511C651.869 220.291 651.072 199.748 638 178.647M649.69 240.511C627.843 231.394 616.541 200.985 613.382 184.647M649.69 240.511C653.473 242.089 657.573 243.029 662 243.147M664.777 351.703C660.036 369.549 651.185 383.255 646 389.147C658.263 385.412 667.435 378.673 674.143 369.941M664.777 351.703C666.741 344.308 668 336.202 668 327.647M674.143 369.941C700.475 335.665 688.822 270.683 677 236.147M536.5 88.1472C609.3 131.347 612.167 200.814 604.5 230.147C611.025 214.261 613.425 198.743 613.382 184.647M562.5 107.089C530.1 126.689 493.667 112.98 480 103.647C484.5 136.98 485.9 210.647 455.5 238.647C427.365 264.561 426.64 239.219 431.812 219.647M599 128.147C605.132 138.043 613.304 158.991 613.382 184.647M457.731 210.647C461.328 198.868 464.315 181.624 462.5 161.147M457.731 210.647C448.321 194.48 434.7 152.647 455.5 114.647" stroke="black" stroke-width="5"/>
<path d="M329 608.541C261.567 590.12 212 528.422 212 455.147C212 367.334 283.187 296.147 371 296.147C458.814 296.147 530 367.334 530 455.147C530 495.389 515.05 532.14 490.401 560.147" stroke="black" stroke-width="5"/>
<path d="M250.163 490.265C246.483 478.381 244.5 465.748 244.5 452.647C244.5 382.507 301.36 325.647 371.5 325.647C385.013 325.647 398.029 327.757 410.238 331.663L412.633 332.429L413.385 330.031L413.385 330.03L413.386 330.03L413.386 330.03L413.388 330.023L413.398 329.99C413.408 329.959 413.424 329.911 413.445 329.847C413.487 329.719 413.551 329.527 413.635 329.282C413.804 328.792 414.055 328.09 414.378 327.259C415.027 325.585 415.95 323.433 417.062 321.427C418.203 319.368 419.417 317.7 420.573 316.78C421.13 316.337 421.555 316.163 421.847 316.114C422.086 316.074 422.363 316.091 422.76 316.318C423.964 317.006 425.57 318.699 427.459 321.64C429.3 324.505 431.24 328.282 433.211 332.778C437.149 341.763 441.112 353.394 444.593 365.821C445.183 367.928 445.143 369.58 444.748 370.924C444.352 372.273 443.54 373.505 442.279 374.673C439.667 377.093 435.429 378.981 430.188 380.783C414.161 386.292 402.399 389.147 396 389.147C393.617 389.147 393.034 388.514 392.872 388.267C392.604 387.86 392.387 386.908 392.788 384.916C393.17 383.019 393.995 380.727 395.043 378.122C395.421 377.181 395.836 376.185 396.26 375.164C396.963 373.471 397.694 371.713 398.336 370.032L399.28 367.558L396.756 366.758C388.335 364.088 379.363 362.647 370.056 362.647C321.721 362.647 282.5 401.491 282.5 449.455C282.5 458.249 283.82 466.742 286.276 474.748L250.163 490.265Z" stroke="black" stroke-width="5"/>
<path d="M367.5 542.556C359.876 542.208 352.513 540.864 345.542 538.653C349.642 527.911 356.542 516.147 345.542 516.147C338.672 516.147 326.542 519.147 310.542 524.647C300.042 528.256 291.768 532.745 294.542 542.647C301.542 567.641 310.542 589.647 317.542 593.647C324.542 597.647 330.542 578.513 330.542 578.513C335.422 580.074 340.428 581.354 345.542 582.333M444 502.147C451.028 489.88 456.542 473.455 456.542 458.339C456.542 449.01 455.013 440.036 452.19 431.647L492.917 414.147C497.214 427.032 499.542 440.818 499.542 455.147C499.542 483.542 490.403 509.802 474.906 531.147" stroke="black" stroke-width="5"/>
<path d="M376.048 229.987C376.091 228.183 377.973 227.017 379.608 227.783L392.878 233.997C394.545 234.778 396.441 234.918 398.205 234.391L412.245 230.197C413.974 229.68 415.664 231.11 415.441 232.901L413.632 247.442C413.405 249.268 413.857 251.115 414.903 252.63L423.231 264.686C424.256 266.171 423.419 268.221 421.647 268.562L407.259 271.335C405.451 271.683 403.834 272.684 402.717 274.147L393.824 285.793C392.729 287.227 390.521 287.064 389.649 285.484L382.566 272.657C381.676 271.045 380.224 269.817 378.487 269.207L364.664 264.347C362.961 263.749 362.434 261.599 363.667 260.281L373.678 249.581C374.935 248.236 375.655 246.476 375.699 244.636L376.048 229.987Z" stroke="black" stroke-width="5"/>
<path d="M420.101 100.368L421.689 102.299L420.101 100.368C418.679 101.537 417.737 103.189 417.453 105.008L414.619 123.216C414.341 124.999 412.323 125.909 410.802 124.938L395.274 115.017C393.723 114.025 391.861 113.639 390.044 113.932L371.851 116.863C370.069 117.15 368.58 115.512 369.034 113.765L373.671 95.9313C374.134 94.1496 373.926 92.2596 373.086 90.6215L364.677 74.225C363.854 72.6192 364.951 70.6965 366.752 70.5886L385.146 69.4878C386.984 69.3778 388.717 68.5957 390.015 67.2905L403.011 54.2264C404.284 52.947 406.451 53.3963 407.111 55.0763L413.842 72.2299C414.514 73.9437 415.794 75.3503 417.436 76.1818L433.877 84.5042C435.487 85.3193 435.729 87.5198 434.335 88.6659L420.101 100.368Z" stroke="black" stroke-width="5"/>
<path d="M281.018 194.69C282.132 193.27 284.337 193.462 285.189 195.053L290.174 204.367C291.042 205.99 292.478 207.237 294.206 207.871L304.126 211.504C305.821 212.125 306.319 214.282 305.069 215.583L297.751 223.203C296.476 224.53 295.734 226.281 295.666 228.121L295.275 238.678C295.209 240.481 293.312 241.622 291.687 240.835L282.18 236.23C280.523 235.428 278.629 235.262 276.858 235.766L266.697 238.657C264.961 239.151 263.29 237.699 263.536 235.911L264.978 225.446C265.229 223.622 264.801 221.77 263.775 220.241L257.885 211.471C256.879 209.973 257.743 207.935 259.52 207.617L269.918 205.754C271.731 205.429 273.36 204.449 274.497 203.001L281.018 194.69Z" stroke="black" stroke-width="5"/>
<path d="M664.547 474.563C666.285 474.077 667.95 475.536 667.696 477.323L666.208 487.781C665.949 489.604 666.369 491.459 667.388 492.991L673.239 501.787C674.238 503.29 673.365 505.324 671.587 505.635L661.181 507.452C659.367 507.768 657.733 508.741 656.591 510.184L650.033 518.467C648.913 519.882 646.708 519.68 645.864 518.085L640.92 508.749C640.058 507.122 638.628 505.869 636.902 505.228L626.999 501.551C625.307 500.923 624.818 498.764 626.074 497.468L633.425 489.881C634.706 488.559 635.456 486.811 635.532 484.972L635.969 474.417C636.044 472.614 637.946 471.481 639.566 472.275L649.054 476.922C650.707 477.732 652.6 477.905 654.373 477.409L664.547 474.563Z" stroke="black" stroke-width="5"/>
<path d="M164.407 143.78C165.393 142.269 167.607 142.269 168.594 143.78L172.133 149.202C173.14 150.744 174.678 151.862 176.455 152.342L182.706 154.033C184.448 154.505 185.132 156.61 184 158.015L179.937 163.057C178.782 164.491 178.194 166.299 178.286 168.138L178.609 174.605C178.699 176.408 176.909 177.709 175.222 177.066L169.171 174.76C167.451 174.104 165.55 174.104 163.829 174.76L157.778 177.066C156.092 177.709 154.301 176.408 154.391 174.605L154.715 168.138C154.807 166.299 154.219 164.491 153.064 163.057L149.001 158.015C147.868 156.61 148.552 154.505 150.295 154.033L156.545 152.342C158.322 151.862 159.861 150.744 160.867 149.202L164.407 143.78Z" stroke="black" stroke-width="5"/>
<path d="M276.859 113.165C277.634 111.536 279.828 111.24 281.008 112.605L282.774 114.65C283.977 116.043 285.651 116.945 287.477 117.184L290.155 117.534C291.945 117.768 292.904 119.763 291.97 121.307L290.571 123.618C289.618 125.193 289.277 127.064 289.614 128.874L290.109 131.53C290.439 133.304 288.838 134.833 287.081 134.421L284.451 133.805C282.658 133.386 280.774 133.64 279.157 134.52L276.784 135.81C275.199 136.673 273.25 135.623 273.098 133.824L272.871 131.133C272.716 129.298 271.892 127.585 270.556 126.319L268.595 124.461C267.285 123.219 267.681 121.041 269.345 120.342L271.835 119.294C273.532 118.58 274.907 117.267 275.698 115.604L276.859 113.165Z" stroke="black" stroke-width="5"/>
<path d="M554.407 501.78C555.393 500.269 557.607 500.269 558.594 501.78L560.07 504.042C561.077 505.584 562.615 506.701 564.392 507.182L567 507.887C568.742 508.359 569.426 510.464 568.293 511.869L566.598 513.973C565.443 515.406 564.856 517.214 564.948 519.053L565.083 521.751C565.173 523.554 563.382 524.855 561.695 524.212L559.171 523.25C557.451 522.594 555.55 522.594 553.829 523.25L551.305 524.212C549.619 524.855 547.828 523.554 547.918 521.751L548.053 519.053C548.145 517.214 547.557 515.406 546.402 513.973L544.707 511.869C543.575 510.464 544.259 508.359 546.001 507.887L548.608 507.182C550.386 506.701 551.924 505.584 552.93 504.042L554.407 501.78Z" stroke="black" stroke-width="5"/>
<path d="M186.422 268.014C186.088 266.777 187.134 265.605 188.401 265.796C190.045 266.045 191.723 265.681 193.116 264.772C194.189 264.072 195.628 264.705 195.837 265.969C196.108 267.609 196.974 269.093 198.268 270.137C199.265 270.941 199.108 272.505 197.971 273.094C196.494 273.859 195.351 275.141 194.758 276.695C194.301 277.892 192.766 278.225 191.854 277.326C190.67 276.158 189.097 275.466 187.437 275.383C186.157 275.318 185.365 273.961 185.939 272.815C186.684 271.328 186.856 269.62 186.422 268.014Z" stroke="black" stroke-width="5"/>
<path d="M604.595 574.686C605.47 573.75 607.018 574.02 607.523 575.197C608.179 576.726 609.374 577.959 610.88 578.664C612.041 579.206 612.262 580.762 611.298 581.606C610.048 582.702 609.244 584.22 609.039 585.87C608.882 587.142 607.471 587.833 606.37 587.177C604.941 586.326 603.249 586.031 601.617 586.346C600.359 586.59 599.265 585.461 599.549 584.212C599.916 582.59 599.675 580.889 598.87 579.434C598.25 578.313 598.985 576.924 600.261 576.808C601.917 576.656 603.46 575.901 604.595 574.686Z" stroke="black" stroke-width="5"/>
</svg>
