<svg width="764" height="764" viewBox="0 0 764 764" fill="none" xmlns="http://www.w3.org/2000/svg">
<circle cx="382" cy="382" r="382" fill="#D9D9D9"/>
<circle cx="381.5" cy="382.5" r="341" stroke="black" stroke-width="5"/>
<path d="M175.5 465C175.167 472.667 175.5 493.5 179.5 515.5C180.581 521.444 185.943 528.713 193.803 536.5M175.5 465C180.5 469 191.6 472.5 196 454.5C200.4 436.5 199.833 419.333 199 413M175.5 465C173.167 460.333 168.8 446.4 170 428C171.5 405 189.5 401 212 407M212 407L202 438.5M212 407C213.982 401.587 217.06 393.383 220.16 385.5M247.5 349.5C241.5 347.5 234 356.5 229.5 364C227.547 367.255 223.838 376.152 220.16 385.5M247.5 349.5L247.555 349.518M247.5 349.5C247.518 349.506 247.537 349.512 247.555 349.518M272.5 432.5C241.5 477.5 232 498 239.5 514M272.5 432.5C272.545 432.435 272.59 432.369 272.635 432.304M272.5 432.5L272.635 432.304M239.5 514C241.186 517.596 243.048 521.066 245.309 524.5M239.5 514C236.911 508.477 236.348 502.418 237.995 495C242.395 499 248.5 496.5 250.5 494.5C257.5 498.5 263.5 511 277 500C287.8 491.2 292.833 490 294 490.5C293 497 296.5 498 302 500C307.5 502 311 494 317 495C323 496 327 481 336 489.5C345 498 345 488.5 355.5 492.5C364.93 496.092 361.858 489.602 372 493.313M292 562.5C265.641 547.77 253.106 536.346 245.309 524.5M322.5 686C283.3 662.4 275.833 615.5 277 595C254.497 582.349 215.037 557.536 193.803 536.5M322.5 686L453 587.165M322.5 686C313.463 692.24 301.092 701.073 287.5 710.705M540.5 454.5C539.5 460 536.9 473.5 534.5 483.5M540.5 454.5C558.497 477.085 507.769 539.987 471.881 572M540.5 454.5C541.739 444.259 542.929 427.666 542.499 411M503 475.5C504.586 470.967 505.852 466.691 506.836 462.658M508 341.517C502.347 340.396 498.037 342.605 497 348C494.5 361 496.5 368.5 489 379C483.915 386.119 485.265 392.089 489.467 398M508 341.517C512.048 342.319 516.784 344.829 521.5 349.098M508 341.517L517.243 298.957M534.5 219.5L533.957 222M521.5 349.098C526.067 353.233 530.615 359.017 534.5 366.5C538.381 373.975 540.571 384.773 541.667 396.5M521.5 349.098L532.202 302.5M550 225L549.426 227.5M494.5 403.946C495.304 404.79 496.14 405.641 497 406.5C500.17 409.67 503.589 414.206 506.076 420.5M494.5 403.946C493.038 402.41 491.685 400.895 490.5 399.381M494.5 403.946L490.5 399.381M494.5 403.946L479.425 470.5M453 587.165L458.5 583C462.563 579.997 467.09 576.274 471.881 572M453 587.165L479.425 470.5M506.076 420.5L494.564 471.5M506.076 420.5C509.635 429.511 511.285 442.126 507.56 459.5M471.881 572L494.564 471.5M271.5 432C271.854 432.091 272.233 432.192 272.635 432.304M363.5 476C362.477 473.245 360.703 469.145 358.61 465.5M358.61 465.5C356.271 461.427 353.533 457.922 351 457.5C345 456.5 346.5 462 340.5 461C334.5 460 337.5 449 330 445C322.5 441 324 448.5 320.5 449C317 449.5 312 443 307.5 442.5C303 442 309 456 300 446.5C293.193 439.314 279.591 434.244 272.635 432.304M358.61 465.5C365.906 466.667 382.2 472.5 389 486.5C386.5 478.167 383.9 461.1 393.5 459.5C405.5 457.5 398.5 443 405.5 439.5C412.5 436 435 433 420.5 427C406 421 422 413.5 430 409C438 404.5 447.5 401 446 387.5C444.5 374 455 379.5 451.5 366.5C448 353.5 457 354.5 461 347.5C465 340.5 471 346 474 344C475.873 342.751 475.992 340.918 477.764 338.5M517.5 299C517.414 298.986 517.328 298.971 517.243 298.957M532.202 302.5C531.968 303.5 533.7 305.2 542.5 304C553.5 302.5 546 309 550 311.5C554 314 548.5 318.5 557 322.5C565.5 326.5 560 326.5 567.5 337C575 347.5 562 338.902 562 344C562 349.098 564 349.5 563 357.5C562 365.5 569.5 354 571 362C572.5 370 560.5 368.5 565 375C569.5 381.5 573.5 389.5 560.5 388.5C547.5 387.5 565.5 392.5 555 394C546.6 395.2 542.611 396.167 541.667 396.5M532.202 302.5L538.5 275M541.667 396.5C542.109 401.235 542.374 406.12 542.499 411M490.5 399.381C490.14 398.921 489.795 398.461 489.467 398M489.467 398C490.145 400.833 490.6 407.4 487 411C482.5 415.5 481 411.5 481.5 422C482 432.5 466.5 419 467 431C467.5 443 460.5 447 458.5 448C456.5 449 450 452 443 447C445.667 449.5 450 455.5 446 459.5C441 464.5 436.5 462.5 434.5 463.5C432.5 464.5 429 471.5 422.5 472.5C416 473.5 410.5 477 407.5 481C406.575 482.233 405.081 484.795 403.485 488M372 493.313C373.151 493.734 374.471 494.287 376 495C388 500.6 394.667 508.333 396.5 511.5C395.808 505.62 399.902 495.193 403.485 488M372 493.313C370 496.376 362.3 502 347.5 500C329 497.5 309.5 531 290.5 536.5C275.3 540.9 254.039 530.333 245.309 524.5M193.803 536.5C181.436 544.051 162.612 560.659 143.112 587.165M199 553.5C171.876 564.126 146.755 590.058 129.822 612M211.5 570C186.946 594.21 169.365 617.663 157 638.593M236 590C214.574 614.105 201.9 641.991 194.764 667.5M250.5 697C249 683.5 246 657.5 259 622M250.5 697C254.833 699.137 268.3 704.869 287.5 710.705M250.5 697C225.269 687.4 202.83 673.333 194.764 667.5M542.499 411C548.969 414.134 561.019 420.677 573.516 429M552.5 472.5C572.416 497.905 569.373 581.831 412 721.945M572 476C582.449 490.803 592.594 549.201 562.298 671M617.5 481C628.072 495.378 645.778 529.12 659.5 579.5M403.485 488C408.656 487.833 420.4 486 426 480C433 472.5 451.35 463 479.425 470.5M494.564 471.5C498.089 470.658 504.644 467.83 506.836 462.658M507.56 459.5C507.338 460.536 507.097 461.589 506.836 462.658M507.56 459.5C507.504 460.637 507.247 461.689 506.836 462.658M254.814 364C254.34 371.619 251.752 383.547 245.5 402.5C232.7 441.3 232.167 448 233.5 446.5C244.833 429.167 268.2 393.6 271 390C274.5 385.5 286.5 367 295 372.5C303.488 377.992 303.5 387.472 272.635 432.304M254.814 364C260.376 339.833 276.2 287.4 295 271M254.814 364C255.549 352.182 251.199 350.733 247.555 349.518M295 271C298.333 270.833 305.8 269.1 309 263.5C315.5 269 331.7 275.9 344.5 259.5C351.333 265.333 368.9 272.7 384.5 255.5C392.633 260.528 411.366 266.867 427.5 257.059M295 271C286.783 270.726 271.408 266.446 264.856 252.5M433.5 252.5C431.56 254.305 429.551 255.812 427.5 257.059M289.5 206.5C281.167 214.833 269.5 236.8 289.5 258M289.5 206.5C280.324 201.559 268.905 207.33 264.037 221M289.5 206.5C292.093 203.842 296.058 200.423 300.5 197.66M321.5 195C328.667 186.833 346.7 174.1 361.5 188.5C365.686 186.017 372.269 183.763 379.5 184.184M321.5 195C310.833 204.5 294.6 229.3 315 252.5M321.5 195C315.634 190.601 307.478 193.32 300.5 197.66M321.5 195C321.269 193.715 321.034 192.38 320.795 191M408 206.5C425 242 362 256 369.5 212C377 168 412.5 224.5 387 224.5M408 206.5C400.189 190.189 389.256 184.752 379.5 184.184M408 206.5C408.914 206.5 409.917 206.535 411 206.611M353.5 195C342 202.833 324.6 224.1 347 246.5M427.5 257.059C434.833 267.873 450.8 293.9 456 311.5C462.5 333.5 466.528 341.5 477.764 338.5M477.764 338.5C478.83 337.045 480.495 335.378 483.5 333.5C491.5 328.5 471 323 487 311.5C502.908 300.066 502.573 296.541 517.243 298.957M264.856 252.5C263.434 249.474 262.428 245.994 262 242C261.118 233.764 262.009 226.696 264.037 221M264.856 252.5C261.149 255.086 256.404 258.856 251.428 263.5M222 313.5C208.333 312.333 181.6 318.6 184 353C186.4 387.4 209.107 389 220.16 385.5M222 313.5C227.988 315.172 235.811 319.374 239.466 326.5M222 313.5C223.164 294.576 238.122 275.918 251.428 263.5M214.5 349.5C233 362 231 320.5 207.5 335C184 349.5 210 386.726 233.5 355C242.651 342.646 242.933 333.258 239.466 326.5M239.466 326.5C239.977 315.167 246.7 288.5 269.5 272.5M467.5 239.5C482.3 213.9 517.971 217.167 533.957 222M467.5 239.5C461.167 255.238 463.1 285.243 521.5 279.357M467.5 239.5C451.209 215.028 424.744 207.569 411 206.611M533.957 222L530.482 238M533.957 222L536.409 212.103M521.5 279.357C528.7 278.838 535.904 275.903 538.5 275M521.5 279.357L517.243 298.957M538.5 275C545.817 270.779 555.019 265.346 565.091 257M542.995 255.5L545.751 243.5M542.995 255.5C547.179 253.256 551.193 250.917 555.043 248.5M542.995 255.5C537.866 258.252 531.717 260.228 525.389 261.453M530.482 238C493.464 225 477.764 252.5 491 259.5C498.161 263.287 512.169 264.01 525.389 261.453M530.482 238L525.389 261.453M545.751 243.5C547.53 244.333 551.878 246.5 555.043 248.5M545.751 243.5L549.426 227.5M555.043 248.5C559.96 245.414 564.609 242.2 569 238.894M549.426 227.5C555.284 230.262 567.4 236.409 569 238.894M549.426 227.5L551.042 222M569 238.894C571.355 237.121 573.636 235.321 575.844 233.5M565.091 257C583.405 277.333 610.729 340.2 573.516 429M565.091 257C568.99 253.769 572.987 250.252 577 246.466M573.516 429C580.871 433.899 588.381 439.414 595 445.213M577 246.466C599.667 270.453 635 343.784 595 445.213M577 246.466C580.328 243.326 583.667 240.001 586.968 236.5M595 445.213C595.676 445.806 596.343 446.402 597 447C606.942 456.058 619.031 463.261 631.5 468.222M575.844 233.5C582.732 227.82 588.916 221.933 594.444 216M575.844 233.5C566.669 230.147 558.426 226.289 551.042 222M594.444 216C604.049 205.691 611.677 195.242 617.585 185.5M594.444 216C577.692 212.018 563.665 206.404 552 199.538M586.968 236.5C622.721 238 681.005 227 628.114 171M586.968 236.5C592.357 230.786 597.647 224.604 602.63 218M628.114 171C630.511 163.906 632.351 156.563 633.5 149C632.317 154.203 630.009 161.089 626.377 169M628.114 171C625.899 177.553 623.21 183.894 620.151 190M602.63 218C609.15 209.359 615.145 199.993 620.151 190M602.63 218C613.521 217.167 632.272 210.4 620.151 190M617.585 185.5C613.853 181 603.12 171.4 593.564 169M617.585 185.5C621.109 179.689 624.022 174.129 626.377 169M626.377 169C621.918 165.333 608.62 156.6 599.42 155M536.409 188.5C541.059 192.454 546.242 196.148 552 199.538M536.409 188.5C535.982 185.054 536.016 180.382 537.16 176M536.409 188.5C534.313 186.718 532.325 184.883 530.441 183M552 199.538C562.013 198.305 568.266 189.9 569.254 181.5M568.477 173.5C566.719 168.391 562.378 164.338 555 163.5C548.476 162.759 544.078 164.743 541.184 168M568.477 173.5C570.484 171.667 576.1 168.2 582.5 169C585.799 169.412 588.842 170.505 591 172.663M568.477 173.5C569.336 175.998 569.577 178.749 569.254 181.5M568.477 173.5C577.414 159.062 588.548 133.325 573.913 123M569.254 181.5C579.457 183.9 576.003 198.833 573 206C578.333 205.333 589.8 201.1 593 189.5C595.351 180.979 594.075 175.739 591 172.663M541.184 168C539.206 170.226 537.931 173.047 537.16 176M541.184 168C540.84 152.184 543.788 121.905 560 119.358M541.184 168C537.354 163.5 529.452 157.374 522.589 160.5M516.895 166C487.105 118.38 504.5 81 510.5 65.5C505 72.5 488.582 96.935 496.425 143.5M516.895 166C520.642 171.99 525.128 177.688 530.441 183M516.895 166C518.613 163.165 520.555 161.426 522.589 160.5M537.16 176C534.734 176 529.995 177.4 530.441 183M536.409 212.103C540.861 215.606 545.73 218.915 551.042 222M536.409 212.103C517.505 197.225 506.102 178.823 500.056 159M567.5 120C570.039 120.748 572.161 121.764 573.913 123M567.5 120C564.73 119.183 562.238 119.006 560 119.358M567.5 120L575.5 83.5M573.913 123C579.109 120.667 591.2 119 598 131C606.5 146 595 168.326 591 172.663M560 119.358C554 115.405 539.4 110.4 529 122C523.281 128.379 521.177 135.823 520.691 142.5M522.589 160.5C522.464 159.95 522.249 159.098 522.004 158C521.253 154.622 520.225 148.915 520.691 142.5M559.5 98.5L583.5 104M520.691 142.5C518.961 142 513.9 141.3 507.5 142.5M251.428 263.5C249.72 262.137 247.561 260.394 245.309 258.544M264.037 221C255.59 224.704 247.111 231.209 241 236.735M379.5 184.184C382.197 183.617 386.348 182.959 391 182.584M411 206.611C412.378 197.703 412.833 191.964 412.876 188.5M300.5 197.66C293.051 187.143 279.64 166.937 271.102 150.5M300.5 197.66C268.5 199.788 247.5 180.44 241 170.5C256.2 189.602 247.333 222.616 241 236.735M264.037 134C258.5 114 270.5 117.5 281 114M264.037 134C242.525 130.833 196.3 133.7 183.5 170.5C167.5 216.5 217.144 236.471 241 236.735M264.037 134C264.497 135.662 265.144 137.509 265.945 139.5M281 114C291.5 110.5 304.5 97.5 309 121M281 114L262 63.5M309 121C320.5 104.833 350.4 74.9 378 84.5C410.204 95.7015 418.011 131.446 396.133 173.5M309 121C309.404 123.111 309.808 125.282 310.212 127.5M391 182.584C398.134 182.008 406.447 182.094 412.5 184.184C412.713 184.615 412.908 185.933 412.876 188.5M391 182.584C394.833 166.722 400.2 130.8 391 114C379.5 93 350.424 83 310.212 127.5M391 182.584C392.5 171.556 393.3 146.4 384.5 134C373.5 118.5 343.639 101 312.319 139.5M391 182.584C359.8 177.85 350.667 151.889 350 139.5C352.4 161.1 331.53 182.833 320.795 191M391 182.584C392.863 179.528 394.574 176.498 396.133 173.5M310.212 127.5C310.918 131.381 311.622 135.406 312.319 139.5M241 236.735C235.563 241.652 232 245.794 232 246.5C232 246.924 233.62 248.528 236 250.653M241 236.735C226.667 232.947 197.9 217.132 197.5 184.184C197 143 248.391 136.5 265.945 139.5M241 236.735C231.5 230.99 213.2 213.8 216 191C219.5 162.5 238.204 151.5 271.102 150.5M265.945 139.5C267.283 142.825 269.052 146.554 271.102 150.5M312.319 139.5C315.369 157.396 318.303 176.617 320.795 191M251.428 94.5L291 80.5M520.691 158C520.461 158 518.6 158 513 158M496.425 143.5C478.872 144.333 434.24 151.5 396.133 173.5M496.425 143.5C497.307 148.737 498.505 153.915 500.056 159M500.056 159C486.121 159.833 449.177 166.9 412.876 188.5M236 250.653C238.575 252.952 242.041 255.861 245.309 258.544M236 250.653C166.71 307.977 53.6556 446.647 103.127 578C105.978 583.167 114.962 596.7 128.09 609.5M143.112 587.165C111.614 540.14 87.9555 408.579 245.309 258.544M143.112 587.165C138.117 593.956 133.077 601.396 128.09 609.5M344 387.143C352.82 387.777 366.228 383.818 367.5 383.5C379.716 379.428 388.793 381.243 393.5 379.479M344 387.143C338.953 386.78 335.408 384.914 336.5 380C339.5 366.5 356 363 360 362.5C364 362 395.5 355.5 397 370.5C397.56 376.103 396.307 378.427 393.5 379.479M344 387.143C342 393.095 342.6 403.6 361 398C384 391 402 396.458 393.5 379.479M631.5 468.222C641.833 428.648 657.7 340.1 638.5 302.5C649 319.647 666.6 378.048 653 474.471M631.5 468.222C638.653 471.068 645.931 473.175 653 474.471M653 474.471C661.495 476.029 669.688 476.414 677 475.5C685 474.667 702.3 471.2 711.5 466C701.5 509.5 685 539.167 677 552C673.4 558.4 663.721 572.833 659.5 579.5M128.09 609.5L129.822 612M129.822 612C134.215 616.838 145.8 628.929 157 638.593M157 638.593C163.343 644.562 179.775 658.7 194.764 667.5M287.5 710.705C307.167 716.6 359.6 727.1 412 721.945M412 721.945C439.198 720.463 507.336 708.2 562.298 671M562.298 671C583.5 659.5 629.5 624 659.5 579.5M115.5 347.5C116.607 297 139.089 173.7 220.16 84.5C169.774 125.333 78.2999 235.1 115.5 347.5Z" stroke="black" stroke-width="5"/>
<circle cx="314.5" cy="317.5" r="20" stroke="black" stroke-width="5"/>
<path fill-rule="evenodd" clip-rule="evenodd" d="M330 317C330 325.284 323.284 332 315 332C306.716 332 300 325.284 300 317C300 308.716 306.716 302 315 302C323.284 302 330 308.716 330 317ZM327.5 321C326 327 320.866 330 317 330C313.134 330 312.5 324 314 320C315.5 313.5 319.634 310 323.5 310C327.366 310 328.875 315.5 327.5 321ZM305.5 321C308.538 321 314.5 313.038 314.5 310C314.5 306.962 312.5 304.5 309 305.5C306 306.357 303 309.5 302 313.5C301.5 317.5 302.462 321 305.5 321Z" fill="black"/>
<path d="M298.5 307C297 304.667 294.2 298 295 290M293.5 311C291.5 309.833 287.2 305.7 286 298.5" stroke="black" stroke-width="5"/>
<circle cx="407.5" cy="309.5" r="20" stroke="black" stroke-width="5"/>
<path d="M418.5 293.5C420 291.167 422.8 284.5 422 276.5M423.5 297.5C425.5 296.333 429.8 292.2 431 285" stroke="black" stroke-width="5"/>
<path fill-rule="evenodd" clip-rule="evenodd" d="M423 309C423 317.284 416.284 324 408 324C399.716 324 393 317.284 393 309C393 300.716 399.716 294 408 294C416.284 294 423 300.716 423 309ZM420.5 313C419 319 413.866 322 410 322C406.134 322 405.5 316 407 312C408.5 305.5 412.634 302 416.5 302C420.366 302 421.875 307.5 420.5 313ZM398.5 313C401.538 313 407.5 305.038 407.5 302C407.5 298.962 405.5 296.5 402 297.5C399 298.357 396 301.5 395 305.5C394.5 309.5 395.462 313 398.5 313Z" fill="black"/>
</svg>
