<svg width="765" height="764" viewBox="0 0 765 764" fill="none" xmlns="http://www.w3.org/2000/svg">
<circle cx="382.929" cy="382" r="382" fill="#D9D9D9"/>
<circle cx="382.501" cy="382.5" r="341" stroke="black" stroke-width="5"/>
<path d="M576.286 167.443C571.049 166.843 581.378 174.195 587.198 177.946C590.981 171.944 597.15 160.541 591.563 162.941C584.579 165.942 585.016 159.94 581.96 159.94C578.905 159.94 582.833 168.193 576.286 167.443Z" stroke="black" stroke-width="5"/>
<path d="M550.301 175.752C545.167 176.953 557.371 180.392 564.115 181.962C565.653 175.036 567.616 162.22 563.165 166.364C557.602 171.544 555.99 165.746 553.113 166.776C550.237 167.806 556.718 174.251 550.301 175.752Z" stroke="black" stroke-width="5"/>
<path d="M587.169 176.999C588.483 182.685 590.835 197.469 589.721 211.115" stroke="black" stroke-width="5"/>
<path d="M562.529 180.964C566.262 186.024 573.831 199.601 574.238 213.43" stroke="black" stroke-width="5"/>
<path d="M601.858 272.715C601.858 280.612 602.142 297.828 603.279 303.514C604.701 310.622 602.331 331.471 597.593 332.893C592.855 334.314 592.381 330.523 592.855 321.994C593.096 317.643 592.228 309.1 591.005 301.145" stroke="black" stroke-width="5"/>
<path d="M554.947 251.866C554 263.712 547.84 290.721 536.941 303.04C532.139 308.47 516.566 310.148 518.461 329.102C518.954 334.024 532.12 320.638 538.837 315.361C545.47 310.148 548.391 297.504 553.052 294.985" stroke="black" stroke-width="5"/>
<path d="M606.479 248.287C604.621 265.94 598.66 285.543 588.264 305.685C580.142 321.42 571.717 326.395 565.548 327.092C559.224 327.806 554.637 324.186 553.447 321.466C549.904 313.369 551.069 304.841 553.127 295.795C553.459 294.335 553.819 292.844 554.181 291.34C554.912 288.308 555.656 285.225 556.211 282.241C557.052 277.722 557.53 273.124 556.953 268.607C556.866 267.925 556.777 267.231 556.685 266.524C555.267 255.535 553.491 241.773 555.684 230.487C556.84 224.538 559.056 219.545 562.783 216.039C566.466 212.574 571.906 210.298 580.061 210.298C586.415 210.298 593.743 212.5 599.087 218.174C604.381 223.796 608.068 233.192 606.479 248.287Z" stroke="black" stroke-width="5"/>
<rect x="561.737" y="301.145" width="3.79073" height="8.52915" rx="1.89537" transform="rotate(13.9153 561.737 301.145)" fill="black"/>
<rect x="573.138" y="303.85" width="3.79073" height="8.52915" rx="1.89537" transform="rotate(18.4045 573.138 303.85)" fill="black"/>
<path d="M581.411 288.757C581.21 289.664 580.148 290.723 577.385 291.516C574.821 292.253 571.677 292.485 569.163 292.485C566.712 292.485 564.228 292.145 562.454 291.425C560.861 290.778 560.397 290.103 560.308 289.529C560.403 289.356 560.575 289.095 560.85 288.756C561.432 288.039 562.34 287.141 563.533 286.214C565.924 284.355 569.248 282.544 572.97 281.8C574.808 281.432 577.463 281.735 579.338 282.896C580.229 283.448 580.876 284.149 581.246 285.004C581.611 285.85 581.791 287.049 581.411 288.757ZM560.236 289.678C560.236 289.678 560.238 289.671 560.244 289.657C560.24 289.671 560.237 289.678 560.236 289.678Z" stroke="black" stroke-width="5"/>
<path d="M249.793 671.69C348.352 629.233 336.506 593.381 311.393 597.296C402.844 565.549 350.248 626.675 325.134 640.89C305.043 652.262 254.532 673.585 249.793 671.69Z" stroke="black" stroke-width="5"/>
<path d="M313.754 547.351C251.215 615.776 211.886 612.459 286.279 521.482C173.504 618.145 230.059 622.1 245.055 612.459C258.322 603.93 282.962 590.662 313.754 547.351Z" stroke="black" stroke-width="5"/>
<path d="M284.857 467.938C347.232 415.297 316.826 398.787 234.156 461.304C323.008 366.099 347.878 395.44 340.771 413.446C335.721 426.239 324.074 442.121 284.857 467.938Z" stroke="black" stroke-width="5"/>
<path d="M303.591 459.702C387.935 393.351 381.047 358.48 318.974 371.274C400.62 335.352 389.11 390.391 368.491 410.581C351.996 426.733 308.657 460.317 303.591 459.702Z" stroke="black" stroke-width="5"/>
<path d="M284.296 469.018C201.935 497.79 111.905 488.787 319.921 370.8C79.6837 480.257 146.969 517.296 197.196 503.002C219.401 496.683 282.318 473.723 284.296 469.018Z" stroke="black" stroke-width="5"/>
<path d="M259.27 366.536C409.952 247.02 357.355 188.371 240.316 267.977C365.41 170.839 405.687 241.441 360.198 284.561C340.913 302.842 345.035 301.619 259.27 366.536Z" stroke="black" stroke-width="5"/>
<path d="M295.673 381.975C101.481 430.504 187.246 328.628 319.922 291.195C176.094 317.73 159.289 343.317 148.391 364.64C138.773 383.457 154.077 428.609 295.673 381.975Z" stroke="black" stroke-width="5"/>
<path d="M328.042 282.903C137.59 309.682 174.926 204.956 373.94 152.359C87.2654 218.697 136.488 302.747 199.083 299.515C225.621 298.145 221.893 300.289 328.042 282.903Z" stroke="black" stroke-width="5"/>
<path d="M285.805 386.911C436.487 267.395 597.593 71.332 393.842 158.519C586.695 15.4188 586.221 144.304 497.139 226.752C477.636 244.802 381.995 312.991 285.805 386.911Z" stroke="black" stroke-width="5"/>
<path d="M257.848 618.146C340.297 552.281 346.457 457.987 266.194 505.322C360.198 430.504 358.749 501.58 333.189 546.595C321.79 566.671 262.888 617.338 257.848 618.146Z" stroke="black" stroke-width="5"/>
<path d="M260.218 616.724C393.367 546.122 376.826 453.37 319.448 457.987C457.81 403.021 425.589 498.263 375.361 545.648C349.151 570.374 267.63 618.928 260.218 616.724Z" stroke="black" stroke-width="5"/>
<path d="M274.619 499.247C139.1 626.711 173.031 659.843 311.866 597.296C246.476 622.06 240.316 635.678 191.984 639.468C155.913 642.297 103.562 603.966 274.619 499.247Z" stroke="black" stroke-width="5"/>
<path d="M269.724 474.359C472.027 392.881 522.726 285.035 310.445 285.035C569.636 252.34 493.348 374.756 463.022 394.492C422.875 420.62 309.497 463.673 269.724 474.359Z" stroke="black" stroke-width="5"/>
<path d="M269.695 502.528C155.025 525.746 -7.029 527.641 260.218 366.062C-16.9798 498.737 100.059 538.066 136.071 538.066C169.342 538.066 197.197 526.694 269.695 502.528Z" stroke="black" stroke-width="5"/>
<path d="M270.642 357.532C69.7332 425.765 23.2968 272.714 312.34 95.0232C-64.5163 276.368 71.2044 373.242 93.0011 388.5C117.641 405.748 171.135 413.446 270.642 357.532Z" stroke="black" stroke-width="5"/>
<path d="M621.759 492.908C619.876 516.126 614.177 520.391 608.017 527.972L611.334 541.24C617.968 546.452 621.719 555.939 624.602 566.827C628.866 582.938 644.029 590.045 652.084 579.147C660.14 568.249 654.859 552.189 644.503 542.661C632.657 531.763 619.863 531.289 610.386 531.763C639.291 525.129 650.535 502.432 653.032 482.957C655.401 464.477 646.398 448.35 634.552 451.21C617.494 455.327 623.18 475.376 621.759 492.908Z" stroke="black" stroke-width="5"/>
<path d="M268.746 656.527C305.706 680.764 345.035 651.788 345.035 651.788C372.001 632 401.701 599.2 430.501 552C466.501 493 487.501 454.384 553.001 470C596.001 480.252 629.501 547 614.001 632C578.501 664 515.501 718.178 396.001 723.5C272.501 729 179.334 664.547 146.001 628.57C153.744 633.782 167.818 636.151 169.24 636.151H169.277C170.669 636.152 171.042 636.152 157.394 628.57C145.074 621.726 116.806 591.137 130.859 561.285C135.858 550.664 145.545 563.989 149.972 570.079L150.124 570.288C157.706 580.712 173.816 596.823 177.133 596.823C180.45 596.823 164.028 588.695 154.077 556.546C147.645 535.767 150.286 500.159 164.028 500.159C170.989 500.159 179.156 532.252 190.089 556.546C207.147 594.453 231.787 632.289 268.746 656.527Z" stroke="black" stroke-width="5"/>
<path d="M531.319 547.544C533.763 564.082 523.897 578.684 510.011 580.736C496.126 582.787 482.459 571.662 480.015 555.123C477.572 538.585 487.438 523.983 501.324 521.932C515.209 519.88 528.876 531.006 531.319 547.544Z" stroke="black" stroke-width="5"/>
<ellipse cx="502.543" cy="543.292" rx="6.15994" ry="7.10763" transform="rotate(-9.9944 502.543 543.292)" fill="black"/>
<path d="M523.673 383.594C520.83 391.649 512.301 392.123 500.929 403.021C492.259 411.33 494.95 425.464 497.683 432.379M523.673 383.594C526.516 375.538 543.101 431.452 498.086 433.347C497.952 433.043 497.817 432.719 497.683 432.379M523.673 383.594C519.124 408.234 504.451 426.384 497.683 432.379" stroke="black" stroke-width="5"/>
<path d="M594.03 131.967C598.258 135.181 596.918 140.32 601.207 149.124C604.478 155.836 613.356 156.929 617.969 156.626M594.03 131.967C589.802 128.753 626.053 129.564 618.619 156.571C618.414 156.592 618.196 156.611 617.969 156.626M594.03 131.967C607.752 139.344 615.707 151.48 617.969 156.626" stroke="black" stroke-width="5"/>
<path d="M641.66 216.801C645.767 247.443 638.438 320.478 576.27 367.483" stroke="black" stroke-width="5"/>
<mask id="mask0_152_160" style="mask-type:alpha" maskUnits="userSpaceOnUse" x="19" y="40" width="364" height="393">
<ellipse cx="201" cy="236.5" rx="182" ry="196.5" fill="#D9D9D9"/>
</mask>
<g mask="url(#mask0_152_160)">
<path d="M254.102 124.611C261.044 136.867 232.181 119.134 216.882 108.735C227.696 93.1677 249.306 66.0952 249.232 82.3413C249.139 102.649 263.445 95.3122 266.633 102.827C269.822 110.341 245.425 109.292 254.102 124.611Z" stroke="black" stroke-width="5"/>
<path d="M263.878 203.353C263.003 217.411 248.503 186.796 241.363 169.731C258.922 162.592 291.808 151.709 282.876 165.279C271.71 182.243 287.702 183.906 286.271 191.943C284.839 199.979 264.972 185.78 263.878 203.353Z" stroke="black" stroke-width="5"/>
<path d="M216.624 108.765C209.114 111.802 178.198 123.4 168.275 138.256" stroke="black" stroke-width="5"/>
<path d="M244.062 169.804C235.059 168.484 211.78 166.691 190.691 170.08" stroke="black" stroke-width="5"/>
<path d="M81.3825 293.447C83.0922 292.662 84.8408 291.862 86.6227 291.047C113.397 278.8 147.697 263.111 170.705 241.701C182.931 230.324 191.764 217.508 194.676 202.942C197.576 188.436 194.678 171.814 182.714 152.627C177.184 143.757 166.412 134.773 155.69 128.092C85.144 190.072 55.4764 271.517 48.8104 314.943C58.8448 306.078 70.2727 298.55 81.3825 293.447Z" stroke="black" stroke-width="5"/>
</g>
</svg>
