<svg width="764" height="764" viewBox="0 0 764 764" fill="none" xmlns="http://www.w3.org/2000/svg">
<circle cx="382" cy="382" r="382" fill="#D9D9D9"/>
<circle cx="381.5" cy="381.632" r="341" stroke="black" stroke-width="5"/>
<path d="M376.5 358.132C350.167 357.798 293.2 357.332 286 358.132C277 359.132 281.5 361.632 276 364.132C270.5 366.632 265 364.132 263.5 371.132C262 378.132 258.5 378.132 251.5 382.632C244.5 387.132 255.5 401.132 254.5 405.632C253.5 410.132 244.5 418.632 238 421.632C231.5 424.632 229.5 431.632 220.5 435.632C211.5 439.632 211.5 431.632 206 435.632C200.5 439.632 210.5 458.632 199.5 459.632C188.5 460.632 189 468.132 179 465.132C171 462.732 165.667 466.132 164 468.132V643.632C180.167 660.132 233.5 698.032 317.5 717.632M376.5 358.132V288.132M376.5 358.132L375.041 566.194M376.5 288.132H353C351.833 287.965 349.5 286.532 349.5 282.132C349.5 277.732 349.5 267.298 349.5 262.632C349.5 260.965 350.5 257.632 354.5 257.632C355.003 257.632 358.527 257.632 364.5 257.632M376.5 288.132H412.5M651 288.132V589.632M651 288.132H590M651 288.132C655.333 288.132 670 288.132 674 288.132C678 288.132 678.333 282.632 678 282.132C678 277.132 678 270.232 678 264.632C678 259.032 673.333 257.632 671 257.632H659.5M364.5 257.632V242.132C364.167 240.632 365 237.632 371 237.632C371.527 237.632 373.421 237.632 376.5 237.632M364.5 257.632C389.592 257.632 457.888 257.632 526.765 257.632H624.328C633.807 257.632 642.757 257.632 651 257.632H659.5M651 237.632C641.563 237.632 631.128 237.632 620 237.632M651 237.632V200.632H376.5V237.632M651 237.632C653.667 237.465 659.1 237.932 659.5 241.132C659.9 244.332 659.667 253.465 659.5 257.632M445.5 237.632V226.132C445.333 224.465 445.9 221.132 449.5 221.132C450.741 221.132 464.414 221.132 484 221.132H582C583.344 221.132 584.678 221.132 586 221.132M445.5 237.632C435.241 237.632 425.655 237.632 417 237.632M445.5 237.632C463.208 237.632 482.923 237.632 503.332 237.632H601.134C607.598 237.632 613.903 237.632 620 237.632M620 237.632C620 236.132 620 232.032 620 227.632C620 223.232 616.667 221.465 615 221.132C607.571 221.132 599.097 221.132 590 221.132M412.5 288.132V237.632M412.5 288.132H417M412.5 288.132C412.5 289.632 413 290.632 414.5 290.632C415.7 290.632 416.667 288.965 417 288.132M412.5 237.632C413.97 237.632 415.47 237.632 417 237.632M412.5 237.632C395.998 237.632 383.332 237.632 376.5 237.632M412.5 237.632C413.024 235.886 413.757 235.347 414.5 235.432M417 237.632V288.132M417 237.632C416.436 236.692 415.46 235.541 414.5 235.432M417 288.132H562.5H586M586 221.132C587.345 221.132 588.679 221.132 590 221.132M586 221.132C586.833 218.965 588.8 215.932 590 221.132M586 221.132V288.132M590 221.132V288.132M414.5 235.432L511 98.6317M511 98.6317L588 216.632M511 98.6317L457.5 139.756M511 98.6317L475.5 101.178M511 98.6317L518.5 89.1317L514.5 82.1317L475.5 101.178M46.4999 446.632L95.9999 291.132M46.4999 446.632L197 339.996M46.4999 446.632C41.9999 426.965 35.6999 373.332 46.4999 316.132L95.9999 291.132M95.9999 291.132L197 339.996M95.9999 291.132L160.5 258.847M197 339.996L213.873 232.132M197 339.996L297.646 262.632M213.873 232.132L297.646 262.632M213.873 232.132L315 181.514M213.873 232.132L176.5 250.632M213.873 232.132C221 219.632 211 203.632 208 197.632C202.466 186.564 204.686 177.044 198.891 162.132M213.873 232.132C217.915 234.632 226.6 242.432 229 253.632M297.646 262.632L315 181.514M297.646 262.632L388.5 192.794M315 181.514L388.5 192.794M315 181.514L410.5 133.713M388.5 192.794L410.5 133.713M388.5 192.794L457.5 139.756M410.5 133.713L457.5 139.756M410.5 133.713L475.5 101.178M457.5 139.756L475.5 101.178M162.5 163.132C165.167 174.965 166.8 202.732 152 219.132C133.5 239.632 148.5 261.562 160.5 258.847M162.5 163.132L191 147.132M162.5 163.132C161.062 164.09 159.055 165.097 157 165.565M160.5 258.847L176.5 250.632M176.5 250.632C161 259.132 151.1 244.632 157.5 230.632M191 147.132C192.047 146.62 193.235 146.023 194.5 145.366M191 147.132C194.467 152.208 196.983 157.223 198.891 162.132M157 165.565C153.339 166.398 149.525 165.524 148.5 159.632C146.5 148.132 155 134.132 165 130.132C175 126.132 189.5 126.632 197.5 136.132C201.833 133.798 210.8 129.832 212 132.632C213.032 135.041 202.295 141.324 194.5 145.366M157 165.565C154.667 161.754 151.9 151.832 159.5 142.632C169 131.132 181.5 134.132 183.5 135.132C185.5 136.132 190.5 136.601 194.5 145.366M198.891 162.132C202.26 160.965 209.3 159.532 210.5 163.132C211.7 166.732 205.333 171.298 202 173.132M651 589.632C620 577.132 598 527.132 595 496.132C592 465.132 570 364.132 495 372.632C435 379.432 407 439.132 400.5 468.132C389.948 509.458 386.742 553.781 387.311 594.132M651 589.632C547.4 725.632 385.5 732.298 317.5 717.632M317.5 717.632C307.615 710.037 279.5 684.632 258.5 602.132C252 571.132 247.13 543.985 249 517.632C254.5 440.132 301 573.632 310 582.632C295.667 551.798 269.3 474.132 278.5 410.132C289.138 336.124 325.556 450.821 375.041 566.194M387.311 594.132C383.14 584.881 379.047 575.535 375.041 566.194M387.311 594.132C387.51 608.214 388.168 621.813 389.135 634.632M586 288.132H590M586 288.132C586 288.965 586.4 290.732 588 291.132C589.6 291.532 590 289.298 590 288.132M408.5 490.132C409.667 496.965 413.1 511.332 417.5 514.132C423 517.632 425 515.632 439 520.632C450.2 524.632 466.333 516.965 473 512.632C475.833 510.465 479.5 504.332 471.5 497.132C461.5 488.132 441.5 482.632 429.5 481.632C417.5 480.632 406.121 479.632 408.5 490.132Z" stroke="black" stroke-width="5"/>
<mask id="mask0_152_248" style="mask-type:alpha" maskUnits="userSpaceOnUse" x="49" y="473" width="629" height="252">
<rect x="49" y="473" width="629" height="252" fill="#D9D9D9"/>
</mask>
<g mask="url(#mask0_152_248)">
<path d="M174.95 554.863L221.933 641.94L281.565 654.734L238.28 568.543L174.95 554.863Z" fill="black"/>
<path d="M302.298 582.372L346.23 668.608L416.398 683.662L369.757 596.945L302.298 582.372Z" fill="black"/>
<path d="M162.6 629.211L115.751 542.075L75.9995 533.488C86.9995 556.632 119 604.132 145 625.435L162.6 629.211Z" fill="black"/>
<path d="M440.726 612.276L497.13 700.995C508.968 696.874 535.431 686.732 546.573 679.132L515.002 628.321L440.726 612.276Z" fill="black"/>
<path d="M162.6 629.211L115.751 542.075M162.6 629.211L222.054 642.164M162.6 629.211L145 625.435M115.751 542.075L174.95 554.863M115.751 542.075L75.9995 533.488C86.9995 556.632 119 604.132 145 625.435M174.95 554.863L238.28 568.543M174.95 554.863L221.933 641.94M222.054 642.164L281.565 654.734M222.054 642.164L221.933 641.94M281.565 654.734L238.28 568.543M281.565 654.734L346.23 668.608M281.565 654.734L221.933 641.94M238.28 568.543L302.298 582.372M302.298 582.372L346.23 668.608M302.298 582.372L369.757 596.945M346.23 668.608L416.398 683.662M416.398 683.662L369.757 596.945M416.398 683.662L497.13 700.995M369.757 596.945L440.726 612.276M440.726 612.276L497.13 700.995M440.726 612.276L515.002 628.321M497.13 700.995C508.968 696.874 535.431 686.732 546.573 679.132M515.002 628.321L597.5 646.142C585.882 655.138 559.431 674.332 546.573 679.132M515.002 628.321L546.573 679.132M221.933 641.94L145 625.435" stroke="black" stroke-width="5"/>
</g>
<mask id="mask1_152_248" style="mask-type:alpha" maskUnits="userSpaceOnUse" x="237" y="22" width="501" height="372">
<rect x="237" y="22" width="501" height="372" fill="#D9D9D9"/>
</mask>
<g mask="url(#mask1_152_248)">
<path d="M482.111 92.4767L489.611 175.013L540.611 209.301L531.111 125.52L482.111 92.4767Z" fill="black"/>
<path d="M582.66 160.282L593.111 244.597L652.139 284.282L636.611 196.664L582.66 160.282Z" fill="black"/>
<path d="M687 230.644L705.611 320.232L718.815 329.109C716.5 298.132 693.5 238.132 687 230.644Z" fill="black"/>
<path d="M442.611 143.415L435.611 61.1194L406.713 41.6317L391 41.1317L399.269 114.276L442.611 143.415Z" fill="black"/>
<path d="M303 50.1318L356.144 85.2822L351 42.1317C336.5 43.3926 318 46.1318 303 50.1318Z" fill="black"/>
<path d="M687 230.644L636.611 196.664M687 230.644L705.611 320.232M687 230.644C693.5 238.132 716.5 298.132 718.815 329.109M705.611 320.232L652.139 284.282M705.611 320.232L718.815 329.109M356.144 85.2822L303 50.1318C318 46.1318 336.5 43.3926 351 42.1317M356.144 85.2822L399.294 114.492M356.144 85.2822L351 42.1317M399.294 114.492L442.611 143.415M399.294 114.492L399.269 114.276M442.611 143.415L435.611 61.1194M442.611 143.415L489.611 175.013M442.611 143.415L399.269 114.276M435.611 61.1194L482.111 92.4767M435.611 61.1194L406.713 41.6317L391 41.1317M482.111 92.4767L489.611 175.013M482.111 92.4767L531.111 125.52M489.611 175.013L540.611 209.301M540.611 209.301L531.111 125.52M540.611 209.301L593.111 244.597M531.111 125.52L582.66 160.282M582.66 160.282L593.111 244.597M582.66 160.282L636.611 196.664M593.111 244.597L652.139 284.282M652.139 284.282L636.611 196.664M718.815 329.109L399.269 114.276M399.269 114.276L391 41.1317M351 42.1317C362.5 41.1317 381.5 40.1318 391 41.1317" stroke="black" stroke-width="5"/>
</g>
<rect x="408" y="286.132" width="33" height="25" rx="5" fill="black"/>
<rect x="499" y="286.132" width="33" height="25" rx="5" fill="black"/>
<rect x="590" y="351.132" width="33" height="55" rx="5" fill="black"/>
<rect x="590" y="286.132" width="33" height="25" rx="5" fill="black"/>
<path fill-rule="evenodd" clip-rule="evenodd" d="M504 351.132C501.239 351.132 499 353.37 499 356.132V373.199C502.294 372.507 505.826 372.132 509.5 372.132C518.232 372.132 526.161 374.251 532 377.7V356.132C532 353.37 529.761 351.132 527 351.132H504Z" fill="black"/>
<path fill-rule="evenodd" clip-rule="evenodd" d="M413 351.132C410.239 351.132 408 353.37 408 356.132V401.132C408 403.893 410.239 406.132 413 406.132H433.776C434.862 403.763 437.059 401.423 440.03 399.757C440.352 399.577 440.675 399.408 441 399.251V356.132C441 353.37 438.761 351.132 436 351.132H413Z" fill="black"/>
<path d="M625.87 561.63C623.799 564.972 621.02 567.313 618.312 568.464C615.595 569.617 613.174 569.507 611.42 568.42C609.666 567.333 608.49 565.214 608.315 562.268C608.139 559.33 609 555.801 611.071 552.459C613.142 549.117 615.92 546.776 618.629 545.625C621.345 544.472 623.766 544.582 625.52 545.669C627.274 546.756 628.45 548.875 628.626 551.821C628.801 554.759 627.941 558.288 625.87 561.63Z" stroke="black" stroke-width="5"/>
<path d="M606.489 592.029C604.211 595.233 601.29 597.394 598.514 598.371C595.731 599.35 593.321 599.088 591.639 597.892C589.958 596.696 588.918 594.507 588.929 591.556C588.939 588.613 590.021 585.145 592.299 581.94C594.577 578.736 597.498 576.575 600.274 575.598C603.058 574.619 605.467 574.881 607.149 576.077C608.831 577.273 609.87 579.462 609.86 582.413C609.849 585.356 608.767 588.824 606.489 592.029Z" stroke="black" stroke-width="5"/>
<path d="M583.27 617.477C580.453 620.22 577.191 621.821 574.285 622.283C571.37 622.747 569.048 622.055 567.608 620.577C566.169 619.099 565.539 616.758 566.08 613.857C566.619 610.964 568.306 607.746 571.123 605.003C573.94 602.261 577.202 600.66 580.108 600.198C583.022 599.734 585.345 600.426 586.785 601.904C588.224 603.382 588.854 605.723 588.313 608.624C587.774 611.517 586.087 614.735 583.27 617.477Z" stroke="black" stroke-width="5"/>
<path d="M556.866 639.601C553.807 642.071 550.411 643.363 547.475 643.554C544.53 643.745 542.281 642.842 540.984 641.236C539.688 639.631 539.278 637.242 540.085 634.404C540.891 631.573 542.868 628.526 545.927 626.055C548.986 623.585 552.382 622.293 555.319 622.103C558.264 621.911 560.512 622.815 561.809 624.42C563.105 626.026 563.515 628.414 562.708 631.253C561.903 634.083 559.925 637.131 556.866 639.601Z" stroke="black" stroke-width="5"/>
<rect x="612.708" y="561.2" width="6.15129" height="23.9647" rx="2" transform="rotate(32.0178 612.708 561.2)" fill="black"/>
<rect x="594.099" y="588.132" width="6.15129" height="23.9647" rx="2" transform="rotate(39.0563 594.099 588.132)" fill="black"/>
<rect x="571.922" y="612.041" width="6.15129" height="23.9647" rx="2" transform="rotate(51.3234 571.922 612.041)" fill="black"/>
<path d="M528.02 658.998C524.489 660.727 520.891 661.233 517.985 660.766C515.072 660.299 513.08 658.918 512.172 657.065C511.265 655.212 511.396 652.792 512.814 650.203C514.227 647.622 516.833 645.09 520.364 643.361C523.895 641.633 527.493 641.127 530.399 641.593C533.313 642.061 535.305 643.442 536.212 645.295C537.119 647.148 536.988 649.568 535.571 652.156C534.157 654.738 531.551 657.27 528.02 658.998Z" stroke="black" stroke-width="5"/>
<path d="M544.97 634.282C545.874 633.647 547.121 633.864 547.756 634.768L548.994 636.528C549.629 637.432 549.411 638.679 548.507 639.314L532.173 650.794C531.269 651.429 530.022 651.212 529.387 650.308L528.15 648.548C527.515 647.644 527.732 646.397 528.636 645.762L544.97 634.282Z" fill="black"/>
<path d="M491.029 664.221C487.11 663.914 483.755 662.52 481.49 660.641C479.218 658.757 478.205 656.555 478.366 654.498C478.527 652.441 479.871 650.424 482.408 648.916C484.937 647.412 488.468 646.557 492.388 646.864C496.308 647.171 499.663 648.565 501.928 650.444C504.199 652.328 505.212 654.53 505.051 656.587C504.89 658.644 503.547 660.661 501.01 662.169C498.48 663.673 494.949 664.528 491.029 664.221Z" stroke="black" stroke-width="5"/>
<path d="M455.613 656.636C451.988 655.115 449.239 652.739 447.678 650.245C446.112 647.743 445.84 645.335 446.638 643.432C447.436 641.529 449.345 640.035 452.226 639.399C455.1 638.764 458.721 639.059 462.347 640.58C465.973 642.1 468.721 644.476 470.283 646.971C471.848 649.472 472.12 651.881 471.322 653.784C470.524 655.686 468.616 657.181 465.734 657.817C462.86 658.451 459.239 658.156 455.613 656.636Z" stroke="black" stroke-width="5"/>
<path d="M424.444 635.898C421.467 633.329 419.59 630.219 418.878 627.363C418.164 624.5 418.652 622.126 420 620.564C421.348 619.002 423.625 618.172 426.562 618.459C429.491 618.746 432.843 620.148 435.819 622.717C438.796 625.286 440.673 628.396 441.385 631.252C442.099 634.115 441.612 636.489 440.263 638.051C438.915 639.613 436.638 640.443 433.701 640.156C430.772 639.869 427.421 638.467 424.444 635.898Z" stroke="black" stroke-width="5"/>
<path d="M402.189 610.128C399.643 607.132 398.267 603.769 398.002 600.838C397.738 597.899 398.585 595.629 400.157 594.292C401.73 592.956 404.107 592.487 406.965 593.223C409.815 593.957 412.911 595.858 415.457 598.854C418.003 601.851 419.379 605.213 419.643 608.144C419.908 611.083 419.061 613.354 417.489 614.69C415.916 616.026 413.538 616.495 410.681 615.759C407.831 615.025 404.735 613.124 402.189 610.128Z" stroke="black" stroke-width="5"/>
<rect x="487.637" y="651.942" width="6.15129" height="23.9647" rx="2" transform="rotate(99.1485 487.637 651.942)" fill="black"/>
<rect x="519.922" y="651.132" width="6.15129" height="23.9647" rx="2" transform="rotate(86.6093 519.922 651.132)" fill="black"/>
<rect x="454.895" y="644.444" width="6.15129" height="23.9647" rx="2" transform="rotate(126.671 454.895 644.444)" fill="black"/>
<rect x="428.026" y="623.429" width="6.15129" height="23.9647" rx="2" transform="rotate(136.202 428.026 623.429)" fill="black"/>
<rect x="408.717" y="600.601" width="6.15129" height="23.9647" rx="2" transform="rotate(148.663 408.717 600.601)" fill="black"/>
<path d="M383.852 581.342C382.131 577.807 381.634 574.208 382.108 571.303C382.582 568.39 383.968 566.402 385.823 565.499C387.678 564.596 390.098 564.733 392.683 566.157C395.261 567.576 397.786 570.188 399.507 573.723C401.227 577.259 401.724 580.858 401.251 583.762C400.776 586.675 399.391 588.664 397.536 589.566C395.68 590.469 393.26 590.333 390.675 588.909C388.098 587.489 385.572 584.877 383.852 581.342Z" stroke="black" stroke-width="5"/>
<path d="M464.183 484.489C463.879 484.482 459.767 474.183 456.296 465.106C454.942 461.564 457.908 457.91 461.659 458.465L532.934 469.003C536.748 469.567 538.516 474.054 536.111 477.068L525.288 490.63C524.183 492.014 522.441 492.712 520.688 492.463C500.373 489.576 464.564 484.498 464.183 484.489Z" fill="black" stroke="black" stroke-width="5"/>
<path d="M385.177 461.21C384.939 461.171 382.776 451.325 381.166 442.366C380.521 438.773 383.899 435.859 387.392 436.917L440.406 452.985C443.847 454.028 445.095 458.254 442.773 460.999L432.524 473.115C431.216 474.661 429.109 475.267 427.181 474.648C411.56 469.629 385.467 461.257 385.177 461.21Z" fill="black" stroke="black" stroke-width="5"/>
<path d="M535.997 469.31C546.893 460.879 569.815 444.557 574.338 446.717C578.212 448.567 576.383 448.667 574.402 448.417C573.751 448.335 573.093 448.332 572.468 448.529C567.651 450.04 555.312 456.365 537.157 472.252" stroke="black" stroke-width="5"/>
<path d="M461.824 458.781C461.425 458.803 446.85 454.942 439.546 452.992C439.5 452.98 439.456 452.975 439.409 452.978C438.974 453.001 438.829 453.573 439.201 453.8L445.898 457.892C446.142 458.041 446.406 458.153 446.682 458.224L454.545 460.249C455.439 460.48 456.38 460.458 457.263 460.186L461.824 458.781Z" stroke="black" stroke-width="5"/>
<path d="M185.858 159.552C187.292 160.336 188.131 165.679 187.346 167.114C186.562 168.548 184.763 169.075 183.329 168.29C181.894 167.506 181.056 162.163 181.841 160.729C182.625 159.295 184.424 158.768 185.858 159.552Z" fill="black"/>
</svg>
