<svg width="764" height="764" viewBox="0 0 764 764" fill="none" xmlns="http://www.w3.org/2000/svg">
<circle cx="382" cy="382" r="382" fill="#D9D9D9"/>
<circle cx="381.5" cy="382.5" r="341" stroke="black" stroke-width="5"/>
<path d="M244.585 437C250.331 426.502 257.017 415.695 265 404.5C292.676 365.69 329.054 348.537 369.5 347.759M244.585 437C219.025 483.702 212.096 524.268 192.5 565.5C181.954 587.691 172.446 618.771 170.234 649.5C178.022 656.3 189.402 663.667 194.119 666.5M244.585 437C282.557 449.625 389.6 465.487 514 427.937M514 427.937C533.734 461.467 549.519 503.322 572 547.5C588.716 580.348 594.578 616.809 594.658 649C572.664 666.5 512.709 704.4 448.838 716M514 427.937C495.989 397.335 474.687 373.668 442 361.5C417.082 352.224 392.626 347.314 369.5 347.759M514 427.937C514.333 414.458 522.6 390.4 553 402C551.644 409.032 544.687 421.785 527.5 426.299M514 427.937C519 439.125 533.4 458 551 444C548.833 437.206 541.1 424.154 527.5 426.299M514 427.937C519.076 427.937 523.557 427.335 527.5 426.299M369.5 347.759C359.167 340.006 341.4 322.4 353 314C367.5 303.5 371.5 339.518 369.5 347.759ZM369.5 347.759C369.667 341.839 371.5 329.2 377.5 326C385 322 405 335.018 369.5 347.759ZM231.5 622.5C240.5 638.333 276.5 670.3 348.5 671.5C438.5 673 457 644 465.5 655.5C474 667 467.5 693 417 701.5C424.246 699.524 436.353 697.678 444 700.421M444 700.421C447.962 701.842 450.727 704.495 451 709C451.162 711.672 450.344 713.992 448.838 716M444 700.421C472.667 691.614 533.1 654.8 545.5 578M192.5 636.5C191.751 647.489 192.433 657.485 194.119 666.5M448.838 716C401.305 727.5 283.814 733.7 194.119 666.5M284 420C280.167 418.667 275.1 413.2 285.5 402C298.5 388 333.5 390.701 341 408.5C348.5 426.299 323.5 418 317.5 417.5C314.451 417.246 310.885 416.863 307 416.875C303.24 416.888 299.181 417.27 295 418.5C288.2 420.5 284.833 420.333 284 420ZM412.5 415.125C408.667 413.791 403.6 408.325 414 397.125C427 383.125 462 385.825 469.5 403.625C477 421.424 452 413.125 446 412.625C442.951 412.371 439.385 411.987 435.5 412C431.74 412.012 427.681 412.395 423.5 413.625C416.7 415.625 413.333 415.458 412.5 415.125Z" stroke="black" stroke-width="5"/>
<circle cx="311" cy="409" r="8.5" fill="black"/>
<circle cx="439" cy="405" r="8.5" fill="black"/>
<path d="M331.5 505.731C349.762 510.339 371.477 512.172 383.5 512.5C397.046 512.5 423.196 510.467 445.5 503.502M331.5 505.731C321.916 503.313 313.283 500.13 307.5 496C286.5 481 292.5 464 307.5 467.5C324 471.35 335.5 486.5 383.5 486.5C431.5 486.5 442.5 475.5 462.5 464C482.5 452.5 498.5 472.5 469.5 492.5C462.84 497.093 454.482 500.698 445.5 503.502M331.5 505.731C325.334 509.654 316.7 520 331.5 530C350 542.5 416.5 544.5 444 530C461 521.036 454.167 507.502 445.5 503.502" stroke="black" stroke-width="5"/>
<path d="M255.5 647.5C255.5 619.333 278.333 596.5 306.5 596.5C334.667 596.5 357.5 619.333 357.5 647.5C357.5 656.177 355.333 664.347 351.511 671.5" stroke="black" stroke-width="5"/>
<path d="M308 598L309 590.5C317.074 590.5 324.213 591.791 330.5 594.544M342 612.5L347 607.5C342.31 601.58 336.838 597.319 330.5 594.544M330.5 594.544C331.833 592.863 332.5 590 332.5 586" stroke="black" stroke-width="5"/>
<path d="M331.245 571.453C331.64 570.237 333.36 570.237 333.755 571.453C334.601 574.057 337.028 575.82 339.765 575.82C341.044 575.82 341.575 577.455 340.541 578.207C338.326 579.816 337.399 582.669 338.245 585.273C338.64 586.488 337.249 587.499 336.215 586.748C334 585.139 331 585.139 328.785 586.748C327.751 587.499 326.36 586.488 326.755 585.273C327.601 582.669 326.674 579.816 324.459 578.207C323.425 577.455 323.956 575.82 325.235 575.82C327.972 575.82 330.399 574.057 331.245 571.453Z" stroke="black" stroke-width="5"/>
<path d="M387.024 669.5C380.223 646.229 389.509 620.391 411.199 607.169C437.123 591.365 470.95 599.57 486.753 625.494C496.116 640.853 497.052 658.985 490.869 674.5" stroke="black" stroke-width="5"/>
<path d="M413.421 607.708L410.134 600.244C417.564 595.714 424.86 592.897 432.191 591.903M452.85 601.977L454.647 594.57C447.009 591.752 439.582 590.901 432.191 591.903M432.191 591.903C432.475 589.607 431.482 586.599 429.238 582.917" stroke="black" stroke-width="5"/>
<path d="M419.731 570.277C419.369 568.753 421.169 567.656 422.358 568.676C424.534 570.543 427.664 570.797 430.112 569.304C431.449 568.489 433.049 569.862 432.446 571.308C431.343 573.954 432.069 577.009 434.245 578.876C435.434 579.896 434.622 581.842 433.061 581.715C430.203 581.484 427.522 583.118 426.419 585.764C425.816 587.211 423.715 587.04 423.352 585.516C422.69 582.727 420.306 580.682 417.449 580.45L417.247 582.942L417.449 580.45C415.887 580.324 415.4 578.273 416.738 577.457C419.186 575.965 420.394 573.066 419.731 570.277Z" stroke="black" stroke-width="5"/>
<path d="M453.106 603.5C459.373 588.462 472.232 576.348 489.146 571.647C509.766 565.917 530.907 572.733 544.438 587.5" stroke="black" stroke-width="5"/>
<path d="M491.137 572.772L490.011 564.694C498.396 562.364 506.183 561.644 513.507 562.688M530.633 578.017L534.383 571.381C527.803 566.586 520.891 563.741 513.507 562.688M513.507 562.688C514.406 560.557 514.273 557.392 513.118 553.238" stroke="black" stroke-width="5"/>
<path d="M507.421 538.483C507.488 536.918 509.519 536.354 510.385 537.66C511.968 540.049 514.911 541.148 517.673 540.38C519.182 539.96 520.347 541.718 519.372 542.944C517.589 545.189 517.453 548.327 519.037 550.716C519.902 552.022 518.591 553.673 517.123 553.125C514.438 552.122 511.412 552.963 509.628 555.208C508.654 556.434 506.679 555.697 506.746 554.132C506.87 551.268 505.135 548.65 502.449 547.648L501.575 549.99L502.449 547.648C500.981 547.1 501.072 544.994 502.582 544.574C505.344 543.806 507.297 541.348 507.421 538.483Z" stroke="black" stroke-width="5"/>
<path d="M337 597.699C341.079 592.619 346.136 588.184 352.093 584.696C374.462 571.597 402.281 576.098 419.486 594" stroke="black" stroke-width="5"/>
<path d="M354.305 585.274L351.15 577.753C358.66 573.355 366.004 570.668 373.352 569.804M393.829 580.242L395.757 572.868C388.17 569.915 380.759 568.933 373.352 569.804M373.352 569.804C373.676 567.513 372.737 564.488 370.558 560.767" stroke="black" stroke-width="5"/>
<path d="M361.277 547.961C360.942 546.43 362.761 545.365 363.932 546.406C366.074 548.311 369.199 548.62 371.673 547.172C373.025 546.38 374.6 547.781 373.972 549.216C372.822 551.842 373.493 554.91 375.636 556.815C376.806 557.856 375.961 559.787 374.402 559.633C371.549 559.351 368.839 560.938 367.689 563.564C367.06 564.999 364.963 564.792 364.628 563.261C364.014 560.461 361.668 558.374 358.815 558.092L358.569 560.58L358.815 558.092C357.256 557.937 356.805 555.878 358.157 555.087C360.63 553.638 361.89 550.761 361.277 547.961Z" stroke="black" stroke-width="5"/>
<path d="M329.865 592C327.717 586.652 324.63 581.575 320.586 577.016C301.706 555.726 269.141 553.773 247.851 572.653C232.217 586.518 227.01 607.761 232.823 626.5" stroke="black" stroke-width="5"/>
<path d="M249.99 572.782L245.719 566.442C251.821 561.03 258.083 557.221 264.68 555.087M285.409 560.951L285.837 553.82C278.324 552.488 271.332 552.936 264.68 555.087M264.68 555.087C264.561 552.923 263.146 550.312 260.465 547.288" stroke="black" stroke-width="5"/>
<path d="M249.742 537.144C249.215 535.938 250.541 534.762 251.676 535.429C254.051 536.825 257.055 536.532 259.116 534.704C260.101 533.831 261.628 534.728 261.345 536.013C260.751 538.704 261.958 541.47 264.333 542.865C265.468 543.532 265.087 545.262 263.777 545.389C261.035 545.657 258.777 547.659 258.184 550.349C257.901 551.635 256.138 551.807 255.611 550.6C254.51 548.075 251.908 546.546 249.166 546.814C247.856 546.941 247.148 545.318 248.132 544.444C250.194 542.616 250.843 539.669 249.742 537.144Z" stroke="black" stroke-width="5"/>
<path d="M599 310.5C560.2 317.3 533.5 356 525 374.5L535.5 372.5C549.5 339.3 583.667 317.333 599 310.5Z" stroke="black" stroke-width="5"/>
<path d="M212.5 339.5C232.5 348.413 256 386.5 264.5 405L258.5 413C254 393 232 357 212.5 339.5Z" stroke="black" stroke-width="5"/>
<path d="M154.5 382.5C181.808 392.565 218 447 224.5 470.5L213.5 468.5C209 434 181.125 402.262 154.5 382.5Z" stroke="black" stroke-width="5"/>
<path d="M326.518 252.081C316.566 249.748 312.585 261.08 326.518 271.078C330.354 273.831 336.082 275.953 342.441 277.565C338.35 280.18 332.622 287.076 342.441 293.742C354.715 302.074 398.835 303.407 417.08 293.742C428.359 287.767 423.825 278.745 418.075 276.079C424.034 274.21 429.579 271.807 433.998 268.745C453.238 255.414 442.623 242.083 429.354 249.748C416.085 257.414 408.787 264.746 376.941 264.746C345.095 264.746 337.465 254.647 326.518 252.081Z" stroke="black" stroke-width="5"/>
<path d="M318.575 230.579C327.043 224.702 329.71 222.598 337.929 220.011C349.23 216.455 353.932 219.437 359 214C362.93 209.785 360.7 204.044 354.359 201.701C350.945 200.439 333.147 197.085 315.1 210.259C300.238 221.108 305.347 239.759 318.575 230.579Z" stroke="black" stroke-width="5"/>
<path d="M432.692 227.916C423.706 222.866 423.927 221.798 415.5 220C403.913 217.528 398.06 219.433 392.5 214.5C388.189 210.675 388.746 203.981 394.837 201.049C398.117 199.471 415.518 194.449 434.73 205.858C450.551 215.253 446.728 235.804 432.692 227.916Z" stroke="black" stroke-width="5"/>
<path d="M577 141.5C574.6 158.3 558 154 556 146.5C553.5 167.5 543 218 475 213C473.289 212.874 471.623 212.703 470 212.49M577 141.5C573.333 139.667 566.5 134 565.5 123.5M577 141.5C587.154 146.013 603.7 146.622 610.938 131.5C589.689 111.5 565.026 95.1666 555.35 89.5M265 187.559C256.108 188.323 246.154 188.183 235 187C191.438 182.38 171.054 148.294 162.597 122.5C166.9 118.333 180.355 106.9 199.753 94.5M265 187.559C308.726 183.801 326.775 158.163 335.5 127C335.667 137.667 343.1 159.7 371.5 162.5C399.9 165.3 410.667 145.333 412.5 135C411.532 158.729 420.038 205.911 470 212.49M265 187.559C282.5 209.539 310.8 278.9 284 380.5M470 212.49C462.5 238.493 456.5 311.5 492.5 395.5M199.753 94.5C203.945 99.5565 208.908 104.186 214.5 107.5C238.634 121.802 282.5 116 292.5 85.5C294.5 98 315.8 106.7 327 89.5C331.667 100.667 347.5 122.9 373.5 122.5C406 122 420.5 113.5 428 88C429.5 96.5 434.163 106.033 444 108C456.5 110.5 472 100.5 467 82C474.333 93.8333 494.3 117.1 515.5 115.5C539.678 113.675 552.202 103.11 555.35 89.5M199.753 94.5C253.236 55 399.231 -1.30003 555.35 89.5" stroke="black" stroke-width="5"/>
<path d="M494 396.5C501.5 385 530.5 362 563 380.5C594.5 398.431 595.5 430 589 445.5C603.4 431.5 619 444.667 625 453C618.6 433.8 634 422 642.5 418.5C626.9 358.5 652.5 302.5 712 297.5C716.833 315.667 725.5 363 721.5 407M228 472.5C216.833 468 189.9 462.8 171.5 478C153.1 493.2 154 520.5 155.5 533C154.904 526 150 503.5 125 513C140.333 495.5 159.4 452.9 113 422.5C101.833 415.667 72.4 407.6 44 430C45.5901 450.732 52.9195 483.054 69.0576 519M207.5 527.5C187.1 530.3 178.5 552.5 183 565.5C165 550.5 144 562.5 140.5 571C136 554.5 117 559 113 565.5C114.872 548.5 108.704 515.4 69.0576 519M538.5 475.5C546 469.667 565.6 460.5 584 470.5C602.4 480.5 603.667 502.333 602 512C603.207 505 617 498.5 625 509.5C623 499.5 633 484 651 492.5C644 478 652 460 671.5 465C666.667 441.833 669.9 397.8 721.5 407M69.0576 519C96.8995 581.015 150.96 653.815 247 696.5C438.5 781.611 625 654.5 671.5 560.5C710.3 502.1 721 433.833 721.5 407" stroke="black" stroke-width="5"/>
<path d="M548.5 238C511.3 273.6 496 356.5 493 393.5L504.5 384.5C508.5 309.7 535.5 255.667 548.5 238Z" stroke="black" stroke-width="5"/>
<path d="M587.5 174.5C585.1 177.7 592.5 182.5 596.5 184.5C604.9 186.1 600.333 180.5 597 177.5C594.833 175.167 589.9 171.3 587.5 174.5Z" stroke="black" stroke-width="5"/>
<path d="M562 195C556 200.5 551 195 556 190C564.062 181.937 569 181 575.716 176M562 195C564.692 190.187 569.612 182.779 575.716 176M562 195C557.681 203.639 560.206 209.628 564 213.848M602.111 199.5C603.434 194.645 605.076 189.546 610.5 182C622 166 616.5 155.5 597.5 160.5C589.739 162.542 582.083 168.929 575.716 176M602.111 199.5C600.629 204.94 599.548 210.074 594 218C591.831 221.099 585.109 224.374 577.5 222.537M602.111 199.5C599.5 205.5 592 217 588 213C584 209 592.5 203 596 198.5M564 213.848C565.915 215.978 568.155 217.658 570 219C572.51 220.826 575.051 221.946 577.5 222.537M564 213.848L560.5 219M577.5 222.537L575.5 227.5" stroke="black" stroke-width="5"/>
<path d="M566.666 234.554L575.231 228.245L576.417 238.86L575.596 238.245C574.681 237.561 573.539 237.25 572.403 237.376L571.137 237.517L570.245 236.369C569.562 235.49 568.578 234.896 567.483 234.7L567.043 237.161L567.483 234.7L566.666 234.554ZM565.521 234.349C565.521 234.349 565.521 234.349 565.521 234.349L565.521 234.349Z" stroke="black" stroke-width="5"/>
<path d="M549.796 222.371L559.959 219.232L557.586 229.646L557.013 228.795C556.374 227.848 555.399 227.179 554.284 226.924L553.042 226.64L552.577 225.262C552.222 224.208 551.489 223.323 550.519 222.778L549.294 224.957L550.519 222.778L549.796 222.371ZM548.782 221.801C548.782 221.801 548.782 221.801 548.782 221.801L548.782 221.801Z" stroke="black" stroke-width="5"/>
<path d="M599.1 166.645C599.1 167.473 596.928 169.145 596.1 169.145C595.271 169.145 594.6 168.473 594.6 167.645C594.6 166.816 596.771 165.145 597.6 165.145C598.428 165.145 599.1 165.816 599.1 166.645Z" fill="black"/>
<path d="M608 172C608 172.828 605.828 174.5 605 174.5C604.172 174.5 603.5 173.828 603.5 173C603.5 172.172 605.672 170.5 606.5 170.5C607.328 170.5 608 171.172 608 172Z" fill="black"/>
<path d="M173.636 265.002C176.448 268.954 167.779 274.882 163.093 277.352C153.252 279.329 158.602 272.412 162.507 268.707C165.045 265.825 170.825 261.049 173.636 265.002Z" stroke="black" stroke-width="5"/>
<path d="M200.319 284.661C207.348 291.454 213.205 284.661 207.348 278.485C197.904 268.528 192.119 267.37 184.251 261.194M200.319 284.661C197.166 278.716 191.402 269.567 184.251 261.194M200.319 284.661C205.379 295.33 202.421 302.727 197.976 307.939M153.33 290.219C151.78 284.222 149.856 277.924 143.503 268.605C130.031 248.843 136.474 235.875 158.732 242.05C167.823 244.573 176.792 252.461 184.251 261.194M153.33 290.219C155.066 296.938 156.333 303.278 162.832 313.068C165.373 316.895 173.247 320.94 182.161 318.672M153.33 290.219C156.389 297.629 154.5 315.5 148.5 313.068C139.696 309.499 147.738 291.959 148.5 276.959M197.976 307.939C195.732 310.571 193.109 312.645 190.947 314.303C188.006 316.558 185.03 317.942 182.161 318.672M197.976 307.939L202.076 314.303M182.161 318.672L184.504 324.801" stroke="black" stroke-width="5"/>
<path d="M193.718 336.504L184.382 325.094L179.425 339.55L181.661 338.489L182.645 340.762L181.661 338.489C182.736 337.978 183.951 337.91 185.043 338.298L186.77 338.911L188.365 337.538C189.25 336.776 190.376 336.375 191.514 336.419L191.331 338.935L191.514 336.419L193.718 336.504Z" stroke="black" stroke-width="5"/>
<path d="M202.846 314.217L202.846 314.218L202.846 314.217ZM202.705 315.095L200.283 330.166L202.375 328.641C203.313 327.958 204.453 327.662 205.563 327.814L207.468 328.074L208.871 326.345C209.59 325.46 210.591 324.87 211.679 324.691L213.948 324.318L202.705 315.095ZM215.081 324.132C215.081 324.132 215.081 324.132 215.081 324.132L215.081 324.132ZM214.826 325.038C214.826 325.038 214.826 325.038 214.826 325.038L214.826 325.038ZM207.287 328.297L207.287 328.296L207.287 328.297Z" stroke="black" stroke-width="5"/>
<path d="M160.911 255.219C160.628 256.202 162.502 258.89 163.434 259.159C164.367 259.427 165.352 258.848 165.635 257.865C165.918 256.881 164.045 254.193 163.113 253.925C162.18 253.656 161.194 254.236 160.911 255.219Z" fill="black"/>
<path d="M149.062 258.69C148.779 259.673 150.652 262.361 151.585 262.629C152.518 262.898 153.503 262.319 153.786 261.335C154.069 260.352 152.196 257.664 151.263 257.396C150.331 257.127 149.345 257.707 149.062 258.69Z" fill="black"/>
<path d="M639.483 308.289C639.197 312.278 632.547 318.697 626 315.5C619.453 312.303 614.947 313.839 613.952 309.439C615.989 302.187 618.742 307.175 624 304.5C633.312 299.762 639.77 304.301 639.483 308.289Z" fill="black"/>
<path d="M145.565 378.612C144.315 381.074 141.065 380.802 138.5 379.5C134.314 377.375 132.039 377.696 132.45 374.561C135.842 370.568 137.324 372.721 141.871 373.244C145.065 373.612 146.815 376.15 145.565 378.612Z" fill="black"/>
</svg>
