<svg width="77" height="77" viewBox="0 0 77 77" fill="none" xmlns="http://www.w3.org/2000/svg">
<path d="M8.23664 9.27859L8.64995 9.40882C8.86366 9.47615 8.92386 9.74986 8.75813 9.90065C8.34596 10.2757 8.4095 10.9414 8.88515 11.2317L9.37368 11.5298C9.7397 11.7532 10.194 11.7758 10.5804 11.5899L11.1441 11.3186C11.8296 10.9888 12.2655 10.2953 12.2655 9.53453L12.2655 9.265C12.2655 8.77778 12.5913 8.35071 13.0612 8.22191C14.0238 7.95804 14.5239 6.89743 14.115 5.98691L14.0485 5.83894C13.5588 4.74832 12.1494 4.44966 11.2593 5.24787L10.2872 6.11971C10.0817 6.30402 9.78064 6.33439 9.54248 6.19486C8.87368 5.80304 8.0152 6.15166 7.80891 6.89882L7.51715 7.95559C7.36177 8.51836 7.6798 9.10315 8.23664 9.27859ZM9.77263 69.3915L9.57434 69.2046L9.77264 69.3915C9.8184 69.343 9.86984 69.3001 9.92586 69.2638L11.817 68.0393C11.9521 67.9519 12.1196 67.9308 12.2721 67.9822L13.3078 68.3308C13.5189 68.4018 13.5034 68.7054 13.2862 68.7547C12.9376 68.8339 12.6902 69.1437 12.6902 69.5012L12.6902 71.8219C12.6902 72.094 12.5401 72.3439 12.2998 72.4717L12.1604 72.5459C11.7334 72.773 11.2183 72.4635 11.2183 71.9799C11.2183 71.3215 10.6754 70.7938 10.0237 70.7938C9.42402 70.7938 9.12106 70.0829 9.51563 69.6642L9.77263 69.3915ZM8.81372 8.88904L8.40041 8.75881C8.12337 8.67153 7.96516 8.3806 8.04246 8.10063L8.33423 7.04386C8.44522 6.64183 8.90714 6.45426 9.267 6.66508C9.70964 6.92439 10.2691 6.86794 10.651 6.52543L11.6232 5.65358C12.2385 5.10176 13.2128 5.30823 13.5514 6.06219L13.6178 6.21016C13.8897 6.81561 13.5572 7.52088 12.9171 7.69634C12.2105 7.89003 11.7206 8.5323 11.7206 9.265L11.7206 9.53452C11.7206 10.0859 11.4046 10.5885 10.9078 10.8276L10.3441 11.0988C10.1243 11.2046 9.8658 11.1917 9.65756 11.0646L9.16903 10.7665C9.00368 10.6656 8.98158 10.4341 9.12488 10.3037C9.60158 9.87003 9.42842 9.0827 8.81372 8.88904ZM6.1414 6.49097L7.07413 5.62053C7.68405 5.05135 7.63272 4.0696 6.96676 3.56712C6.33537 3.09073 5.43107 3.26059 5.01559 3.93362L4.56346 4.666C4.37862 4.9654 4.32348 5.3271 4.4107 5.66799L4.49823 6.01006C4.65015 6.60382 5.2975 6.92048 5.85948 6.67594C5.96329 6.63078 6.05865 6.56822 6.1414 6.49097ZM6.70231 5.22211L5.76959 6.09255L5.9555 6.29176L5.76958 6.09256C5.73214 6.1275 5.68902 6.15579 5.64207 6.17622C5.38779 6.28686 5.09492 6.1436 5.02618 5.87497L4.93866 5.5329C4.88811 5.33536 4.92007 5.12577 5.02717 4.95227L5.4793 4.21989C5.72614 3.82004 6.26341 3.71912 6.63853 4.00215C7.03418 4.30068 7.06468 4.88394 6.70231 5.22211ZM71.9959 70.3427L71.9959 69.8041C71.9959 69.2689 71.6054 68.8137 71.0765 68.7323L69.7209 68.5236C68.9861 68.4105 68.2755 68.839 68.0328 69.5418L67.9964 69.6469C67.8076 70.1937 67.98 70.8002 68.4282 71.1658L69.3597 71.9256C69.8877 72.3563 70.679 71.9806 70.679 71.2992L70.679 71.1898C70.679 71.0494 70.8242 70.956 70.9519 71.0142C71.4406 71.2369 71.9959 70.8797 71.9959 70.3427ZM71.4509 69.8041L71.4509 70.3427C71.4509 70.4832 71.3057 70.5766 71.1779 70.5183C70.6893 70.2957 70.134 70.6528 70.134 71.1898L70.134 71.2992C70.134 71.5212 69.8762 71.6436 69.7042 71.5033L68.7727 70.7435C68.5016 70.5224 68.3973 70.1555 68.5115 69.8248L68.5479 69.7197C68.7046 69.2659 69.1635 68.9892 69.638 69.0622L70.9935 69.2709C71.2567 69.3114 71.4509 69.5379 71.4509 69.8041ZM70.0443 64.5566L69.8699 64.0912C69.6547 63.5166 69.0127 63.2273 68.4396 63.4466C68.0118 63.6103 67.7292 64.0209 67.7292 64.479L67.7292 65.0236C67.7292 65.3217 67.8411 65.6089 68.0427 65.8285C68.6629 66.504 69.7819 66.2537 70.0552 65.3783L70.0663 65.3428C70.1466 65.0856 70.1389 64.8089 70.0443 64.5566ZM69.3596 64.2824L69.534 64.7478C69.586 64.8867 69.5903 65.0389 69.5461 65.1804L69.535 65.2159C69.3869 65.6904 68.7803 65.8261 68.4441 65.4599C68.3348 65.3409 68.2742 65.1852 68.2742 65.0236L68.2742 64.479C68.2742 64.2468 68.4174 64.0385 68.6344 63.9555C68.9249 63.8443 69.2505 63.991 69.3596 64.2824ZM12.4163 73.027L12.5557 72.9529C12.9739 72.7305 13.2352 72.2955 13.2352 71.8219L13.2352 69.5012C13.2352 69.3982 13.3065 69.309 13.4069 69.2862C14.161 69.115 14.2145 68.061 13.4816 67.8143L12.4459 67.4657C12.136 67.3613 11.7953 67.4041 11.5208 67.5819L9.62967 68.8064C9.53696 68.8664 9.45181 68.9374 9.37605 69.0177L9.11906 69.2904C8.38012 70.0744 8.97068 71.3388 10.0237 71.3388C10.381 71.3388 10.6733 71.6291 10.6733 71.9799C10.6733 72.8746 11.6263 73.4472 12.4163 73.027ZM73.8936 1.95618L73.6721 2.11487L73.8936 1.95618C73.5879 1.52946 73.019 1.38547 72.5471 1.61538C72.3397 1.71641 72.1353 1.67015 72.0079 1.55998C71.886 1.45449 71.8299 1.28944 71.9201 1.09773C72.0201 0.885055 72.1196 0.71331 72.2123 0.598968C72.3006 0.48986 72.3458 0.477966 72.3455 0.476875C72.3455 0.47686 72.3455 0.476844 72.3455 0.476829L73.5992 0.476829C73.8514 0.476829 74.0862 0.605133 74.2224 0.817344L74.2964 0.932678C74.4867 1.22919 74.8148 1.40848 75.1671 1.40848C75.5794 1.40848 75.8071 1.88675 75.5473 2.20679L75.7583 2.37811L75.5473 2.20679L75.3142 2.49395C75.0373 2.83499 74.5118 2.81915 74.256 2.46205L73.8936 1.95618ZM67.4712 73.5252L64.1498 74.3999C62.8398 74.7449 61.4909 74.9195 60.1363 74.9195L52.5045 74.9195C51.9911 74.9195 51.4995 74.722 51.0023 74.4108C50.5812 74.1472 50.1766 73.816 49.7615 73.4762C49.6829 73.4119 49.604 73.3473 49.5244 73.2828C49.0354 72.8858 48.5239 72.4915 47.9868 72.2553C47.439 72.0143 46.8495 71.9311 46.2204 72.1735C45.8024 72.3346 40.4611 74.0696 37.8118 74.9268L32.6342 75.8291C30.6069 76.1824 28.5276 75.614 26.9619 74.2786L26.7289 74.0798C25.2819 72.8457 23.3822 72.2777 21.4953 72.5152L16.8508 73.0997C16.1226 73.1914 15.5764 73.8106 15.5764 74.5446C15.5764 75.0479 15.1684 75.4559 14.6651 75.4559L9.12571 75.4559C8.73321 75.4559 8.34436 75.3803 7.9804 75.2333L5.10586 74.0726C4.34629 73.7659 4.16818 72.7709 4.77417 72.2198C5.46149 71.5946 5.50036 70.5266 4.86028 69.8532L3.68607 68.6178C3.03593 67.9338 2.77736 66.9666 2.99948 66.0494L3.41868 64.3183C3.78787 62.7938 3.60142 61.1876 2.89282 59.7881L2.77154 59.5486C1.76761 57.5659 1.79963 55.217 2.85724 53.2624L3.18122 52.6637C4.25704 50.6754 4.50507 48.3463 3.89585 46.1715C3.57123 45.0127 3.24917 43.8433 3.0084 42.9289C2.88794 42.4715 2.78827 42.0795 2.71888 41.7852C2.68413 41.6379 2.65747 41.5172 2.63966 41.4259C2.63074 41.3803 2.62442 41.3439 2.62044 41.3165C2.61803 41.2999 2.61691 41.2894 2.61638 41.2838C2.61594 41.279 2.61592 41.2777 2.61592 41.2789C2.61592 41.1876 2.67046 40.5268 2.76346 39.4814C2.85541 38.4478 2.98276 37.0602 3.12429 35.5374C3.40677 32.4981 3.74564 28.9214 3.97209 26.5492L4.50934 23.9089C4.7314 22.8175 4.67423 21.6877 4.34311 20.6243L3.94692 19.3519C3.52943 18.0112 3.87939 16.5495 4.8588 15.5432C6.66179 13.6907 6.47336 10.687 4.45298 9.07437L4.24174 8.90576C3.56903 8.3688 3.09399 7.62338 2.89141 6.78682C2.37027 4.63484 3.753 2.48388 5.92709 2.0645L8.06939 1.65126C8.8793 1.49503 9.71283 1.50859 10.5172 1.69109L12.8177 2.21298C14.8141 2.6659 16.8738 2.77001 18.9057 2.52071L24.7117 1.80836C26.856 1.54527 29.0278 1.60648 31.1539 1.98994L35.1807 2.71621C35.8001 2.82792 36.4059 3.005 36.988 3.24448L39.6094 4.32293C41.3535 5.04048 43.3542 4.69863 44.7611 3.4427C46.1002 2.24738 48.0332 1.99042 49.638 2.79442L50.3351 3.14367C51.7831 3.86911 53.4609 3.98594 54.9955 3.46817L55.2988 3.36584C56.208 3.05908 57.1752 2.96425 58.1267 3.0886L64.6007 3.93471C66.1822 4.14139 67.7178 4.61172 69.1438 5.32614L71.8387 6.67625C72.1266 6.82051 72.4443 6.89564 72.7664 6.89564C73.7671 6.89564 74.497 7.84256 74.2422 8.81029L72.6367 14.9087C72.2587 16.3448 72.3518 17.8644 72.9024 19.2435L72.9722 19.4185C73.5504 20.8668 73.6253 22.4673 73.1848 23.9633L72.6837 25.6654C71.8774 28.4041 72.0905 31.3421 73.2837 33.9358C73.6866 34.8115 73.9753 35.7354 74.1429 36.6847L74.3654 37.9442C74.6602 39.6141 74.4614 41.3338 73.7933 42.8924L72.3019 46.3718C72.1357 46.7596 72.1549 47.202 72.3541 47.5739L73.247 49.2414C73.3391 49.4134 73.1603 49.604 72.9828 49.5232C72.5527 49.3273 72.051 49.5739 71.9433 50.0341L71.5972 51.5138C71.4929 51.9595 71.5451 52.4275 71.7451 52.8392L72.2647 53.9095C72.6934 54.7924 72.8413 55.7855 72.6885 56.7551L72.1992 59.8602C72.1122 60.4122 72.0685 60.9702 72.0685 61.5291L72.0685 64.26C72.0685 65.4405 72.5508 66.5697 73.4037 67.386L73.4462 67.4267C74.302 68.2458 74.7095 69.428 74.5403 70.6005C74.2192 72.8246 71.959 74.2344 69.8048 73.574C69.0494 73.3424 68.2363 73.3237 67.4712 73.5252ZM72.4225 4.21603L72.4225 4.34784C72.4225 4.75997 71.9677 5.00996 71.6197 4.78912C71.4687 4.69324 71.3771 4.52676 71.3771 4.34784L71.3771 4.21603C71.3771 3.86734 71.7121 3.61643 72.0467 3.71445C72.2694 3.77969 72.4225 3.98396 72.4225 4.21603Z" stroke="black" stroke-width="0.544966"/>
<path d="M6.35904 26.9127L6.63849 27.3088C6.87892 27.6497 6.92535 28.0908 6.76114 28.4742L6.64409 28.7476C6.43904 29.2263 5.87658 29.438 5.40673 29.2133C5.03088 29.0335 4.58103 29.13 4.31199 29.4481L3.86236 29.9798C3.46227 30.4529 2.75889 30.523 2.27328 30.1382C1.93719 29.8719 1.7776 29.4404 1.8595 29.0195L2.04108 28.0863C2.23765 27.0762 3.03651 26.2916 4.05009 26.1134L4.31012 26.0677C5.09909 25.9289 5.89726 26.2581 6.35904 26.9127Z" fill="#E2A140" stroke="black" stroke-width="0.544966"/>
<path d="M74.4757 52.9717L74.0188 53.1336C73.6257 53.273 73.1884 53.1984 72.8636 52.9366L72.6322 52.75C72.2266 52.4232 72.1749 51.8244 72.5183 51.4329C72.793 51.1196 72.8217 50.6604 72.5882 50.3154L72.1979 49.7388C71.8506 49.2257 71.9732 48.5295 72.475 48.166C72.8223 47.9145 73.2808 47.8775 73.6639 48.0701L74.5132 48.4972C75.4326 48.9596 75.972 49.9408 75.8695 50.9648L75.8432 51.2275C75.7635 52.0246 75.2308 52.7041 74.4757 52.9717Z" fill="#E2A140" stroke="black" stroke-width="0.544966"/>
</svg>
