<svg width="77" height="78" viewBox="0 0 77 78" fill="none" xmlns="http://www.w3.org/2000/svg">
<path d="M6.84532 11.9482L7.10541 12.0294L6.84531 11.9482C6.765 12.2054 6.77273 12.4821 6.86727 12.7344L7.04168 13.1999C7.25697 13.7744 7.89897 14.0638 8.47201 13.8445C8.89987 13.6807 9.18242 13.2701 9.18242 12.812V12.2674C9.18242 11.9693 9.07056 11.6821 8.86896 11.4625C8.24875 10.787 7.12974 11.0373 6.85642 11.9127L6.84532 11.9482ZM7.37661 12.0751L7.11651 11.9939L7.37661 12.0751C7.52477 11.6006 8.13134 11.4649 8.46754 11.8311C8.57682 11.9501 8.63745 12.1058 8.63745 12.2674V12.812C8.63745 13.0443 8.49419 13.2525 8.27724 13.3355C7.98668 13.4467 7.66116 13.3 7.552 13.0087L7.37759 12.5432C7.32558 12.4044 7.32133 12.2522 7.36551 12.1107L7.37661 12.0751ZM68.675 68.0124L68.2617 67.8822C68.048 67.8149 67.9878 67.5412 68.1535 67.3904C68.5657 67.0154 68.5021 66.3496 68.0265 66.0593L67.538 65.7612C67.1719 65.5379 66.7176 65.5152 66.3312 65.7012L65.7675 65.9724C65.082 66.3023 64.6461 66.9957 64.6461 67.7565V68.026C64.6461 68.5132 64.3203 68.9403 63.8504 69.0691C62.8878 69.333 62.3878 70.3936 62.7966 71.3041L62.8631 71.4521C63.3529 72.5427 64.7623 72.8414 65.6523 72.0432L66.6245 71.1713C66.8299 70.987 67.131 70.9566 67.3691 71.0962C68.0379 71.488 68.8964 71.1394 69.1027 70.3922L69.3945 69.3354C69.5499 68.7727 69.2318 68.1879 68.675 68.0124ZM68.0979 68.402L68.5112 68.5322C68.7882 68.6195 68.9465 68.9104 68.8692 69.1904L68.5774 70.2472C68.4664 70.6492 68.0045 70.8368 67.6446 70.626C67.202 70.3666 66.6425 70.4231 66.2606 70.7656L65.2884 71.6375C64.6731 72.1893 63.6988 71.9828 63.3602 71.2288L63.2938 71.0809C63.0219 70.4754 63.3544 69.7702 63.9945 69.5947C64.7012 69.401 65.1911 68.7587 65.1911 68.026V67.7565C65.1911 67.2051 65.507 66.7025 66.0038 66.4635L66.5675 66.1922C66.7874 66.0865 67.0458 66.0993 67.2541 66.2264L67.7426 66.5245C67.908 66.6255 67.93 66.8569 67.7867 66.9873C67.31 67.421 67.4832 68.2083 68.0979 68.402ZM70.7702 70.8001L69.8375 71.6705C69.2276 72.2397 69.2789 73.2214 69.9449 73.7239C70.5762 74.2003 71.4806 74.0304 71.896 73.3574L72.3482 72.625C72.533 72.3256 72.5881 71.9639 72.5009 71.623L72.4134 71.281C72.2615 70.6872 71.6141 70.3705 71.0521 70.6151C70.9483 70.6603 70.853 70.7228 70.7702 70.8001ZM70.2093 72.0689L71.142 71.1985C71.1795 71.1635 71.2226 71.1352 71.2696 71.1148C71.5238 71.0042 71.8167 71.1474 71.8854 71.4161L71.973 71.7581C72.0235 71.9557 71.9916 72.1653 71.8844 72.3388L71.4323 73.0711C71.1855 73.471 70.6482 73.5719 70.2731 73.2889C69.8774 72.9904 69.8469 72.4071 70.2093 72.0689ZM4.91576 6.94828V7.48693C4.91576 8.02212 5.30621 8.47728 5.83517 8.55871L7.19075 8.76741C7.92555 8.88054 8.63612 8.45197 8.87887 7.74926L8.91519 7.64411C9.10406 7.09735 8.93163 6.49083 8.48338 6.1252L7.55188 5.3654C7.0239 4.93474 6.23265 5.31042 6.23265 5.99177V6.10119C6.23265 6.2416 6.08745 6.335 5.95967 6.27678C5.47103 6.05412 4.91576 6.4113 4.91576 6.94828ZM5.46073 7.48693V6.94828C5.46073 6.80786 5.60593 6.71446 5.7337 6.77269C6.22235 6.99535 6.77762 6.63817 6.77762 6.10119V5.99177C6.77762 5.76978 7.03541 5.64739 7.20742 5.7877L8.13892 6.5475C8.41003 6.76864 8.51432 7.13548 8.40009 7.46618L8.36377 7.57132C8.20701 8.0251 7.74817 8.30184 7.27367 8.22879L5.91809 8.02009C5.65496 7.97958 5.46073 7.75316 5.46073 7.48693ZM64.4954 4.26398L64.3559 4.33815C63.9377 4.56054 63.6764 4.9955 63.6764 5.4691V7.78983C63.6764 7.89279 63.6052 7.98204 63.5047 8.00483C62.7506 8.17601 62.6971 9.23001 63.43 9.47672L64.4657 9.82534C64.7757 9.92967 65.1163 9.88689 65.3908 9.70914L67.282 8.48463C67.3747 8.42461 67.4598 8.35364 67.5356 8.27326L67.7926 8.00059C68.5315 7.21657 67.9409 5.95222 66.8879 5.95222C66.5306 5.95222 66.2383 5.66191 66.2383 5.31114C66.2383 4.41638 65.2853 3.84383 64.4954 4.26398ZM64.6118 4.81931L64.7512 4.74513C65.1782 4.51804 65.6933 4.8275 65.6933 5.31114C65.6933 5.96946 66.2362 6.49718 66.8879 6.49718C67.4876 6.49718 67.7906 7.20816 67.396 7.62681L67.139 7.89948C67.0932 7.94804 67.0418 7.99092 66.9858 8.02719L65.0946 9.25169C64.9596 9.33912 64.792 9.36017 64.6396 9.30885L63.6038 8.96022C63.3927 8.88917 63.4082 8.58558 63.6254 8.53627C63.974 8.45715 64.2214 8.14728 64.2214 7.78983V5.4691C64.2214 5.19699 64.3715 4.94708 64.6118 4.81931ZM9.44039 3.76578L12.7619 2.8911C14.0718 2.54614 15.4207 2.3715 16.7753 2.3715H24.4071C24.9205 2.3715 25.4121 2.56899 25.9093 2.88023C26.3304 3.14379 26.735 3.47502 27.1501 3.81477C27.2287 3.87909 27.3077 3.94372 27.3872 4.00826C27.8762 4.40519 28.3877 4.79949 28.9248 5.03575C29.4726 5.27669 30.0621 5.35992 30.6912 5.11748C31.1092 4.95639 36.4505 3.2214 39.0998 2.36416L44.2775 1.46191C46.3048 1.10864 48.3841 1.67701 49.9497 3.01244L50.1827 3.21118C51.6297 4.44534 53.5294 5.01327 55.4164 4.7758L60.0609 4.19127C60.7891 4.09963 61.3353 3.48038 61.3353 2.74643C61.3353 2.24315 61.7432 1.83516 62.2465 1.83516H67.7859C68.1784 1.83516 68.5673 1.9107 68.9312 2.05766L71.8058 3.21836C72.5653 3.52506 72.7434 4.52009 72.1374 5.07124C71.4501 5.69636 71.4113 6.76442 72.0513 7.43784L73.2255 8.67321C73.8757 9.35722 74.1343 10.3244 73.9121 11.2416L73.4929 12.9727C73.1237 14.4972 73.3102 16.1034 74.0188 17.5029L74.1401 17.7424C75.144 19.7251 75.112 22.074 74.0544 24.0286L73.7304 24.6273C72.6546 26.6156 72.4065 28.9447 73.0158 31.1195C73.3404 32.2783 73.6624 33.4477 73.9032 34.3621C74.0237 34.8196 74.1233 35.2115 74.1927 35.5058C74.2275 35.6531 74.2541 35.7738 74.272 35.8651C74.2809 35.9108 74.2872 35.9471 74.2912 35.9745C74.2956 36.0049 74.2957 36.0148 74.2957 36.0121C74.2957 36.1035 74.2412 36.7642 74.1482 37.8096C74.0562 38.8432 73.9289 40.2308 73.7873 41.7536C73.5049 44.7929 73.166 48.3696 72.9395 50.7418L72.4023 53.3821C72.1802 54.4735 72.2374 55.6033 72.5685 56.6667L72.9647 57.9391C73.3822 59.2798 73.0322 60.7415 72.0528 61.7478C70.2498 63.6003 70.4383 66.604 72.4586 68.2167L72.6699 68.3853C73.3426 68.9222 73.8176 69.6677 74.0202 70.5042C74.5414 72.6562 73.1586 74.8072 70.9845 75.2265L68.8422 75.6398C68.0323 75.796 67.1988 75.7824 66.3944 75.5999L64.0939 75.0781C62.0975 74.6251 60.0378 74.521 58.0059 74.7703L52.1999 75.4827C50.0556 75.7458 47.8838 75.6846 45.7577 75.3011L41.7309 74.5748C41.1115 74.4631 40.5057 74.286 39.9236 74.0466L37.3022 72.9681C35.5581 72.2506 33.5574 72.5924 32.1505 73.8483C30.8114 75.0437 28.8785 75.3006 27.2737 74.4966L26.5766 74.1474C25.1285 73.4219 23.4507 73.3051 21.9161 73.8229L21.6128 73.9252C20.7037 74.232 19.7364 74.3268 18.7849 74.2024L12.311 73.3563C10.7295 73.1496 9.19382 72.6793 7.76783 71.9649L5.07296 70.6148C4.78499 70.4705 4.46735 70.3954 4.14527 70.3954C3.14457 70.3954 2.41467 69.4485 2.66943 68.4808L4.27488 62.3823C4.65295 60.9462 4.55983 59.4267 4.00924 58.0475L3.93942 57.8726C3.36124 56.4242 3.28636 54.8237 3.7268 53.3277L4.2279 51.6257C5.03422 48.887 4.82108 45.9489 3.62794 43.3552C3.22507 42.4795 2.93629 41.5557 2.76867 40.6064L2.54627 39.3468C2.25141 37.6769 2.4502 35.9572 3.11828 34.3986L4.60969 30.9192C4.77591 30.5314 4.75672 30.089 4.55754 29.7171L3.66458 28.0496C3.57249 27.8777 3.75127 27.687 3.92879 27.7679C4.35888 27.9637 4.86066 27.7171 4.96831 27.2569L5.31444 25.7772C5.41868 25.3315 5.36647 24.8636 5.16657 24.4518L4.64693 23.3816C4.21823 22.4986 4.07032 21.5055 4.22311 20.5359L4.71242 17.4308C4.79941 16.8788 4.8431 16.3208 4.8431 15.762V13.0311C4.8431 11.8505 4.36079 10.7213 3.50796 9.90502L3.31955 10.1019L3.50796 9.90501L3.46546 9.86435C2.60959 9.04517 2.20209 7.86304 2.37137 6.69047C2.69245 4.46638 4.95265 3.05657 7.10686 3.717C7.86226 3.94859 8.67528 3.96727 9.44039 3.76578ZM1.36433 75.0842L1.59745 74.7971C1.87433 74.456 2.39979 74.4719 2.65562 74.829L3.01802 75.3349L3.23953 75.1762L3.01802 75.3349C3.32372 75.7616 3.89263 75.9056 4.36452 75.6757C4.57189 75.5746 4.77632 75.6209 4.90369 75.731C5.02565 75.8365 5.08171 76.0016 4.99157 76.1933C4.89156 76.406 4.792 76.5777 4.69937 76.6921C4.61098 76.8012 4.56583 76.8131 4.56609 76.8142C4.56609 76.8142 4.56611 76.8142 4.56613 76.8142H3.3124C3.06025 76.8142 2.82546 76.6859 2.68926 76.4737L2.61524 76.3584C2.42494 76.0619 2.09683 75.8826 1.7445 75.8826C1.33227 75.8826 1.10451 75.4043 1.36433 75.0842ZM4.48918 73.075V72.9432C4.48918 72.5311 4.94392 72.2811 5.29189 72.5019C5.44296 72.5978 5.53448 72.7643 5.53448 72.9432V73.075C5.53448 73.4237 5.19953 73.6746 4.86491 73.5766C4.6422 73.5114 4.48918 73.3071 4.48918 73.075Z" stroke="black" stroke-width="0.544966"/>
<path d="M70.5526 50.3788L70.2731 49.9827C70.0327 49.6418 69.9863 49.2007 70.1505 48.8173L70.2675 48.544C70.4726 48.0652 71.035 47.8535 71.5049 48.0782C71.8807 48.258 72.3306 48.1615 72.5996 47.8434L73.0493 47.3117C73.4494 46.8386 74.1527 46.7685 74.6384 47.1533C74.9744 47.4196 75.134 47.8511 75.0521 48.272L74.8706 49.2052C74.674 50.2153 73.8751 50.9999 72.8615 51.1781L72.6015 51.2238C71.8125 51.3626 71.0144 51.0334 70.5526 50.3788Z" fill="#E2A140" stroke="black" stroke-width="0.544966"/>
<path d="M2.43589 24.3193L2.89282 24.1574C3.28596 24.0181 3.72324 24.0926 4.04798 24.3544L4.27947 24.541C4.68497 24.8678 4.73672 25.4666 4.39331 25.8582C4.1186 26.1714 4.08988 26.6306 4.32343 26.9756L4.71374 27.5523C5.06104 28.0654 4.93838 28.7615 4.43662 29.125C4.08936 29.3766 3.6308 29.4136 3.2477 29.2209L2.39841 28.7938C1.47899 28.3314 0.939666 27.3502 1.0421 26.3262L1.06838 26.0635C1.14812 25.2664 1.68084 24.5869 2.43589 24.3193Z" fill="#E2A140" stroke="black" stroke-width="0.544966"/>
</svg>
