<svg width="82" height="78" viewBox="0 0 82 78" fill="none" xmlns="http://www.w3.org/2000/svg">
<path d="M5.06775 6.91899L5.06775 7.45763C5.06775 7.99282 5.4582 8.44798 5.98716 8.52942L7.34273 8.73812C8.07754 8.85124 8.78811 8.42268 9.03085 7.71996L9.06718 7.61482C9.25605 7.06806 9.08362 6.46153 8.63537 6.0959L7.70387 5.3361C7.17589 4.90544 6.38464 5.28112 6.38464 5.96247L6.38464 6.07189C6.38464 6.21231 6.23944 6.30571 6.11166 6.24748C5.62302 6.02482 5.06775 6.382 5.06775 6.91899ZM5.61272 7.45763L5.61272 6.91899C5.61272 6.77857 5.75791 6.68517 5.88569 6.74339C6.37434 6.96605 6.92961 6.60888 6.92961 6.07189L6.92961 5.96247C6.92961 5.74049 7.1874 5.61809 7.35941 5.7584L8.29091 6.5182C8.56202 6.73935 8.66631 7.10619 8.55208 7.43688L8.51576 7.54202C8.359 7.9958 7.90016 8.27255 7.42566 8.1995L6.07008 7.9908C5.80695 7.95029 5.61272 7.72387 5.61272 7.45763ZM7.01926 12.7051L7.19367 13.1706C7.40896 13.7451 8.05095 14.0345 8.624 13.8152C9.05186 13.6514 9.33441 13.2408 9.33441 12.7827L9.33441 12.2381C9.33441 11.94 9.22255 11.6528 9.02095 11.4332C8.40073 10.7577 7.28173 11.008 7.0084 11.8834L6.9973 11.9189C6.91699 12.1761 6.92472 12.4528 7.01926 12.7051ZM7.70399 12.9794L7.52958 12.5139C7.47757 12.3751 7.47332 12.2229 7.5175 12.0814L7.5286 12.0458C7.67676 11.5713 8.28333 11.4356 8.61953 11.8018C8.72881 11.9208 8.78944 12.0765 8.78944 12.2381L8.78944 12.7827C8.78944 13.015 8.64618 13.2232 8.42923 13.3062C8.13867 13.4174 7.81315 13.2707 7.70399 12.9794ZM72.2271 27.7709L72.2298 27.7892L72.2349 27.8069C72.3369 28.1609 72.4937 28.4148 72.7295 28.5511C72.9653 28.6874 73.2178 28.6694 73.4216 28.6263C73.5252 28.6044 73.6278 28.5734 73.7213 28.5439C73.7441 28.5367 73.7661 28.5297 73.7877 28.5228C73.8585 28.5002 73.9237 28.4795 73.9895 28.4613C74.1651 28.4126 74.2812 28.4024 74.3658 28.4271C74.4311 28.4461 74.5232 28.4996 74.6146 28.7048C74.7099 28.9188 74.7908 29.2711 74.8305 29.8363C74.9096 30.9636 74.8199 32.8489 74.4496 35.9506C74.4277 36.1342 74.2591 37.9913 74.0378 40.4281C73.7414 43.6927 73.3506 47.9975 73.0915 50.7125L72.5543 53.3529C72.3322 54.4442 72.3894 55.574 72.7205 56.6374L73.1167 57.9098C73.5342 59.2505 73.1842 60.7122 72.2048 61.7185C70.4018 63.571 70.5902 66.5747 72.6106 68.1874L72.8218 68.356C73.4946 68.8929 73.9696 69.6384 74.1722 70.4749C74.6933 72.6269 73.3106 74.7779 71.1365 75.1973L68.9942 75.6105C68.1843 75.7667 67.3508 75.7532 66.5464 75.5707L64.2459 75.0488C62.2495 74.5959 60.1898 74.4917 58.1579 74.741L52.3519 75.4534C50.2075 75.7165 48.0358 75.6553 45.9097 75.2718L41.8829 74.5455C41.2635 74.4338 40.6576 74.2568 40.0756 74.0173L37.4542 72.9388C35.7101 72.2213 33.7094 72.5631 32.3025 73.819C30.9634 75.0144 29.0304 75.2713 27.4256 74.4673L26.7285 74.1181C25.2805 73.3926 23.6027 73.2758 22.0681 73.7936L20.3406 74.3764L9.76909 76.411C7.00181 76.9436 4.51711 74.628 4.85371 71.8301C4.95072 71.0237 4.83728 70.2059 4.52445 69.4564L3.2882 66.4943C2.59387 64.8307 2.23635 63.0459 2.23635 61.2432L2.23635 60.8478C2.23635 60.0521 2.32901 59.2591 2.51246 58.4848L2.6073 58.0845C2.99087 56.4655 2.93267 54.7732 2.43879 53.1844L2.26844 52.6364C1.63949 50.6131 1.90053 48.4178 2.98642 46.5984L5.77281 41.9298C6.68977 40.3934 6.08922 38.4013 4.47588 37.6277C3.26926 37.0492 2.73319 35.6223 3.26038 34.3924L4.76167 30.8899C4.9279 30.5021 4.90871 30.0597 4.70952 29.6878L3.81656 28.0203C3.72448 27.8484 3.90326 27.6577 4.08077 27.7386C4.51087 27.9345 5.01265 27.6878 5.12029 27.2277L5.46642 25.7479C5.57067 25.3022 5.51846 24.8343 5.31856 24.4225L4.79892 23.3523C4.37022 22.4693 4.22231 21.4762 4.3751 20.5066L4.8644 17.4015C4.95139 16.8495 4.99509 16.2915 4.99509 15.7327L4.99509 13.0018C4.99509 11.8212 4.51278 10.692 3.65995 9.87572L3.61746 9.83505C2.76158 9.01588 2.35408 7.83375 2.52336 6.66118C2.84444 4.43709 5.10464 3.02727 7.25885 3.68771C8.01425 3.91929 8.82727 3.93797 9.59238 3.73649L11.8531 3.14114C13.8199 2.62321 15.8865 2.6176 17.856 3.12484L20.3569 3.76893C21.0261 3.94128 21.7152 4.1485 22.4215 4.36092C22.5831 4.40952 22.7456 4.45839 22.909 4.50718C23.7831 4.76821 24.6788 5.02573 25.5731 5.21784C27.3584 5.6013 29.1723 5.73213 30.8432 5.08819C31.2612 4.9271 36.6025 3.19211 39.2518 2.33487L45.8451 1.18593C46.8605 1.00899 47.8716 1.51958 48.332 2.44175C48.8191 3.41733 49.8158 4.03374 50.9062 4.03374L57.1761 4.03374C58.3944 4.03374 59.5634 3.55277 60.4289 2.69541C61.0252 2.10466 61.7894 1.71239 62.617 1.57217L65.6846 1.05244C66.4523 0.922353 67.2297 0.856967 68.0084 0.856967L71.1188 0.856968C71.9631 0.856968 72.7885 1.10779 73.4901 1.57761C74.9617 2.56307 75.6704 4.35598 75.2704 6.08131L74.8018 8.1024C74.5645 9.12598 74.5361 10.1869 74.7184 11.2217L75.5119 15.7268C75.7615 17.1444 75.0083 18.5487 73.6892 19.1249C72.176 19.7859 71.2922 21.3777 71.5311 23.0116L72.2271 27.7709Z" stroke="black" stroke-width="0.544966"/>
<path d="M73.9393 38.7373L73.4042 44.6556L74.3049 44.3185L74.3589 44.6763L75.5489 44.6799L75.1054 46.2291L79.4399 43.1783L76.4765 43.1859L78.1834 39.2137L76.2533 41.4628L77.5569 36.6364L74.6319 41.268L73.9393 38.7373Z" fill="#2B8962" stroke="black" stroke-width="0.544966"/>
<path d="M73.7627 53.9558L72.9362 54.3452C72.2251 54.6802 71.3911 54.6224 70.733 54.1924L70.2639 53.886C69.4422 53.3491 69.2328 52.236 69.8034 51.4372C70.2598 50.7983 70.2275 49.9318 69.7248 49.3286L68.8847 48.3204C68.1371 47.4234 68.2366 46.0949 69.1093 45.3192C69.7133 44.7822 70.5663 44.6268 71.3209 44.9163L72.9937 45.5579C74.8046 46.2525 76 47.9914 76 49.9309L76 50.4285C76 51.9382 75.1285 53.3123 73.7627 53.9558Z" fill="#E2A140" stroke="black" stroke-width="0.544966"/>
</svg>
