<svg width="77" height="77" viewBox="0 0 77 77" fill="none" xmlns="http://www.w3.org/2000/svg">
<path d="M7.88752 9.36208L8.30083 9.4923C8.51454 9.55963 8.57474 9.83335 8.40901 9.98414C7.99684 10.3591 8.06038 11.0249 8.53604 11.3152L9.02456 11.6133C9.39058 11.8366 9.84486 11.8593 10.2313 11.6733L10.795 11.4021C11.4805 11.0723 11.9164 10.3788 11.9164 9.61801L11.9164 9.34849C11.9164 8.86126 12.2422 8.43419 12.7121 8.30539C13.6747 8.04152 14.1747 6.98092 13.7659 6.07039L13.6994 5.92242C13.2096 4.83181 11.8002 4.53313 10.9102 5.33135L9.93806 6.2032C9.73256 6.3875 9.43152 6.41787 9.19335 6.27834C8.52456 5.88654 7.66608 6.23514 7.45979 6.9823L7.16803 8.03907C7.01265 8.60185 7.33068 9.18662 7.88752 9.36208ZM9.42351 69.475L9.22522 69.2881L9.42352 69.475C9.46928 69.4265 9.52072 69.3836 9.57674 69.3473L11.4679 68.1228C11.6029 68.0354 11.7705 68.0143 11.9229 68.0657L12.9586 68.4143C13.1698 68.4853 13.1543 68.7889 12.9371 68.8382C12.5885 68.9174 12.3411 69.2272 12.3411 69.5847L12.3411 71.9054C12.3411 72.1775 12.191 72.4274 11.9507 72.5552L11.8113 72.6294C11.3842 72.8565 10.8691 72.547 10.8691 72.0634C10.8691 71.405 10.3263 70.8773 9.67455 70.8773C9.0749 70.8773 8.77194 70.1663 9.16651 69.7477L9.42351 69.475ZM8.46459 8.97252L8.05128 8.8423C7.77425 8.75501 7.61604 8.46408 7.69334 8.18411L7.98511 7.12734C8.0961 6.72531 8.55802 6.53774 8.91788 6.74856C9.36052 7.00787 9.92 6.95142 10.3019 6.60891L11.2741 5.73706C11.8893 5.18524 12.8637 5.39172 13.2023 6.14567L13.2687 6.29364C13.5406 6.8991 13.2081 7.60436 12.568 7.77982C11.8613 7.97351 11.3714 8.61578 11.3714 9.34849L11.3714 9.61801C11.3714 10.1694 11.0555 10.672 10.5587 10.911L9.99498 11.1823C9.77514 11.288 9.51668 11.2752 9.30844 11.1481L8.81991 10.85C8.65455 10.7491 8.63246 10.5176 8.77576 10.3872C9.25246 9.95351 9.0793 9.16619 8.46459 8.97252ZM5.79228 6.57445L6.725 5.70402C7.33493 5.13484 7.2836 4.15308 6.61764 3.65061C5.98626 3.17422 5.08195 3.34407 4.66646 4.01711L4.21434 4.74948C4.0295 5.04888 3.97436 5.41058 4.06158 5.75147L4.14911 6.09355C4.30103 6.6873 4.94837 7.00397 5.51036 6.75942C5.61417 6.71425 5.70952 6.6517 5.79228 6.57445ZM6.35319 5.3056L5.42047 6.17603L5.60638 6.37524L5.42045 6.17604C5.38302 6.21098 5.3399 6.23927 5.29292 6.25971C5.03867 6.37035 4.74579 6.22709 4.67706 5.95846L4.58954 5.61638C4.53899 5.41884 4.57094 5.20925 4.67805 5.03575L5.13018 4.30338C5.37702 3.90352 5.91428 3.80261 6.2894 4.08563C6.68506 4.38416 6.71556 4.96743 6.35319 5.3056ZM71.6467 70.4262L71.6467 69.8876C71.6467 69.3524 71.2563 68.8972 70.7273 68.8158L69.3718 68.6071C68.6369 68.494 67.9264 68.9225 67.6836 69.6253L67.6473 69.7304C67.4584 70.2772 67.6309 70.8837 68.0791 71.2493L69.0106 72.0091C69.5386 72.4398 70.3298 72.0641 70.3298 71.3827L70.3298 71.2733C70.3298 71.1329 70.475 71.0395 70.6028 71.0977C71.0915 71.3204 71.6467 70.9632 71.6467 70.4262ZM71.1018 69.8876L71.1018 70.4262C71.1018 70.5666 70.9566 70.66 70.8288 70.6018C70.3401 70.3792 69.7849 70.7363 69.7849 71.2733L69.7849 71.3827C69.7849 71.6047 69.5271 71.7271 69.3551 71.5868L68.4236 70.827C68.1525 70.6059 68.0482 70.239 68.1624 69.9083L68.1987 69.8032C68.3555 69.3494 68.8143 69.0727 69.2888 69.1457L70.6444 69.3544C70.9075 69.3949 71.1018 69.6214 71.1018 69.8876ZM69.6952 64.6401L69.5208 64.1746C69.3055 63.6001 68.6635 63.3108 68.0905 63.53C67.6626 63.6938 67.3801 64.1044 67.3801 64.5625L67.3801 65.1071C67.3801 65.4052 67.4919 65.6924 67.6935 65.912C68.3138 66.5875 69.4328 66.3372 69.7061 65.4618L69.7172 65.4263C69.7975 65.1691 69.7898 64.8924 69.6952 64.6401ZM69.0105 64.3659L69.1849 64.8313C69.2369 64.9702 69.2412 65.1224 69.197 65.2639L69.1859 65.2994C69.0377 65.7739 68.4312 65.9096 68.095 65.5434C67.9857 65.4244 67.925 65.2687 67.925 65.1071L67.925 64.5625C67.925 64.3303 68.0683 64.122 68.2853 64.039C68.5758 63.9278 68.9013 64.0745 69.0105 64.3659ZM12.0671 73.1105L12.2066 73.0364C12.6248 72.814 12.8861 72.379 12.8861 71.9054L12.8861 69.5847C12.8861 69.4817 12.9573 69.3925 13.0578 69.3697C13.8119 69.1985 13.8654 68.1445 13.1325 67.8978L12.0968 67.5492C11.7869 67.4448 11.4462 67.4876 11.1717 67.6654L9.28055 68.8899C9.18784 68.9499 9.10268 69.0209 9.02693 69.1012L8.76994 69.3739C8.031 70.1579 8.62156 71.4223 9.67455 71.4223C10.0319 71.4223 10.3242 71.7126 10.3242 72.0634C10.3242 72.9581 11.2772 73.5307 12.0671 73.1105ZM73.5445 2.03966L73.323 2.19835L73.5445 2.03966C73.2388 1.61295 72.6699 1.46896 72.198 1.69886C71.9906 1.79989 71.7862 1.75364 71.6588 1.64347C71.5369 1.53797 71.4808 1.37292 71.5709 1.18121C71.6709 0.968536 71.7705 0.796791 71.8631 0.682449C71.9515 0.573341 71.9967 0.561447 71.9964 0.560356C71.9964 0.56034 71.9964 0.560325 71.9964 0.56031L73.2501 0.56031C73.5023 0.56031 73.737 0.688614 73.8732 0.900825L73.9473 1.01616C74.1376 1.31267 74.4657 1.49196 74.818 1.49196C75.2302 1.49196 75.458 1.97023 75.1982 2.29027L75.4097 2.46201L75.1982 2.29028L74.9651 2.57743C74.6882 2.91847 74.1627 2.90263 73.9069 2.54553L73.5445 2.03966ZM67.1221 73.6087L63.8006 74.4834C62.4907 74.8284 61.1418 75.003 59.7872 75.003L52.1554 75.003C51.642 75.003 51.1504 74.8055 50.6532 74.4943C50.2321 74.2307 49.8275 73.8995 49.4124 73.5597C49.3338 73.4954 49.2548 73.4308 49.1753 73.3663C48.6863 72.9693 48.1748 72.575 47.6377 72.3388C47.0899 72.0978 46.5004 72.0146 45.8713 72.257C45.4533 72.4181 40.112 74.1531 37.4627 75.0103L32.285 75.9126C30.2577 76.2659 28.1784 75.6975 26.6128 74.3621L26.3798 74.1633C24.9328 72.9292 23.0331 72.3612 21.1461 72.5987L16.5016 73.1832C15.7734 73.2749 15.2272 73.8941 15.2272 74.6281C15.2272 75.1314 14.8192 75.5393 14.316 75.5393L8.77659 75.5393C8.38409 75.5393 7.99524 75.4638 7.63128 75.3168L4.75674 74.1561C3.99717 73.8494 3.81905 72.8544 4.42505 72.3033C5.11237 71.6781 5.15124 70.6101 4.51116 69.9367L3.33695 68.7013C2.68681 68.0173 2.42824 67.0501 2.65036 66.1329L3.06956 64.4018C3.43874 62.8773 3.2523 61.2711 2.5437 59.8716L2.42242 59.6321C1.41849 57.6494 1.45051 55.3005 2.50812 53.3459L2.83209 52.7472C3.90792 50.7589 4.15595 48.4298 3.54673 46.255C3.22211 45.0962 2.90005 43.9268 2.65927 43.0124C2.53882 42.555 2.43915 42.163 2.36975 41.8687C2.33501 41.7214 2.30835 41.6007 2.29054 41.5094C2.28162 41.4638 2.2753 41.4274 2.27132 41.4C2.26691 41.3696 2.2668 41.3597 2.2668 41.3624C2.2668 41.271 2.32134 40.6103 2.41434 39.5649C2.50629 38.5313 2.63364 37.1437 2.77517 35.6209C3.05764 32.5816 3.39652 29.0049 3.62297 26.6327L4.16021 23.9924C4.38228 22.901 4.32511 21.7712 3.99399 20.7078L3.5978 19.4354C3.18031 18.0947 3.53027 16.633 4.50968 15.6267C6.31267 13.7742 6.12424 10.7705 4.10386 9.15785L3.89262 8.98924C3.21991 8.45228 2.74487 7.70686 2.54229 6.8703C2.02115 4.71832 3.40388 2.56736 5.57797 2.14798L7.72027 1.73474C8.53018 1.57852 9.36371 1.59207 10.1681 1.77457L12.4686 2.29646C14.465 2.74938 16.5247 2.85349 18.5566 2.60419L24.3626 1.89184C26.5069 1.62875 28.6787 1.68996 30.8048 2.07342L34.8316 2.79969C35.451 2.9114 36.0568 3.08848 36.6389 3.32796L39.2603 4.40641C41.0044 5.12396 43.0051 4.78211 44.412 3.52619C45.7511 2.33086 47.684 2.0739 49.2888 2.8779L49.9859 3.22715C51.434 3.95259 53.1118 4.06942 54.6464 3.55165L54.9497 3.44932C55.8588 3.14256 56.8261 3.04773 57.7776 3.17209L64.2515 4.0182C65.833 4.22488 67.3687 4.69521 68.7947 5.40962L71.4895 6.75973C71.7775 6.90401 72.0952 6.97912 72.4172 6.97912C73.4179 6.97912 74.1478 7.92604 73.8931 8.89377L72.2876 14.9922C71.9096 16.4283 72.0027 17.9478 72.5533 19.327L72.6231 19.5019C73.2013 20.9503 73.2761 22.5508 72.8357 24.0468L72.3346 25.7488C71.5283 28.4875 71.7414 31.4256 72.9346 34.0193C73.3374 34.895 73.6262 35.8189 73.7938 36.7681L74.0162 38.0277C74.3111 39.6976 74.1123 41.4173 73.4442 42.9759L71.9528 46.4553C71.7866 46.8431 71.8058 47.2855 72.005 47.6574L72.8979 49.3249C72.99 49.4968 72.8112 49.6875 72.6337 49.6067C72.2036 49.4108 71.7018 49.6574 71.5942 50.1176L71.2481 51.5973C71.1438 52.043 71.196 52.511 71.3959 52.9227L71.9156 53.993C72.3443 54.8759 72.4922 55.869 72.3394 56.8386L71.8501 59.9437C71.7631 60.4957 71.7194 61.0537 71.7194 61.6126L71.7194 64.3435C71.7194 65.524 72.2017 66.6532 73.0545 67.4695L73.097 67.5102C73.9529 68.3293 74.3604 69.5115 74.1911 70.684C73.87 72.9081 71.6099 74.3179 69.4556 73.6575C68.7002 73.4259 67.8872 73.4072 67.1221 73.6087ZM72.0733 4.29951L72.0733 4.43132C72.0733 4.84346 71.6186 5.09345 71.2706 4.87261C71.1195 4.77673 71.028 4.61024 71.028 4.43132L71.028 4.29951C71.028 3.95082 71.363 3.69991 71.6976 3.79794C71.9203 3.86317 72.0733 4.06744 72.0733 4.29951Z" stroke="black" stroke-width="0.544966"/>
<path d="M6.00991 26.9962L6.28936 27.3923C6.5298 27.7332 6.57623 28.1743 6.41202 28.5577L6.29497 28.831C6.08992 29.3098 5.52746 29.5215 5.05761 29.2968C4.68175 29.117 4.23191 29.2135 3.96287 29.5316L3.51323 30.0633C3.11314 30.5364 2.40977 30.6065 1.92416 30.2217C1.58806 29.9554 1.42847 29.5239 1.51038 29.103L1.69196 28.1698C1.88853 27.1597 2.68739 26.3751 3.70097 26.1969L3.961 26.1512C4.74998 26.0124 5.54813 26.3416 6.00991 26.9962Z" fill="#E2A140" stroke="black" stroke-width="0.544966"/>
<path d="M74.1266 53.0552L73.6697 53.2171C73.2765 53.3565 72.8393 53.2819 72.5145 53.0201L72.283 52.8335C71.8775 52.5067 71.8258 51.9079 72.1692 51.5164C72.4439 51.2031 72.4726 50.7439 72.2391 50.3989L71.8488 49.8223C71.5015 49.3092 71.6241 48.613 72.1259 48.2495C72.4731 47.9979 72.9317 47.961 73.3148 48.1536L74.1641 48.5807C75.0835 49.0431 75.6228 50.0243 75.5204 51.0483L75.4941 51.311C75.4144 52.1081 74.8817 52.7876 74.1266 53.0552Z" fill="#E2A140" stroke="black" stroke-width="0.544966"/>
</svg>
