<svg width="76" height="78" viewBox="0 0 76 78" fill="none" xmlns="http://www.w3.org/2000/svg">
<path d="M71.6837 71.4873L71.6837 70.9486C71.6837 70.4134 71.2933 69.9583 70.7643 69.8768L69.4087 69.6681C68.6739 69.555 67.9634 69.9836 67.7206 70.6863L67.6843 70.7914C67.4954 71.3382 67.6678 71.9447 68.1161 72.3103L69.0476 73.0701C69.5756 73.5008 70.3668 73.1251 70.3668 72.4438L70.3668 72.3344C70.3668 72.1939 70.512 72.1005 70.6398 72.1588C71.1284 72.3814 71.6837 72.0243 71.6837 71.4873ZM71.1387 70.9486L71.1387 71.4873C71.1387 71.6277 70.9935 71.7211 70.8658 71.6629C70.3771 71.4402 69.8219 71.7974 69.8219 72.3344L69.8219 72.4438C69.8219 72.6658 69.5641 72.7882 69.3921 72.6478L68.4606 71.8881C68.1894 71.6669 68.0852 71.3001 68.1994 70.9694L68.2357 70.8642C68.3925 70.4104 68.8513 70.1337 69.3258 70.2068L70.6814 70.4155C70.9445 70.456 71.1387 70.6824 71.1387 70.9486ZM69.7322 65.7012L69.5578 65.2357C69.3425 64.6611 68.7005 64.3718 68.1275 64.5911C67.6996 64.7548 67.4171 65.1655 67.4171 65.6236L67.4171 66.1682C67.4171 66.4663 67.5289 66.7535 67.7305 66.973C68.3507 67.6485 69.4697 67.3982 69.7431 66.5229L69.7542 66.4873C69.8345 66.2301 69.8267 65.9535 69.7322 65.7012ZM69.0475 65.4269L69.2219 65.8924C69.2739 66.0312 69.2781 66.1834 69.234 66.3249L69.2229 66.3604C69.0747 66.8349 68.4681 66.9706 68.1319 66.6045C68.0227 66.4854 67.962 66.3298 67.962 66.1682L67.962 65.6236C67.962 65.3913 68.1053 65.1831 68.3222 65.1001C68.6128 64.9889 68.9383 65.1356 69.0475 65.4269ZM4.52435 50.6353L4.52168 50.6171L4.51656 50.5993C4.41456 50.2454 4.25775 49.9915 4.02195 49.8552C3.78612 49.7189 3.53364 49.7369 3.32984 49.78C3.22626 49.8019 3.12364 49.8329 3.03012 49.8624C3.00735 49.8696 2.98526 49.8766 2.96369 49.8835C2.89291 49.906 2.8277 49.9268 2.76199 49.945C2.58632 49.9936 2.47028 50.0039 2.38559 49.9792C2.32036 49.9601 2.22824 49.9066 2.13688 49.7015C2.04157 49.4875 1.96062 49.1352 1.92094 48.57C1.8418 47.4427 1.93155 45.5574 2.30184 42.4557C2.32377 42.2721 2.49244 40.4143 2.71374 37.9768C3.01011 34.7124 3.40086 30.4084 3.65994 27.6937L4.19719 25.0534C4.41926 23.962 4.36208 22.8322 4.03096 21.7688L3.63477 20.4965C3.21728 19.1557 3.56724 17.694 4.54664 16.6877C6.34964 14.8352 6.16121 11.8315 4.14083 10.2189L3.92959 10.0503C3.25688 9.51332 2.78184 8.7679 2.57926 7.93134C2.05812 5.77936 3.44085 3.6284 5.61495 3.20902L7.75724 2.79579C8.56715 2.63956 9.40068 2.65312 10.2051 2.83561L12.5055 3.3575C14.5019 3.81041 16.5617 3.91453 18.5936 3.66522L24.3996 2.95288C26.5439 2.68979 28.7156 2.751 30.8417 3.13446L34.8685 3.86072C35.488 3.97245 36.0938 4.14952 36.6759 4.389L39.2972 5.46746C41.0413 6.18499 43.0421 5.84315 44.449 4.58722C45.788 3.3919 47.721 3.13495 49.3258 3.93895L50.0229 4.28819C51.4709 5.01363 53.1488 5.13046 54.6834 4.61269L56.4108 4.02984L66.9824 1.99524C69.7496 1.46265 72.2343 3.77828 71.8978 6.57618C71.8007 7.38258 71.9142 8.20033 72.227 8.94987L73.4633 11.9119C74.1576 13.5756 74.5151 15.3604 74.5151 17.1631L74.5151 17.5584C74.5151 18.3542 74.4224 19.1472 74.239 19.9215L74.1442 20.3218C73.7606 21.9408 73.8188 23.6331 74.3127 25.2219L74.483 25.7699C75.112 27.7932 74.8509 29.9885 73.765 31.8079L70.9787 36.4765C70.0617 38.0128 70.6622 40.0049 72.2756 40.7785C73.4822 41.3571 74.0183 42.784 73.4911 44.0139L71.9898 47.5164C71.8236 47.9042 71.8428 48.3465 72.0419 48.7185L72.9349 50.3859C73.027 50.5579 72.8482 50.7485 72.6707 50.6677C72.2406 50.4718 71.7388 50.7184 71.6312 51.1786L71.285 52.6584C71.1808 53.104 71.233 53.572 71.4329 53.9837L71.9525 55.054C72.3812 55.937 72.5292 56.9301 72.3764 57.8996L71.8871 61.0047C71.8001 61.5568 71.7564 62.1147 71.7564 62.6736L71.7564 65.4045C71.7564 66.585 72.2387 67.7143 73.0915 68.5305L73.134 68.5712L73.3224 68.3744L73.134 68.5712C73.9899 69.3904 74.3974 70.5725 74.2281 71.7451C73.907 73.9692 71.6468 75.379 69.4926 74.7185C68.7372 74.487 67.9242 74.4683 67.1591 74.6698L64.8984 75.2651C62.9316 75.783 60.865 75.7886 58.8955 75.2814L56.3946 74.6373C55.7253 74.465 55.0363 74.2578 54.33 74.0453C54.1684 73.9967 54.0059 73.9479 53.8425 73.8991C52.9683 73.638 52.0727 73.3805 51.1783 73.1884C49.393 72.805 47.5792 72.6741 45.9082 73.3181C45.4903 73.4792 40.149 75.2141 37.4997 76.0714L30.9064 77.2203C29.891 77.3973 28.8798 76.8867 28.4194 75.9645C27.9324 74.9889 26.9357 74.3725 25.8453 74.3725L19.5753 74.3725C18.3571 74.3725 17.1881 74.8535 16.3226 75.7108C15.7262 76.3016 14.962 76.6939 14.1344 76.8341L11.0669 77.3538C10.2991 77.4839 9.5218 77.5493 8.74309 77.5493L5.6327 77.5493C4.78832 77.5493 3.96298 77.2985 3.26138 76.8286C1.78977 75.8432 1.08102 74.0503 1.48104 72.3249L1.94963 70.3039C2.18695 69.2803 2.21533 68.2193 2.03307 67.1845L1.2396 62.6794C0.989915 61.2618 1.74312 59.8575 3.0622 59.2813C4.57542 58.6204 5.45928 57.0286 5.22034 55.3947L4.52435 50.6353Z" stroke="black" stroke-width="0.544966"/>
<path d="M70.5477 52.0073L74.3916 47.4756L73.461 47.2328L73.6228 46.9091L72.6517 46.2213L73.9061 45.2097L68.6056 45.2097L71.0333 46.9091L67.3512 49.175L70.224 48.4467L66.3802 51.6432L71.4379 49.5391L70.5477 52.0073Z" fill="#2B8962" stroke="black" stroke-width="0.544966"/>
<path d="M72.7892 44.6011L72.3323 44.763C71.9391 44.9024 71.5019 44.8278 71.1771 44.566L70.9456 44.3794C70.5401 44.0526 70.4884 43.4538 70.8318 43.0623C71.1065 42.749 71.1352 42.2898 70.9017 41.9448L70.5114 41.3681C70.1641 40.8551 70.2867 40.1589 70.7885 39.7954C71.1357 39.5438 71.5943 39.5069 71.9774 39.6995L72.8267 40.1266C73.7461 40.589 74.2854 41.5702 74.183 42.5942L74.1567 42.8569C74.077 43.654 73.5443 44.3335 72.7892 44.6011Z" fill="#E2A140" stroke="black" stroke-width="0.544966"/>
</svg>
