<svg width="78" height="78" viewBox="0 0 78 78" fill="none" xmlns="http://www.w3.org/2000/svg">
<path d="M69.9006 68.698L69.4873 68.5678C69.2736 68.5004 69.2133 68.2267 69.3791 68.0759C69.7913 67.7009 69.7277 67.0352 69.2521 66.7449L68.7635 66.4468C68.3975 66.2234 67.9432 66.2008 67.5568 66.3867L66.9931 66.6579C66.3076 66.9878 65.8717 67.6813 65.8717 68.442V68.7116C65.8717 69.1988 65.5459 69.6259 65.076 69.7547C64.1134 70.0185 63.6133 71.0791 64.0222 71.9897L64.0887 72.1376C64.5785 73.2282 65.9879 73.5269 66.8779 72.7287L67.85 71.8569C68.0555 71.6726 68.3566 71.6422 68.5947 71.7817C69.2635 72.1735 70.122 71.8249 70.3283 71.0778L70.6201 70.021C70.7754 69.4582 70.4574 68.8734 69.9006 68.698ZM68.3646 8.58503L68.5629 8.77192L68.3646 8.58503C68.3188 8.63359 68.2674 8.67646 68.2113 8.71273L66.3202 9.93724C66.1852 10.0247 66.0176 10.0457 65.8652 9.9944L64.8294 9.64577C64.6183 9.57471 64.6338 9.27112 64.851 9.22182C65.1996 9.14269 65.447 8.83283 65.447 8.47537V6.15465C65.447 5.88253 65.5971 5.63262 65.8374 5.50485L65.9768 5.43068C66.4038 5.20358 66.9189 5.51305 66.9189 5.99668C66.9189 6.65501 67.4618 7.18273 68.1135 7.18273C68.7132 7.18273 69.0162 7.89371 68.6216 8.31236L68.3646 8.58503ZM69.3235 69.0875L69.7368 69.2178C70.0138 69.305 70.1721 69.596 70.0947 69.8759L69.803 70.9327C69.692 71.3347 69.2301 71.5223 68.8702 71.3115C68.4276 71.0522 67.8681 71.1086 67.4862 71.4511L66.514 72.323C65.8987 72.8748 64.9244 72.6683 64.5858 71.9144L64.5194 71.7664C64.2475 71.1609 64.58 70.4557 65.2201 70.2802C65.9268 70.0865 66.4166 69.4443 66.4166 68.7116V68.442C66.4166 67.8907 66.7326 67.3881 67.2294 67.149L67.7931 66.8778C68.0129 66.772 68.2714 66.7849 68.4797 66.912L68.9682 67.2101C69.1335 67.311 69.1556 67.5424 69.0123 67.6728C68.5356 68.1065 68.7088 68.8939 69.3235 69.0875ZM71.9958 71.4856L71.0631 72.356C70.4532 72.9252 70.5045 73.907 71.1705 74.4094C71.8018 74.8858 72.7061 74.716 73.1216 74.0429L73.5738 73.3106C73.7586 73.0112 73.8137 72.6495 73.7265 72.3086L73.639 71.9665C73.4871 71.3728 72.8397 71.0561 72.2777 71.3006C72.1739 71.3458 72.0786 71.4084 71.9958 71.4856ZM71.4349 72.7545L72.3676 71.884L72.1817 71.6848L72.3676 71.884C72.4051 71.8491 72.4482 71.8208 72.4952 71.8003C72.7494 71.6897 73.0423 71.833 73.111 72.1016L73.1986 72.4437C73.2491 72.6412 73.2171 72.8508 73.11 73.0243L72.6579 73.7567C72.4111 74.1565 71.8738 74.2574 71.4987 73.9744C71.103 73.6759 71.0725 73.0926 71.4349 72.7545ZM6.14135 7.63383V8.17247C6.14135 8.70766 6.5318 9.16283 7.06076 9.24426L8.41633 9.45296C9.15114 9.56608 9.86171 9.13752 10.1045 8.4348L10.1408 8.32966C10.3296 7.7829 10.1572 7.17638 9.70896 6.81074L8.77747 6.05095C8.24949 5.62028 7.45824 5.99596 7.45824 6.67731V6.78673C7.45824 6.92715 7.31304 7.02055 7.18526 6.96233C6.69661 6.73966 6.14135 7.09684 6.14135 7.63383ZM6.68631 8.17247V7.63383C6.68631 7.49341 6.83151 7.40001 6.95929 7.45823C7.44794 7.6809 8.0032 7.32372 8.0032 6.78673V6.67731C8.0032 6.45533 8.26099 6.33293 8.43301 6.47324L9.3645 7.23304C9.63562 7.45419 9.73991 7.82103 9.62567 8.15172L9.58935 8.25687C9.4326 8.71064 8.97375 8.98739 8.49925 8.91434L7.14368 8.70564C6.88054 8.66513 6.68631 8.43871 6.68631 8.17247ZM8.09286 13.4199L8.26727 13.8854C8.48256 14.46 9.12455 14.7493 9.6976 14.53C10.1255 14.3663 10.408 13.9556 10.408 13.4975V12.9529C10.408 12.6548 10.2961 12.3676 10.0946 12.1481C9.47433 11.4726 8.35533 11.7229 8.082 12.5982L8.0709 12.6338C7.99059 12.891 7.99832 13.1676 8.09286 13.4199ZM8.77759 13.6942L8.60318 13.2287C8.55116 13.0899 8.54691 12.9377 8.5911 12.7962L8.6022 12.7606C8.75036 12.2861 9.35693 12.1505 9.69313 12.5166C9.80241 12.6356 9.86304 12.7913 9.86304 12.9529V13.4975C9.86304 13.7298 9.71978 13.938 9.50283 14.021C9.21227 14.1322 8.88675 13.9855 8.77759 13.6942ZM65.7209 4.94952L65.5815 5.0237C65.1633 5.24608 64.902 5.68105 64.902 6.15465V8.47537C64.902 8.57833 64.8307 8.66758 64.7303 8.69037C63.9762 8.86155 63.9227 9.91556 64.6556 10.1623L65.6913 10.5109C66.0012 10.6152 66.3419 10.5724 66.6164 10.3947L68.5075 9.17018C68.6003 9.11015 68.6854 9.03918 68.7612 8.95881L69.0182 8.68614C69.7571 7.90212 69.1665 6.63776 68.1135 6.63776C67.7562 6.63776 67.4639 6.34745 67.4639 5.99668C67.4639 5.10192 66.5109 4.52938 65.7209 4.94952ZM4.24361 76.0204L4.46511 75.8617L4.24361 76.0204C4.54931 76.4471 5.11822 76.5911 5.59011 76.3612C5.79748 76.2602 6.0019 76.3064 6.12927 76.4166C6.25124 76.5221 6.30729 76.6871 6.21715 76.8788C6.11715 77.0915 6.01758 77.2633 5.92495 77.3776C5.83657 77.4867 5.79141 77.4986 5.79167 77.4997C5.79168 77.4997 5.79169 77.4997 5.79172 77.4997H4.53798C4.28584 77.4997 4.05105 77.3714 3.91485 77.1592L3.84083 77.0439C3.65052 76.7474 3.32242 76.5681 2.97009 76.5681C2.55785 76.5681 2.33009 76.0898 2.58992 75.7698L2.37837 75.598L2.58992 75.7698L2.82304 75.4826C3.09992 75.1416 3.62538 75.1574 3.88121 75.5145L4.24361 76.0204ZM10.666 4.45133L13.9874 3.57665C15.2974 3.23168 16.6463 3.05705 18.0009 3.05705H25.6327C26.1461 3.05705 26.6377 3.25454 27.1349 3.56578C27.556 3.82934 27.9606 4.16056 28.3757 4.50032C28.4543 4.56464 28.5333 4.62927 28.6128 4.69381C29.1018 5.09074 29.6133 5.48504 30.1504 5.7213C30.6982 5.96223 31.2877 6.04546 31.9168 5.80303C32.3348 5.64194 37.6761 3.90694 40.3254 3.04971L45.503 2.14746C47.5303 1.79418 49.6096 2.36256 51.1753 3.69799L51.4083 3.89672C52.8553 5.13089 54.755 5.69882 56.6419 5.46135L61.2864 4.87682C62.0147 4.78517 62.5608 4.16593 62.5608 3.43198C62.5608 2.9287 62.9688 2.52071 63.4721 2.52071H69.0115C69.404 2.52071 69.7928 2.59625 70.1568 2.74321L73.0313 3.90391C73.7909 4.21061 73.969 5.20564 73.363 5.75679C72.6757 6.38191 72.6368 7.44997 73.2769 8.12339L74.4511 9.35875C75.1013 10.0428 75.3598 11.01 75.1377 11.9272L74.7185 13.6582C74.3493 15.1828 74.5358 16.789 75.2444 18.1884L75.3657 18.4279C76.3696 20.4106 76.3376 22.7596 75.28 24.7141L74.956 25.3129C73.8802 27.3011 73.6321 29.6303 74.2414 31.8051C74.566 32.9638 74.888 34.1333 75.1288 35.0477C75.2493 35.5051 75.3489 35.897 75.4183 36.1913C75.4531 36.3386 75.4797 36.4594 75.4976 36.5506C75.5065 36.5963 75.5128 36.6326 75.5168 36.6601C75.5212 36.6904 75.5213 36.7004 75.5213 36.6977C75.5213 36.789 75.4668 37.4497 75.3737 38.4952C75.2818 39.5287 75.1544 40.9164 75.0129 42.4391C74.7304 45.4785 74.3916 49.0551 74.1651 51.4274L73.6279 54.0677C73.4058 55.1591 73.463 56.2889 73.7941 57.3522L74.1903 58.6246C74.6078 59.9654 74.2578 61.4271 73.2784 62.4334C71.4754 64.2859 71.6639 67.2896 73.6842 68.9022L73.8955 69.0708C74.5682 69.6078 75.0432 70.3532 75.2458 71.1898C75.7669 73.3417 74.3842 75.4927 72.2101 75.9121L70.0678 76.3253C69.2579 76.4815 68.4244 76.468 67.62 76.2855L65.3195 75.7636C63.3231 75.3107 61.2634 75.2066 59.2315 75.4559L53.4255 76.1682C51.2812 76.4313 49.1094 76.3701 46.9833 75.9866L42.9565 75.2604C42.3371 75.1487 41.7313 74.9716 41.1492 74.7321L38.5278 73.6536C36.7837 72.9361 34.783 73.2779 33.3761 74.5339C32.037 75.7292 30.1041 75.9862 28.4992 75.1822L27.8021 74.8329C26.3541 74.1075 24.6763 73.9906 23.1417 74.5084L22.8384 74.6107C21.9293 74.9175 20.962 75.0123 20.0105 74.888L13.5365 74.0419C11.9551 73.8352 10.4194 73.3648 8.99342 72.6504L6.29855 71.3003C6.01058 71.1561 5.69294 71.0809 5.37086 71.0809C4.37016 71.0809 3.64026 70.134 3.89502 69.1663L5.50047 63.0679C5.87853 61.6318 5.78541 60.1122 5.23483 58.733L5.165 58.5581C4.58682 57.1098 4.51195 55.5092 4.95238 54.0133L5.45349 52.3112C6.2598 49.5725 6.04667 46.6344 4.85352 44.0408C4.45066 43.165 4.16188 42.2412 3.99426 41.2919L3.77186 40.0324C3.477 38.3624 3.67579 36.6428 4.34387 35.0842L5.83527 31.6047C6.0015 31.2169 5.98231 30.7746 5.78312 30.4026L4.89016 28.7352C4.79808 28.5632 4.97686 28.3726 5.15437 28.4534C5.58447 28.6493 6.08625 28.4027 6.19389 27.9425L6.54002 26.4627C6.64427 26.0171 6.59206 25.5491 6.39216 25.1374L5.87252 24.0671C5.44382 23.1841 5.29591 22.191 5.44869 21.2215L5.938 18.1164C6.02499 17.5643 6.06869 17.0063 6.06869 16.4475V13.7166C6.06869 12.5361 5.58637 11.4068 4.73354 10.5906L4.69105 10.5499C3.83518 9.73072 3.42767 8.54859 3.59695 7.37602C3.91804 5.15193 6.17823 3.74211 8.33245 4.40255C9.08785 4.63414 9.90087 4.65282 10.666 4.45133ZM5.71476 73.7606V73.6287C5.71476 73.2166 6.16951 72.9666 6.51748 73.1874C6.66854 73.2833 6.76007 73.4498 6.76007 73.6287V73.7606C6.76007 74.1092 6.42512 74.3601 6.09049 74.2621C5.86778 74.1969 5.71476 73.9926 5.71476 73.7606Z" stroke="black" stroke-width="0.544966"/>
<path d="M5.21351 8.66357L1.36963 13.1953L2.30025 13.4381L2.1384 13.7618L3.10949 14.4496L1.85517 15.4612H7.15567L4.72796 13.7618L8.40999 11.4959L5.5372 12.2242L9.38108 9.02773L4.32334 11.1317L5.21351 8.66357Z" fill="#2B8962" stroke="black" stroke-width="0.544966"/>
<path d="M55.1403 9.07078L55.6754 3.15253L54.7747 3.48963L54.7207 3.13178L53.5307 3.1282L53.9742 1.57906L49.6397 4.62981L52.6031 4.62222L50.8962 8.59438L52.8263 6.34533L51.5227 11.1717L54.4477 6.54006L55.1403 9.07078Z" fill="#2B8962" stroke="black" stroke-width="0.544966"/>
</svg>
