<svg width="81" height="78" viewBox="0 0 81 78" fill="none" xmlns="http://www.w3.org/2000/svg">
<path d="M74.2625 66.5777L74.0024 66.4964L74.2625 66.5777C74.3428 66.3205 74.335 66.0438 74.2405 65.7915L74.0661 65.326C73.8508 64.7515 73.2088 64.4621 72.6358 64.6814C72.2079 64.8451 71.9254 65.2558 71.9254 65.7139L71.9254 66.2585C71.9254 66.5566 72.0372 66.8438 72.2388 67.0634C72.859 67.7389 73.978 67.4886 74.2514 66.6132L74.2625 66.5777ZM73.7312 66.4508L73.9913 66.532L73.7312 66.4508C73.583 66.9253 72.9764 67.061 72.6402 66.6948C72.531 66.5758 72.4703 66.4201 72.4703 66.2585L72.4703 65.7139C72.4703 65.4816 72.6136 65.2734 72.8305 65.1904C73.1211 65.0792 73.4466 65.2259 73.5558 65.5172L73.7302 65.9827C73.7822 66.1215 73.7864 66.2737 73.7423 66.4152L73.7312 66.4508ZM76.192 71.5776L76.192 71.039C76.192 70.5038 75.8016 70.0486 75.2726 69.9672L73.917 69.7585C73.1822 69.6453 72.4717 70.0739 72.2289 70.7766L72.1926 70.8818C72.0037 71.4285 72.1761 72.035 72.6244 72.4007L73.5559 73.1605C74.0839 73.5911 74.8751 73.2155 74.8751 72.5341L74.8751 72.4247C74.8751 72.2843 75.0203 72.1909 75.1481 72.2491C75.6367 72.4718 76.192 72.1146 76.192 71.5776ZM75.647 71.039L75.647 71.5776C75.647 71.718 75.5018 71.8114 75.3741 71.7532C74.8854 71.5305 74.3302 71.8877 74.3302 72.4247L74.3302 72.5341C74.3302 72.7561 74.0724 72.8785 73.9004 72.7382L72.9689 71.9784C72.6977 71.7572 72.5935 71.3904 72.7077 71.0597L72.744 70.9546C72.9008 70.5008 73.3596 70.224 73.8341 70.2971L75.1897 70.5058C75.4528 70.5463 75.647 70.7727 75.647 71.039ZM9.03266 50.7257L9.02999 50.7074L9.02487 50.6896C8.92287 50.3357 8.76605 50.0818 8.53026 49.9455C8.29443 49.8092 8.04195 49.8272 7.83815 49.8703C7.73457 49.8922 7.63195 49.9232 7.53843 49.9527C7.51569 49.9599 7.49363 49.9669 7.47209 49.9738C7.40127 49.9963 7.33604 50.0171 7.2703 50.0353C7.09463 50.084 6.97859 50.0942 6.8939 50.0695C6.82867 50.0504 6.73654 49.9969 6.64519 49.7918C6.54988 49.5778 6.46893 49.2255 6.42925 48.6603C6.35011 47.533 6.43986 45.6477 6.81015 42.546C6.83208 42.3624 7.00078 40.5043 7.2221 38.0665C7.51846 34.8022 7.90918 30.4985 8.16824 27.7841L8.70549 25.1437C8.92756 24.0524 8.87039 22.9226 8.53927 21.8592L8.14307 20.5868C7.72559 19.246 8.07555 17.7844 9.05495 16.7781C10.8579 14.9256 10.6695 11.9219 8.64914 10.3092L8.4379 10.1406C7.76519 9.60365 7.29015 8.85822 7.08757 8.02167C6.56643 5.86968 7.94916 3.71873 10.1233 3.29935L12.2655 2.88611C13.0755 2.72988 13.909 2.74344 14.7134 2.92594L17.0138 3.44782C19.0103 3.90074 21.07 4.00485 23.1019 3.75555L28.9079 3.04321C31.0522 2.78012 33.2239 2.84133 35.3501 3.22479L39.3768 3.95105C39.9963 4.06277 40.6021 4.23984 41.1842 4.47933L43.8055 5.55778C45.5496 6.27532 47.5504 5.93348 48.9573 4.67755C50.2963 3.48223 52.2293 3.22527 53.8341 4.02927L54.5312 4.37851C55.9792 5.10396 57.6571 5.22079 59.1917 4.70302L60.9191 4.12016L71.4907 2.08556C74.258 1.55298 76.7426 3.86861 76.4061 6.6665C76.309 7.4729 76.4225 8.29066 76.7353 9.0402L77.9716 12.0023C78.6659 13.6659 79.0234 15.4507 79.0234 17.2534L79.0234 17.6487C79.0234 18.4445 78.9307 19.2375 78.7473 20.0118L78.6525 20.4121C78.2689 22.0311 78.3271 23.7234 78.821 25.3122L78.9913 25.8602C79.6203 27.8835 79.3592 30.0788 78.2733 31.8982L75.487 36.5668C74.57 38.1032 75.1705 40.0953 76.7839 40.8688C77.9905 41.4474 78.5266 42.8743 77.9994 44.1042L76.4981 47.6067C76.3319 47.9945 76.3511 48.4369 76.5502 48.8088L77.4432 50.4763C77.5353 50.6482 77.3565 50.8389 77.179 50.758C76.7489 50.5621 76.2471 50.8088 76.1395 51.2689L75.7933 52.7487C75.6891 53.1944 75.7413 53.6623 75.9412 54.0741L76.4608 55.1443C76.8895 56.0273 77.0375 57.0204 76.8847 57.99L76.3954 61.0951C76.3084 61.6471 76.2647 62.2051 76.2647 62.7639L76.2647 65.4948C76.2647 66.6753 76.747 67.8046 77.5998 68.6209L77.6423 68.6615C78.4982 69.4807 78.9057 70.6628 78.7364 71.8354C78.4153 74.0595 76.1551 75.4693 74.0009 74.8089C73.2455 74.5773 72.4325 74.5586 71.6674 74.7601L69.4067 75.3554C67.4399 75.8734 65.3733 75.879 63.4038 75.3717L60.9029 74.7277C60.2336 74.5553 59.5446 74.3481 58.8383 74.1357C58.6767 74.0871 58.5142 74.0382 58.3508 73.9894C57.4767 73.7284 56.581 73.4709 55.6866 73.2787C53.9013 72.8953 52.0875 72.7645 50.4165 73.4084C49.9986 73.5695 44.6573 75.3045 42.008 76.1617L35.4147 77.3107C34.3993 77.4876 33.3881 76.977 32.9277 76.0548C32.4407 75.0793 31.444 74.4628 30.3536 74.4628L24.0836 74.4628C22.8654 74.4628 21.6964 74.9438 20.8309 75.8012C20.2345 76.3919 19.4703 76.7842 18.6427 76.9244L15.5752 77.4442C14.8074 77.5742 14.0301 77.6396 13.2514 77.6396L10.141 77.6396C9.29663 77.6396 8.47129 77.3888 7.76969 76.919C6.29808 75.9335 5.58933 74.1406 5.98935 72.4153L6.45794 70.3942C6.69525 69.3706 6.72363 68.3097 6.54138 67.2749L5.74791 62.7698C5.49822 61.3521 6.25143 59.9479 7.5705 59.3717C9.08373 58.7107 9.96758 57.1189 9.72865 55.485L9.03266 50.7257Z" stroke="black" stroke-width="0.544966"/>
<path d="M7.3205 39.7593L7.85559 33.841L6.95483 34.1781L6.90088 33.8203L5.71087 33.8167L6.15439 32.2675L1.81985 35.3183L4.78324 35.3107L3.07637 39.2829L5.00643 37.0338L3.70283 41.8601L6.62786 37.2285L7.3205 39.7593Z" fill="#2B8962" stroke="black" stroke-width="0.544966"/>
<path d="M7.49705 24.5408L8.32354 24.1514C9.03465 23.8164 9.86865 23.8742 10.5267 24.3041L10.9958 24.6106C11.8176 25.1475 12.027 26.2606 11.4564 27.0594C11 27.6983 11.0323 28.5648 11.535 29.168L12.3751 30.1762C13.1226 31.0732 13.0232 32.4017 12.1505 33.1775C11.5464 33.7144 10.6935 33.8698 9.93889 33.5803L8.26611 32.9387C6.45521 32.2441 5.25977 30.5052 5.25977 28.5657V28.0681C5.25977 26.5584 6.13131 25.1843 7.49705 24.5408Z" fill="#E2A140" stroke="black" stroke-width="0.544966"/>
</svg>
