<svg width="79" height="78" viewBox="0 0 79 78" fill="none" xmlns="http://www.w3.org/2000/svg">
<path d="M64.4954 4.46857L64.3559 4.54274C63.9377 4.76513 63.6764 5.20009 63.6764 5.67369V7.99442C63.6764 8.09737 63.6052 8.18663 63.5047 8.20942C62.7506 8.3806 62.6971 9.4346 63.43 9.6813L64.4657 10.0299C64.7757 10.1343 65.1163 10.0915 65.3908 9.91373L67.282 8.68922C67.3747 8.62919 67.4598 8.55823 67.5356 8.47785L67.7926 8.20518C68.5315 7.42116 67.9409 6.15681 66.8879 6.15681C66.5306 6.15681 66.2383 5.8665 66.2383 5.51573C66.2383 4.62097 65.2853 4.04842 64.4954 4.46857ZM67.139 8.10407L67.3373 8.29096L67.139 8.10407C67.0932 8.15263 67.0418 8.19551 66.9858 8.23178L65.0946 9.45628C64.9596 9.54371 64.792 9.56476 64.6396 9.51344L63.6038 9.16481C63.3927 9.09376 63.4082 8.79017 63.6254 8.74086C63.974 8.66174 64.2214 8.35187 64.2214 7.99442V5.67369C64.2214 5.40158 64.3715 5.15167 64.6118 5.02389L64.7512 4.94972C65.1782 4.72263 65.6933 5.03209 65.6933 5.51573C65.6933 6.17405 66.2362 6.70177 66.8879 6.70177C67.4876 6.70177 67.7906 7.41275 67.396 7.8314L67.139 8.10407ZM3.46547 10.0689L3.27706 10.2658L3.46547 10.0689C2.60959 9.24976 2.20209 8.06763 2.37137 6.89506C2.69245 4.67097 4.95265 3.26116 7.10686 3.92159C7.86226 4.15318 8.67528 4.17186 9.44039 3.97037L12.7619 3.09569C14.0718 2.75073 15.4207 2.57609 16.7753 2.57609H24.4071C24.9205 2.57609 25.4121 2.77358 25.9093 3.08482C26.3304 3.34838 26.735 3.67961 27.1501 4.01936C27.2287 4.08368 27.3077 4.14831 27.3872 4.21285C27.8762 4.60978 28.3877 5.00408 28.9248 5.24034C29.4726 5.48128 30.0621 5.56451 30.6912 5.32207C31.1092 5.16098 36.4505 3.42599 39.0998 2.56875L44.2775 1.6665C46.3048 1.31323 48.3841 1.8816 49.9497 3.21703L50.1827 3.41576C51.6297 4.64993 53.5294 5.21786 55.4164 4.98039L60.0609 4.39586C60.7891 4.30422 61.3353 3.68497 61.3353 2.95102C61.3353 2.44774 61.7432 2.03975 62.2465 2.03975H67.7859C68.1784 2.03975 68.5673 2.11529 68.9312 2.26225L71.8058 3.42295C72.5653 3.72965 72.7434 4.72468 72.1374 5.27583C71.4501 5.90095 71.4113 6.96902 72.0513 7.64243L73.2255 8.8778C73.8757 9.56181 74.1343 10.529 73.9121 11.4462L73.4929 13.1773C73.1238 14.7018 73.3102 16.308 74.0188 17.7075L74.1401 17.947C75.144 19.9297 75.112 22.2786 74.0544 24.2332L73.7304 24.8319C72.6546 26.8202 72.4065 29.1493 73.0158 31.3241C73.3404 32.4829 73.6624 33.6523 73.9032 34.5667C74.0237 35.0241 74.1233 35.4161 74.1927 35.7104C74.2275 35.8577 74.2541 35.9784 74.272 36.0697C74.2809 36.1153 74.2872 36.1517 74.2912 36.1791C74.2956 36.2095 74.2957 36.2194 74.2957 36.2167C74.2957 36.3081 74.2412 36.9688 74.1482 38.0142C74.0562 39.0478 73.9289 40.4354 73.7873 41.9582C73.5049 44.9975 73.166 48.5742 72.9395 50.9464L72.4023 53.5867C72.1802 54.6781 72.2374 55.8079 72.5685 56.8713L72.9647 58.1437C73.3822 59.4844 73.0322 60.9461 72.0528 61.9524C70.2498 63.8049 70.4383 66.8086 72.4586 68.4212L72.6699 68.5899C73.3426 69.1268 73.8176 69.8722 74.0202 70.7088C74.5414 72.8608 73.1586 75.0117 70.9845 75.4311L68.8422 75.8444C68.0323 76.0006 67.1988 75.987 66.3944 75.8045L64.0939 75.2826C62.0975 74.8297 60.0378 74.7256 58.0059 74.9749L52.1999 75.6873C50.0556 75.9503 47.8838 75.8891 45.7577 75.5057L41.7309 74.7794C41.1115 74.6677 40.5057 74.4906 39.9236 74.2511L37.3022 73.1727C35.5581 72.4551 33.5574 72.797 32.1505 74.0529C30.8114 75.2482 28.8785 75.5052 27.2737 74.7012L26.5766 74.352C25.1285 73.6265 23.4507 73.5097 21.9161 74.0275L21.6128 74.1298C20.7037 74.4365 19.7364 74.5314 18.7849 74.407L12.311 73.5609C10.7295 73.3542 9.19382 72.8839 7.76783 72.1695L5.07296 70.8194C4.78499 70.6751 4.46735 70.6 4.14527 70.6C3.14458 70.6 2.41467 69.6531 2.66943 68.6853L4.27488 62.5869C4.65295 61.1508 4.55983 59.6313 4.00924 58.2521L3.93942 58.0772C3.36124 56.6288 3.28636 55.0283 3.7268 53.5323L4.2279 51.8302C5.03422 49.0916 4.82108 46.1535 3.62794 43.5598C3.22507 42.6841 2.93629 41.7602 2.76867 40.811L2.54627 39.5514C2.25141 37.8815 2.4502 36.1618 3.11828 34.6032L4.60969 31.1238C4.77591 30.736 4.75672 30.2936 4.55754 29.9217L3.66458 28.2542C3.57249 28.0823 3.75127 27.8916 3.92879 27.9725C4.35888 28.1683 4.86066 27.9217 4.96831 27.4615L5.31444 25.9818C5.41868 25.5361 5.36647 25.0681 5.16657 24.6564L4.64693 23.5861C4.21823 22.7032 4.07032 21.7101 4.22311 20.7405L4.71242 17.6354C4.79941 17.0834 4.8431 16.5254 4.8431 15.9665V13.2356C4.8431 12.0551 4.36079 10.9259 3.50796 10.1096L3.46547 10.0689ZM1.36433 75.2888L1.15279 75.1171L1.36433 75.2888L1.59745 75.0017C1.87433 74.6606 2.39979 74.6765 2.65562 75.0336L3.01802 75.5394C3.32372 75.9662 3.89263 76.1101 4.36452 75.8802C4.57189 75.7792 4.77632 75.8255 4.90369 75.9356C5.02565 76.0411 5.08171 76.2062 4.99157 76.3979C4.89156 76.6106 4.792 76.7823 4.69937 76.8967C4.61098 77.0058 4.56583 77.0177 4.56609 77.0187C4.56609 77.0188 4.56611 77.0188 4.56613 77.0188H3.3124C3.06025 77.0188 2.82546 76.8905 2.68926 76.6783L2.45995 76.8254L2.68926 76.6783L2.61524 76.5629C2.42494 76.2664 2.09683 76.0871 1.7445 76.0871C1.33226 76.0871 1.10451 75.6089 1.36433 75.2888ZM4.48918 73.2796V73.1478C4.48918 72.7356 4.94392 72.4857 5.29189 72.7065C5.44296 72.8024 5.53448 72.9689 5.53448 73.1478V73.2796C5.53448 73.6283 5.19953 73.8792 4.86491 73.7812C4.6422 73.7159 4.48918 73.5117 4.48918 73.2796Z" stroke="black" stroke-width="0.544966"/>
<path d="M5.20178 8.18262L1.35791 12.7143L2.28853 12.9571L2.12668 13.2808L3.09777 13.9687L1.84345 14.9802H7.14395L4.71624 13.2808L8.39827 11.0149L5.52548 11.7433L9.36935 8.54677L4.31162 10.6508L5.20178 8.18262Z" fill="#2B8962" stroke="black" stroke-width="0.544966"/>
<path d="M55.1286 8.58982L55.6637 2.67158L54.7629 3.00868L54.709 2.65082L53.519 2.64724L53.9625 1.0981L49.628 4.14885L52.5914 4.14126L50.8845 8.11342L52.8145 5.86437L51.5109 10.6907L54.436 6.05911L55.1286 8.58982Z" fill="#2B8962" stroke="black" stroke-width="0.544966"/>
<path d="M70.6972 72.4715L76.5681 73.3899L76.2903 72.4691L76.6509 72.4386L76.7317 71.2513L78.2488 71.7945L75.486 67.2709L75.3011 70.2286L71.4482 68.2673L73.5672 70.3394L68.8357 68.725L73.2675 71.9447L70.6972 72.4715Z" fill="#2B8962" stroke="black" stroke-width="0.544966"/>
</svg>
