<svg width="77" height="78" viewBox="0 0 77 78" fill="none" xmlns="http://www.w3.org/2000/svg">
<path d="M69.0236 68.217L68.6103 68.0868C68.3966 68.0195 68.3364 67.7458 68.5021 67.595C68.9143 67.22 68.8508 66.5542 68.3751 66.2639L67.8866 65.9658C67.5206 65.7424 67.0663 65.7198 66.6799 65.9058L66.1162 66.177C65.4306 66.5068 64.9947 67.2003 64.9947 67.9611V68.2306C64.9947 68.7178 64.669 69.1449 64.1991 69.2737C63.2365 69.5376 62.7364 70.5982 63.1453 71.5087L63.2117 71.6567C63.7015 72.7473 65.1109 73.046 66.0009 72.2477L66.9731 71.3759C67.1786 71.1916 67.4796 71.1612 67.7178 71.3008C68.3866 71.6926 69.2451 71.344 69.4513 70.5968L69.7431 69.54C69.8985 68.9772 69.5805 68.3925 69.0236 68.217ZM67.4876 8.10407L67.6859 8.29096L67.4876 8.10407C67.4419 8.15263 67.3904 8.19551 67.3344 8.23177L65.4432 9.45628C65.3082 9.54371 65.1407 9.56476 64.9882 9.51344L63.9525 9.16481C63.7414 9.09375 63.7568 8.79017 63.974 8.74086C64.3226 8.66174 64.57 8.35187 64.57 7.99442V5.67369C64.57 5.40158 64.7202 5.15167 64.9604 5.02389L65.0999 4.94972C65.5269 4.72262 66.042 5.03209 66.042 5.51573C66.042 6.17405 66.5849 6.70177 67.2366 6.70177C67.8362 6.70177 68.1392 7.41275 67.7446 7.8314L67.4876 8.10407ZM68.4465 68.6066L68.8599 68.7368C69.1369 68.8241 69.2951 69.115 69.2178 69.395L68.926 70.4518C68.815 70.8538 68.3531 71.0414 67.9933 70.8305C67.5506 70.5712 66.9911 70.6277 66.6092 70.9702L65.6371 71.842C65.0218 72.3939 64.0475 72.1874 63.7089 71.4334L63.6424 71.2855C63.3705 70.68 63.7031 69.9747 64.3432 69.7993C65.0498 69.6056 65.5397 68.9633 65.5397 68.2306V67.9611C65.5397 67.4097 65.8556 66.9071 66.3525 66.6681L66.9162 66.3968C67.136 66.2911 67.3945 66.3039 67.6027 66.431L68.0912 66.7291C68.2566 66.83 68.2787 67.0615 68.1354 67.1919C67.6587 67.6256 67.8318 68.4129 68.4465 68.6066ZM71.1189 71.0046L70.1861 71.8751C69.5762 72.4443 69.6275 73.426 70.2935 73.9285C70.9249 74.4049 71.8292 74.235 72.2447 73.562L72.6968 72.8296C72.8816 72.5302 72.9368 72.1685 72.8496 71.8276L72.762 71.4855C72.6101 70.8918 71.9628 70.5751 71.4008 70.8197C71.297 70.8648 71.2016 70.9274 71.1189 71.0046ZM70.5579 72.2735L71.4907 71.4031L71.3048 71.2039L71.4907 71.4031C71.5281 71.3681 71.5712 71.3398 71.6182 71.3194C71.8725 71.2087 72.1653 71.352 72.2341 71.6206L72.3216 71.9627C72.3721 72.1603 72.3402 72.3698 72.2331 72.5433L71.781 73.2757C71.5341 73.6756 70.9969 73.7765 70.6217 73.4935C70.2261 73.1949 70.1956 72.6117 70.5579 72.2735ZM5.26439 7.15287V7.69152C5.26439 8.22671 5.65484 8.68187 6.1838 8.7633L7.53938 8.972C8.27419 9.08513 8.98475 8.65656 9.2275 7.95384L9.26382 7.8487C9.45269 7.30194 9.28026 6.69542 8.83201 6.32979L7.90052 5.56999C7.37253 5.13933 6.58129 5.51501 6.58129 6.19636V6.30578C6.58129 6.44619 6.43609 6.53959 6.30831 6.48137C5.81966 6.25871 5.26439 6.61589 5.26439 7.15287ZM5.80936 7.69152V7.15287C5.80936 7.01245 5.95456 6.91905 6.08234 6.97728C6.57098 7.19994 7.12625 6.84276 7.12625 6.30578V6.19636C7.12625 5.97437 7.38404 5.85198 7.55606 5.99229L8.48755 6.75209C8.75867 6.97323 8.86296 7.34007 8.74872 7.67077L8.7124 7.77591C8.55565 8.22969 8.0968 8.50643 7.6223 8.43338L6.26673 8.22468C6.00359 8.18417 5.80936 7.95775 5.80936 7.69152ZM7.21591 12.939L7.39032 13.4045C7.6056 13.979 8.2476 14.2683 8.82064 14.0491C9.2485 13.8853 9.53105 13.4747 9.53105 13.0166V12.472C9.53105 12.1739 9.4192 11.8867 9.2176 11.6671C8.59738 10.9916 7.47837 11.2419 7.20505 12.1173L7.19395 12.1528C7.11364 12.41 7.12136 12.6867 7.21591 12.939ZM7.90064 13.2132L7.72623 12.7478C7.67421 12.6089 7.66996 12.4567 7.71415 12.3152L7.72524 12.2797C7.8734 11.8052 8.47998 11.6695 8.81618 12.0357C8.92545 12.1547 8.98609 12.3104 8.98609 12.472V13.0166C8.98609 13.2488 8.84282 13.4571 8.62588 13.5401C8.33532 13.6513 8.0098 13.5046 7.90064 13.2132ZM64.844 4.46857L64.7045 4.54274C64.2864 4.76513 64.0251 5.20009 64.0251 5.67369V7.99442C64.0251 8.09737 63.9538 8.18663 63.8534 8.20942C63.0993 8.3806 63.0457 9.4346 63.7786 9.6813L64.8143 10.0299C65.1243 10.1343 65.4649 10.0915 65.7394 9.91373L67.6306 8.68922C67.7233 8.62919 67.8084 8.55822 67.8842 8.47785L68.1412 8.20518C68.8801 7.42116 68.2896 6.15681 67.2366 6.15681C66.8792 6.15681 66.587 5.8665 66.587 5.51573C66.587 4.62097 65.634 4.04843 64.844 4.46857ZM3.36665 75.5394L3.58816 75.3808L3.36665 75.5394C3.67235 75.9662 4.24126 76.1101 4.71316 75.8802C4.92053 75.7792 5.12495 75.8255 5.25232 75.9356C5.37429 76.0411 5.43034 76.2062 5.3402 76.3979C5.2402 76.6106 5.14063 76.7823 5.048 76.8967C4.95961 77.0058 4.91446 77.0177 4.91472 77.0187C4.91472 77.0188 4.91474 77.0188 4.91477 77.0188H3.66103C3.40889 77.0188 3.17409 76.8905 3.0379 76.6783L2.96388 76.5629C2.77357 76.2664 2.44546 76.0871 2.09314 76.0871C1.6809 76.0871 1.45314 75.6089 1.71296 75.2888L1.50142 75.1171L1.71297 75.2888L1.94609 75.0017C2.22296 74.6606 2.74842 74.6765 3.00425 75.0336L3.36665 75.5394ZM9.78902 3.97037L13.1105 3.09569C14.4204 2.75073 15.7694 2.57609 17.124 2.57609H24.7558C25.2691 2.57609 25.7607 2.77358 26.258 3.08482C26.679 3.34838 27.0837 3.67961 27.4988 4.01936C27.5773 4.08368 27.6563 4.14831 27.7358 4.21285C28.2249 4.60978 28.7363 5.00408 29.2735 5.24034C29.8212 5.48128 30.4108 5.56451 31.0399 5.32207C31.4579 5.16098 36.7991 3.42599 39.4484 2.56875L44.6261 1.6665C46.6534 1.31323 48.7327 1.8816 50.2984 3.21703L50.5314 3.41577C51.9784 4.64993 53.8781 5.21786 55.765 4.98039L60.4095 4.39586C61.1377 4.30422 61.6839 3.68497 61.6839 2.95102C61.6839 2.44774 62.0919 2.03975 62.5952 2.03975H68.1345C68.527 2.03975 68.9159 2.11529 69.2799 2.26225L72.1544 3.42295C72.914 3.72965 73.0921 4.72468 72.4861 5.27583C71.7988 5.90095 71.7599 6.96901 72.4 7.64243L73.5742 8.8778C74.2243 9.56181 74.4829 10.529 74.2608 11.4462L73.8416 13.1773C73.4724 14.7018 73.6588 16.308 74.3674 17.7075L74.4887 17.947C75.4926 19.9297 75.4606 22.2786 74.403 24.2332L74.079 24.8319C73.0032 26.8202 72.7552 29.1493 73.3644 31.3241C73.689 32.4829 74.0111 33.6523 74.2519 34.5667C74.3723 35.0241 74.472 35.4161 74.5414 35.7104C74.5761 35.8577 74.6028 35.9784 74.6206 36.0697C74.6295 36.1153 74.6358 36.1517 74.6398 36.1791C74.6442 36.2095 74.6443 36.2194 74.6443 36.2167C74.6443 36.3081 74.5898 36.9688 74.4968 38.0142C74.4048 39.0478 74.2775 40.4354 74.136 41.9582C73.8535 44.9975 73.5146 48.5742 73.2882 50.9464L72.7509 53.5867C72.5289 54.6781 72.586 55.8079 72.9171 56.8713L73.3133 58.1437C73.7308 59.4844 73.3809 60.9461 72.4015 61.9524C70.5985 63.8049 70.7869 66.8086 72.8073 68.4212L73.0185 68.5899C73.6912 69.1268 74.1663 69.8722 74.3689 70.7088C74.89 72.8608 73.5073 75.0117 71.3332 75.4311L69.1909 75.8444C68.381 76.0006 67.5474 75.987 66.743 75.8045L64.4426 75.2826C62.4462 74.8297 60.3864 74.7256 58.3545 74.9749L52.5486 75.6873C50.4042 75.9503 48.2325 75.8891 46.1064 75.5057L42.0796 74.7794C41.4601 74.6677 40.8543 74.4906 40.2722 74.2511L37.6509 73.1727C35.9068 72.4551 33.906 72.797 32.4991 74.0529C31.1601 75.2482 29.2271 75.5052 27.6223 74.7012L26.9252 74.352C25.4772 73.6265 23.7993 73.5097 22.2648 74.0275L21.9615 74.1298C21.0523 74.4365 20.085 74.5314 19.1336 74.407L12.6596 73.5609C11.0781 73.3542 9.54245 72.8839 8.11647 72.1695L5.42159 70.8194C5.13363 70.6751 4.81598 70.6 4.4939 70.6C3.49321 70.6 2.76331 69.6531 3.01807 68.6853L4.62352 62.5869C5.00158 61.1508 4.90846 59.6313 4.35788 58.2521L4.28805 58.0772C3.70987 56.6288 3.63499 55.0283 4.07543 53.5323L4.57654 51.8303C5.38285 49.0916 5.16971 46.1535 3.97657 43.5598C3.57371 42.6841 3.28493 41.7602 3.11731 40.811L2.89491 39.5514C2.60004 37.8815 2.79884 36.1618 3.46691 34.6032L4.95832 31.1238C5.12455 30.736 5.10535 30.2936 4.90617 29.9217L4.01321 28.2542C3.92113 28.0823 4.0999 27.8916 4.27742 27.9724C4.70752 28.1683 5.2093 27.9217 5.31694 27.4615L5.66307 25.9818C5.76732 25.5361 5.71511 25.0681 5.5152 24.6564L4.99556 23.5861C4.56687 22.7032 4.41896 21.7101 4.57174 20.7405L5.06105 17.6354C5.14804 17.0834 5.19173 16.5254 5.19173 15.9665V13.2356C5.19173 12.0551 4.70942 10.9259 3.85659 10.1096L3.8141 10.0689C2.95822 9.24976 2.55072 8.06763 2.72 6.89506C3.04109 4.67097 5.30128 3.26116 7.45549 3.92159C8.2109 4.15318 9.02392 4.17186 9.78902 3.97037ZM4.83781 73.2796V73.1478C4.83781 72.7356 5.29256 72.4856 5.64053 72.7065C5.79159 72.8024 5.88312 72.9689 5.88312 73.1478V73.2796C5.88312 73.6283 5.54817 73.8792 5.21354 73.7812C4.99083 73.7159 4.83781 73.5117 4.83781 73.2796Z" stroke="black" stroke-width="0.544966"/>
<path d="M70.9007 50.5834L70.6213 50.1873C70.3808 49.8464 70.3344 49.4053 70.4986 49.0219L70.6157 48.7485C70.8207 48.2698 71.3832 48.0581 71.853 48.2828C72.2289 48.4626 72.6787 48.3661 72.9478 48.048L73.3974 47.5163C73.7975 47.0432 74.5009 46.9731 74.9865 47.3579C75.3226 47.6242 75.4822 48.0557 75.4003 48.4766L75.2187 49.4097C75.0221 50.4199 74.2233 51.2045 73.2097 51.3827L72.9496 51.4284C72.1607 51.5672 71.3625 51.238 70.9007 50.5834Z" fill="#E2A140" stroke="black" stroke-width="0.544966"/>
<path d="M2.78453 24.5239L3.24145 24.362C3.63459 24.2226 4.07187 24.2972 4.39661 24.559L4.6281 24.7456C5.03361 25.0724 5.08536 25.6712 4.74194 26.0627C4.46723 26.376 4.43851 26.8352 4.67206 27.1802L5.06237 27.7568C5.40967 28.2699 5.28701 28.9661 4.78526 29.3296C4.43799 29.5812 3.97944 29.6181 3.59633 29.4255L2.74704 28.9984C1.82762 28.536 1.2883 27.5548 1.39073 26.5308L1.41701 26.2681C1.49675 25.471 2.02947 24.7915 2.78453 24.5239Z" fill="#E2A140" stroke="black" stroke-width="0.544966"/>
</svg>
