<svg width="79" height="78" viewBox="0 0 79 78" fill="none" xmlns="http://www.w3.org/2000/svg">
<path d="M14.6208 73.1716L14.7603 73.0974C15.1785 72.875 15.4398 72.44 15.4398 71.9664L15.4398 69.6457C15.4398 69.5428 15.511 69.4535 15.6115 69.4307C16.3656 69.2595 16.4191 68.2055 15.6862 67.9588L14.6505 67.6102C14.3406 67.5059 13.9999 67.5487 13.7254 67.7264L11.8343 68.9509C11.7415 69.0109 11.6564 69.0819 11.5806 69.1623L11.3236 69.4349C10.5847 70.219 11.1753 71.4833 12.2283 71.4833C12.5856 71.4833 12.8779 71.7736 12.8779 72.1244C12.8779 73.0192 13.8309 73.5917 14.6208 73.1716ZM11.9772 69.5361L11.7789 69.3492L11.9772 69.5361C12.023 69.4875 12.0744 69.4446 12.1304 69.4084L14.0216 68.1839C14.1566 68.0964 14.3242 68.0754 14.4766 68.1267L15.5124 68.4753C15.7235 68.5464 15.708 68.85 15.4908 68.8993C15.1422 68.9784 14.8948 69.2883 14.8948 69.6457L14.8948 71.9664C14.8948 72.2386 14.7447 72.4885 14.5044 72.6162L14.365 72.6904C13.938 72.9175 13.4229 72.608 13.4229 72.1244C13.4229 71.4661 12.88 70.9384 12.2283 70.9384C11.6286 70.9384 11.3256 70.2274 11.7202 69.8087L11.9772 69.5361ZM69.6758 73.6698L66.3543 74.5444C65.0444 74.8894 63.6955 75.064 62.3409 75.064L54.7091 75.064C54.1957 75.064 53.7041 74.8666 53.2069 74.5553C52.7858 74.2918 52.3812 73.9605 51.9661 73.6208C51.8875 73.5565 51.8085 73.4918 51.729 73.4273C51.24 73.0304 50.7285 72.6361 50.1914 72.3998C49.6436 72.1589 49.0541 72.0756 48.425 72.3181C48.007 72.4791 42.6657 74.2141 40.0164 75.0714L34.8387 75.9736C32.8114 76.3269 30.7322 75.7585 29.1665 74.4231L28.9335 74.2244C27.4865 72.9902 25.5868 72.4223 23.6998 72.6597L19.0553 73.2443C18.3271 73.3359 17.7809 73.9552 17.7809 74.6891C17.7809 75.1924 17.373 75.6004 16.8697 75.6004L11.3303 75.6004C10.9378 75.6004 10.5489 75.5248 10.185 75.3779L7.31044 74.2172C6.55087 73.9105 6.37276 72.9154 6.97875 72.3643C7.66608 71.7392 7.70494 70.6711 7.06487 69.9977L5.89066 68.7623C5.24051 68.0783 4.98194 67.1111 5.20406 66.1939L5.62326 64.4629C5.99245 62.9383 5.806 61.3321 5.0974 59.9327L4.97612 59.6931C3.97219 57.7105 4.00421 55.3615 5.06182 53.4069L5.3858 52.8082C6.46163 50.82 6.70965 48.4908 6.10043 46.316C5.77581 45.1573 5.45375 43.9878 5.21298 43.0734C5.09252 42.616 4.99285 42.224 4.92346 41.9298C4.88871 41.7824 4.86206 41.6617 4.84424 41.5705C4.83532 41.5248 4.82901 41.4885 4.82502 41.461C4.82061 41.4307 4.8205 41.4207 4.8205 41.4234C4.8205 41.3321 4.87504 40.6713 4.96804 39.6259C5.05999 38.5923 5.18734 37.2047 5.32887 35.682C5.61135 32.6426 5.95022 29.066 6.17667 26.6937L6.71392 24.0534C6.93599 22.962 6.87881 21.8322 6.5477 20.7688L6.1515 19.4965C5.73401 18.1557 6.08397 16.694 7.06338 15.6877C8.86637 13.8352 8.67794 10.8315 6.65756 9.21888L6.44633 9.05027C5.77361 8.51331 5.29857 7.76788 5.09599 6.93134C4.57485 4.77935 5.95758 2.6284 8.13168 2.20902L10.274 1.79578C11.0839 1.63955 11.9174 1.65311 12.7218 1.8356L15.0223 2.35749C17.0187 2.8104 19.0784 2.91452 21.1103 2.66522L26.9163 1.95288C29.0606 1.68978 31.2324 1.751 33.3585 2.13446L37.3853 2.86072C38.0047 2.97244 38.6105 3.14952 39.1926 3.38899L41.814 4.46745C43.5581 5.18499 45.5588 4.84314 46.9657 3.58722C48.3048 2.3919 50.2377 2.13494 51.8426 2.93894L52.5397 3.28818C53.9877 4.01363 55.6655 4.13045 57.2001 3.61268L57.5034 3.51035C58.4125 3.2036 59.3798 3.10876 60.3313 3.23311L66.8053 4.07923C68.3867 4.28592 69.9224 4.75625 71.3484 5.47066L74.0433 6.82077C74.3312 6.96504 74.6489 7.04015 74.9709 7.04015C75.9716 7.04015 76.7015 7.98708 76.4468 8.9548L74.8413 15.0532C74.4633 16.4893 74.5564 18.0089 75.107 19.3881L75.1768 19.563C75.755 21.0113 75.8299 22.6119 75.3894 24.1078L74.8883 25.8099C74.082 28.5486 74.2951 31.4867 75.4883 34.0803C75.8911 34.9561 76.1799 35.8799 76.3475 36.8292L76.5699 38.0887C76.8648 39.7587 76.666 41.4783 75.9979 43.0369L74.5065 46.5164C74.3403 46.9042 74.3595 47.3465 74.5587 47.7185L75.4516 49.3859C75.5437 49.5579 75.3649 49.7485 75.1874 49.6677C74.7573 49.4718 74.2555 49.7184 74.1479 50.1786L73.8018 51.6584C73.6975 52.104 73.7497 52.572 73.9496 52.9837L74.4693 54.054C74.898 54.937 75.0459 55.9301 74.8931 56.8996L74.4038 60.0047C74.3168 60.5568 74.2731 61.1147 74.2731 61.6736L74.2731 64.4045C74.2731 65.585 74.7554 66.7143 75.6083 67.5305L75.6507 67.5712C76.5066 68.3904 76.9141 69.5725 76.7448 70.7451C76.4238 72.9692 74.1636 74.379 72.0093 73.7185C71.2539 73.487 70.4409 73.4683 69.6758 73.6698ZM77.7519 2.35131L77.5188 2.63846C77.2419 2.97951 76.7164 2.96367 76.4606 2.60657L76.0982 2.1007C75.7925 1.67397 75.2236 1.52999 74.7517 1.75989C74.5443 1.86092 74.3399 1.81467 74.2125 1.7045C74.0906 1.59901 74.0345 1.43395 74.1247 1.24225C74.2247 1.02957 74.3242 0.857826 74.4168 0.743484C74.5052 0.634376 74.5504 0.622482 74.5501 0.621391C74.5501 0.621376 74.5501 0.62136 74.5501 0.621345L75.8038 0.621345C76.056 0.621345 76.2908 0.749649 76.427 0.961868L76.501 1.07719C76.6913 1.3737 77.0194 1.55299 77.3717 1.55299C77.7839 1.55299 78.0117 2.03127 77.7519 2.35131ZM74.627 4.36054L74.627 4.49235C74.627 4.90449 74.1723 5.15449 73.8243 4.93364C73.6733 4.83777 73.5817 4.67128 73.5817 4.49235L73.5817 4.36054C73.5817 4.01186 73.9167 3.76095 74.2513 3.85897C74.474 3.9242 74.627 4.12848 74.627 4.36054Z" stroke="black" stroke-width="0.544966"/>
<path d="M73.9139 69.458L77.7578 64.9263L76.8272 64.6835L76.989 64.3598L76.018 63.672L77.2723 62.6604L71.9718 62.6604L74.3995 64.3598L70.7174 66.6257L73.5902 65.8974L69.7464 69.0939L74.8041 66.9898L73.9139 69.458Z" fill="#2B8962" stroke="black" stroke-width="0.544966"/>
<path d="M23.9876 69.0508L23.4525 74.9691L24.3533 74.632L24.4072 74.9898L25.5972 74.9934L25.1537 76.5425L29.4883 73.4918L26.5249 73.4994L28.2317 69.5272L26.3017 71.7763L27.6053 66.9499L24.6802 71.5815L23.9876 69.0508Z" fill="#2B8962" stroke="black" stroke-width="0.544966"/>
<path d="M8.41906 5.16862L2.54807 4.25024L2.82595 5.17099L2.46534 5.20158L2.38447 6.38885L0.86742 5.84564L3.63018 10.3692L3.81509 7.41156L7.66799 9.37284L5.54906 7.30077L10.2805 8.91511L5.8487 5.69541L8.41906 5.16862Z" fill="#2B8962" stroke="black" stroke-width="0.544966"/>
</svg>
