<svg width="78" height="80" viewBox="0 0 78 80" fill="none" xmlns="http://www.w3.org/2000/svg">
<path d="M6.02966 7.25346L6.02966 7.7921C6.02966 8.3273 6.42011 8.78245 6.94907 8.86389L8.30465 9.07259C9.03946 9.18571 9.75002 8.75715 9.99277 8.05443L10.0291 7.94929C10.218 7.40253 10.0455 6.79601 9.59728 6.43037L8.66579 5.67058C8.13781 5.23991 7.34656 5.61559 7.34656 6.29694L7.34656 6.40636C7.34656 6.54678 7.20136 6.64018 7.07358 6.58196C6.58493 6.35929 6.02966 6.71647 6.02966 7.25346ZM6.57463 7.7921L6.57463 7.25346C6.57463 7.11304 6.71983 7.01964 6.84761 7.07786C7.33626 7.30053 7.89152 6.94335 7.89152 6.40636L7.89152 6.29694C7.89152 6.07496 8.14931 5.95256 8.32133 6.09287L9.25282 6.85267C9.52394 7.07382 9.62823 7.44066 9.51399 7.77135L9.47767 7.8765C9.32092 8.33027 8.86207 8.60702 8.38757 8.53397L7.032 8.32527C6.76886 8.28476 6.57463 8.05834 6.57463 7.7921ZM7.98118 13.0396L8.15559 13.505C8.37087 14.0796 9.01287 14.3689 9.58591 14.1496C10.0138 13.9859 10.2963 13.5753 10.2963 13.1171L10.2963 12.5725C10.2963 12.2745 10.1845 11.9873 9.98287 11.7677C9.36265 11.0922 8.24365 11.3425 7.97032 12.2178L7.95922 12.2534C7.87891 12.5106 7.88664 12.7872 7.98118 13.0396ZM8.66591 13.3138L8.4915 12.8484C8.43948 12.7095 8.43523 12.5573 8.47942 12.4158L8.49051 12.3803C8.63868 11.9058 9.24525 11.7701 9.58145 12.1363C9.69072 12.2553 9.75136 12.411 9.75136 12.5725L9.75136 13.1171C9.75136 13.3494 9.60809 13.5577 9.39115 13.6407C9.10059 13.7519 8.77507 13.6052 8.66591 13.3138ZM73.189 28.1054L73.1917 28.1237L73.1968 28.1414C73.2988 28.4953 73.4556 28.7493 73.6914 28.8855C73.9273 29.0218 74.1797 29.0038 74.3835 28.9607C74.4871 28.9388 74.5897 28.9078 74.6833 28.8784C74.706 28.8712 74.7281 28.8642 74.7496 28.8573C74.8204 28.8347 74.8856 28.8139 74.9514 28.7957C75.1271 28.7471 75.2431 28.7368 75.3278 28.7616C75.393 28.7806 75.4851 28.8341 75.5765 29.0392C75.6718 29.2532 75.7528 29.6055 75.7924 30.1708C75.8716 31.298 75.7818 33.1833 75.4115 36.285C75.3896 36.4687 75.2209 38.3265 74.9996 40.764C74.7033 44.0283 74.3125 48.3324 74.0534 51.047L73.5162 53.6873C73.2941 54.7787 73.3513 55.9085 73.6824 56.9719L74.0786 58.2443C74.4961 59.585 74.1461 61.0467 73.1667 62.053C71.3637 63.9055 71.5522 66.9092 73.5725 68.5218L73.7838 68.6905C74.4565 69.2274 74.9315 69.9728 75.1341 70.8094C75.6553 72.9614 74.2725 75.1123 72.0984 75.5317L69.9561 75.945C69.1462 76.1012 68.3127 76.0876 67.5083 75.9051L65.2078 75.3832C63.2114 74.9303 61.1517 74.8262 59.1198 75.0755L53.3138 75.7879C51.1695 76.0509 48.9977 75.9897 46.8716 75.6063L42.8448 74.88C42.2254 74.7683 41.6196 74.5912 41.0375 74.3517L38.4161 73.2733C36.672 72.5557 34.6713 72.8976 33.2644 74.1535C31.9253 75.3488 29.9924 75.6058 28.3876 74.8018L27.6905 74.4525C26.2424 73.7271 24.5646 73.6103 23.03 74.128L21.3025 74.7109L10.731 76.7455C7.96372 77.2781 5.47903 74.9624 5.81562 72.1646C5.91263 71.3582 5.7992 70.5404 5.48637 69.7909L4.25012 66.8288C3.55578 65.1652 3.19827 63.3803 3.19827 61.5776L3.19827 61.1823C3.19827 60.3866 3.29093 59.5935 3.47438 58.8192L3.56921 58.4189C3.95278 56.8 3.89459 55.1077 3.4007 53.5189L3.23035 52.9709C2.6014 50.9475 2.86245 48.7522 3.94834 46.9328L6.73472 42.2643C7.65169 40.7279 7.05113 38.7358 5.4378 37.9622C4.23117 37.3837 3.69511 35.9568 4.2223 34.7268L5.72359 31.2244C5.88981 30.8366 5.87062 30.3942 5.67144 30.0223L4.77848 28.3548C4.68639 28.1828 4.86517 27.9922 5.04269 28.073C5.47278 28.2689 5.97457 28.0223 6.08221 27.5621L6.42834 26.0824C6.53259 25.6367 6.48038 25.1687 6.28047 24.757L5.76083 23.6867C5.33213 22.8038 5.18422 21.8107 5.33701 20.8411L5.82632 17.736C5.91331 17.184 5.957 16.626 5.957 16.0671L5.957 13.3362C5.957 12.1557 5.47469 11.0265 4.62186 10.2102L4.57937 10.1695L4.39096 10.3664L4.57937 10.1695C3.7235 9.35035 3.31599 8.16822 3.48527 6.99565C3.80636 4.77156 6.06655 3.36174 8.22077 4.02218C8.97617 4.25377 9.78919 4.27245 10.5543 4.07096L12.815 3.47562C14.7818 2.95769 16.8484 2.95208 18.8179 3.45931L21.3188 4.1034C21.9881 4.27576 22.6771 4.48298 23.3834 4.6954C23.545 4.74399 23.7075 4.79286 23.8709 4.84165C24.745 5.10268 25.6407 5.36021 26.5351 5.55231C28.3203 5.93577 30.1342 6.0666 31.8051 5.42266C32.2231 5.26158 37.5644 3.52658 40.2137 2.66935L46.807 1.5204C47.8224 1.34346 48.8336 1.85405 49.294 2.77623C49.781 3.7518 50.7777 4.36821 51.8681 4.36821L58.1381 4.36821C59.3563 4.36821 60.5253 3.88724 61.3908 3.02988C61.9872 2.43914 62.7513 2.04687 63.579 1.90664L66.6465 1.38691C67.4143 1.25683 68.1916 1.19144 68.9703 1.19144L72.0807 1.19144C72.9251 1.19144 73.7504 1.44226 74.452 1.91208C75.9236 2.89754 76.6324 4.69045 76.2323 6.41578L75.7637 8.43687C75.5264 9.46045 75.498 10.5214 75.6803 11.5562L76.4738 16.0613C76.7235 17.4789 75.9703 18.8832 74.6512 19.4594C73.138 20.1204 72.2541 21.7121 72.493 23.346L73.189 28.1054Z" stroke="black" stroke-width="0.544966"/>
<path d="M49.7067 5.81348L49.2498 5.97542C48.8566 6.11476 48.4193 6.04019 48.0946 5.77843L47.8631 5.59184C47.4576 5.26499 47.4059 4.66624 47.7493 4.27465C48.024 3.9614 48.0527 3.50222 47.8192 3.15719L47.4288 2.58055C47.0815 2.06745 47.2042 1.37132 47.706 1.00782C48.0532 0.756248 48.5118 0.719258 48.8949 0.911917L49.7442 1.33902C50.6636 1.80138 51.2029 2.7826 51.1005 3.80663L51.0742 4.06934C50.9945 4.86644 50.4617 5.54587 49.7067 5.81348Z" fill="#E2A140" stroke="black" stroke-width="0.544966"/>
<path d="M8.88858 77.151L5.95465 78.1908C5.27367 78.4322 4.51625 78.303 3.95375 77.8496L3.55278 77.5264C2.85039 76.9603 2.76075 75.9232 3.35559 75.2449C3.83143 74.7023 3.88118 73.9069 3.47664 73.3093L2.79057 72.2957C2.19456 71.4152 2.40506 70.2205 3.26612 69.5967C3.87435 69.1561 4.68023 69.0998 5.34385 69.4515L8.95597 71.3658C11.2935 72.6046 11.2543 75.9669 8.88858 77.151Z" fill="#E2A140" stroke="black" stroke-width="0.544966"/>
</svg>
