<svg width="76" height="78" viewBox="0 0 76 78" fill="none" xmlns="http://www.w3.org/2000/svg">
<path d="M4.57654 7.00883V7.54747C4.57654 8.08267 4.96699 8.53783 5.49595 8.61926L6.85153 8.82796C7.58633 8.94108 8.2969 8.51252 8.53965 7.8098L8.57597 7.70466C8.76484 7.1579 8.59241 6.55138 8.14416 6.18574L7.21266 5.42595C6.68468 4.99528 5.89343 5.37097 5.89343 6.05231V6.16173C5.89343 6.30215 5.74823 6.39555 5.62046 6.33733C5.13181 6.11467 4.57654 6.47184 4.57654 7.00883ZM5.12151 7.54747V7.00883C5.12151 6.86841 5.26671 6.77501 5.39448 6.83324C5.88313 7.0559 6.4384 6.69872 6.4384 6.16173V6.05231C6.4384 5.83033 6.69619 5.70793 6.8682 5.84824L7.7997 6.60804C8.07082 6.82919 8.1751 7.19603 8.06087 7.52672L8.02455 7.63187C7.86779 8.08564 7.40895 8.36239 6.93445 8.28934L5.57887 8.08064C5.31574 8.04013 5.12151 7.81371 5.12151 7.54747ZM6.52806 12.7949L6.70247 13.2604C6.91775 13.835 7.55975 14.1243 8.13279 13.905C8.56065 13.7413 8.8432 13.3306 8.8432 12.8725V12.3279C8.8432 12.0298 8.73134 11.7426 8.52975 11.5231C7.90953 10.8476 6.79052 11.0979 6.5172 11.9732L6.5061 12.0088C6.42578 12.266 6.43351 12.5426 6.52806 12.7949ZM7.21278 13.0692L7.03838 12.6037C6.98636 12.4649 6.98211 12.3127 7.02629 12.1712L7.03739 12.1356C7.18555 11.6611 7.79212 11.5255 8.12832 11.8916C8.2376 12.0107 8.29824 12.1663 8.29824 12.3279V12.8725C8.29824 13.1048 8.15497 13.313 7.93803 13.396C7.64747 13.5072 7.32194 13.3605 7.21278 13.0692ZM71.7359 27.8607L71.7386 27.879L71.7437 27.8968C71.8457 28.2507 72.0025 28.5046 72.2383 28.6409C72.4741 28.7772 72.7266 28.7592 72.9304 28.7161C73.034 28.6942 73.1366 28.6632 73.2301 28.6337C73.2529 28.6265 73.2749 28.6195 73.2965 28.6126C73.3673 28.5901 73.4325 28.5693 73.4983 28.5511C73.6739 28.5025 73.79 28.4922 73.8747 28.5169C73.9399 28.536 74.032 28.5895 74.1234 28.7946C74.2187 29.0086 74.2996 29.3609 74.3393 29.9261C74.4185 31.0534 74.3287 32.9387 73.9584 36.0404C73.9365 36.224 73.7678 38.0818 73.5465 40.5193C73.2502 43.7837 72.8594 48.0877 72.6003 50.8024L72.0631 53.4427C71.841 54.5341 71.8982 55.6639 72.2293 56.7272L72.6255 57.9996C73.043 59.3404 72.693 60.8021 71.7136 61.8084C69.9106 63.6609 70.0991 66.6646 72.1194 68.2772L72.3307 68.4458C73.0034 68.9828 73.4784 69.7282 73.681 70.5648C74.2021 72.7167 72.8194 74.8677 70.6453 75.2871L68.503 75.7003C67.6931 75.8565 66.8596 75.843 66.0552 75.6605L63.7547 75.1386C61.7583 74.6857 59.6986 74.5816 57.6667 74.8309L51.8607 75.5432C49.7164 75.8063 47.5446 75.7451 45.4185 75.3616L41.3917 74.6354C40.7723 74.5237 40.1665 74.3466 39.5844 74.1071L36.963 73.0286C35.2189 72.3111 33.2182 72.653 31.8113 73.9089C30.4722 75.1042 28.5393 75.3612 26.9344 74.5572L26.2373 74.2079C24.7893 73.4825 23.1115 73.3656 21.5769 73.8834L19.8494 74.4663L9.2779 76.5009C6.51061 77.0335 4.02592 74.7178 4.36251 71.9199C4.45952 71.1135 4.34609 70.2958 4.03326 69.5462L2.79701 66.5842C2.10267 64.9205 1.74515 63.1357 1.74515 61.333V60.9377C1.74515 60.1419 1.83781 59.3489 2.02126 58.5746L2.1161 58.1743C2.49967 56.5553 2.44147 54.8631 1.94759 53.2742L1.77724 52.7262C1.14829 50.7029 1.40933 48.5076 2.49522 46.6882L5.28161 42.0196C6.19857 40.4833 5.59801 38.4912 3.98468 37.7176C2.77805 37.139 2.24199 35.7121 2.76918 34.4822L4.27047 30.9797C4.43669 30.5919 4.4175 30.1496 4.21832 29.7776L3.32536 28.1102C3.23327 27.9382 3.41205 27.7476 3.58957 27.8284C4.01966 28.0243 4.52145 27.7777 4.62909 27.3175L4.97522 25.8377C5.07946 25.3921 5.02726 24.9241 4.82735 24.5124L4.30771 23.4421C3.87901 22.5591 3.7311 21.566 3.88389 20.5965L4.3732 17.4914C4.46019 16.9393 4.50388 16.3813 4.50388 15.8225V13.0916C4.50388 11.9111 4.02157 10.7818 3.16874 9.96556L3.12625 9.9249C2.27037 9.10572 1.86287 7.92359 2.03215 6.75102C2.35323 4.52693 4.61343 3.11711 6.76764 3.77755C7.52304 4.00914 8.33606 4.02782 9.10117 3.82633L11.3619 3.23099C13.3286 2.71306 15.3953 2.70744 17.3648 3.21468L19.8657 3.85877C20.5349 4.03112 21.224 4.23834 21.9303 4.45076C22.0919 4.49936 22.2544 4.54823 22.4178 4.59702C23.2919 4.85805 24.1876 5.11557 25.0819 5.30767C26.8672 5.69114 28.6811 5.82196 30.352 5.17803C30.77 5.01694 36.1113 3.28194 38.7606 2.42471L45.3539 1.27577C46.3693 1.09882 47.3804 1.60942 47.8408 2.53159C48.3279 3.50717 49.3246 4.12358 50.415 4.12358L56.6849 4.12358C57.9032 4.12358 59.0722 3.6426 59.9377 2.78524C60.534 2.1945 61.2982 1.80223 62.1258 1.662L65.1934 1.14227C65.9611 1.01219 66.7385 0.946799 67.5172 0.946799L70.6276 0.946799C71.4719 0.946799 72.2973 1.19762 72.9989 1.66744C74.4705 2.6529 75.1792 4.44581 74.7792 6.17114L74.3106 8.19223C74.0733 9.21581 74.0449 10.2767 74.2272 11.3116L75.0207 15.8167C75.2703 17.2343 74.5171 18.6386 73.1981 19.2147C71.6848 19.8757 70.801 21.4675 71.0399 23.1014L71.7359 27.8607Z" stroke="black" stroke-width="0.544966"/>
<path d="M5.71204 26.4888L1.86816 31.0205L2.79879 31.2633L2.63694 31.587L3.60802 32.2748L2.35371 33.2864H7.65421L5.2265 31.587L8.90853 29.3211L6.03574 30.0494L9.87961 26.8529L4.82188 28.9569L5.71204 26.4888Z" fill="#2B8962" stroke="black" stroke-width="0.544966"/>
<path d="M3.47105 33.895L3.92798 33.7331C4.32112 33.5937 4.75839 33.6683 5.08314 33.9301L5.31462 34.1167C5.72013 34.4435 5.77188 35.0423 5.42847 35.4338C5.15375 35.7471 5.12504 36.2063 5.35858 36.5513L5.74889 37.1279C6.0962 37.641 5.97354 38.3372 5.47178 38.7007C5.12451 38.9522 4.66596 38.9892 4.28286 38.7966L3.43356 38.3695C2.51414 37.9071 1.97482 36.9259 2.07726 35.9019L2.10354 35.6392C2.18327 34.8421 2.71599 34.1626 3.47105 33.895Z" fill="#E2A140" stroke="black" stroke-width="0.544966"/>
</svg>
